<svg width="1235" height="822" viewBox="0 0 1235 822" fill="none" xmlns="http://www.w3.org/2000/svg">
<path d="M524.446 86.3881L523.834 82.942L516.942 84.1658L517.554 87.6119L524.446 86.3881ZM540 194L553.777 156.006L513.985 163.072L540 194ZM517.554 87.6119L531.047 163.597L537.939 162.373L524.446 86.3881L517.554 87.6119Z" fill="#FF0000" fill-opacity="0.7"/>
<path d="M818.618 663.098L817.716 666.48L824.48 668.284L825.382 664.902L818.618 663.098ZM804 502L799.765 542.192L836.69 525.764L804 502ZM825.382 664.902C832.319 638.891 835.909 617.287 835.273 596.002C834.636 574.688 829.769 553.897 820.054 529.48L813.55 532.068C823.045 555.931 827.67 575.906 828.276 596.211C828.884 616.545 825.468 637.414 818.618 663.098L825.382 664.902Z" fill="#FF0000" fill-opacity="0.7"/>
<path d="M811.749 665.295L813.044 668.547L819.547 665.956L818.251 662.705L811.749 665.295ZM694 575L721.05 605.027L733.529 566.587L694 575ZM818.251 662.705C809.156 639.875 797.923 623.699 782.775 611.119C767.69 598.591 748.935 589.809 725.13 581.427L722.806 588.03C746.33 596.313 764.166 604.764 778.302 616.504C792.375 628.191 802.993 643.319 811.749 665.295L818.251 662.705Z" fill="#FF0000" fill-opacity="0.7"/>
<path d="M827.116 658.05L824.166 659.934L827.934 665.834L830.884 663.95L827.116 658.05ZM920 497L900.349 532.316L940.759 531.676L920 497ZM830.884 663.95C864.8 642.291 887.59 622.889 902.143 601.594C916.766 580.196 922.884 557.165 923.996 528.639L917.002 528.366C915.927 555.944 910.061 577.601 896.364 597.644C882.596 617.791 860.73 636.585 827.116 658.05L830.884 663.95Z" fill="#FF0000" fill-opacity="0.7"/>
<path d="M928.836 585.504L925.34 585.668L925.668 592.66L929.164 592.496L928.836 585.504ZM1023 566L982.986 560.324L998.078 597.815L1023 566ZM929.164 592.496C956.376 591.219 974.73 588.017 994.919 581.072L992.642 574.452C973.224 581.132 955.553 584.249 928.836 585.504L929.164 592.496Z" fill="#FF0000" fill-opacity="0.7"/>
<path d="M701.535 569.492L702.027 572.958L708.958 571.973L708.465 568.508L701.535 569.492ZM646 511L668.895 544.304L686.29 507.825L646 511ZM708.465 568.508C706.751 556.442 703.232 547.198 697.737 539.654C692.256 532.129 684.984 526.539 676.162 521.515L672.698 527.598C681.031 532.344 687.391 537.339 692.079 543.776C696.753 550.192 699.942 558.285 701.535 569.492L708.465 568.508Z" fill="#FF0000" fill-opacity="0.7"/>
<path d="M605.975 31.1571L604.132 28.1816L598.181 31.8673L600.024 34.8429L605.975 31.1571ZM609 167L635.256 136.276L595.52 128.9L609 167ZM600.024 34.8429C617.148 62.491 618.98 88.6597 611.296 135.459L618.203 136.593C625.994 89.1504 624.416 60.9323 605.975 31.1571L600.024 34.8429Z" fill="#FF0000" fill-opacity="0.7"/>
<path d="M676.479 5.38025L676.859 1.90097L669.901 1.14046L669.521 4.61974L676.479 5.38025ZM639 92L674.259 72.2493L639.525 51.5889L639 92ZM669.521 4.61974C666.805 29.4681 661.434 45.5729 652.015 63.2801L658.195 66.5675C668.04 48.059 673.669 31.0943 676.479 5.38025L669.521 4.61974Z" fill="#FF0000" fill-opacity="0.7"/>
<path d="M938.319 66.1127L939.431 62.7943L932.794 60.5689L931.682 63.8873L938.319 66.1127ZM877 146L916.268 136.443L888.358 107.214L877 146ZM931.682 63.8873C922.783 90.4265 912.628 105.784 897.257 121.822L902.311 126.666C918.379 109.901 929.084 93.6541 938.319 66.1127L931.682 63.8873Z" fill="#FF0000" fill-opacity="0.7"/>
<path d="M864.021 143.36L867.382 144.339L869.339 137.618L865.979 136.64L864.021 143.36ZM639 184L678.774 176.833L652.681 145.971L639 184ZM865.979 136.64C819.803 123.19 783.858 117.268 751.728 120.767C719.479 124.279 691.413 137.241 660.911 160.896L665.2 166.427C694.973 143.339 721.848 131.063 752.486 127.726C783.245 124.376 818.135 129.995 864.021 143.36L865.979 136.64Z" fill="#FF0000" fill-opacity="0.7"/>
<path d="M864.021 143.36L867.382 144.339L869.339 137.618L865.979 136.64L864.021 143.36ZM639 184L678.774 176.833L652.681 145.971L639 184ZM865.979 136.64C819.803 123.19 783.858 117.268 751.728 120.767C719.479 124.279 691.413 137.241 660.911 160.896L665.2 166.427C694.973 143.339 721.848 131.063 752.486 127.726C783.245 124.376 818.135 129.995 864.021 143.36L865.979 136.64Z" fill="#FF0000" fill-opacity="0.7"/>
<path d="M1072.88 168.635L1074.51 165.541L1068.32 162.27L1066.69 165.365L1072.88 168.635ZM1003 240.927L1043.04 235.412L1018.24 203.497L1003 240.927ZM1066.69 165.365C1053.44 190.42 1041.86 204.876 1025.59 218.952L1030.17 224.246C1047.18 209.523 1059.29 194.346 1072.88 168.635L1066.69 165.365Z" fill="#FF0000" fill-opacity="0.7"/>
</svg>
