<svg width="224" height="190" viewBox="0 0 224 190" fill="none" xmlns="http://www.w3.org/2000/svg">
<path d="M8.26322 108.988L10.9259 109.786L11.233 110.08L11.5384 110.438L11.4039 110.719L11.1251 110.892L10.808 111.031L10.5341 111.263L10.3764 111.635L10.4611 112.332L10.7566 112.895L11.2429 113.453L12.6407 114.479L13.7612 114.894L17.7784 114.484L19.5147 114.558L19.9695 114.343L20.1804 114.017L20.0326 112.905L20.0426 112.523L20.1372 112.163L20.3165 111.856L20.5174 111.57L21.5001 110.628L21.9549 110.1L22.5144 109.215L22.7152 108.724L23.0538 107.618L23.2265 107.269L23.4489 107.007L24.2623 106.554L25.7314 105.435L26.4187 105.251L28.6829 105.199L29.3701 105.087L29.825 104.866L30.5571 103.722L31.1065 103.128L31.5298 102.95L31.9946 102.988L32.4909 103.129L34.5228 103.28L34.9145 103.4L35.5702 103.772L35.8972 103.901L36.4998 104.009L36.7853 103.832L36.87 103.546L36.7853 103.211L36.6592 102.887L36.1728 102.02L36.0466 101.763L35.9935 101.574L36.0151 101.26L36.289 100.877L36.7323 100.455L37.7033 99.8941L38.1582 99.3811L38.8803 98.4034L39.2505 98.3054L39.6405 98.3536L41.1097 98.9478L41.3636 99.147L41.3952 99.4558L41.3005 99.7911L40.5402 101.018L40.2232 101.72L40.107 102.099V102.482L40.2016 102.806L40.434 103.055L40.7727 103.227L52.7213 105.777L53.0384 105.915L53.2526 106.083L53.3223 106.363V106.735L53.294 107.167L53.4003 107.598L53.6543 108.016L54.3415 108.392L54.9325 108.397L55.291 108.181L55.4703 107.809L56.7585 102.11L57.1535 100.955L57.2598 100.56L57.288 100.151L57.2664 99.3379L57.3295 98.4847L57.5121 97.6365L57.7345 97.2098L58.0616 96.7998L58.7272 96.3234L59.2236 96.1673H59.7099L60.1001 96.2869L60.4486 96.4446L60.7557 96.6388L61.287 97.0986L61.5094 97.3476L61.858 97.9369L62.0273 98.2888L62.2497 98.586L62.5768 98.8831L62.8506 98.9047L63.0416 98.8781L65.2842 98.0614L65.6328 97.8622L66.3931 97.1484L66.7417 97.1169L67.0588 97.2148L68.9644 98.3071L69.2915 98.2722L69.5455 98.073L69.9372 97.4539L70.8253 95.6644L71.1108 95.2809L71.3847 95.2212L71.6387 95.3407L72.1881 95.832L72.6779 96.0047L73.5128 96.1126L74.5055 95.7939L75.1181 95.7158L75.5513 95.7723L75.8252 95.9781L76.0477 96.2354L77.3923 98.6291L77.6246 98.9296L77.9832 99.2002L78.3318 99.23L78.6489 99.147L79.8955 98.4017L82.1282 97.7311L82.3822 97.5368L83.1325 96.6404L83.4911 96.3101L84.1136 95.9217L84.5402 95.9814L85.596 96.4728L86.3032 96.4296L86.7048 96.2188L87.4021 95.4735L88.0611 95.0651L88.5159 95.0352L88.833 95.2079L89.0023 95.5L89.15 95.8171L89.4356 96.1607L89.8472 96.4197L90.7768 96.5823L91.2732 96.1424L91.5371 95.7025L91.5587 95.2427L91.5089 94.0376L91.5371 93.6209L91.6218 93.1943L91.748 92.8241L93.3781 89.8511L93.6636 89.451L94.0437 89.0078L95.2621 88.0549L95.6008 87.7146L96.2233 86.8431L96.9205 86.0364L98.6004 84.4494L99.0021 83.8618L99.4039 83.4584L102.312 81.4448L102.535 81.1676L102.725 80.8887L103.011 80.3459L104.135 77.5604L104.537 77.0375L105.159 76.4349L107.276 74.9542L107.666 74.5492L107.74 74.3085L107.803 73.9333L107.877 72.6634L107.855 72.2617L107.813 71.8732L107.729 71.523L107.528 71.2358L107.221 71.0399L106.426 70.8341L106.099 70.6631L105.888 70.4108L105.772 70.0705L105.73 69.6787L105.783 68.4487L105.953 68.0353L106.228 67.6552L107.063 66.8949L107.289 66.5314L108.124 64.1825L108.821 62.8063L108.947 62.4195L109.01 62.0029L108.979 61.6144L108.872 61.2791L108.599 60.64L108.557 60.2914L108.62 59.9163L108.768 59.5577L109.719 57.9624L109.867 57.5873L110.469 53.8124L110.479 53.4091L110.363 53.0704L110.152 52.8032L109.888 52.5791L109.646 52.3251L109.477 52.0445L109.455 51.6627L109.508 51.2975L109.603 50.9456L109.666 50.7464L110.458 49.1761L110.564 48.8059L110.599 48.4407L110.416 48.1601L110.162 47.9344L109.581 47.5194L109.349 47.2704L109.223 46.9733L109.286 46.6346L109.445 46.3126L110.121 45.5291L110.343 45.2369L110.987 43.9022L111.499 43.2001L111.89 42.8647L112.292 42.6606L114.694 42.3817L119.948 38.6766L120.624 38.4525L121.396 38.3479L123.902 38.3595L124.652 38.24L125.849 37.7968L126.367 37.6872L126.706 37.7171L127.086 37.8134L127.34 37.9943L127.519 38.2599L127.614 38.6068L127.667 38.9887L127.752 39.3555L127.868 39.6942L128.016 39.9946L128.195 40.2835L128.437 40.5291L128.711 40.7582L128.944 41.0155L129.081 41.3375L129.154 41.6978L129.229 42.4896L129.324 42.8398L129.481 43.127L129.981 43.6914L130.34 44.226L130.562 44.4932L130.911 44.6708L131.102 44.6376L131.271 44.455L131.387 44.0981L131.566 43.1669L131.746 42.6473L132.094 42.0729L132.443 41.877L132.791 41.9235L133.065 42.1261L133.329 42.3634L133.693 42.5825L134.189 42.7087L135.077 42.6672L135.574 42.5029L135.954 42.2754L136.155 41.9866L136.324 41.6314L136.45 41.2164L136.619 40.3283L136.704 39.6261L136.789 39.2709L137.011 38.7961L137.328 38.6151L137.702 38.5819L138.019 38.7413L138.241 39.0036L138.347 39.3422L138.389 39.7307L138.304 41.8787L138.357 42.2505L138.527 42.551L138.834 42.7585L145.26 43.9703L145.665 43.8823L145.887 43.7728L146.214 43.2233L146.88 41.7791L147.619 40.5557L148.824 39.3207L149.028 39.0252L149.141 38.6533L149.182 38.2566L149.098 37.1162L149.176 36.7609L149.333 36.4472L151.066 34.1547L151.732 32.7238L152.027 31.9569L152.197 31.0655L152.228 30.2006L152.207 29.3905L152.101 28.6286L152.027 28.2833L151.964 27.9281L152.018 27.5961L152.25 27.1445L152.545 26.8922L152.887 26.7163L155.518 25.8979L156.089 25.5958L156.473 25.2538L156.564 24.8753L156.599 24.4786L156.417 23.7747L155.952 22.4368L155.804 21.7014L155.688 20.9278L155.656 20.0945L155.615 19.7028L155.53 19.3492L155.024 18.0212L154.951 17.6643L155.215 17.1314L155.796 16.5106L157.922 14.8855L158.387 14.429L158.714 13.7019L159.063 12.7208L159.358 12.1049L159.644 12.0386L160.319 12.3108L160.809 12.3955L161.632 12.2743L162.087 12.0767L162.467 11.851L163.925 10.3404L164.348 9.76269L164.722 9.09703L164.859 8.72352L164.901 8.32514L164.879 7.93172L164.785 7.57647L164.627 7.26274L164.237 6.70498L164.001 6.44601L163.643 5.92311L163.526 5.68574L163.452 5.47657L163.398 5.16284L163.377 4.78269L163.418 4.35275L163.503 3.92944L163.735 3.37832L164.074 2.80564L164.806 1.8976L165.155 1.53407L165.493 1.28009L166.128 1.06596L166.508 1.01117L167.363 1.10413L167.774 1.24192L168.453 1.60046L169.056 2.02377L169.932 2.37071L170.608 2.52509L171.274 2.4587L171.644 2.5583L171.982 2.92682L172.387 3.61738L172.799 4.73122L173.707 5.97458L173.993 6.26673L174.203 6.62362L174.373 7.0602L174.542 7.83544L174.784 8.37162L175.271 8.9161L175.729 9.14184L177.123 9.45061L177.874 9.74111L178.116 9.91708L178.254 10.0548L179.469 11.8078L179.906 12.0717L180.276 12.1L180.878 11.7646L181.428 11.3463L181.893 10.9181L182.273 10.6541L182.527 10.5445H182.801L183.096 10.684L183.576 11.0824L183.745 11.4559L183.851 12.0004L183.914 13.2587L183.714 13.7915L183.435 14.1484L181.121 14.9552L180.91 15.1477L180.973 15.8399L182.399 20.639L182.578 21.069L183.128 21.5022L183.574 21.7595L185.159 22.3903L185.54 22.47L185.92 22.4617L186.924 22.1164L187.273 22.0998L187.646 22.2426L190.709 28.3696L191.174 29.1083L191.452 29.349L193.069 30.3235L193.355 30.6737L193.524 31.1767L193.609 32.1395L193.577 32.7935L193.493 33.3762L192.933 35.5591L192.892 35.9857L192.902 36.5817L193.071 38.4624L192.945 39.0152L192.744 39.4169L192.47 39.6112L192.196 39.7124L191.901 39.6543L191.288 39.3655L190.925 39.3356L190.598 39.4418L190.324 39.6443L190.123 39.9448L189.997 40.3216L190.176 41.0968L190.598 42.1675L193.021 46.53L194.309 48.1236L194.573 48.3427L194.862 48.4921L195.201 48.5602L195.528 48.4839L196.14 48.1734L196.457 48.0705H196.806L197.155 48.1967L197.419 48.4042L198.358 49.4101L198.854 50.0725L199.132 50.5738L199.301 50.8078L199.512 50.9988L199.776 51.007L200.071 50.9174L200.652 50.5954L200.979 50.5456L201.296 50.6551L203.529 52.4131L203.761 52.8198L203.931 53.4024L204.015 54.5362V55.2235L203.878 57.9409L203.972 58.3708L204.142 58.814L204.628 59.2739L205.02 59.5627L212.422 62.4195L212.729 62.8711L212.951 63.54L213.152 66.5778L213.29 67.1074L213.638 67.8577L213.912 68.281L214.211 68.613L215.997 69.8729L216.23 70.2049L216.452 70.6067L216.938 72.519L216.98 73.0452L216.97 73.7075L216.811 74.8862L216.61 75.5103L216.377 75.9336L216.155 76.1776L214.676 77.0574L214.412 77.2799L214.165 77.5289L213.954 77.8144L211.26 82.3611V82.8591L211.45 83.5115L212.041 84.6652L212.707 85.6811L213.172 86.1742L215.826 89.6983L216.143 90.2992L218.989 97.8589L219.158 98.6607L219.211 100.478L218.947 105.392L218.175 108.332L218.002 108.72L216.492 113.076L216.439 113.436L216.48 113.792L216.935 114.323L217.727 114.998L217.953 115.241L218.164 115.515L218.343 115.8L218.491 116.102L218.999 117.389L219.548 119.859L219.654 121.004L219.623 123.79L219.696 124.497L219.739 124.754L219.802 124.967L220.129 125.875L220.235 126.213L221.397 129.497L221.567 129.776L221.834 129.99L223.059 130.269L223.386 130.433L223.492 130.742L223.482 131.158L223.419 131.577L223.177 132.05L222.775 132.533L219.676 135.116L219.201 135.631L218.852 136.102L218.514 136.419L218.027 136.628L216.935 136.568L215.889 136.22L215.625 135.979L215.33 135.77L215.088 135.529L213.33 134.322L212.591 134.01L212.179 133.957L211.746 134.075L211.291 134.51L211.027 134.918L210.836 135.348L210.699 135.74L210.325 136.399L209.659 137.201L208.423 138.26L208.021 138.426L207.513 138.509L206.646 138.431L206.104 138.3L205.723 138.094L204.92 137.435L204.286 137.055L203.884 137.023L203.492 137.141L203.049 137.591L202.911 137.999L202.817 138.444L202.838 138.851L202.807 139.239L202.765 139.633L202.477 139.963L202.033 140.159H201.104L200.617 140.015L200.3 139.787L200.206 139.458L200.143 139.078L200.016 137.148L199.762 136.072L199.508 135.453L199.371 135.206L196.748 131.637L196.283 130.743L196.167 130.413L196.145 130.031L196.198 127.55L196.177 127.163L196.061 126.824L195.775 126.681L195.373 126.73L194.771 127.213L193.869 128.102L193.511 128.28L193.024 128.376L192.221 128.36L191.122 128.167L190.347 127.898L190.04 127.686L189.849 127.414L189.764 127.053L189.733 126.676L189.626 126.328L189.404 126.081L188.792 125.661L188.581 125.425L188.528 125.078L188.602 124.253L188.571 123.876L188.433 123.576L188.159 123.381L187.81 123.322L187.462 123.483L186.466 124.299L185.727 124.552L184.871 125.373L184.67 125.722L184.617 126.066L184.67 126.416L184.776 126.773L184.851 127.12L184.809 127.44L184.587 127.669L184.238 127.764L183.234 127.53L182.47 127.224L182.068 127.165L181.647 127.246L181.172 127.686L180.887 128.041L179.809 130.103L179.15 131.064L178.315 132.677L178.051 132.986L177.809 133.182L175.375 134.719L174.911 135.186L174.603 135.604L174.318 136.328L174.255 136.686L174.349 136.987L174.56 137.231L174.803 137.47L175.004 137.732L175.141 138.054L175.131 138.462L175.068 138.886L174.984 139.317L174.509 141.009L174.351 141.401L174.003 141.733L173.463 141.965L172.301 142.022L171.742 141.899L171.368 141.641L171.262 141.304L171.103 141.03L170.648 140.982L168.725 141.353L168.267 141.251L168.113 141.064L168.078 140.785L167.952 140.533L167.678 140.318L167.351 140.147L166.981 140.124L166.611 140.267L165.407 141.514L165.037 141.789L161.981 142.812L161.051 143.428L160.523 143.921L160.14 144.649L159.717 145.169L158.872 146.009L158.47 146.593L158.037 146.995L157.477 147.204L156.664 147.011L156.227 146.6L155.963 146.054L155.615 144.306L155.457 143.773L155.256 143.215L155.014 142.757L154.718 142.363L154.401 142.005L152.263 140.559L146.956 138.614L146.418 138.501L144.038 138.418L143.636 138.575L143.15 138.899L142.717 139.741L142.474 140.425L142.051 140.966L141.423 141.228L137.395 141.132L135.303 140.385L134.744 140.313L134.131 140.527L133.515 141.23L133.251 141.894L133.135 142.617V143.972L133.314 145.903L133.336 147.928L133.263 148.565L132.989 149.747L132.682 150.253L132.302 150.708L130.484 152.24L129.847 153.032L129.624 153.524L129.466 154.08L129.372 154.701L129.086 155.854L128.558 157.415L128.04 157.936L127.152 158.457L125.026 159.075L123.588 159.767L122.065 160.275L121.198 160.252L120.66 160.378L120.016 161.103L119.742 161.269L119.394 161.09L119.171 160.804L118.716 159.9L118.537 159.651L118.374 159.485L118.12 159.309L117.065 158.871L116.198 158.739L115.026 158.849L114.643 158.819L113.132 158.319L112.297 158.165L109.907 158.271L109.316 158.464L106.059 160.451L104.96 160.803H102.168L101.65 160.899L101.195 160.882L100.793 160.818L100.486 160.642L99.7143 159.979L98.4543 159.237L96.4158 158.623L94.7542 158.479L93.6453 158.062L92.8419 157.921L89.4372 158.148L88.6554 157.881L88.0279 157.903L85.6093 158.514L84.7958 158.585L84.258 158.467L84.0355 158.226L83.6936 157.665L83.3666 157.489L82.8171 157.458L81.8876 157.564L81.3696 157.464L80.9463 157.32L80.6293 157.126L80.2657 156.998L79.8109 156.95L78.8281 156.993L78.0247 156.817L77.4752 156.822L76.7681 156.993L74.4623 158.318L72.4123 160.283L70.8452 161.437L70.2642 162.229L70.0849 162.733L70.412 163.352L70.5066 163.683L70.5481 164.013L70.558 164.344L70.5265 164.589L69.8924 167.458L69.7546 167.858L69.2483 168.429L66.677 170.71L66.0113 171.503L65.7689 172.058L65.9599 172.303L66.2454 172.516L67.6713 173.138L67.9668 173.346L68.1676 173.596L68.2623 173.93L68.2838 175.964L68.2208 176.792L68.0298 177.633L67.5866 177.965L66.8894 178.261L61.9211 178.83L61.5509 178.766L61.2969 178.563L61.0927 178.324L60.9583 178.02L60.5848 177.454L60.3308 177.215L60.0137 177.053L58.7571 176.85L57.1685 176.935L56.7668 177.111L56.375 177.403L55.9003 178.1L55.6894 178.621L55.5948 179.116L55.5002 179.969L55.4272 180.419L55.2894 180.831L55.1416 181.194L46.3038 185.846L45.9452 186.43L45.7626 186.642L45.4356 186.727L44.9708 186.719L43.9466 186.466L43.4602 186.196L43.1332 185.887L42.9639 185.587L42.753 185.339L42.4791 185.127L42.109 185.004L41.5031 185.105L40.7959 185.44L38.8736 186.981L37.1489 188.815L36.3039 189.131L34.1028 188.95L33.0786 187.866L32.476 187.351L32.149 187.175L31.8103 187.059L31.4302 187.027L31.0716 187.076L30.3711 187.257L27.086 188.673L26.568 188.769L26.2693 188.734L26.0468 188.516L25.9406 188.113L25.9821 187.444L26.1082 187.051L26.2776 186.78L27.506 185.701L27.7284 185.444L28.0986 184.861L28.3094 184.32L28.4571 183.687L28.5833 183.424L28.668 183.327L28.9535 183.341L29.0912 183.311L29.3137 183.183L29.747 182.745L30.0425 182.298L30.1586 182.047L30.2782 181.717L30.3479 181.297L30.391 180.872L30.3695 180.447L29.9362 179.038L28.9535 177.019L27.7068 175.417L27.0196 174.279L26.4353 173.025L26.2875 172.488L26.1398 171.704L26.1298 168.731L26.0667 168.336L25.8758 167.996L25.421 167.713L22.438 166.482L20.1986 164.913L19.7122 164.441L19.3105 163.9L19.1844 163.46L19.1064 162.908L19.2043 161.898L19.4051 161.407L19.6907 161.085L20.8527 160.426L21.1166 160.218L21.2859 159.963L21.2959 159.608L21.0104 159.257L20.6933 159.022L20.3231 158.851L19.9015 158.562L19.4583 158.172L18.8873 157.32L18.4407 157.03L18.0075 156.89L16.1798 157.031L13.7678 156.711L13.4092 156.566L13.0706 155.693L11.8671 149.271L11.5567 148.366L11.2081 148.205L9.58127 147.75L9.30736 147.541L9.09656 147.274L8.90568 146.889L8.71474 146.404L8.51388 145.579L8.4923 145.063L8.73465 144.608L9.00857 144.346L9.83193 143.725L9.98963 143.35V142.822L9.75726 142.018L9.56632 141.543L9.35553 141.163L8.9339 140.649L8.66996 140.423L8.35289 140.245L7.97274 140.144L6.88048 140.149L6.55342 140.044L6.31107 139.835L5.82469 139.344L5.56076 139.13L4.2925 138.411L4.10162 138.154L4.06013 137.852L4.2925 137.493L4.53486 137.204L4.77726 136.778L5.26364 135.3L5.58066 134.885L5.93923 134.649L6.31938 134.605L6.60489 134.371L6.75261 133.962L6.57338 132.792L6.51026 132.593L6.47875 132.511L6.22475 132.037L6.01395 131.776L5.74004 131.567L5.39145 131.422L4.97975 131.343L2.87324 131.261L2.48311 131.144L1.85894 130.768L1.63654 130.511L1.44561 130.242L1.29789 129.855L1.18168 129.389L1.1601 128.625L1.28624 127.97L1.51866 127.34L2.30053 126.202L2.60763 125.911L2.86158 125.724L5.18892 124.348L6.4671 123.805L6.69952 123.463L6.81573 122.956L6.7211 121.927L6.68954 121.286L6.75261 120.737L7.13276 120.242L7.47476 119.968L8.74296 119.318L8.9538 118.962L9.06004 118.483L8.82761 117.405L8.64838 116.833L8.53217 116.283L8.5421 115.855L8.76454 115.262L9.23932 114.567L9.29246 114.142L9.18618 113.639L8.74296 112.957L8.40436 112.58L8.04579 112.311L7.01822 111.805L6.74436 111.584L6.73438 110.828L8.26322 108.988Z" fill="#000E40" stroke="#000E40" stroke-linecap="round" stroke-linejoin="round"/>
</svg>
