<svg width="176" height="100" viewBox="0 0 176 100" fill="none" xmlns="http://www.w3.org/2000/svg">
<path d="M115.426 44.0523L113.348 45.0367L104.755 46.9773L103.622 47.2495L100.403 47.4056L99.2476 47.7127L96.9867 48.8481L95.8247 49.215L94.5647 49.0904L94.002 48.853L93.5023 52.2312L93.5936 54.5469L92.8748 57.7755L91.7693 60.9512L90.7202 63.1207L89.8968 64.0819L88.1156 65.5991L87.2773 66.6848L85.77 70.1592L85.1143 71.19L81.889 72.689L80.3086 72.7039L75.3187 72.7521L70.9877 74.0652L67.7408 73.7331L66.5921 73.9573L64.5287 74.8669L60.9431 75.3185L56.4578 77.1478L23.0154 80.8097L20.0988 82.8532L13.4853 93.8307L10.6467 96.5864L10.6335 96.5914L10.6268 96.6079L6.36559 98.4671L1.25279 99.3802L0.331501 99.5445L0.32983 99.503L0.304931 98.2779L0.326512 97.7732L0.580491 95.4825L0.686749 95.1571L3.88058 87.9394L4.13456 87.126L4.14452 86.7227L4.13456 86.3126L4.07149 85.9192L3.99677 85.554L3.88058 85.2204L3.33777 83.9654L3.15849 83.2665L3.09539 82.883V80.7334L3.03232 80.3499L2.94767 79.988L2.80988 79.6809L2.65217 79.3971L1.62797 78.1073L1.44869 77.8267L1.30094 77.5262L0.741512 75.8447L0.61537 75.101L0.530693 73.441L0.245178 71.5469L0.255133 71.1369L0.286693 70.7999L0.477577 69.8786L0.719931 69.12L3.79758 63.2901L4.13623 62.4518L4.36863 60.6805L4.44166 60.2805L4.73715 59.7792L5.22353 59.2414L6.36395 58.3997L7.06114 58.0993L8.34267 57.7424L8.63814 57.5863L8.89212 57.3772L12.4246 53.2023L13.1533 52.6296L13.7443 52.3424L14.156 52.3059L14.5146 52.1996L14.747 51.9507L14.81 51.4709L14.7154 51.1057L14.4398 50.4484L14.3236 50.113L14.2606 49.7428L14.2074 49.3411L14.229 48.4746L14.2705 48.0364L14.3552 47.6296L14.4714 47.2595L14.7768 46.8146L15.2449 46.3282L16.2376 45.548L17.2203 45.0085L17.9806 44.7197L18.54 44.2648L25.1186 35.7275L30.3659 31.6256L32.8907 30.4636L35.6613 29.5888L38.7605 29.212L40.1449 29.2966L40.9368 29.4975L42.3245 30.0469L42.9902 30.452L43.5928 30.7225L43.9729 30.7923L44.363 30.7873L44.7216 30.6229L45.0486 30.3258L45.3756 29.7132L45.6396 28.88L46.0861 26.2455L46.4563 17.0989L46.3616 15.9884L44.5406 11.0084L43.8335 8.09009L43.6758 6.86505L43.7073 6.41681L43.8235 5.874L44.1821 5.05398L44.4991 4.56426L45.1332 3.79733L45.9616 3.01383L48.5279 0.972015L49.3878 1.65926L50.9133 2.09087L53.903 2.37806L54.4458 2.93749L55.0019 5.39927L55.7622 5.962L56.5125 5.6665L56.7948 4.93448L56.9674 3.99323L57.4139 3.08187L59.2515 1.80202L60.2973 2.72999L61.1207 4.37667L62.3176 5.25652L63.7501 7.09413L64.0074 7.72326L63.9543 8.66117L63.9825 8.94334L67.2959 10.2481L68.4015 10.3809L69.507 10.1834L70.6059 9.39486L71.5322 7.33977L72.339 6.60273L74.0222 7.43111L74.6663 7.37301L75.0049 6.82351L75.2905 5.1403L75.5959 4.55433L76.6666 4.1144L77.3107 4.70869L77.5647 6.10475L77.4584 8.07519V7.37133L76.8343 10.771L76.9007 11.9396L77.6892 13.3822L78.7532 14.4546L80.0696 15.1268L81.3063 15.004L82.1512 13.7009L81.0772 12.0725L80.5278 10.9968L80.2887 9.83144V8.34906L80.4647 7.88259L82.3836 8.07352L83.2502 9.39983L83.1655 12.3248L83.5041 15.248L85.6422 16.5727L89.5963 15.8075L90.8115 15.8821L91.6498 16.2175L93.3612 17.2749L95.5723 18.1314L97.5096 18.2808L99.2492 17.5637L100.848 15.8091L102.101 16.2607L105.383 15.4041L106.645 16.1909L108.431 17.7912L108.905 18.6095L110.109 21.4896L110.989 22.8392L111.912 23.7057L113.055 24.1622L114.594 24.2983L115.693 23.6128L114.679 20.1102L115.27 18.6195L116.062 18.4618L116.558 18.9781L116.882 19.6769L117.171 20.0886L117.886 20.2164L120.175 20.0886L121.629 19.6421L121.369 18.6062L120.228 17.4309L119.035 16.5744L116.468 15.8838L115.187 15.1866L115.061 14.086L116.44 12.8991L117.944 13.2709L120.431 15.17L121.442 15.6L122.506 15.7012L123.344 15.0837L123.689 13.3822L123.397 12.7497L122.119 11.3188L121.827 10.537L122.194 9.56751L122.994 9.53098L123.789 10.1701L124.156 11.2408L124.41 12.9838L125.072 14.1192L125.98 14.0761L126.991 12.2966L127.107 11.2508L126.684 9.70196L126.991 8.84541L127.67 8.21131L128.386 8.08846L129.114 8.34409L129.826 8.84541L129.38 10.9636L129.743 13.012L130.663 14.5608L131.878 15.1717L133.628 14.8413L134.589 13.9898L135.314 12.8294L136.339 11.5894L137.736 10.9453L139.222 11.015L141.712 11.5894L142.642 12.6783L143.06 13.0585L143.349 12.8775L143.634 12.5024L144.036 12.2949L144.864 12.3912L146.237 12.8726L149.192 13.2179L149.833 13.0634L150.288 12.5954L151.098 11.1843L151.481 10.8856H153.83L154.559 11.1146L156.059 12.1023L156.898 12.2932L157.651 12.2368L158.339 12.0725L158.885 11.6575L159.223 10.8856L159.308 9.46457L158.875 9.04131L158.199 8.93007L157.555 8.45863L157.442 7.12234L158.833 6.84509L161.552 7.37301L162.218 7.90584L162.774 8.52834L163.402 8.93837L164.3 8.84207L164.99 8.23953L165.92 6.50648L166.712 5.96367L169.391 6.89159L171.331 8.76573L172.709 11.3636L173.692 14.4678L175.161 21.1493L175.789 22.1271L175.807 22.1619L174.243 24.315L170.11 27.8341L168.969 28.4152L168.04 28.0549L166.102 26.2273L164.793 25.887L162.328 27.1668L158.642 31.8215L158.271 32.2896L155.686 33.6358L153.453 33.5147L146.164 30.7375L144.748 29.8361L144.023 29.6286L143.269 29.8942L143.206 30.6362L143.397 31.5061L143.369 32.185L143.419 32.5934L143.644 33.1627L143.729 33.679L143.362 33.9313L142.539 33.762L141.792 33.8284L141.327 33.5429L140.834 33.4582L140.186 34.1455L137.609 34.5987L135.256 33.1644L133.024 31.2405L130.763 30.2412L130.024 30.4852L129.785 31.1243L129.594 31.8796L129.003 32.5004L128.535 32.4838L127.411 32.0339L127.034 32.0655L126.316 33.0698L126.362 33.9894L126.764 35.2245L127.122 37.1949L127.172 39.1304L126.877 40.4568L126.101 41.1656L124.753 41.2718L123.482 40.6892L122.644 39.5886L121.918 38.3254L120.995 37.2796L119.657 36.76L119.262 37.6281L118.927 38.9495L116.676 40.3754L115.929 41.6039L115.486 43.2124L115.426 44.0523Z" fill="#000E40"/>
</svg>
