<svg width="204" height="222" viewBox="0 0 204 222" fill="none" xmlns="http://www.w3.org/2000/svg">
<path d="M86.1225 29.9686L90.3123 29.5818L92.5516 30.0466L94.1436 31.5389L94.5138 33.355L94.532 35.4018L94.8242 37.1049L96.0742 37.8918L97.2229 37.6693L100.857 35.8367L103.335 35.596L107.437 36.6866L108.693 36.6003L118.077 32.1531L121.102 29.7345L123.081 25.4584L123.904 18.7669L124.545 16.7932L125.201 16.091L126.039 15.5996L126.799 14.929L127.186 13.6724L126.932 12.7228L125.65 10.4071L125.312 9.2136L126.27 5.3873L129.045 4.80465L134.926 6.99585L138.187 5.98491L151.61 13.1279L153.666 13.093L157.702 12.0223L159.702 11.9858L160.851 12.5585L162.879 14.2152L164.119 14.3496L165.338 13.7022L172.373 7.38927L173.609 6.77839L174.225 6.82652L175.12 7.32452L175.748 7.16683L176.275 6.59081L177.071 5.0304L177.74 4.63201L179.043 4.1423L179.919 3.28906L181.677 1.09289L182.783 0.286128L183.712 0.101868L190.379 1.40165L194.784 1.37343L195.956 1.63072L197.618 2.84751L197.386 3.3704L196.864 5.25451L196.673 7.04564L196.494 7.74783L195.618 9.04262L195.279 9.80789L195.141 10.6595L194.972 12.7245L194.814 13.5412L194.12 14.6534L192.339 16.5076L191.981 17.824L192.367 23.1028L192.53 24.147L192.837 24.3428L195.809 25.3637L196.126 25.5878L197.683 27.1399L198.92 28.9145L199.691 29.6947L199.892 29.9868L200.052 30.3188L200.168 30.6691L200.337 30.9895L200.58 31.2468L200.953 31.4045L203.055 31.5456L203.35 31.695L203.466 32.0154L203.509 32.4104L203.425 33.0097L203.245 33.7235L202.791 34.8739L202.411 35.3785L202.009 35.6674L200.551 36.0774L198.953 36.2666L198.076 36.1869L197.696 36.079L197.432 35.8417L197.284 35.5229L197.158 35.1677L196.996 34.8755L196.785 34.6697H196.479L196.172 34.8042L195.918 35.2158L195.77 35.8998L195.802 39.5235L195.739 40.0149L195.601 40.5361L195.243 41.2167L194.926 41.5919L194.618 41.8807L194.418 42.1214L194.364 42.407L194.833 42.6692L195.853 44.5384L196.019 45.6987L195.284 47.0018L191.468 48.3066L189.873 48.5124L188.873 48.9839L186.45 51.0589L185.664 51.5303L182.608 51.3012L181.277 51.6947L181.752 53.0359V53.8576L180.037 54.3058L179.255 55.8878L178.604 57.5877L177.288 58.3795L176.387 59.2576L175.25 61.3774L174.556 63.9737L174.964 66.2794L175.338 67.0995L176.126 69.6658L176.569 70.5074L177.052 71.2129L180.767 74.9612L180.733 76.1846L179.655 77.672L179.517 78.8406L179.708 79.8234L180.047 80.2284L180.437 80.4757L180.786 80.5886L180.987 80.9239L181.093 81.3887L181.388 85.7944L181.621 86.294L181.951 86.6343L182.268 86.8618L182.532 87.1141L182.701 87.4228L182.723 87.7465L182.628 88.047L182.217 88.2844L181.061 88.633L180.787 89.0148L180.618 89.6555L180.724 91.0831L180.925 91.7886L181.189 92.2783L182.545 93.5067L182.788 93.779L182.957 94.101L183.063 94.4065L182.872 94.8314L181.89 96.1495L181.827 96.2009L181.636 96.3088L181.403 96.264L180.935 96.088L178.928 95.019H178.686L178.623 95.268L179.245 97.4824L179.298 97.9074L179.245 98.3689L178.918 98.9681L178.591 99.3018L178.252 99.5276L177.935 99.6969L177.741 100.188L177.698 100.992L178.018 102.715L178.345 103.46L178.684 103.991L179.18 104.448L179.243 104.735L179.2 104.972L178.958 105.379L178.716 105.701L178.546 106.141L178.472 106.71L178.629 107.582L178.692 108.223L178.702 108.807L178.46 109.489L178.174 109.864L177.879 110.142L177.232 110.429L175.774 110.734L174.908 110.726L174.484 110.605L174.126 110.435L173.837 110.21L173.614 109.932L173.445 109.642L172.98 108.291L172.864 108.028L172.748 107.867L172.516 107.653L172.157 107.512L171.755 107.439L171.375 107.496L171.133 107.745L170.9 108.067L170.436 109.144L170.351 109.431L170.372 109.693L170.467 110.049L170.774 110.767L171.398 111.951L171.662 112.735L171.873 113.174L172.19 113.405L172.56 113.45L173.342 113.427L173.669 113.533L173.915 113.77L174.084 114.072L174.147 114.532L174.116 115.07L173.858 115.986L173.724 116.612L173.689 117.203L173.985 117.806L174.283 118.178L175.14 118.966L175.309 119.258L175.341 119.619L175.14 120.053L174.918 120.414L174.748 120.852L174.695 121.373L175.065 122.716L175.15 123.174L175.107 123.556L174.833 123.969L174.516 124.248L172.59 125.233L172.411 125.663L172.326 126.307L172.442 127.583L172.421 128.239L172.21 129.086L171.925 129.418L171.608 129.698L168.107 130.822L167.821 131.237L167.705 131.906L167.736 133.377L168.053 134.278L168.244 134.935L168.307 135.42L168.107 136.122L167.927 136.57L166.329 139.341L166.222 139.696L166.201 140.03L166.543 140.307L169.162 141.106L171.765 142.344L172.167 142.445L172.59 142.485L173.985 142.093L174.315 142.126L174.579 142.317L174.758 142.601L174.821 142.988L174.737 143.4L174.366 143.884L173.402 144.587L173.264 144.879L173.317 145.254L173.638 145.636L173.94 145.921L174.609 146.364L176.035 147.073L179.599 147.888L179.989 147.815L180.274 147.619L180.507 147.311L181.883 144.326L182.125 144.07L182.484 144.05L183.319 144.288L184.069 144.633L184.343 144.914L184.418 145.345L183.868 146.65L182.844 148.574L182.379 149.092L182.115 149.321L181.045 150.558L180.918 150.871L180.875 151.268L180.885 151.721L181.086 152.196L181.34 152.526L182.728 153.732L182.929 154.1L183.035 154.701L182.824 155.833L182.783 158.258L182.824 158.647L182.856 159.502L182.749 160.124L182.539 160.919L181.958 161.841L181.503 162.164L181.088 162.344L180.845 162.558L180.591 162.918L180.369 163.426L178.795 169.628L178.669 170.74L178.638 172.753L178.701 173.851L178.848 174.677L179.081 175.126L179.725 175.939L180.591 176.593L181.078 176.835L181.49 177.192L181.7 177.67V178.333L181.524 179.045L180.928 179.857L180.401 180.33L179.904 180.685L179.512 181.186L179.217 181.875L179.079 183.037L179.038 184.705L178.953 185.144L178.774 185.589L178.319 186.062L177.58 186.545L177.335 186.834L177.228 187.245L177.291 187.929L177.502 188.829L177.58 189.197V189.667L177.454 191L176.827 193.503L174.513 200.318L171.941 205.336L170.949 206.579L169.275 207.268L168.452 207.816L168.05 208.243L167.733 208.752L167.268 210.047L166.973 210.409L166.646 210.658L165.449 211.036L163.907 211.988L163.452 212.454L163.145 212.911L162.743 214.087L162.373 214.999L162.031 215.414L161.692 215.689L160.995 215.91L158.618 216.109L157.516 216.416L151.734 219.639L149.259 219.592L148.9 219.443L148.763 219.152L148.625 218.81L148.255 218.606L147.599 218.573L144.964 219.127L138.037 218.81L136.464 218.327L136.274 218.169L136.137 217.987L135.841 217.416L135.615 216.7L135.531 216.342L135.418 215.977L135.33 215.618L135.097 214.952L134.907 214.673L134.674 214.458L134.316 214.336L133.798 214.257L132.847 214.253L132.339 214.403L130.307 215.905L129.905 215.988L129.609 215.85L129.145 215.337L128.954 215.055L128.499 214.531L128.257 214.326L127.788 214.189L126.036 214.3L121.817 216.3L121.532 216.511L121.29 216.737L120.846 217.3L119.502 219.585L118.751 220.402L117.948 220.993L117.408 221.209L116.934 221.225L116.592 221.074L116.064 220.62L115.747 220.437L111.655 220.475L107.541 217.935L107.13 217.494L106.718 216.908L106.876 216.609L107.087 216.333L107.583 215.842L107.857 215.638L108.099 215.356L108.269 215.035V214.527L108.068 214.245L107.761 214.036L106.947 213.941L106.175 214.044L105.667 214.031L105.065 213.915L104.016 213.407L103.541 213.032L103.214 212.706L103.066 212.441L102.928 212.142L102.865 211.777L102.844 211.39L102.865 210.915L102.844 210.384L102.686 209.685L102.475 209.307L102.243 209.053L100.623 207.667L100.369 207.086L100.327 206.596L100.465 206.176L100.855 205.512L101.609 204.488L101.693 204.4L101.819 204.3L102.02 204.204L102.231 204.179L103.657 204.428L103.763 204.433L103.805 204.421L104.09 204.222L104.27 203.973L104.407 203.608L104.48 203.209L104.565 201.75L104.386 200.235L104.1 199.614L103.699 199.275L100.81 199.304L99.9752 199.199L99.5734 199.078L99.024 198.601L98.3583 197.826L95.9563 194.493L95.0798 193.855L93.1111 191.955L92.3724 191.43L91.7698 191.153L90.2376 191.359L88.8499 191.809L88.5544 191.97L88.312 192.197L88.1742 192.514L88.1211 192.906L88.1111 193.314L88.068 193.694L87.9418 194.03L87.5301 194.548L87.414 194.861L87.3924 195.238L87.4455 195.598L87.477 195.942L87.4023 196.252L87.2015 196.458L86.5989 196.764L86.3134 196.963L86.1026 197.265L85.9199 197.622L85.5083 198.238L85.2858 198.515L85.0219 198.747L84.6832 198.875L84.2932 198.925L81.5741 198.668L81.1624 198.698L80.8038 198.786L80.4868 198.942L80.2228 199.157L79.7365 199.672L79.2932 200.248L79.0392 200.485L78.7122 200.63L77.937 200.738L77.5884 200.841L77.3145 201.04L77.0605 201.304L76.4048 202.175L76.1509 202.419L75.8238 202.557L75.4321 202.595L74.5307 202.529L74.1505 202.574L73.8335 202.723L73.3056 203.183L73.0101 203.361L72.6715 203.472H72.2698L68.1247 202.526L67.8608 202.531L67.5338 202.592L67.2383 202.741L66.9594 202.97L66.2838 203.804L65.565 204.425L60.2165 203.088L58.8288 202.939L57.9307 202.975L57.5821 203.224L57.1389 203.402L56.3886 203.546L55.9238 203.397L55.5436 203.203L54.8962 202.725L54.3368 202.555L53.5864 202.511L53.1432 202.394L52.7731 202.225L52.5191 201.984L52.2966 201.72L52.0958 201.435L51.9381 201.13L51.8318 200.774L51.8418 200.336L51.9364 199.343L51.8734 198.83L51.6277 198.256L51.2575 198.04L50.7611 197.982L49.4199 198.015L48.9866 197.849L48.638 197.63L46.6692 195.623L46.4584 195.346L46.2791 195.047L46.226 194.664L46.2692 194.226L46.48 193.361L46.6709 193.072L46.9249 192.956L47.6221 192.977L47.9524 192.889L48.2164 192.683L48.4272 192.378L48.6064 192.034L48.9135 191.266L49.0298 190.841L49.0829 190.403V189.998L48.8936 188.854L48.5351 187.41L48.3027 186.759L48.0072 186.116L47.6022 185.542L46.641 184.52L45.0773 183.208L44.971 183.047L44.8648 182.763L44.9063 181.862L44.8216 181.311L44.5461 181.047L44.166 180.944L43.0637 180.899L42.1441 180.705L41.7324 180.428L41.5216 180.074L41.5531 179.691L41.6477 179.287L41.7855 178.887L41.8386 178.5L41.7656 178.092L41.2261 177.561L40.9306 177.101L40.6766 176.623L40.4658 176.022L40.1139 175.733L39.7221 175.577L39.3204 175.582L39.02 175.707L38.7245 175.891L37.9211 176.548L37.604 176.704L36.8852 176.889L36.0718 176.955L32.3816 176.588L31.5433 176.63L30.8876 176.905L29.8634 177.855L29.3256 177.963L28.5304 177.908L25.2984 177.011L24.9465 177.106L24.6726 177.323L24.1231 178.341L23.8592 178.653L23.5006 178.889L22.8881 178.98L22.4864 178.857L22.1793 178.646L21.7244 177.939L21.3542 177.479L20.579 176.814L19.998 176.542L19.49 176.425L17.5246 176.981L16.761 176.97L16.3809 176.786L16.1584 176.48L16.18 176.09L16.2862 175.72L16.4439 175.355L17.3885 173.683L18.0442 172.199L18.4675 170.987L18.6899 170.101L19.0485 167.838L19.0585 167.493L18.7729 167.078L18.1819 166.472L15.9592 164.746L15.3467 164.38L11.6565 162.991L10.9692 162.618L10.536 162.266L10.3883 161.939L10.3036 161.573L10.2621 161.167V160.725L10.2937 160.275L10.3667 159.815L10.79 158.006L11.0855 156.087L11.1386 155.191L11.107 154.774L11.0655 154.374L10.8962 153.625L10.79 153.267L10.6422 152.925L10.4729 152.606L10.1243 152.148L8.46268 150.561L7.77543 150.189L7.24752 150.058L6.81428 150.134L6.23327 150.078L5.38503 149.824L4.58157 149.16L4.12676 148.879L3.76819 148.725L3.44114 148.778L3.14569 148.926L2.90334 149.186L2.56468 149.469L2.17293 149.684L1.42926 149.706L1.1022 149.477L0.891407 149.158L0.806755 148.778L0.52124 145.52L0.732033 138.873L0.838265 137.928L2.06336 131.914L2.10652 131.026L2.03681 130.206L1.86746 129.452L1.08229 127.289L0.976059 126.672L1.05078 126.19L1.30474 125.968L1.65666 125.867L2.97801 125.985L3.34818 125.907L3.63374 125.716L3.81297 125.435L3.86612 125.063L3.69347 124.258L3.7383 124.154L3.8263 121.557L4.01222 121.338L5.23062 119.194L5.41325 117.597L7.49488 116.084L9.39227 114.087L8.99055 111.006L9.88529 110.64L9.81391 110.07L9.33584 109.424L8.99055 108.837L8.32154 105.764L8.01946 105.042L7.19108 104.405L6.47896 104.361L5.95439 104.099L5.69045 102.803L5.82825 101.422L6.34284 100.65L7.10977 100.396L8.01779 100.568V99.7483L7.29898 99.4545L6.59518 98.9681L6.0241 98.1431L5.68878 96.8284L6.07891 95.937L5.78341 95.1252L5.07955 94.3948L4.24793 93.769L4.83224 93.2594L5.17089 92.7448L5.68878 91.5247L4.55832 90.9752L2.29077 90.3179L1.50226 89.282V88.6014L1.85419 88.3408L2.08327 88.12L2.36878 87.9325L2.90334 87.7831V87.1025L2.31898 86.7456L0.994296 85.6035V84.7901L2.95313 82.984L3.82295 82.6005L3.56566 81.5348L3.36814 81.1115L3.73496 80.8277L4.2911 79.9993L4.75589 79.5395L4.34753 78.0239L5.14268 75.7049L4.75589 74.2192L5.60747 73.9586L7.72062 73.8905L8.48091 73.5419L8.86106 72.4961L8.95899 71.1349L9.16649 69.8468L9.92344 69.0334V68.2117L9.37399 68.1486L8.01444 67.463L8.85275 66.5068L10.375 65.5025L11.5868 64.2476L11.5237 62.5361L11.0241 61.4853L11.0025 61.0637L11.2979 60.7367L11.7345 59.9415L13.2202 57.9927L13.4111 57.6109L13.7846 57.2772L14.1083 56.5468L14.5449 55.8198L15.946 55.0728L16.1285 54.1349L16.1717 53.1023L16.4323 52.4035L16.9818 52.2159L19.0103 52.4035L19.6013 52.1063L20.2072 51.4307L21.1301 50.1426V49.3856L20.7633 48.9258L20.5807 48.2402L20.6155 47.8435L22.5461 47.0948L23.5188 46.4922L24.3655 45.8L25.1191 44.9833L25.8163 44.0288L25.8379 43.6719L25.7964 43.1025L25.9225 42.4219L26.4571 41.738L27.0132 41.2981L27.4149 41.1155L27.795 41.2964L28.2598 41.9339L30.0344 41.7994L30.6403 40.3635L29.9846 38.8894L27.9909 38.6155L28.22 38.0611L28.371 37.5315L28.5686 36.9871L28.9072 36.4326L28.5055 34.5601L29.5696 33.3915L31.2677 32.842L40.6036 32.2942L43.2264 32.6213L44.8881 33.5691L48.0006 36.25L49.6423 36.8825L51.2409 36.1869L52.3597 34.3311L53.4088 32.1133L54.7816 30.3105L60.1418 28.0911L66.395 28.0596L78.3255 30.3819L86.1225 29.9686Z" fill="#000E40"/>
</svg>
