<svg width="271" height="177" viewBox="0 0 271 177" fill="none" xmlns="http://www.w3.org/2000/svg">
<path d="M137.518 2.61423L139.867 3.0309L140.765 2.80678L141.06 2.63915H141.431L141.864 2.80015L142.498 3.31641L142.994 3.58536L143.695 3.65006L145.247 3.3347L145.649 3.34798L147.363 3.65006L148.685 3.68162L149.023 3.78618L150.186 4.32737L152.164 5.74831L152.692 6.28119L153.019 6.73935L153.188 7.43323L153.305 7.76191L153.537 8.05239L157.978 11.6397L158.411 12.2439L158.647 12.7518L158.92 13.1337L160.78 14.4185L161.118 14.7538L162.315 16.3889L163.235 17.355L167.264 19.6209L168.331 20.5605L169.715 22.0744L170.127 22.2521L170.658 22.3699L171.546 22.3218L172.941 22.0529L173.279 22.0446L176.759 22.5923L177.117 22.5309L177.424 22.3865L177.698 22.1989L178.082 22.1558L178.547 22.2686L179.709 23.2265L180.026 23.5717L180.353 23.7975L180.808 23.9336L182.839 23.8556L183.294 23.9851L183.781 24.2374L184.415 24.7902L184.901 25.0475L185.545 25.0309L185.919 24.8533L186.531 24.4515L187.071 24.4615L189.916 25.3031L191.289 25.9322L192.018 26.4386L192.746 26.4701L193.173 26.3705L193.511 26.1696L193.776 25.9655L194.398 25.6899L194.768 25.6451L195.424 25.4326L195.719 25.2699L196.787 24.4598L197.952 23.7792L201.199 22.6471L202.034 22.0944L202.647 22.2852L203.523 22.8945L205.376 24.6275L205.988 25.4857L206.274 26.1995L206.22 26.6128L206.199 27.0179L206.293 27.3565L206.748 28.077L207.973 29.4648L208.164 29.7221L208.259 30.0109L208.164 30.3263L208.017 30.6583L207.225 31.9415L207.002 32.222L206.748 32.4577L205.005 33.4272L204.499 33.877L204.263 34.1343L204.106 34.4281L204.169 34.6954L204.507 34.883L206.782 34.7485L207.12 34.8498L207.585 35.112L208.762 36.1346L209.3 36.4716L211.106 37.0327L211.677 37.3647L211.899 37.9208L211.878 38.354L212.163 38.872L212.791 39.3667L214.27 40.2249L214.904 40.7112L215.306 41.1395L215.696 42.0725L216.086 42.4592L217.917 43.7623L218.297 44.3134L218.392 44.7467L218.234 45.0189L218.086 45.2215L217.728 45.6215L216.355 46.5428L216.122 46.8184L215.953 47.1703L215.802 47.5438L215.749 47.9339L215.812 48.2642L216.151 48.5896L218.722 50.3874L220.352 52.1353L225.226 56.1791L226.071 57.2216L226.23 57.5088L226.315 57.8159L226.24 58.1695L226.102 58.523L225.173 60.1963L225.025 60.5482L224.94 60.9134L224.993 61.2521L225.173 61.5177L226.262 62.4075L227.47 63.6259L227.646 63.8815L227.724 64.1255L227.605 64.3978L227.429 64.675L225.608 66.8031L225.438 67.0986L225.354 67.4024L225.448 67.6763L226.135 68.415L226.443 68.5395L226.801 68.5212L227.364 68.0581L227.986 67.3675L228.24 67.1501L228.547 67.0521L228.959 67.2098L229.286 67.404L229.804 67.8954L230.08 68.0946L230.566 68.1029L231.169 67.8423L232.302 67.0388L232.525 66.6089L232.472 66.2736L231.901 65.8503L231.668 65.6129L231.605 65.3074L231.7 64.9821L232.82 63.0316L237.767 57.0871L238.859 56.2986L239.283 56.1941L239.842 56.1974L240.929 56.6074L243.954 58.2956L245.021 59.1937L245.37 59.6153L245.803 60.2893L246.026 60.5499L246.522 60.7524L247.307 60.867L249.769 60.6827L250.444 60.4055L250.987 59.7498L252.234 58.865L256.2 58.3537L256.422 59.3281L256.465 59.6618L256.538 60.0801L256.655 60.3988L256.812 60.6711L257.076 60.8636L257.415 60.9118L259.817 60.4486L260.144 60.4802L260.408 60.6445L260.599 60.9001L260.642 61.2255L260.589 61.5376L260.272 61.8281L259.681 62.2481L259.448 62.5037L258.73 63.9297L258.403 64.1853L258.095 64.3878L257.828 64.7398L257.68 65.3357L257.649 67.2928L257.69 67.8406L257.775 68.1411L257.954 68.3137L258.243 68.332L260.388 68.0896L260.695 67.9602L260.949 67.7393L261.14 67.4024L261.288 66.9874L261.774 64.7265L261.937 64.2135L262.244 63.5429L262.592 63.269L262.951 63.1113L265.931 62.8407L266.674 62.9652L266.948 63.1594L267.118 63.4316L267.244 63.7454L267.328 64.0807L267.455 65.1763L267.561 67.4256L267.486 67.824L267.328 68.2175L266.864 68.6274L266.135 69.0209L265.202 69.3927L264.98 69.6218L264.873 69.9671L265.031 70.9498L265.126 71.2901L265.2 71.5076L265.263 71.7682L265.273 72.0736L265.136 72.4056L264.787 72.7011L264.131 73.0696L263.889 73.3535L263.698 73.7519L263.666 76.9225L263.867 77.3076L264.427 77.8123L264.5 78.1077L264.194 78.5609L263.887 78.8414L262.314 79.5685L262.06 79.8308L261.89 80.2442L261.912 81.0592L261.975 81.5838L262.282 82.9898L262.577 85.9612L262.536 86.4692L262.124 88.6968L262.089 89.2131L262.146 89.57L262.252 89.8987L262.412 90.1792L262.644 90.3702L262.961 90.4266L263.268 90.3336L263.871 90.063L264.568 89.9203H264.938L265.277 89.9734L265.552 90.1245L265.715 90.3867L265.821 90.6988L265.891 91.0291L266.02 91.2914L266.284 91.3977L267.836 91.6417L268.175 91.816L268.376 92.0833L268.482 92.4169L268.577 93.5142L268.693 94.218L268.884 94.8687L269.041 95.551L269.637 99.5201L269.659 99.8288L269.709 100.151L269.752 100.508L269.946 101.557L269.956 101.927L269.787 102.44L269.435 103.053L268.452 104.03L267.881 104.442L267.395 104.679L266.708 104.832L266.422 105.064L266.19 105.408L266.042 106.062L266.032 106.532L266.064 106.954L266.518 109.747L266.688 110.41L267.385 112.297L267.523 112.984L267.682 114.425V114.81L267.66 115.2L267.597 115.6L267.174 116.22L266.477 116.997L264.784 118.424L263.949 118.972L263.295 119.214L262.914 119.115L260.502 117.888L257.921 117.129L257.583 116.95L257.307 116.734L257.096 116.465L256.811 115.493L256.62 115.219L256.387 114.981L256.092 114.779L252.095 113.509L251.724 113.487L251.366 113.522L249.038 114.146L247.876 114.128L247.528 114.188L247.211 114.292L246.915 114.44L246.617 114.696L246.343 115.024L246.089 115.652L245.963 116.55L245.709 122.486L245.75 122.939L246.067 124.312V125.464L246.374 126.022L246.723 126.316L247.951 126.505L248.3 126.644L248.574 126.857L248.765 127.131L248.891 127.436L248.985 127.762L249.44 129.023L249.895 129.901L249.98 130.19L249.97 130.447L249.631 130.658L248.892 130.799L246.61 130.814L246.195 130.899L245.783 131.062L245.265 131.44L244.822 131.566L243.692 131.614L243.418 131.825L243.195 132.146L243.034 132.692L242.985 133.138L242.971 133.558L242.985 133.938L243.101 134.319L243.355 134.676L243.977 134.999L244.938 135.28L245.34 135.642L245.582 135.972L246.037 138.323L233.488 140.2L233.202 140.059L232.98 139.833L232.61 139.292L232.377 139.056L232.092 138.879L231.753 138.789L231.391 138.762L230.948 138.879L230.44 139.106L229.701 139.707L229.363 140.2L228.939 141.008L228.474 141.271L227.756 141.407L226.263 141.46L225.513 141.35L224.995 141.173L224.266 140.476L223.971 140.28L223.607 140.152L222.065 140.011L221.717 139.911L221.421 139.739L221.295 139.445L221.242 139.088L221.22 138.726L221.051 137.288L220.978 136.953L220.862 136.659L220.639 136.443L220.322 136.379L219.959 136.365L219.547 136.487L219.114 136.702L218.574 137.268L218.279 137.73L217.899 138.522L217.676 138.789L217.148 138.967L214.039 139.292L213.468 139.207L213.257 138.985L213.088 138.714L212.792 138.52L212.133 138.23L211.986 137.986L211.913 137.655L211.869 137.308L211.69 137.036L211.068 136.638L210.908 136.359L210.834 136.012V135.645L210.918 135.325L211.119 135.144L211.625 135.235L211.933 135.447L212.429 135.934L212.739 135.992L213.098 135.876L213.478 135.366L213.679 134.891L214.228 133.172L214.703 132.074L214.798 131.701V131.349L214.723 131.024L214.597 130.708L214.512 130.376V130.024L214.575 129.661L214.786 128.975V128.726L214.743 128.628L214.585 128.61L212.694 128.753L212.384 128.59L212.193 128.427L212.102 128.23L211.941 128.006L211.708 127.816L211.413 127.677L211.074 127.591L210.8 127.46L210.716 127.161L210.822 126.014L210.812 125.635L210.633 124.199L210.507 123.51L210.39 123.195L210.221 122.913L209.936 122.705L209.577 122.579L208.647 122.411L208.415 122.285L208.224 122.056L208.203 121.718L208.309 121.362L208.5 121.049L208.701 120.77L209.62 119.749L209.811 119.428L209.959 119.086L210.022 118.7L209.959 118.371L209.821 118.079L209.482 117.993L208.986 118.14L206.785 119.631L206.489 119.734L206.078 119.815L205.339 119.805L205.044 119.573L204.884 119.254L204.906 118.467L204.874 118.109L204.516 117.166L204.453 116.811L204.439 116.432L204.496 116.014L204.756 114.689L204.791 114.286L204.728 113.94L204.567 113.648L204.325 113.411L203.998 113.247L203.618 113.167L202.846 113.132L198.795 114.131L195.095 115.657L194.272 115.77L193.754 115.68L192.736 113.994L192.504 113.751L192.208 113.54L191.86 113.378L188.54 112.714L188.213 112.539L187.949 112.312L187.082 111.291L186.533 110.479L186.31 110.229L186.068 109.988L185.761 109.8L185.378 109.653L184.574 109.541L182.662 109.814L179.816 110.629L179.204 110.934L178.105 111.826L176.548 113.423L175.882 113.874L174.805 114.268L174.199 114.399H173.713L173.502 114.336L172.509 113.803L161.807 111.889L157.357 109.663L155.984 109.268L155.34 109.214L151.66 109.873L150.473 110.159L149.85 110.343L149.279 110.275L147.41 109.43L146.688 109.331L145.547 109.366L144.146 109.666L143.685 109.975L143.069 110.28L141.889 110.433H141.233L140.589 110.312L139.826 110.597L138.758 111.21L136.529 113.119L134.761 114.236L130.87 114.246L130.5 114.133L130.226 113.926L130.088 113.625L129.993 113.29L129.867 112.594L129.794 111.86L129.784 111.172L129.806 110.629L129.774 110.323L129.595 110.096L129.278 110.003L128.898 109.963L128.518 109.973L128.137 110.167L127.774 110.508L127.457 111.417L127.414 111.952L127.467 112.408L127.762 113.389L128.121 114.254L128.164 114.465L128.179 114.613L128.073 115.016L127.975 115.303L127.89 115.828L127.752 118.28L127.626 118.603L127.384 118.954L126.454 119.56L126.116 119.86L125.946 120.466L125.925 120.908L126.031 121.266L126.232 121.46L126.559 121.545L127.297 121.576L127.646 121.635L127.888 121.822L128.008 122.083L128.051 122.335L128.073 122.903L128.101 123.235L128.164 123.592L128.284 123.907L128.431 124.201L128.642 124.452L128.896 124.689L129.562 125.044L132.065 125.707L132.395 125.879L132.628 126.117L132.787 126.415L132.956 127.083L132.978 127.46L132.936 127.866L132.852 128.303L132.651 128.754L132.324 129.164L131.592 129.501L128.602 130.174L128.181 130.418L126.359 131.975L125.989 132.468L125.725 133.182L125.609 133.704L125.535 134.184L125.544 134.568L125.566 134.941L125.661 135.271L125.808 135.565L126.263 136.045L131.539 139.282L131.954 139.684L132.067 139.878L132.11 140.046L132.088 140.354L132.004 140.731L131.828 141.151L131.222 142.305L130.989 142.919L130.915 143.402L130.946 143.782L131.021 144.118L131.115 144.448L131.178 144.792L131.169 145.19L130.915 146.49L130.893 146.857L131.062 147.129L131.401 147.302L132.619 147.65L134.256 147.877L134.605 148.035L134.847 148.268L134.91 148.616L134.92 149.01L134.148 153.732L133.63 155.299L133.091 158.296L132.658 160.015L131.64 162.633L131.534 162.979L131.502 163.344L131.597 163.653L131.823 163.893L133.154 164.932L133.577 165.407L133.747 165.689L133.853 166.013L133.874 166.383L133.843 166.775L133.41 168.933L133.315 169.243L132.925 170.048L132.545 170.515L132.322 170.706L131.706 170.819L127.234 170.55L120.234 169.212L114.421 166.743L111.016 166.237L110.277 166.383L100.885 170.854L92.2582 172.64L84.3815 175.342L81.2291 175.795L74.4646 175.108L63.8057 171.705L62.3018 171.778L53.6316 174.072L46.9484 174.494L46.1566 174.321L45.9873 174.041L45.6171 172.993L45.491 172.719L45.3018 172.394L44.9 171.992L44.4037 171.919L42.8682 172.075L42.4349 171.934L42.1809 171.679L42.0747 171.355L41.8107 170.377L41.5568 169.705V169.371L41.6514 169.029L41.7892 168.664L42.3171 167.719L42.4548 167.417L42.4764 167.104L42.3503 166.733L42.0863 166.34L41.5684 165.815L41.1351 165.633L40.7118 165.557L36.6515 166.39L36.2498 166.559L36.0356 166.69L35.8879 166.918L35.8464 167.238L35.8779 167.575L35.9941 168.284L36.0157 168.654L35.9941 169.024L35.868 169.368L35.6771 169.633L35.4231 169.861L34.8421 170.145L27.6094 171.599L27.2924 171.713L27.0284 171.896L26.8375 172.167L26.7213 172.479L26.6583 172.797L26.6151 173.123L26.552 173.229L26.3728 173.372L25.9179 173.636L25.4846 173.657L25.0796 173.593L24.3409 173.131L23.6968 172.56L23.2536 172.072L23.0743 171.79L22.9365 171.493L22.8204 171.181L22.5664 170.19L22.334 169.564L21.6683 169.194L20.5561 168.792L15.5346 167.719L14.9436 167.331L13.951 166.418L13.6306 166.245L8.43976 164.796L2.71111 163.903L2.19981 163.707L1.9608 163.525L1.81971 163.196L1.78815 162.736L2.0106 161.951L2.21475 161.536L2.38411 161.277L3.21907 160.417L3.60915 159.843L3.74694 159.383L3.76852 158.759L3.6208 157.753L3.48301 157.183L3.33529 156.734L2.81735 155.505L1.72508 153.497L1.32336 152.58L1.25031 152.253V151.936L1.52422 151.601L2.08694 151.224L2.49865 151.03L5.06666 150.308L8.03803 150.036L8.28043 149.737L8.33352 149.182L7.95338 147.873L7.59481 147.28L7.2562 146.855L6.97069 146.656L6.72834 146.43L6.52747 145.98L6.46435 145.288L6.49591 139.679L6.59054 138.983L6.70676 138.432L6.86446 138.079L7.0022 137.717L7.09683 137.275L7.19146 134.949L7.33918 134.408L7.54005 134.03L7.76249 133.781L7.96336 133.5L7.99492 133.069L7.78407 132.501L7.06527 131.54L6.60047 131.266L6.15725 131.145L5.80538 131.213L5.42523 131.223L5.0351 131.175L4.7081 131.027L4.51721 130.645L4.49563 130.038L5.0351 128.145L5.44681 127.167L5.4999 126.528L4.76119 125.884L5.4999 122.47L6.27514 119.848L6.54905 119.526L7.04536 119.161L7.5633 119.048L8.34517 118.505L8.83155 117.841L9.44407 116.62L9.94043 115.934L10.5363 115.365L11.5075 114.633L12.0785 114.311L12.5433 114.148L15.103 114.372L16.7514 113.916L17.2096 113.605L17.505 113.257L17.7374 112.481L17.8321 112.05L17.9051 111.216L17.8636 110.451L17.769 109.712L17.7474 108.926L17.8951 108.066L18.2338 106.844L18.5923 105.073L18.8463 104.734L19.1418 104.603L19.3958 104.664L19.5435 104.9L19.6697 105.191L20.2191 107.946V108.237L20.1129 108.501L19.9336 108.78L19.7759 109.075L19.6913 109.419L19.6813 109.789L19.7029 110.164L19.8722 111.24L20.01 111.582L20.2424 111.851L20.6756 112.007L20.9495 111.836L21.1537 111.54L21.6616 109.905L22.2642 108.454L22.4435 108.122L25.2041 105.054L25.5743 104.397L25.8067 103.755L26.0806 103.506L26.4076 103.489L26.6931 103.677L26.9156 103.922L27.0948 104.203L27.3057 104.462L27.5381 104.673L27.7921 104.847L28.1191 104.927L28.5523 104.937L29.369 104.805L29.8123 104.6L30.1509 104.341L30.7319 103.58L33.4609 100.971L33.6618 100.685L34.4221 99.208L34.7807 98.9573L35.1824 98.8627L35.6887 98.8527L36.2165 98.7681L37.0018 98.5141L37.3404 98.134L37.5313 97.7057L38.2285 92.8651L38.25 92.4584L38.197 92.1032L38.0276 91.8193L37.7321 91.6201L36.9503 91.3396L36.6548 91.1653L36.5071 90.9262L36.4506 90.7669L36.4291 90.6872L36.3444 89.8107L36.112 84.4622L35.7202 82.3391L35.6987 81.9606V81.5572L35.6455 81.1787L35.5393 80.8716L35.2538 80.684L34.9367 80.5512L34.6943 80.3637L34.5881 80.0582L34.4819 79.2282L34.5449 78.6107L34.8089 78.2289L35.2421 77.7907L35.3799 77.4221L35.37 77.0768L33.9324 73.6655L33.7415 72.9883L33.7316 72.6065L33.8162 71.8313L33.8062 71.5441L33.5523 71.4644L32.9613 71.4113L32.8003 71.3482L32.7372 71.3034L32.6525 71.1274L32.5612 70.8751L32.4832 70.4684L32.4334 69.9654L32.5181 69.1471L32.709 68.7105L32.963 68.3884L34.9068 67.0903L40.7766 64.758L40.9343 64.8692L41.1036 65.4087L41.3991 65.4403L41.907 65.1979L43.7446 63.2241L44.075 62.9685L44.1663 62.9253L44.3705 62.7876L51.5898 59.3099L52.121 58.9131L54.5712 56.3053L55.0459 56.0115L55.3979 55.9368L55.778 55.9102L56.2743 55.7774L56.8553 55.5367L57.7534 54.871L58.1452 54.3913L58.3029 53.9647L58.1452 53.6874L57.8281 53.5165L55.1721 52.8757L54.8019 52.7097L54.6011 52.4375L54.4948 52.1088L54.4417 51.7436L54.3255 51.4149L54.1778 51.1294L53.9038 50.9369L49.8867 50.7078L49.475 50.6165L49.1264 50.467L47.6324 49.4429L47.2838 49.2718L43.4774 48.5995L43.1388 48.4452L42.8748 48.2261L42.674 47.9638L42.3669 46.9711L42.2407 46.6557L42.0714 46.3619L41.829 46.1212L41.1849 45.7477L40.9309 45.5153L40.7301 45.2447L40.5724 44.9559L40.3616 44.262L40.2836 43.8885L40.3466 43.261L41.3426 41.7006L41.7659 41.2192L42.1776 40.9337L42.5262 40.8955L42.8648 40.9868L43.0973 41.2009L43.245 41.5064L43.4359 41.7836L43.7098 41.9944L44.1215 42.0558L44.558 41.9944L47.2091 39.7252L47.6523 39.5758L48.064 39.5974L48.4906 39.6837L48.8823 39.8198L49.1463 40.0473L49.3156 40.3411L49.4102 40.6731L49.5679 41.3736L49.6841 41.694L49.9066 41.9513L50.2552 42.1056L50.6569 42.1753L51.0902 42.0625L51.5018 41.7786L52.8365 40.0356L53.0789 39.8065L53.3644 39.6306L53.7345 39.5825L54.1678 39.6306L54.5795 39.7484L54.9065 39.9244L55.0758 40.2182L55.0858 40.6033L54.8949 41.9264L54.958 42.3032L55.1488 42.5389L55.6352 42.4161L55.9772 41.9662L56.4105 41.1163L56.7176 40.7743L56.9915 40.7643L57.1293 41.0366L57.1608 41.4051L57.1508 41.8168L57.1724 42.26L57.2255 42.5754L57.5957 43.3124L57.6173 44.2952L57.8497 44.4844L58.1883 44.6471L58.6216 44.5558L58.8855 44.2935L59.0964 43.9632L59.259 43.5864L59.7985 41.9413L60.2849 41.0134L60.8443 40.6614L61.2361 40.1485L61.754 39.3201L62.3665 38.8222L62.6621 38.3408L62.8098 37.939L62.8629 37.5108L63.2679 36.1944L65.0109 33.55L65.5919 34.1443L73.2362 39.5526L73.7326 39.687L74.7054 39.526L75.195 39.5841L75.6001 39.8414L76.4035 40.6083L76.8235 40.9121L77.9755 41.3769L81.5395 41.9762L83.6245 43.095L85.7692 45.7875L86.6855 45.9154L88.6161 44.5591L90.1051 43.1763L90.3192 42.8991L90.5201 42.6053L90.6364 42.2949L90.6148 41.9745L90.4354 41.7073L90.1683 41.4881L89.8511 41.2989L89.5773 41.0831L89.3449 40.8324L89.2386 40.4954L89.2286 40.1054L89.2386 39.7152L89.3017 39.3301L89.4594 38.9965L90.8472 37.4261L91.5975 37.031L91.9046 36.6326L92.0307 36.2658L91.893 34.7618L91.883 34.3717L91.8083 34.0181L91.6921 33.6911L91.5444 33.3906L91.2987 33.14L89.3199 31.2293L89.1606 30.9355L89.076 30.5985L89.0328 30.2184V29.8266L89.1589 28.5401L89.2652 28.1119L89.3914 27.7151L90.047 26.251L90.99 23.3975L91.1808 23.0654L91.4664 22.6637L91.8681 22.2553L92.6284 21.6328L93.8849 21.1979L94.7764 21.0967L95.2511 20.8842L95.5366 20.5754L95.5898 20.2102L95.4952 19.9131L95.1996 19.7604L94.524 19.7388L94.1124 19.6525L94.0277 19.6076L93.9845 19.5413L93.8866 19.3636L93.8451 19.0898L93.9431 18.7627L94.1124 18.444L94.3547 18.1568L96.0563 16.7342L97.0489 15.7033L97.9187 14.4401L98.0765 14.0848L98.1611 13.6732L98.1826 13.2731L98.045 12.5427L98.0549 12.1692L98.2873 11.6928L98.6459 11.5749L99.0575 11.5915L99.7962 11.8953L112.019 6.49199L114.421 6.15338L119.97 4.46349L120.618 4.14641L121.051 3.83932L121.707 2.96119L122.435 2.23408L122.942 1.8822L123.501 1.59167L123.893 1.48711L125.608 1.58336L126.116 1.40575L126.665 0.964208L127.077 0.826415L127.478 0.844703L129.394 1.60662L129.67 1.8357L129.839 2.09467L129.807 2.41504L129.628 2.67066L129.132 3.12219L128.952 3.4077L128.868 3.74469L128.889 4.08664L129.153 4.38213L129.577 4.57636L130.39 4.62286L130.845 4.46349L131.193 4.2261L131.384 3.89742L131.544 3.53389L131.779 2.64746L131.949 2.13616L132.188 1.61989L132.731 0.984117L133.164 0.725147L133.587 0.600677L133.999 0.638824L134.791 0.891157L135.498 1.24638L137.518 2.61423Z" fill="#000E40" stroke="#000E40" stroke-linecap="round" stroke-linejoin="round"/>
</svg>
