<svg width="174" height="242" viewBox="0 0 174 242" fill="none" xmlns="http://www.w3.org/2000/svg">
<path d="M171.651 142.034L160.821 141.604L157.665 142.924L155.3 145.799L153.58 149.765L152.376 154.395L151.82 158.653L151.095 160.269L149.631 160.414L147.235 159.456L146.165 159.647L144.883 160.636L142.362 163.516L141.087 164.604L139.354 165.379L125.093 167.353L122.782 168.948L121.036 171.83L119.739 175.357L118.781 178.878L119.007 186.058L118.62 188.924L116.944 192.027L114.902 194.821L114.029 196.602L113.903 198.202L114.741 199.243L116.057 199.427L118.6 199.031L119.834 199.123L120.933 199.603L121.552 200.709L121.361 202.717L120.445 204.211L119.029 205.176L117.487 205.938L116.205 206.811L114.909 209.11L114.465 212.11L114.768 215.28L115.805 218.033L115.793 218.049L114.419 219.409L110.737 224.594L108.408 225.725L109.927 222.519L109.905 220.896L108.152 220.2L105.918 218.379L105.579 218.55L105.203 218.864L103.44 219.932L102.83 220.2L100.203 219.166L98.4614 218.766L97.6678 219.234L91.579 218.208L84.2318 220.835L81.3036 220.944L72.4758 219.319L70.1351 220.199L65.8091 224.765L58.6545 234.96L56.8684 238.467L55.743 240.091L54.2291 240.779L54.5279 238.26L53.0305 236.324L50.6683 235.082L48.3726 234.652L47.086 234.994L43.9586 237.438L36.0736 240.562L35.4743 240.67L35.471 240.663L33.552 236.862L33.4674 236.52L33.4359 236.155L33.552 235.67L33.7529 235.343L33.9638 235.036L34.1862 234.779L36.1334 232.968L36.3873 232.669L36.7891 232.408L37.1161 232.25L37.4863 232.255L37.8133 232.385L38.4574 232.733L38.7844 232.845L39.1147 232.855L39.4103 232.747L39.6958 232.582L40.7 231.787L40.7847 231.369L40.7 230.781L39.284 228.361L39.294 228.273L39.6111 227.79L40.0975 227.234L40.8478 226.593L41.0586 226.341L41.1117 225.974L40.9739 225.546L40.4876 224.973L40.1389 224.666L39.0998 223.975L37.9477 222.783L37.7253 222.611L37.4713 222.559L37.2489 222.709L37.0381 222.954L36.6679 223.582L36.477 223.841L36.2446 223.887L36.0222 223.748L33.6417 221.802L33.3363 221.371L33.0724 220.712L32.2689 217.745L31.7411 216.617L30.6803 214.81L30.3417 214.385L30.0877 214.163L28.841 213.391L25.921 212.133L25.3302 211.744L23.6568 210.103L23.2667 209.58L23.1505 209.279L23.119 208.974L23.3613 208.619L23.6568 208.439L24.0303 208.361L27.6226 208.066L28.2384 207.853L28.5023 207.679L28.7132 207.438L28.8294 207.106L28.8825 206.741L28.6717 204.216L28.5455 203.511L28.3663 202.963L27.342 200.8L27.0316 199.948L26.9686 198.921L27.1478 198.479L27.4052 198.172L27.9762 197.865L28.2716 197.79L28.5671 197.792L28.7995 197.945L29.0319 198.156L29.2859 198.348L29.6245 198.428L30.3118 198.443L30.6189 198.539L30.8612 198.737L31.0721 198.981L31.3576 199.193L32.1527 199.442L33.4309 199.613L34.8668 199.55L37.3535 198.684L37.6291 198.496L37.8299 198.239L37.956 197.878L37.9876 197.505L37.9461 196.409L37.9992 196.014L38.1253 195.646L38.2732 195.286L38.879 194.291L39.0268 193.984L39.1745 193.599L39.4285 192.752L39.7239 191.994L39.9348 191.705L40.1572 191.456L40.6967 191.116L40.9822 191.028L41.2677 190.996L41.4786 191.006L41.8056 191.074L42.1326 191.209L42.4281 191.403L42.6605 191.627L43.097 192.128L43.288 192.404L43.605 192.97L43.7312 193.265L43.869 193.519L44.0483 193.685L44.2907 193.644L44.5546 193.524L45.104 193.189L45.3264 192.963L45.5058 192.708L45.5373 192.354L45.4842 191.974L45.3896 191.482L45.2949 190.679L45.3165 190.284L45.3696 189.879L45.4759 189.461L45.7614 188.699L46.437 187.319L46.5001 186.906L46.4785 186.019L46.5217 185.666L46.6478 185.307L47.7401 183.365L47.9094 183.008L47.9526 182.675L47.8364 182.386L47.3085 182.25L46.1432 182.271L43.2697 181.808L42.9394 181.871L42.7069 182.074L42.4846 182.719L42.2836 182.977L42.0413 183.161L41.6712 183.085L41.2378 182.738L39.9065 180.654L39.7057 180.399L34.3422 175.721L32.5893 173.372L32.0498 172.864L29.0983 171.061L28.592 170.948L28.1803 170.993L26.3709 172.376L25.8961 172.841L25.6322 173.028L24.8504 172.52L23.6983 171.468L21.0323 168.487L19.8887 167.504L19.1284 167.031L16.9936 167.914L16.3396 168.042L16.0092 167.896L15.7868 167.55L15.7337 166.85L15.7868 166.317L16.0092 165.407L16.0872 164.994L16.0308 164.639L15.83 164.378L14.6364 164.137L14.3193 163.97L14.0769 163.609L13.9076 163.118L13.823 162.223L14.0139 161.863L14.2994 161.649L14.9435 161.461L15.5245 161.184L15.7569 160.997L15.81 160.766L15.6839 160.489L15.2407 160.269L13.4976 159.835L13.0644 159.463L12.6743 158.877L11.7297 156.339L9.82735 152.16L9.63647 151.498L9.51033 150.039L9.39412 149.337L9.25632 149.048L9.024 148.854L8.58073 148.849L6.8029 149.197L6.04261 149.184L5.25081 149.008L4.53864 148.686L4.07379 147.506L4.0207 143.326L3.56589 140.975L3.32353 140.645L2.92181 140.283L1.9607 140.003L1.3382 139.679L1.0842 139.322L0.967985 138.942L0.954712 138.562L0.967985 138.142L1.01773 137.695L1.17883 137.149L1.40122 136.829L1.67519 136.618L2.80559 136.57L3.24886 136.444L3.7667 136.065L4.17846 135.902L4.59346 135.818L6.87595 135.803L7.61456 135.662L7.95327 135.451L7.9632 135.194L7.8786 134.905L7.42368 134.027L6.96886 132.765L6.87423 132.44L6.74809 132.134L6.55721 131.86L6.28334 131.648L5.93471 131.508L4.70632 131.319L4.35769 131.025L4.05059 130.468V129.315L3.73357 127.943L3.69203 127.49L3.94603 121.553L4.07217 120.655L4.32618 120.028L4.60004 119.699L4.89883 119.443L5.19437 119.296L5.5114 119.191L5.86003 119.131L7.02195 119.15L9.34933 118.525L9.7079 118.491L10.078 118.512L14.0753 119.782L14.3708 119.985L14.6032 120.222L14.7941 120.496L15.0796 121.469L15.2904 121.738L15.566 121.953L15.9046 122.133L18.4859 122.891L20.8979 124.118L21.278 124.218L21.932 123.975L22.7671 123.427L24.4602 122L25.1575 121.223L25.5808 120.604L25.6438 120.204L25.6654 119.814V119.429L25.506 117.988L25.3683 117.3L24.6711 115.413L24.5018 114.751L24.047 111.957L24.0154 111.535L24.0254 111.065L24.1731 110.411L24.4055 110.068L24.691 109.835L25.3783 109.683L25.8646 109.445L26.4356 109.034L27.4184 108.056L27.7703 107.443L27.9396 106.93L27.9297 106.56L27.7355 105.511L27.6923 105.154L27.6424 104.832L27.6209 104.523L27.025 100.554L26.8673 99.8721L26.6764 99.2213L26.5602 98.5175L26.4655 97.4203L26.3594 97.0866L26.1584 96.8193L25.8198 96.645L24.2677 96.401L24.0038 96.2948L23.8743 96.0325L23.8046 95.7022L23.6983 95.3901L23.5356 95.1278L23.2601 94.9768L22.9214 94.9236H22.5513L21.854 95.0664L21.2515 95.337L20.9444 95.4299L20.6274 95.3735L20.3949 95.1826L20.2356 94.902L20.1293 94.5734L20.0729 94.2165L20.1077 93.7002L20.5195 91.4725L20.5609 90.9645L20.2655 87.9931L19.9584 86.5871L19.8952 86.0625L19.8737 85.2475L20.0431 84.8341L20.297 84.5719L21.8706 83.8448L22.1777 83.5643L22.4832 83.1111L22.4102 82.8156L21.8508 82.311L21.6499 81.9258L21.6815 78.7552L21.8724 78.3568L22.1147 78.073L22.7704 77.7045L23.119 77.409L23.2568 77.077L23.2469 76.7715L23.1837 76.5109L23.1091 76.2935L23.0144 75.9531L22.8567 74.9704L22.963 74.6252L23.1854 74.3961L24.1183 74.0242L24.8471 73.6308L25.3118 73.2208L25.4696 72.8274L25.5442 72.429L25.4381 70.1797L25.3118 69.0841L25.2272 68.7487L25.1011 68.435L24.9317 68.1628L24.6578 67.9685L23.9141 67.8441L20.9345 68.1146L20.5759 68.2723L20.2273 68.5462L19.9202 69.2169L19.7575 69.7298L19.2711 71.9907L19.1234 72.4057L18.9325 72.7427L18.6785 72.9635L18.3714 73.093L16.2267 73.3353L15.9379 73.3171L15.7585 73.1444L15.6739 72.844L15.6324 72.2961L15.664 70.339L15.8117 69.7431L16.079 69.3911L16.3861 69.1887L16.713 68.933L17.4318 67.5071L17.6642 67.2514L18.2552 66.8314L18.5722 66.541L18.6254 66.2289L18.5823 65.9035L18.3913 65.6479L18.1273 65.4835L17.8004 65.452L15.3983 65.9151L15.0597 65.867L14.7958 65.6744L14.638 65.4022L14.5218 65.0834L14.4488 64.6652L14.4056 64.3315L14.1832 63.3571L13.1905 60.9169L13.0311 59.7549L13.1689 56.9129L13.159 55.0969L13.0843 54.2237L11.992 49.6936L11.8011 48.5565L11.7696 47.7049L11.9389 47.2667L12.246 46.8384L12.5664 46.606L12.925 46.4964L13.6968 46.4915L14.5319 46.6724L16.5853 47.773L17.4202 48.0137L20.6555 48.2328L20.9942 48.1532L21.7544 47.4642L22.4616 46.6708L23.4128 45.8607L23.7332 45.6797L24.3673 45.4341L25.0645 45.2863H25.4546L26.2895 45.4606L32.8366 48.8055L32.9943 48.94L33.1952 49.1508L33.4906 49.3666L33.8708 49.5591L34.5149 49.6305L34.8635 49.438L35.1059 49.1043L35.1906 48.6976L35.1839 48.3125L35.0013 48.0353L34.7057 47.8294L33.2483 47.1687L33.0159 46.9712L32.8897 46.8135L32.7835 46.5861L32.762 46.2707L32.7719 45.9453L32.9511 45.5386L33.7546 44.3135L34.1563 43.96L34.5681 43.794L34.9265 43.9002L35.6802 44.2554L36.135 44.3816L36.8007 44.3849L37.1709 44.1741L37.4133 43.8421L37.5079 43.4305L37.5826 42.9391L37.6888 42.4095L37.9643 41.6791L38.2599 41.3123L38.5868 41.0716L38.9388 40.9919L39.3289 40.9653L39.709 41.0301L40.0576 41.1795L40.3215 41.4036L40.8926 42.2269L41.115 42.4892L41.369 42.7349L41.6761 42.9441L42.0347 43.0835L42.4248 43.1532L42.9526 43.1266L44.5097 42.7283L44.9645 42.4494L45.2401 42.1207L45.2617 41.7721L45.0393 39.9743L45.0825 39.5162L45.2086 39.0314L45.5788 38.4272L45.9689 38.1533L46.5117 38.0321L46.7939 37.7947L46.9981 37.4893L47.2836 36.5663L47.6853 35.5886L47.9493 35.2748L50.5472 33.419L51.0152 33.1799L52.896 33.1766L53.6878 32.9243L54.0895 32.6405L54.3154 32.2702L54.322 31.9034L54.2523 31.568L54.1327 31.2527L53.7741 30.6783L53.6264 30.3779L53.5418 30.0392L53.5733 29.6375L53.7426 28.8008V28.4257L53.5733 28.1435L53.0023 27.6953L52.7915 27.433L52.7068 27.1093L52.7798 26.7358L53.9202 24.7986L54.3154 24.3421L54.674 24.03L56.3007 23.3743L56.6593 23.0174L56.8701 22.5958L56.9116 22.1924L57.0062 21.6579L57.207 21.0321L57.7034 19.9929L58.0653 19.5115L58.3607 19.1828L73.8618 9.59301L74.4328 9.01697L74.6237 8.5588L74.486 8.27329L73.5747 6.85731L73.3638 6.59667L73.1098 6.39419L72.7613 6.30787L71.2821 6.39915L68.7009 6.07048L67.9091 5.86298L67.5505 5.7036L67.2965 5.49448L67.202 5.24048L69.3715 1.58684L69.7583 1.19838L70.1634 0.982573L76.7171 0.869705L85.4436 3.36801L88.5644 3.25013L89.7165 3.03766L90.065 2.73553L90.2659 2.34211L90.3606 1.86734L90.4037 1.50051L90.6361 0.511139L91.4179 0.594119L92.0521 0.939412L92.8472 1.64656L93.2805 2.17448L93.6606 2.73224L93.8831 2.9829L94.2001 3.1522L94.5902 3.25676L95.8369 3.41279L96.2286 3.60702L96.5175 3.86599L96.5457 4.4852L96.3282 4.72588L95.9863 4.88525L94.1055 4.98151L93.82 5.13754L93.6291 5.43967L93.4814 5.81485L93.1012 7.11628L93.1112 7.56279L93.312 7.96123L93.903 8.3779L96.8644 9.59134L98.7352 10.8513L99.0839 10.9558L99.4424 10.9741L99.7595 10.8828L100.045 10.6886L101.823 9.06844L102.118 8.88586L102.445 8.79786L105.249 8.94559L105.588 9.02695L105.842 9.23774L105.82 9.77062L105.345 12.4648L105.282 13.2798L105.292 13.6666L105.324 14.0352L105.355 14.7904L105.271 15.2154L105.145 15.6287L104.965 15.984L104.754 16.2828L104.032 17.0696L103.835 17.3684L103.948 18.2151L104.353 19.4617L106.328 24.2624L106.338 24.5098V24.6542L106.306 24.8202L106.222 25.1256L106.062 25.431L105.799 25.6402L105.491 25.7614L104.393 25.8411L104.094 25.9407L103.981 26.2029L103.939 26.5516L103.918 26.9002L103.798 27.2006L103.513 27.3185L102.721 27.2786L102.372 27.3566L102.118 27.5824L101.917 27.8928L101.748 28.273L101.622 28.6697L101.59 29.0698L101.717 29.3835L102.118 29.5611L102.498 29.6308L102.963 29.8002L103.438 30.1239L104.092 30.7962L104.529 31.0568L104.972 31.1697L112.701 31.6893L115.352 32.5309L115.578 33.6514L116.369 36.0567L116.58 37.0925L116.675 37.808V39.3502L116.781 39.7535L117.035 40.1154L117.616 40.5055L118.567 40.7977L118.969 40.8325L119.786 41.0384L120.081 41.3173L120.219 41.7273L120.187 42.4278L120.071 42.9142L120.081 43.4819L120.304 44.1609L120.916 45.2996L121.19 46.3952L121.243 47.114L121.127 47.6236L120.81 48.3938L120.43 49.0744L119.595 50.3062L119.416 50.6664L119.296 51.0698L119.226 51.4598L119.205 51.7935L119.191 52.3247L119.269 52.6135L119.404 52.8808L119.734 52.9505L121.075 52.6418L121.434 52.6318L121.741 52.7629L121.92 53.0866L121.847 53.7158L121.69 54.159L121.489 54.5624L120.4 56.0248L118.854 57.391L118.443 57.8707L118.336 58.0384L118.199 58.3339L118.073 58.6891L117.999 59.0776L117.99 59.466L118.169 62.0457L118.486 63.6874L118.507 63.8866L118.498 64.192L118.35 65.0071L118.328 65.4553L118.466 65.9268L119.293 68.1014L119.44 68.7404L119.427 69.3048L119.314 69.7364L118.878 70.9549L118.783 71.3749L118.761 71.7633L118.909 72.1733L119.216 72.5668L119.928 73.0664L120.795 73.4416L121.841 73.6939L122.189 73.9014L122.432 74.2052L122.495 74.7314L122.505 75.1779L122.389 75.9598L122.294 76.2785L122.251 76.3681L122.071 76.8678L121.849 77.7227L121.658 78.981L121.617 79.7678L121.627 80.5298L121.818 80.9829L122.176 81.461L123.096 82.1599L123.692 82.4271L124.198 82.5433L124.568 82.5599L124.958 82.6662L125.856 83.2455L126.258 83.3252L126.617 83.2953L126.905 83.1277L127.144 82.9052L127.591 82.3524L127.845 82.1234L128.237 82.2462L128.723 82.7558L129.462 84.1137L129.736 84.8508L129.905 85.4284L129.968 85.7654L130.074 86.0858L130.338 86.4626L130.73 86.8843L132.181 88.0645L132.847 89.0356L133.786 90.938L133.934 91.426V91.6434L133.881 91.9605L133.774 92.3108L133.615 92.6395L133.393 92.92L133.15 93.1408L132.876 93.3068L132.601 93.413L129.492 93.9376L129.291 94.0073L129.112 94.1318L128.964 94.3725L128.954 94.6796L128.975 95.0266L129.176 95.7735L129.6 96.9538L129.907 98.3167L130.118 98.6819L130.498 99.0305L131.377 99.4438L132.445 99.6712L139.266 99.0106L139.624 99.1367L139.931 99.4704L140.323 100.295L140.64 101.258L140.851 102.307L141.158 103.283L142.217 105.715L142.323 106.027L142.415 106.368L142.373 106.751L142.176 107.581L142.028 108.404L141.993 108.798L142.176 109.213L142.556 109.636L144.003 110.561L152.567 113.823L156.511 116.128L156.785 116.487L156.996 116.967L157.102 117.88L157.008 118.414L156.839 118.839L156.236 119.799L155.887 120.513L155.74 120.906L155.633 121.319L155.57 121.714L155.919 122.348L156.575 123.11L158.289 124.641L159.146 125.162L159.8 125.441L164.664 125.341L171.03 126.816L171.315 127.383L171.485 128.31L171.294 131.686L171.315 132.596L171.622 133.338L171.918 133.743L172.245 134.037L172.839 134.452L172.93 135.248L172.965 135.897L171.778 141.133L171.652 142L171.651 142.034Z" fill="#000E40" stroke="#000E40" stroke-linecap="round" stroke-linejoin="round"/>
</svg>
