<svg width="145" height="188" viewBox="0 0 145 188" fill="none" xmlns="http://www.w3.org/2000/svg">
<path d="M95.3298 187.544L93.132 187.938L91.8505 187.058L90.2585 184.586L87.9627 180.435L87.1112 179.253L86.1185 178.366L80.6106 176.19L78.3148 174.747L77.1096 173.351L76.7992 172.1L76.7362 170.768L76.278 169.152L75.2139 167.822L73.4958 166.434L70.8631 164.872L70.8664 164.852L71.0357 163.627L71.723 160.083L72.118 158.904L75.5974 153.639L75.7236 153.113L75.6671 152.708L73.3846 149.456L68.7217 144.778L68.2851 144.107L68.0461 143.588L67.6825 142.651L67.5564 142.034L67.5248 141.479L67.5779 141.041L67.6842 140.648L67.8103 140.286L68.1307 139.642L68.4893 139.056L68.8794 138.259L69.0703 137.588L69.0487 137.15L68.9325 136.78L67.5348 134.494L66.2782 131.984L66.0673 131.646L65.7602 131.27L61.3629 127.154L60.0183 126.129L59.2995 125.412L58.7185 124.662L58.2637 124.315L57.7889 124.124L56.0841 124.081L55.767 124.005L55.5977 123.732L55.4915 123.178L55.4068 122.444L55.1644 121.188L54.9105 120.6L54.6366 120.182L53.8331 119.567L53.3783 119.091L53.1243 118.895L52.8454 118.8L52.5848 118.895L52.3806 119.141L51.9689 120.188L51.7996 120.507L51.4411 121.09L51.0078 121.614L50.4799 121.996L50.1728 122.16L49.5171 122.413L47.9816 122.675L46.2287 122.653L44.1437 122.255L43.6789 122.016L43.161 121.613L42.326 120.791L41.8828 120.155L41.6288 119.657L41.5342 119.265L41.0561 116.163L40.9499 114.931L40.9714 114.058L41.3864 111.506L41.4927 111.12L41.5624 110.705L41.6188 110.285L41.6288 109.865L41.491 109.118L41.3001 108.397L41.2586 108.004L41.2238 107.282L41.2586 106.668L41.3848 105.771L41.413 105.235L41.3632 104.496L41.1374 104.124L40.842 103.885L40.4718 103.832L40.1132 103.885L39.7862 104.008L36.4546 106.241L35.1764 106.799L32.1303 107.308L30.7043 108.281L29.5805 109.524L29.3382 109.754L28.7887 110.115L28.123 110.371L27.6682 110.388L27.1503 110.308L26.39 109.963L26.0165 109.634L25.7941 109.265L25.7194 108.897V108.489L25.7725 108.082L25.9302 107.303L26.0995 106.905L26.2057 106.576L26.3568 105.741L26.3037 105.162L26.141 104.498L25.6762 103.424L25.3691 102.876L25.0836 102.466L24.8611 102.224L24.3216 101.812L24.0145 101.636L23.6659 101.513L22.811 101.38L22.2367 101.195L21.6026 100.864L17.8178 97.6737L17.4061 97.1458L17.1521 96.6793L17.089 96.2909L17.0674 95.8709L17.099 95.4393L17.2368 94.518V93.9719L17.0674 93.112L16.8035 92.6904L16.4549 92.4265L15.7046 92.2056L14.8381 92.0911L13.9898 92.1077L13.2295 92.2538L12.1937 92.6057L11.6874 92.5941L11.1064 92.4281L9.84644 91.4188L5.61676 86.3259L2.98234 85.0876L0.193542 84.2742L3.08858 72.8816L3.04707 72.025L2.83626 70.8796L2.73002 70.526L2.59224 70.199L2.26521 69.5948L1.57798 68.642L1.29245 68.0576L1.25095 67.5895L1.31404 67.1712L1.59956 66.4939L3.1666 58.9094L3.5152 58.008L4.62408 57.2427L6.10314 55.9313L6.38865 55.6093L7.6071 54.5353L8.01878 53.7384L8.54666 52.4636L10.3328 47.0204L10.5021 46.6336L10.7594 46.2652L11.1495 45.8153L12.3331 44.8093L13.5267 44.137L14.2139 43.8847L15.3161 43.7021L22.147 44.6699L25.6015 44.5089L26.0912 44.3014L26.6938 43.9495L28.1828 42.6795L28.6376 42.4056L29.0078 42.3409L29.8113 42.4588L32.2548 43.5461L32.8142 43.39L33.621 43.0033L36.6853 40.7722L37.3958 40.5631L37.7859 40.5116L38.6209 40.6295L41.6039 41.6138L42.0156 41.6736L42.8074 41.6138L46.0112 40.1613L46.7715 40.0402L48.4829 40.1564L49.9753 39.8061L50.6725 39.5206L53.5592 37.7859L56.2534 36.765L57.0071 36.6189L57.4303 36.594L57.8536 36.6322L58.2437 36.7185L58.5293 36.8695L59.0256 36.9509L59.6697 36.8779L60.9827 36.3583L61.6584 35.8619L62.0916 35.4519L62.2809 35.1016L62.4186 34.7464L62.4601 34.348L62.4286 33.9546L62.2809 33.6176L61.0242 31.9493L60.4864 31.1641L59.6763 31.6306L58.3948 31.5127L56.8029 31.0214L56.348 30.5582L56.1472 28.0599L56.1571 27.6449L56.2733 27.1917L56.4775 26.7469L56.8161 26.1443L56.9855 25.6911L57.0386 25.2811L56.9324 24.9458L56.7531 24.6752L56.5074 24.4378L55.9164 24.0759L55.5579 23.978L55.1661 24.0212L54.7959 24.2287L53.3916 25.5118L53.1177 25.7061L52.7973 25.8571L52.4586 25.9434L52.0885 25.9003L51.793 25.7243L51.5506 25.462L51.3713 25.1649L51.2551 24.7698L51.2336 24.2901L51.3498 23.6078L51.5822 23.2327L51.8461 22.9471L53.2123 22.4558L53.9842 22.3213L55.4732 22.2997L56.4028 22.1105L57.2096 21.6673L57.6744 21.1593L58.3301 20.1766L60.5511 17.9273L60.8682 17.4509L60.9313 17.0608L60.9097 16.6607L60.752 16.3686L60.5097 16.1229L58.3931 14.8331L58.1508 14.589L58.2354 13.9234L58.6372 12.9141L60.7005 9.55424L61.0907 8.75578L61.1653 8.3325L61.1869 7.90255L61.1338 7.49918L61.0392 7.14226L60.7852 6.46168L60.2855 5.54368L60.1909 5.20006L60.2656 4.64729L60.5329 3.96337L61.1454 2.74826L61.5472 2.18384L61.9273 1.81035L62.2759 1.70412H62.6876L65.1095 2.25522L65.8698 2.24362L71.0291 0.865814L71.8641 0.938839L72.6393 1.11812L73.3464 1.39535L73.949 1.76884L75.4696 3.10847L75.7435 3.42056L76.0423 3.63469L76.3062 3.76418L76.6448 3.79903L77.269 3.63302L77.596 3.68948L77.9131 3.8256L78.5041 4.21071L78.8942 4.34848L79.2328 4.42153L80.2089 4.3153L85.7583 13.0054L86.8256 15.1003L88.0225 18.5315L88.3611 19.1988L88.7844 20.2579L88.7944 20.7227L88.6882 21.1062L88.3495 21.7486L88.2234 22.1205L88.1503 22.5305L88.1404 22.9521L88.215 23.3239L88.3213 23.6809L88.4591 24.0079L88.6599 24.7399L88.977 26.707L89.0832 27.9504L89.1579 28.3388L89.3372 28.7173L89.6543 29.041L91.0802 29.5755L91.1151 29.5971L91.3691 30.0387L91.6645 30.7774L91.9384 31.7634L92.1078 32.5187L92.1609 32.9221L92.1824 33.3487L92.1725 33.7853L92.131 34.2252L92.0563 34.6484L91.9301 35.0037L91.7608 35.3374L91.55 35.6046L90.5108 36.4745L90.3 36.7434L90.1207 37.0389L90.0361 37.4057L90.0261 37.7776L90.1008 38.1162L90.5872 39.4741L90.6403 39.8725V40.2975L90.6088 40.744L90.4826 41.6238L90.4511 42.0737V42.5036L90.5357 42.8804L90.642 43.2307L90.8046 43.5378L91.0437 43.8233L91.3857 44.0325L92.0198 44.0806L92.3899 43.9361L92.707 43.727L92.961 43.4896L93.5204 43.0697L93.8259 42.9169L94.1744 42.8389L94.533 42.887L95.8361 43.5328L97.9178 43.898L98.2564 44.1669L98.5735 44.5653L98.9254 45.3322L99.0731 45.8734L99.1362 46.3897L99.1462 47.2561L99.1993 47.6512L99.2939 48.0148L99.4317 48.3368L99.5894 48.6357L99.684 48.9776L99.694 49.3478L99.5877 49.703L99.4084 50.0085L99.1976 50.2724L98.9436 50.5015L98.6266 50.631L98.263 50.6874L97.8829 50.6658L97.1542 50.4367L95.2103 49.4457L94.4152 49.2582L93.9819 49.2465L93.6117 49.3029L93.2847 49.4507L93.0739 49.703L92.9676 50.0682L92.9361 50.4517L92.9577 50.8468L93.0639 51.1937L93.2017 51.5074L93.2864 51.5871L94.0051 52.1349L96.2378 53.0313L96.7972 53.4911L97.2156 54.2033L97.3318 54.8158L97.4098 55.4815L97.7268 56.3945L98.6913 58.0262L99.674 58.8048L100.864 58.9127L103.691 58.3168L104.747 58.5093L108.333 60.6972L108.963 61.4259L109.017 62.4585L108.514 64.1865L108.563 65.2373L108.943 66.215L110.577 68.8213L111.465 69.6031L112.014 68.9656L112.31 67.6808L112.436 66.5072L112.659 65.6523L113.067 64.9136L113.631 64.1882L115.139 62.9747L115.942 62.6991L116.931 62.7739V63.5458L116.241 64.7941L115.632 67.397L115.325 70.2024L115.535 72.035L117.222 70.2289L118.827 70.2771L122.514 72.035L121.07 73.4526L117.22 74.5516L116.463 76.273L117.283 78.9506L119.069 78.3048L122.514 74.862L123.57 74.6927L124.098 75.0379L124.308 74.9466L124.415 73.4493L124.284 72.1495L124.118 71.2498L124.445 70.7302L125.811 70.5543L126.666 70.79L127.501 71.2399L128.42 71.5237L129.532 71.2648L129.68 70.8066L129.564 70.0895L129.589 69.4304L130.188 69.1416L130.631 69.2645L131.684 69.794L132.28 69.9118L131.709 71.3776L131.347 72.0682L130.844 72.6774L131.601 73.7631L133.045 74.935L134.63 75.8845L135.814 76.273L137.55 76.4821L138.712 77.0615L140.744 79.0369L142.635 80.1341L143.068 80.511L143.797 82.0647L143.719 82.6756L143.31 82.9877L143.068 83.655L143.002 84.6327L142.949 84.8303L143.139 84.9847L143.787 85.8329L144.22 86.9982L143.994 87.8017L143.604 88.4043L143.535 88.9753L140.968 91.0171L140.14 91.8006L139.506 92.5675L139.189 93.0572L138.83 93.8773L138.714 94.4201L138.682 94.8683L138.84 96.0934L139.547 99.0116L141.368 103.992L141.463 105.102L141.093 114.249L140.646 116.883L140.382 117.717L140.055 118.329L139.728 118.626L139.37 118.791L138.98 118.796L138.599 118.726L137.997 118.455L137.331 118.05L135.943 117.501L135.152 117.3L133.767 117.215L130.668 117.592L127.897 118.467L125.373 119.629L120.125 123.731L113.547 132.268L112.987 132.723L112.227 133.012L111.244 133.551L110.252 134.331L109.783 134.818L109.478 135.263L109.362 135.633L109.277 136.04L109.236 136.478L109.214 137.344L109.267 137.746L109.33 138.116L109.446 138.452L109.722 139.109L109.817 139.474L109.754 139.954L109.521 140.203L109.163 140.309L108.751 140.346L108.16 140.633L107.431 141.206L103.899 145.38L103.645 145.59L103.349 145.746L102.068 146.103L101.371 146.403L100.23 147.245L99.7438 147.782L99.4483 148.284L99.3752 148.684L99.1428 150.455L98.8042 151.293L95.7266 157.123L95.4842 157.882L95.2933 158.803L95.2617 159.14L95.2518 159.55L95.5373 161.444L95.622 163.104L95.7481 163.848L96.3076 165.53L96.4553 165.83L96.6346 166.11L97.6588 167.4L97.8165 167.684L97.9543 167.991L98.0389 168.353L98.102 168.737V170.886L98.1651 171.27L98.3444 171.969L98.8872 173.224L99.0034 173.557L99.0781 173.922L99.1412 174.316L99.1511 174.726L99.1412 175.129L98.8872 175.943L95.6934 183.16L95.5871 183.486L95.3331 185.777L95.3116 186.281L95.3365 187.506L95.3298 187.544Z" fill="#000E40"/>
</svg>
