<svg width="223" height="202" viewBox="0 0 223 202" fill="none" xmlns="http://www.w3.org/2000/svg">
<path d="M58.7809 10.101L59.098 9.99641L60.0143 8.87593L60.7613 7.47986L61.8818 6.10538L62.4595 5.8514L63.7692 5.78997L64.3818 5.53599L65.1421 4.72425L66.495 2.83517L67.4462 2.0998L68.6779 1.6516L75.1154 0.911239L86.9677 1.87901L88.8336 2.8966L89.3482 4.89191L91.2921 5.88128L98.0881 16.8041L99.6518 17.5859L101.279 17.498L102.892 16.7925L104.384 15.7068L105.716 14.3838L106.195 14.1298L107.027 14.1082L107.696 14.329L109.097 15.1507L110.604 15.5043L112.479 16.8605L114.655 17.3336L115.267 17.5809L116.31 18.2798L116.479 18.5437L116.288 18.9853L116.141 21.3525L115.986 22.4033L116.19 23.3495L117.205 24.1745L118.669 24.7356L120.261 24.9995L121.796 24.7903L123.084 23.9753L123.669 23.1005L124.761 20.7997L125.402 19.8253L126.275 19.0102L137.586 12.2856L142.045 10.6422L146.545 10.3168L151.426 11.0455L161.328 8.1538L163.349 6.58512L167.335 2.50318L169.349 1.67981L176.194 0.728638L177.561 1.469L178.582 4.24287L179.505 7.71059L180.61 10.5426L186.618 13.4774L188.731 15.7865L188.892 20.2486L188.21 22.7751L188.012 23.9139L188.125 25.0642L188.59 25.7963L190.955 28.2265L197.484 38.3658L199.921 40.0773L205.329 42.5673L207.983 44.2721L210.307 46.3654L212.399 49.028L214.61 52.919L214.68 53.1166L215.722 55.0472L215.757 56.6823L216.068 57.328L217.603 56.3386L217.691 56.9728L217.914 57.9572L219.006 60.5484L219.175 60.8373L219.577 61.3967L219.809 61.6589L220.083 61.8913L221.425 62.6948L221.551 62.9903L221.498 63.3239L221.18 63.6626L220.842 63.8485L220.45 63.9365L218.946 64.056L217.593 64.4544L216.4 65.0802L216.041 65.4869L215.935 65.7276L215.872 66.0364L216.019 66.4049L216.146 66.5925L219.001 68.86L219.127 69.1605L219.114 69.4825L218.832 69.8261L218.533 70.0635L217.635 70.5947L217.381 70.8504L217.158 71.1442L216.967 71.4994L216.808 71.8912L216.67 72.3377L216.363 73.1013L216.099 73.2042L215.898 73.2158L214.257 72.8125L213.898 72.8673L213.613 73.0465L213.37 73.3022L212.915 73.8915L212.092 75.2095L211.944 75.5863L211.901 76.0379L212.092 76.594L212.356 76.8695L212.673 76.8994L214.511 76.1208L214.869 76.0661L215.228 76.1208L215.548 76.2985L215.759 76.5458L215.917 76.7882L216.043 77.0903L216.074 77.253L216.106 77.5368L215.98 80.4634L216.011 81.7499L216.096 82.2313L216.106 82.5766L216.053 83.0065L215.915 83.4797L215.545 84.0839L214.718 85.0517L214.486 85.5463L213.873 87.4155L213.556 87.9533L213.229 88.3036L212.658 88.5974L212.426 88.7734L212.331 88.9643L212.246 89.288L212.341 89.8557L212.774 91.3381L212.9 91.6153L213.355 92.2129L213.525 92.4768L213.568 92.7723L213.461 93.0761L213.091 93.3251L212.837 93.5691V94.0953L213.513 96.1654L213.586 96.5206L213.607 96.9107L213.523 97.339L213.164 97.9117L212.847 98.2287L211.428 99.1998L211.167 99.4837L210.963 99.8821L210.615 101.443L210.361 103.177L209.927 104.206L209.557 104.721L209.187 104.9L208.151 105.128L207.844 105.274L207.565 105.48L206.742 106.763L206.594 107.15L206.531 107.553L206.732 108.132L206.974 108.502L207.665 109.339L207.834 109.64L208.066 110.28L208.236 110.973L208.33 111.681L207.96 116.98L208.013 118.245L208.193 119.029L208.541 119.185L209.735 119.361L210.137 119.488L210.485 119.666L210.749 119.903L210.96 120.167L211.129 120.464L211.227 120.791L211.192 121.339L210.991 122.08L209.977 123.677L209.089 124.746L207.268 126.01L205.62 127.521L205.387 128.51L205.344 128.877L205.249 129.352L205.049 129.746L204.7 130.048L203.548 130.26L200.427 130.378L191.701 127.88L185.147 127.993L184.742 128.208L184.355 128.597L182.185 132.25L182.28 132.504L182.534 132.714L182.893 132.873L183.684 133.08L186.266 133.409L187.745 133.318L188.093 133.404L188.347 133.607L188.558 133.867L189.469 135.283L189.607 135.569L189.416 136.027L188.845 136.603L173.344 146.193L173.049 146.521L172.687 147.003L172.191 148.042L171.99 148.668L171.895 149.202L171.854 149.606L171.643 150.027L171.284 150.384L169.657 151.04L169.299 151.352L168.904 151.809L167.763 153.746L167.69 154.119L167.775 154.443L167.986 154.705L168.557 155.153L168.726 155.436V155.811L168.557 156.647L168.525 157.049L168.61 157.388L168.758 157.688L169.116 158.263L169.236 158.578L169.305 158.913L169.299 159.28L169.073 159.65L168.671 159.934L167.879 160.187L165.999 160.19L165.531 160.429L162.933 162.285L162.669 162.599L162.267 163.576L161.982 164.499L161.777 164.805L161.495 165.042L160.952 165.163L160.562 165.437L160.192 166.041L160.066 166.526L160.023 166.984L160.245 168.782L160.224 169.131L159.948 169.459L159.493 169.738L157.936 170.137L157.408 170.163L157.018 170.093L156.66 169.954L156.352 169.745L156.098 169.499L155.876 169.237L155.305 168.414L155.041 168.189L154.692 168.04L154.312 167.975L153.922 168.002L153.57 168.082L153.243 168.322L152.948 168.689L152.672 169.42L152.566 169.949L152.491 170.44L152.397 170.852L152.154 171.184L151.784 171.395L151.118 171.392L150.664 171.265L149.91 170.91L149.551 170.804L149.14 170.97L148.738 171.324L147.935 172.549L147.755 172.955L147.745 173.281L147.767 173.596L147.873 173.823L147.999 173.981L148.232 174.179L149.689 174.839L149.985 175.045L150.167 175.322L150.174 175.708L150.089 176.114L149.847 176.448L149.498 176.641L148.854 176.569L148.474 176.377L148.179 176.161L147.978 175.95L147.82 175.815L141.273 172.471L140.438 172.296H140.048L139.351 172.444L138.717 172.69L138.396 172.871L137.445 173.681L136.738 174.474L135.978 175.163L135.639 175.243L132.404 175.024L131.569 174.783L129.515 173.682L128.68 173.501L127.908 173.506L127.55 173.616L127.229 173.848L126.922 174.277L126.753 174.715L126.785 175.566L126.975 176.704L128.068 181.234L128.142 182.107L128.152 183.923L128.015 186.765L128.174 187.927L129.167 190.367L125.201 190.878L123.954 191.763L123.411 192.419L122.736 192.696L120.274 192.88L119.489 192.766L118.993 192.563L118.77 192.303L118.337 191.629L117.988 191.207L116.921 190.309L113.896 188.621L112.809 188.211L112.25 188.207L111.826 188.312L110.734 189.1L105.787 195.045L104.667 196.995L104.572 197.321L104.635 197.626L104.868 197.864L105.439 198.287L105.492 198.622L105.269 199.052L104.135 199.856L103.533 200.116L103.047 200.108L102.771 199.909L102.253 199.417L101.926 199.223L101.514 199.065L101.207 199.163L100.953 199.381L100.331 200.071L99.7681 200.535L99.4095 200.553L99.1024 200.428L98.4152 199.69L98.3205 199.416L98.4051 199.112L98.5744 198.816L100.396 196.688L100.571 196.411L100.691 196.139L100.613 195.895L100.437 195.639L99.2285 194.421L98.1396 193.531L97.9602 193.265L97.9071 192.927L97.9918 192.562L98.1396 192.21L99.0692 190.536L99.207 190.183L99.2816 189.829L99.1969 189.522L99.0377 189.235L98.1927 188.192L93.3189 184.149L91.6888 182.401L89.1175 180.603L88.7788 180.278L88.7157 179.947L88.7688 179.557L88.9199 179.184L89.0892 178.832L89.3216 178.556L90.6945 177.635L91.0531 177.235L91.2008 177.032L91.3584 176.76L91.2638 176.327L90.8837 175.776L89.0527 174.473L88.6627 174.086L88.2725 173.153L87.8707 172.725L87.2367 172.238L85.7577 171.38L85.1301 170.885L84.8446 170.367L84.8662 169.934L84.6438 169.378L84.0727 169.046L82.2666 168.485L81.7288 168.148L80.5518 167.125L80.0871 166.863L79.7484 166.762L77.4742 166.896L77.1356 166.709L77.0724 166.441L77.2302 166.148L77.4659 165.89L77.9722 165.44L79.7152 164.471L79.9692 164.235L80.1916 163.955L80.9834 162.672L81.1311 162.34L81.2258 162.024L81.1311 161.735L80.9403 161.478L79.7152 160.09L79.2604 159.37L79.1658 159.031L79.1874 158.626L79.2404 158.213L78.9549 157.499L78.3424 156.641L76.4899 154.908L75.6133 154.299L75.0008 154.108L74.1658 154.66L70.9189 155.793L69.7535 156.473L68.6861 157.283L68.3907 157.446L67.7349 157.658L67.3648 157.703L66.7423 157.979L66.4784 158.183L66.1397 158.384L65.7131 158.483L64.9843 158.452L64.2557 157.946L62.8828 157.316L60.0376 156.475L59.4981 156.465L58.8855 156.867L58.512 157.044L57.8679 157.061L57.3815 156.803L56.7475 156.251L56.261 155.998L55.8062 155.869L53.7744 155.947L53.3196 155.811L52.9925 155.585L52.6755 155.24L51.5135 154.282L51.0486 154.169L50.6652 154.212L50.3912 154.4L50.0842 154.544L49.7256 154.606L46.2463 154.058L45.9076 154.066L44.5133 154.335L43.6251 154.383L43.0939 154.265L42.6822 154.088L41.2978 152.574L40.2304 151.634L36.2016 149.368L35.2819 148.402L34.0851 146.767L33.7465 146.432L31.8873 145.147L31.6134 144.765L31.3776 144.257L30.9444 143.653L26.5039 140.066L26.2715 139.775L26.1553 139.447L25.986 138.753L25.6589 138.295L25.1311 137.762L23.1523 136.341L21.9904 135.8L21.6517 135.695L20.3304 135.663L18.6156 135.361L18.2138 135.348L16.6617 135.663L15.9612 135.599L15.4649 135.33L14.8307 134.813L14.3975 134.652H14.0274L13.7318 134.82L12.8337 135.044L10.4849 134.628L10.792 133.96L10.8767 133.193L10.7173 131.973L10.4433 130.811L10.1047 129.706L9.85072 129.075L8.50612 126.718L8.41149 126.369L8.37998 125.899L8.43307 125.333L8.69042 124.379L9.13358 123.374L9.73623 122.43L13.257 118.607L13.531 118.409L13.858 118.288L14.2282 118.262L14.6083 118.33L14.9354 118.494L15.1893 118.715L15.5595 119.276L15.7819 119.546L16.577 120.232L17.2959 120.576L17.7291 120.697L24.424 121.24L25.8598 120.997L29.5184 119.186L30.5958 118.338L32.6376 116.009L34.4121 113.106L36.1485 110.78L36.2016 110.368L36.0854 109.897L35.3732 108.815L35.3948 108.36L35.6405 107.83L35.6472 107.535L35.5211 107.161L34.9616 106.763L34.105 106.311L33.8195 105.873L33.6186 105.139L33.1439 104.18L32.953 103.536V102.837L33.0592 102.332L33.2069 101.882L33.3663 101.502L33.5672 101.193L33.8427 100.999L34.8986 100.76L35.5359 100.5L35.8945 100.423L36.2962 100.435L40.1558 101.471L40.5359 101.459L40.7998 101.242L41.1915 100.583L41.4455 100.352L41.7841 100.244L42.9246 100.174L43.235 100.05L43.4358 99.8323L43.5205 99.648L43.5621 99.404L43.255 98.7267L42.5428 98.0412L41.0854 97.1481L39.9233 95.9164L38.5787 95.1843L38.2932 94.8374L38.1986 94.1534L38.3895 93.8596L38.7281 93.7135L41.9435 93.7301L43.3695 93.4579L43.6898 93.3218L43.9538 93.1209L43.7944 92.2577L43.2134 90.8301L40.1889 85.0317L39.9465 84.3462L39.7557 83.6506L39.7241 83.3053L39.7656 82.97L39.9764 82.731L40.5475 82.4338L40.7583 82.238L40.7898 81.9259L40.7583 81.5773L40.6006 80.4734L40.4528 80.1364L40.1773 79.8808L39.6495 79.7447L37.5644 79.6899L37.2258 79.7994L36.9718 80.0252L36.7826 80.3738L36.5186 81.2221L36.3394 81.5673L36.097 81.7599L35.7351 81.7898L34.8687 81.6536L31.4324 80.6178L31.0838 80.4385L30.883 80.1098L30.8099 79.5687L30.6937 79.152L30.4514 78.8366L28.5706 78.5096L28.1805 78.2922L27.8701 77.9601L27.7356 77.2712L27.6576 75.8901L27.5198 75.4983L27.2775 75.1116L25.893 74.1886L25.6191 73.9197L25.3767 73.4516L25.1012 72.7594L24.6895 71.0695L24.6148 70.5648L24.5616 68.9812L24.7725 66.0164L24.741 65.2279L24.6032 64.5125L24.3708 64.0942L24.0504 63.6111L22.9099 62.4856L22.4767 62.215L22.0866 62.0872L21.6849 62.049L21.3263 62.1088L20.9993 62.2316L20.151 62.8126L19.8124 62.9272L19.4422 62.977L18.5973 62.8575L14.3577 60.7061L14.0306 60.3558L13.111 59.0942L12.6147 58.734L12.1681 58.4983L9.3577 58.5149L8.48788 58.3722L8.09781 58.2194L7.7592 58.0202L7.19972 57.577L6.54399 56.7868L6.2685 56.5461L5.94145 56.3569L4.6699 56.01L4.27983 55.7858L3.9627 55.4555L3.2556 54.1508L2.99166 53.915L2.65296 53.4751L2.31435 52.8427L1.91262 49.9808L1.81799 49.6256L0.77887 46.7289L0.86347 46.5314L1.55406 45.3312L2.18821 44.4414L5.23424 41.4285L5.66758 40.8276L5.84682 39.9312L5.98461 38.5268L5.94307 32.6737L5.3306 31.2361L7.86538 29.865L8.2356 29.513L8.67218 29.0134L8.95435 28.024L9.55031 26.6197L9.89894 26.3424H10.1845L10.3853 26.5566L10.5745 26.8321L11.0393 27.3318L11.9274 28.0107L12.6662 28.454L13.2936 28.6183L13.6522 28.4872L13.8945 28.185L14.0207 27.7999L14.0838 27.4264L14.0306 27.0861L13.9144 26.7624L13.936 26.2677L14.1468 25.6469L15.0764 24.4749L15.6474 24.035L16.1654 23.8973L17.1514 24.5546L17.6262 24.7339L17.9216 24.5878L18.1541 24.294L18.3018 23.8873L18.428 23.4275L18.6704 22.8664L19.0189 22.219L19.7792 21.2612L20.2972 20.8893L20.8084 20.7001L21.6966 20.7665L22.563 20.9541L23.989 21.6745L24.3094 21.8886L24.8489 22.048L25.6207 22.1194L28.061 21.6463L28.6037 21.3923L28.8262 21.1284L28.9424 20.7814V20.4262L28.8793 20.0544L28.6469 19.3821L28.5623 19.0467L28.5938 18.6168L28.7947 18.1487L29.2811 17.498L29.6081 17.2506L29.9152 17.146L31.9221 17.6357L32.3371 17.5262L32.6326 17.3502L32.802 17.1029L32.8119 16.8655L32.6642 16.6065L32.4633 16.3526L32.4318 15.9442L32.5911 15.4595L33.446 14.6179L34.0171 14.3373L34.5133 14.2742L34.8719 14.4236L36.5552 15.4213L36.9669 15.584L37.5064 15.6686L37.845 15.5176L38.0774 15.2387L38.1936 14.8303L38.2251 14.422L38.2036 12.7586L38.2251 12.2922L38.3829 11.6697L38.6568 11.3808L39.0369 11.2398H39.4486L39.8752 11.331L40.6139 11.6697L45.2336 14.6029L45.8246 14.7955L46.1101 14.6826L46.1632 14.427L46.0371 14.1464L45.5407 13.5123L45.403 13.2201L45.3599 12.8118L45.5192 12.6126L45.6985 12.5429L47.8681 12.9894L49.8651 12.8101L50.9424 12.2856L51.6429 12.1146L52.1609 12.0648L54.3272 12.7072L55.6203 12.8749L56.7292 12.8367L57.3102 12.7039L57.7434 12.508L57.9974 12.2623L58.2115 11.9535L58.4025 11.5834L58.5568 11.1285L58.6548 10.7401L58.7809 10.101Z" fill="#000E40" stroke="#000E40" stroke-linecap="round" stroke-linejoin="round"/>
</svg>
