<svg width="258" height="187" viewBox="0 0 258 187" fill="none" xmlns="http://www.w3.org/2000/svg">
<path d="M238.74 184.879L236.954 186.019L235.363 185.564L232.978 183.058L229.797 180.551L225.662 179.411L224.231 177.586L223.913 175.076V171.195V168.226L222.482 165.025L220.573 162.967L217.392 160.908L214.211 160.223L211.35 160.452L209.283 160.681L206.579 160.223L205.943 161.366L204.829 163.196L202.127 162.738L200.06 161.136L198.47 159.534L197.198 157.474L196.244 155.412L195.13 152.892L193.221 151.518H190.995L189.086 150.141L186.541 148.765L184.156 148.536L181.453 149.454L177.637 148.996L175.092 148.078L172.23 146.931L169.845 145.555L166.664 143.259L163.167 140.963L159.986 139.126L156.965 138.437L153.784 139.356L151.093 139.122L147.996 136.92L147.407 137.701L148.077 141.365L147.327 143.802L145.151 146.088L144.125 144.094L142.971 143.057L141.268 143.686L139.787 144.959L138.605 146.423L138.522 147.862L140.335 149.057V149.785L138.522 149.921L136.776 150.477L136.105 151.695L137.503 153.808L136.826 153.76L135.406 153.138L131.203 153.126L130.621 152.655L128.507 149.756L126.7 148.161L124.88 147.801L123.499 149.785L123.161 149.288L122.862 149.16L122.518 149.169L122.103 149.057L123.234 147.934L123.971 146.602L123.831 145.49L122.317 145.03L116.944 145.762L117.437 144.458L117.676 143.218L118.342 136.357L116.761 138.083L115.608 140.799L114.25 143.314L112.082 144.418L111.556 144.537L110.696 145.009L110.008 145.029L109.359 144.765L107.895 143.684L103.92 141.667L104.535 144.506L103.564 145.819L96.3997 147.047L95.4569 147.044L94.9356 146.9L94.3264 146.508L93.8832 146.436L92.3194 146.541L91.7318 146.436L88.0001 145.165L86.3982 145.034L85.3774 145.294L82.8375 146.571L74.2637 148.111L73.5532 148.392L72.8543 148.88L71.7288 150.087L71.2292 150.462L68.4835 150.89L54.7918 146.903L53.2945 145.83L52.4247 145.927L52.0645 145.767L51.9317 145.384L51.7159 144.124L51.5997 143.692L51.3341 142.952L51.0402 141.591L50.6684 141.006L51.9599 139.83L52.36 139.22L52.5326 138.259L50.4858 139.177L48.7063 139.393L46.9483 139.033L43.899 137.922L42.9511 137.755L42.0464 137.278L39.49 133.835L37.5992 132.203L35.4147 133.045L32.0316 131.252L26.3975 126.882L26.2814 128.002L26.547 129.335L26.6798 130.451L26.1635 130.915L21.8608 130.771L20.6291 130.329L19.5916 129.607L18.6769 128.591L18.3283 127.062L19.1882 125.721L20.5411 124.689L21.6948 124.123L23.1025 123.967L26.8624 124.798L32.02 123.819L32.6359 123.401L36.2015 120.074L37.0216 119.89L37.9429 119.918L38.3977 119.601L37.8316 118.394L34.7158 114.146L33.6185 113.691L31.0904 113.945L28.0957 113.462L21.6649 110.778L21.6782 110.768L21.6848 110.763L24.0802 106.922L24.7674 107.187H30.5791L36.4621 108.472L40.393 107.823L41.7907 107.863L49.2773 109.546L52.9991 111.975L55.821 112.622L58.7825 112.373L61.4169 111.238L63.2794 109.208L62.0095 107.383L63.872 104.82L68.6412 100.76L69.9393 99.9082L73.09 99.5413L74.2769 98.7578L75.3244 97.6274L76.3884 96.8521L77.3695 95.8993L78.168 94.2642L76.5545 95.0394L74.6969 96.3757L72.8443 97.3535L71.2308 97.0297L62.0527 102.267L57.0611 102.936L52.5309 100.414L51.4718 98.7163L51.095 98.4507L50.3181 98.7446L49.1761 100.104L48.5552 100.414L47.79 100.524L46.4587 100.992L45.7598 101.093L44.1512 103.127L43.1802 102.131L42.2157 98.5038L41.0686 97.7087L36.8755 96.8571L35.7334 96.2961L34.7905 95.2386L33.6982 93.489L32.8052 91.5368L32.44 89.8486L32.1843 87.9728L31.7892 87.0565L31.7959 87.025L31.8938 86.5684L35.32 86.6498L36.3658 86.3012L36.8938 85.7202L38.0906 84.8885L38.6185 84.696L39.0833 84.603L39.475 84.6495L39.8336 84.7574L40.9574 85.4529L41.824 85.7517L42.5626 85.7418L44.7173 85.1126L45.8727 84.6113L46.3591 84.188L46.8139 83.7083L47.0048 83.4277L47.6704 82.1346L48.3394 80.2671L48.5303 79.8255L48.8042 79.3773L49.3537 78.8146L49.7654 78.5556L50.1886 78.3863L51.0967 78.2269L51.847 78.2585L55.8127 79.6894L57.5707 79.8521L58.1102 79.7359L58.4687 79.4969L58.6264 79.1698L59.4083 76.7363L59.6722 76.2598L60.2001 75.6705L60.7114 75.3767L62.9939 74.7542L64.4547 74.6197L64.8133 74.6812L65.1204 74.8306L65.3428 75.068L65.6283 75.6523L65.7445 75.9577L66.1877 76.1901L66.875 76.3395L69.2654 76.1536L69.7933 76.0125L70.1518 75.7419L70.3427 75.5444L70.512 75.2688L70.6382 74.9086L70.7229 74.4637L70.7544 73.9873V72.5099L70.8706 72.0667L71.1561 71.919L71.4831 71.9173L71.7936 72.0617L71.9728 72.3057L72.2052 72.5381L72.5323 72.6925L73.1133 72.7522L73.3772 72.9764L73.8852 73.1805L74.5823 73.3548L77.2583 73.2569L77.8393 73.3747L78.0617 73.6088L78.3157 73.818L78.6427 73.9873L80.1882 74.487L80.4836 74.6829L80.726 74.9119L80.9169 75.1725L81.3817 76.0224L81.5726 76.2897L81.7834 76.5421L82.0158 76.7479L82.2698 76.8973L82.4707 76.9488L83.2144 76.9687L86.8514 76.4806L90.1997 76.63L90.6263 76.5321L90.9002 76.3545L91.1541 76.1519L96.4711 74.2629L97.6547 73.642L98.2888 73.1457L98.1627 72.8983L97.8888 72.8319L97.2015 72.8834L96.8429 72.8319L96.2204 72.4866L95.7772 72.3372L92.097 72.6825L90.5017 72.5381L89.9805 72.3788L89.7066 72.2443L89.4526 72.0534L89.2302 71.8143L89.1455 71.4774L89.177 71.1221L89.5157 70.6507L89.8228 70.4648L96.4645 69.3493L97.1716 69.082L98.654 67.3954L99.5305 66.8626L102.301 66.1073L103.02 65.7437L103.358 65.357L103.302 65.02L103.144 64.7411L102.943 64.4987L102.701 64.3344L102.416 64.2597L100.004 64.258L99.655 64.1833L99.401 64.0007L99.2101 63.7534L99.084 63.4446L98.9993 63.1127L98.9147 62.3872L98.8831 61.2501L98.9993 60.7986L99.2533 60.3039L99.9721 59.6267L100.374 59.4092L100.616 59.3428L100.711 59.4092L101.006 59.7495L101.365 60.2807L101.776 60.782L102.21 61.1688L104.031 62.369L104.105 62.198L104.115 61.9324V61.6021L104.2 61.3032L104.285 61.1024L104.476 60.7969L105.691 59.3876L106.275 58.4995L106.423 58.1742L106.529 57.8338L106.507 57.5035L106.37 57.2196L103.251 54.2582L99.328 51.8678L98.9794 51.7715L98.6208 51.7582L97.5717 51.8844L97.2331 51.828L97.0006 51.6321L96.8629 51.3532L96.7882 50.4585L96.6936 49.9571L96.5989 49.6616L96.5558 49.3512L96.5342 49.0093L96.6288 48.6574L96.7666 48.327L97.985 46.6704L99.738 42.9088L100.36 41.2255L100.699 40.6678L101.016 40.5532L101.28 40.6446L102.012 41.5957L102.21 41.6837L103.777 41.7252L104.769 41.5542L105.266 41.3417L105.639 41.0861L107.636 38.7156L108.038 38.4484L108.428 38.3471L108.767 38.4351L109.627 38.958L110.007 39.0874L110.546 39.0974L110.842 38.885L111.001 38.528L111.086 38.118L111.224 37.6798L111.604 36.9012L111.635 36.6439L111.519 36.2339L110.062 33.636L109.67 32.7429L109.564 32.4209L109.485 32.074L109.457 31.7137V31.322L109.564 30.4803L109.902 29.2603L110.578 27.3646L110.769 26.5545L110.812 26.1909L110.822 25.9137L110.769 25.3493L110.642 24.6687L110.548 24.3367L109.097 21.02L108.886 20.7644L108.612 20.5901L108.285 20.5154L105.983 20.4938L105.578 20.3959L105.239 20.2448L104.964 20.0472L104.71 19.8232L104.519 19.5526L104.361 19.2604L104.245 18.9533L104.15 18.6512L104.109 18.3657L104.225 18.022L104.467 17.5324L105.545 16.0931L105.77 15.6084L105.925 14.7054L106.094 14.1427L106.341 13.9866L106.542 14.0746L106.722 14.3219L107.409 15.8574L107.779 17.1605L107.905 17.4726L108.128 17.7033L108.476 17.8279L108.868 17.8876L110.171 17.7814L110.784 17.5905L111.069 17.3249L111.195 16.9663L111.185 16.6011L111.111 16.2575L110.868 15.6383L110.721 15.3511L110.604 15.0357L110.53 14.6838L110.508 14.3086L110.54 13.9053L110.719 13.062L110.845 12.2154L110.867 11.807L110.845 11.4501L110.792 11.133L110.719 10.8957L110.518 10.4392L110.37 10.1752L110.022 9.34356L109.947 9.12942L109.937 9.04644L109.905 8.84887L109.891 8.54679L109.979 8.16665L110.264 7.48933L110.38 7.14571L110.412 6.77058L110.349 6.44687L110.211 6.1647L109.806 5.7115L108.792 4.85161L108.569 4.60095L108.411 4.32207L108.327 3.98012L108.285 3.6249L108.244 2.86293L108.285 1.6727L108.411 0.797913L113.602 2.24707L113.923 2.41972L114.915 3.3327L115.506 3.72115L120.528 4.7935L121.64 5.19523L122.306 5.5654L122.538 6.19124L122.792 7.18224L122.908 7.49435L123.046 7.79146L123.225 8.07369L123.669 8.56174L124.313 9.13277L125.051 9.59422L125.456 9.65896L125.89 9.63738L126.344 9.37345L126.524 9.23069L126.587 9.12446L126.63 8.79908L126.693 8.48038L126.809 8.16832L127 7.8977L127.264 7.71512L127.581 7.60058L134.814 6.14641L135.395 5.86256L135.649 5.63516L135.84 5.36955L135.966 5.02593L135.987 4.65571L135.966 4.28554L135.85 3.57672L135.818 3.23974L135.86 2.91937L136.007 2.69196L136.221 2.5608L136.623 2.3915L140.684 1.55816L141.107 1.63455L141.54 1.81712L142.058 2.3417L142.322 2.73512L142.448 3.10529L142.427 3.41902L142.289 3.72115L141.761 4.66569L141.623 5.03089L141.528 5.37284V5.70653L141.782 6.37883L142.046 7.35655L142.153 7.68027L142.407 7.93589L142.84 8.07698L144.375 7.92095L144.872 7.994L145.273 8.39573L145.463 8.72106L145.589 8.99497L145.959 10.0425L146.128 10.323L146.92 10.4956L153.603 10.074L162.274 7.77986L163.777 7.70681L174.436 11.1098L181.201 11.797L184.353 11.3439L186.171 16.0732L189.587 27.4093L190.256 29.0926L190.382 29.5242L190.467 29.9243L190.51 31.4349L190.605 31.8067L190.806 32.1055L191.239 32.3395L191.619 32.3811L191.977 32.3263L192.58 32.069L193.362 31.488L193.672 31.3319L194.57 31.234L194.961 31.3436L195.922 31.8731L196.27 31.9826L196.64 32.0275L196.989 31.9677L197.275 31.8283L197.497 31.576L197.792 30.8306L197.987 30.5136L198.377 29.9625L198.515 29.6089L198.578 29.2237L198.684 28.8287L198.832 28.4966L199.086 28.2726L199.677 28.0053L204.296 27.5355L204.55 27.587L204.783 27.6932L204.984 27.904L205.11 28.1813L205.003 28.5896L204.824 28.8287L204.602 28.9897L203.597 29.4279L203.355 29.6338L203.154 29.9193L203.028 30.3094L202.933 30.7344L202.849 31.5644V31.9461L202.924 32.3645L203.124 32.7429L203.568 33.1945L204.592 33.9514L204.75 34.2452L204.856 34.6735L204.846 35.462L204.72 35.892L204.562 36.1509L204.213 36.4613L204.066 36.7286L203.981 37.0988L203.971 37.4623L204.012 37.8176L204.572 40.5615L204.603 40.9135V41.2703L204.371 43.3553L204.361 43.7487L204.404 44.4941L204.489 45.2112L204.763 46.5625L204.847 47.2762L204.964 47.6597L205.196 48.0266L205.78 48.3835L206.71 48.7155L207.059 48.9645L207.301 49.3878L208.4 54.1221L208.495 57.5085L208.611 58.2007L208.768 58.541L209.032 58.8332L209.607 59.1021L210.536 59.3112L210.609 59.3494L210.82 59.5354L211.021 59.8756L211.212 60.3786L211.423 61.3331L211.614 62.7989L211.708 63.1292L211.931 63.433L212.374 63.6854L214.057 64.0423L214.396 64.1966L214.691 64.3825L215.473 65.0482L216.086 65.4068L219.386 66.4974L219.671 66.6933L219.914 67.0601L220.156 67.6013L220.9 70.7968L221.079 71.152L221.333 71.4923L221.839 71.8692L222.251 71.9936L223.033 72.0833L223.381 72.2061L223.677 72.3921L223.919 72.6112L224.186 73.1108L224.425 73.8313L224.746 75.3684L224.756 76.1453L224.598 76.6234L224.334 76.801L222.535 77.5779L221.891 77.7555L221.605 77.9066L221.404 78.1373L221.288 78.461L221.225 78.8312L221.172 81.1154L221.077 81.459L220.94 81.7461L220.481 82.3521L220.312 82.6459L220.153 83.0061L219.773 84.2145L219.603 84.5383L219.392 84.7972L219.128 84.9798L218.537 85.2438L218.031 85.6372L217.629 86.2049L217.472 86.5419L217.271 86.834L217.038 87.0415L216.721 87.1528L216.38 87.2274L214.52 87.2706L214.182 87.342L213.886 87.4648L213.622 87.6723L213.421 87.9114L213.264 88.2035L213.222 88.5472V88.8941L213.348 89.9598L213.486 90.335L213.772 90.6587L214.459 90.9259L214.882 90.9027L215.252 90.7981L215.528 90.6753L215.93 90.7981L217.085 91.7012L217.593 91.9469L218.068 92.1062L219.653 92.327L220.065 92.576L220.403 92.991L220.767 93.8558L221.084 94.8153L221.21 95.4827L221.242 95.8412L221.199 96.2114L221.082 96.5649L220.891 96.8704L220.222 97.6008L219.852 98.2001L219.726 98.552L219.663 98.9139L219.685 99.2757L219.769 99.6011L219.895 99.9032L220.181 100.473L221.833 103.104L221.97 103.457L222.077 103.808L222.203 104.115L222.414 104.407L222.741 104.629L223.375 104.752L225.714 104.661L228.917 104.953L229.276 105.129L229.508 105.441L229.518 106.055L229.381 106.444L229.158 106.742L228.926 106.945L228.715 107.181L228.609 107.483L228.587 107.838L228.609 108.854L228.63 108.992L228.652 109.068L228.959 109.237L229.857 109.317L233.041 109.002L233.421 109.053L233.474 109.083L234.975 110.469L235.904 111.017L236.5 111.15L237.536 111.855L237.916 112.026L238.275 112.106L240.212 112.147L240.624 112.567L241.025 113.397L242.715 120.51L242.779 121.032L242.725 121.46L242.345 122.619L242.251 123.017L242.209 123.399L242.251 124.118L242.641 126.101L242.672 126.483L242.682 128.253L243.341 128.854L245.776 129.332L243.731 131.697L240.715 133.598L234.259 135.21L233.61 135.246L232.762 134.946L232.352 134.337L232.297 133.611L232.131 133.214L231.366 133.6L230.89 134.489L230.811 135.608L230.589 136.558L227.639 137.944L227.384 138.384L226.192 140.054L225.827 140.995L225.76 142.019L225.893 142.804L226.293 144.413L226.642 150.701L226.964 152.127L227.618 153.686L230.058 165.598L230.679 166.898L231.477 168.053L232.148 169.268L235.768 178.959L238.74 184.879ZM257.66 133.273L256.568 134.542L252.886 141.67L251.2 144.068L249.636 145.764L246.864 146.724L245.189 148.128L242.855 148.676L241.241 149.907L238.612 151.131L237.392 150.719L237.614 149.771L239.777 147.285L242.151 145.764L241.957 145.387L241.641 144.419L248.761 142.235L252.272 140.377L254.141 136.563L255.771 134.743L256.482 133.06L256.658 132.745L256.849 132.818L257.66 133.273ZM101.594 154.177L102.281 154.896L105.399 154.64L106.242 155.887L105.055 157.168L76.3901 152.47L76.8898 151.891L77.2052 151.86L77.748 152.47L87.552 153.813L92.2431 152.834L94.2617 152.922L96.4363 154.552L99.2483 153.282L100.873 153.131L101.594 154.177ZM30.111 138.254L39.0052 140.434L44.6127 143.037L45.5108 143.689L43.9852 143.365L41.1184 141.984L16.2682 136.661L5.58118 132.524L3.44641 130.587L1.60545 127.549L1.06264 125.95L0.453413 123.432L0.40863 121.613L1.60712 122.094L2.72765 126.304L3.81495 129.214L5.42348 131.261L8.16247 132.872L30.111 138.254Z" fill="#000E40"/>
</svg>
