<svg width="121" height="226" viewBox="0 0 121 226" fill="none" xmlns="http://www.w3.org/2000/svg">
<path d="M72.567 6.01731L73.5282 6.56678L73.8768 6.94027L74.7997 8.22843L75.7924 8.96547L76.2157 9.38047L76.5958 10.3748L76.8814 10.9807L77.2084 11.4903L77.7894 11.8887L78.2642 12.1079L79.6087 12.4365L79.9673 12.5976L80.2213 12.7934L80.1798 13.1586L79.9889 13.4209L79.715 13.6566L78.1728 14.4916L77.63 14.9232L77.1337 15.4129L76.9112 15.6901L76.7104 16.0006L76.5411 16.3409L76.3933 16.7227L75.062 21.6861L75.0089 22.126L75.0188 22.5459L75.1766 22.9443L75.472 23.3095L76.0746 23.6963L76.6025 23.8673L78.4866 24.2043L79.1307 24.5744L79.373 24.9114L79.5739 25.3414L79.8378 26.5748L80.0918 27.0694L80.462 27.516L81.2223 28.1783L84.099 29.8931L86.3417 31.6294L86.9758 32.0146L87.1983 32.2735L87.2929 32.5856L87.102 33.0023L86.6787 33.6248L86.604 33.9634L86.7202 34.2755L86.9626 34.5179L87.4174 34.6125L88.1362 34.4282L88.5063 34.5245L88.8765 34.8333L89.2567 35.6566L89.6202 36.1546L90.2643 36.5613L91.6172 36.963L91.9342 37.1556L92.2081 37.3697L92.409 37.7167L92.5567 38.1632L92.6099 39.5012L92.7477 39.9477L93.1809 40.1851L93.5079 40.2897L96.554 40.5951L96.9342 40.5204L97.213 40.3113L97.4239 40.0357L97.5782 39.6937L97.9932 38.5384L98.1941 38.2445L98.4365 37.9939L98.6373 37.6918L98.9643 36.9846L99.1552 36.6676L99.4408 36.475L99.8309 36.4202L100.254 36.475L100.624 36.7456L100.857 37.2253L100.973 38.1948L100.983 38.8289L100.751 41.3322V41.7721L100.877 42.2501L101.099 42.7349L101.589 43.3956L102.698 44.6322L103.48 45.7677L103.627 46.1827L103.734 46.6774L103.724 47.519L103.544 47.9539L103.27 48.2444L102.636 48.5582L102.361 48.7806L102.203 49.091V49.5077L102.372 49.926L103.217 50.6946L103.503 51.0133L103.609 51.3403L103.503 51.8151L102.605 52.9322L102.203 53.6593L101.949 54.3366L101.854 54.7068L101.813 55.0305L101.791 55.3077L101.876 55.6945L102.108 56.073L102.626 56.5178L103.926 57.049L104.233 57.2383L104.476 57.6051L104.655 58.1131L104.761 59.0626L104.688 60.2744L104.603 60.7292L104.466 61.0961L104.233 61.3435L103.093 61.5676L102.766 61.7153L102.512 61.9394L102.279 62.2083L101.868 62.7893L101.614 63.0201L101.328 63.2126L100.986 63.3388L100.616 63.4185L100.193 63.4384L96.7881 62.9288L96.5241 62.9786L96.5656 63.3869L96.735 63.963L98.6506 67.4821L98.9046 68.1528L98.9992 68.5163L99.0407 68.8749L98.9876 69.1903L98.7552 69.3762L98.4066 69.4741L97.1881 69.587L96.8495 69.7049L96.6387 69.9838L96.5325 70.3938L96.3216 72.7244L96.564 73.1759L97.0188 73.6158L99.5371 74.5405L99.8856 74.7762L100.171 75.0816L100.382 75.6477L100.414 76.0062L100.35 76.4163L100.244 76.7831L100.17 77.1599L100.191 77.5251L100.286 77.8688L100.634 78.4697L102.508 80.9049L103.227 82.0835L103.45 82.7824L103.587 83.536L103.704 83.8846L103.861 84.19L104.052 84.4739L104.486 85.0001L118.614 89.1036L117.389 90.679L116.456 90.9678L115.168 90.9927L114.894 91.1106L114.787 91.3048L115.061 91.5887L116.318 92.4054L116.469 92.7291L116.456 93.1374L116.064 93.8181L115.461 94.5484L114.955 95.0116L114.66 95.1909L114.311 95.3104H113.888L112.236 94.9618L111.866 94.9784L111.602 95.1626L111.401 95.4565L110.745 96.8226L110.608 97.2094L110.545 97.6344L110.671 98.227L110.903 98.564L111.21 98.8312L112.932 99.648L113.526 100.045L114.044 100.501L114.499 101.009L114.826 101.61L114.952 101.942L115.036 102.304V102.709L114.879 103.318L114.605 104.074L112.551 108.311L111.896 109.158L111.736 109.467L111.695 109.83L111.874 110.259L112.097 110.579L112.819 111.333L113.02 111.623L113.061 112.071L112.903 112.674L112.256 113.612L111.781 113.916L111.358 113.949L110.755 113.572L110.397 113.482H110.017L109.646 113.555L109.351 113.71L109.094 114.203L108.918 114.94L108.82 116.472L108.946 117.178L109.16 117.657L111.094 119.143L111.348 119.382L111.486 119.653L111.443 119.956L111.126 120.27L110.237 120.914L110.015 121.175L109.857 121.565L109.784 122.023L109.89 122.735L110.101 123.12L110.375 123.418L110.714 123.585L111.116 123.705L111.559 123.774L115.745 123.818L116.031 124.002L116.232 124.276L116.404 124.584L116.665 125.234L117.092 126.651L117.102 127.006L116.975 127.353L116.574 127.586L114.573 128.376L114.394 128.512L114.268 128.749L114.205 129.148L114.311 129.815L114.48 130.227L114.839 130.876L114.955 131.236L115.061 132.44L115.136 132.801L115.284 133.104L115.516 133.303L115.833 133.454L116.989 133.746L117.274 133.93L117.485 134.189L117.611 134.52L117.633 134.946L117.601 135.429L117.526 136.005L117.505 136.47L117.526 136.897L117.759 137.577L117.95 137.856L118.795 138.912L119.122 139.5L119.248 139.823L119.226 140.255L119.015 140.764L118.425 141.528L118.097 142.111L117.844 142.693L117.749 143.502L117.78 144.028L117.865 144.473L117.991 144.802L118.171 145.099L118.974 146.178L119.132 146.483L119.279 146.807L119.374 147.161L119.437 147.527L119.512 148.336L119.469 149.226L119.49 149.632L119.543 150.022L119.723 150.733L119.965 151.395L120.04 151.75L119.955 152.149L119.67 152.537L118.951 152.914L118.411 153.044L116.285 153.216L114.699 153.917L114.109 154.418L112.805 156.146L112.435 156.445L112.108 156.561L111.738 156.604L110.935 156.448L110.206 156.171L109.572 155.812L108.215 154.737L107.487 154.451L106.23 154.235L105.86 154.106L105.213 153.729L104.092 152.876L103.056 152.399L101.416 152.034L100.951 152.277L100.445 152.828L99.0822 155.5L98.8498 155.746L98.5543 155.927L98.1841 155.98L95.2227 155.512L93.5644 155.55L93.1809 155.846L92.8008 156.427L92.2828 157.791L91.9558 158.445L91.745 159.053L91.6388 159.509V160.268L91.5325 160.784L91.1208 161.289L90.0219 161.772L89.7679 161.988L89.5771 162.288L89.426 162.686L89.1521 163.78L89.0044 164.229L88.8251 164.589L88.6026 164.868L88.3603 165.098L87.8108 165.494L87.1136 166.194L86.8812 166.377L86.6272 166.521L86.3732 166.848L86.1691 167.318L85.867 168.662L85.5366 169.111L85.3988 169.519L85.3673 170.042L85.5897 170.988L85.8122 171.494L86.0446 171.886L86.4397 172.434L86.5774 172.748L86.609 173.136L86.4928 173.576L86.1093 174.086L85.7707 174.365L85.1365 174.745L84.9257 175.007L84.8095 175.412L84.8195 175.918L85.0104 176.589L85.1797 177.017L85.8072 178.314L86.3135 180.048L86.6405 181.484L86.7135 182.271L86.936 187.825L87.263 189.27L87.7378 190.606L88.0449 191.22L88.2241 191.496L88.3935 191.801L88.4997 192.125L88.4366 192.488L88.0664 192.9L87.6747 192.97L86.9144 192.895L86.6289 193.071L86.4596 193.445L86.4911 194.411L86.6488 195.447L86.7965 195.974L86.838 196.471L86.6687 198.856L86.2571 201.411L84.7 206.985L83.9081 207.528L82.9785 209.261L82.288 209.864L81.3899 209.96L80.7625 209.55L80.2063 208.927L79.5407 208.395L76.8216 207.867L75.4305 208.144L75.5434 209.48L76.1875 209.952L76.8631 210.063L77.2964 210.486L77.2117 211.907L76.8731 212.679L76.3269 213.094L75.6397 213.258L74.886 213.315L74.0477 213.124L72.5471 212.136L71.8184 211.907H69.4695L69.086 212.206L68.2759 213.617L67.8211 214.085L67.1803 214.239L64.2255 213.894L62.8527 213.413L62.0244 213.316L61.6227 213.524L61.3371 213.899L61.0483 214.08L60.6399 213.68L59.7103 212.591L57.2203 212.017L55.7346 211.947L54.3369 212.591L53.3127 213.831L52.5873 214.991L51.6261 215.843L49.8765 216.173L48.6614 215.562L47.7417 214.014L47.3782 211.965L47.8247 209.847L47.1126 209.346L46.3839 209.09L45.6684 209.213L44.9895 209.847L44.6824 210.704L45.1056 212.252L44.9895 213.298L43.9785 215.078L43.0705 215.121L42.4081 213.985L42.1542 212.242L41.7873 211.172L40.9922 210.533L40.1921 210.569L39.8252 211.539L40.1174 212.32L41.3955 213.751L41.6877 214.384L41.3424 216.085L40.5042 216.703L39.4401 216.602L38.4292 216.172L35.9425 214.273L34.4385 213.901L33.0591 215.088L33.1852 216.188L34.4667 216.885L37.0331 217.576L38.2266 218.433L39.367 219.608L39.6277 220.644L38.1735 221.09L35.8844 221.218L35.1689 221.09L34.8801 220.679L34.5564 219.98L34.06 219.463L33.2682 219.621L32.6772 221.112L33.6915 224.614L32.5992 225.3L31.0604 225.164L29.9167 224.707L28.9937 223.841L28.1139 222.491L26.9104 219.611L26.4356 218.793L24.6495 217.193L23.3879 216.406L20.1061 217.262L18.8528 216.811L17.2542 218.565L16.2084 216.198L15.6805 214.794L15.4481 213.982L15.5643 213.564L15.8498 213.436L16.1885 213.36L16.474 213.184L16.6433 212.75L16.464 212.495L15.5444 211.917L14.9219 211.295L14.5832 211.052L13.2071 210.302L12.7954 209.993L12.2244 209.45L12.0866 209L12.0966 208.587L12.2443 208.235L12.7622 207.332L12.8784 207.037L12.9316 206.728V206.273L12.8784 205.621L12.6776 205.471L12.4767 205.563L12.065 206.112L11.738 206.25L11.3363 206.193L10.7453 205.778L10.586 205.35L10.576 204.897L10.6706 204.462L10.7121 203.964L10.5328 203.677L10.1743 203.549L9.7626 203.517L9.21978 203.373L8.63877 203.079L7.82539 202.317L7.49836 201.789L7.37222 201.27L7.41371 200.84L7.49836 200.418L7.84697 199.275L7.93162 198.858L7.97478 198.426L7.93162 196.398L7.9532 195.998L8.04783 195.616L8.35493 194.852L8.44954 194.308L8.30181 193.833L8.00632 193.411L7.11824 192.412L6.9074 191.969L6.89744 191.536L7.04519 191.215L7.42533 190.654L7.58468 190.352L7.66933 189.638L7.77559 189.336L8.06111 189.188L8.84296 189.061L9.16003 188.89L9.32933 188.531L9.24468 188.247L8.97079 188.038L7.59796 187.434L7.33402 187.228L7.10162 186.987L6.13054 185.525L5.99274 184.99L5.93631 184.514L6.22514 181.252L6.48908 179.897L6.52064 179.313L6.39447 178.978L6.10896 178.807L5.80351 178.855L5.08141 179.056L4.64815 179.024L4.47882 178.78L4.44728 178.41L4.54192 178.03L4.66806 177.676L4.82743 177.348L4.97518 176.894L5.08141 176.328L5.11295 175.395L4.99673 174.873L4.78592 174.423L4.21489 173.528L4.19331 173.126L4.34105 172.831L4.9652 172.482L5.23911 172.248L5.32376 171.699L5.1976 171.151L4.85897 170.259L4.90046 169.841L5.13286 169.615L5.93631 169.371L6.37289 168.719L6.40443 168.579L6.18198 167.962L5.50637 166.636L5.0482 165.55L4.92204 164.894V164.355L5.06978 164.014L5.24907 163.709L5.67569 163.161L6.40443 162.466L6.66836 162.14L6.8908 161.694L7.10162 160.904L7.11158 160.391L7.03855 159.957L6.92234 159.63L5.89479 157.313L5.76035 156.775L5.70391 156.264L5.80183 155.361L5.89315 154.946L6.32973 153.784L6.44592 153.254L6.37122 152.869L6.2235 152.539L5.47979 151.712L5.22581 151.276L4.89881 150.489L4.82576 149.918L4.84734 149.408L5.24907 147.8L5.29056 146.706L5.2806 145.924L5.3553 145.396L5.49309 144.991L5.69727 144.705L5.92967 144.458L6.19361 144.237L6.7962 143.914L7.80049 143.535L8.04284 143.208L8.20055 142.687L8.17897 141.656L8.20055 141.018L8.2852 140.501L8.70851 139.676L8.93095 138.92L8.90937 138.45L8.79316 138.062L8.02126 136.945L7.81045 136.571L7.588 136.118L7.30249 135.361L7.23942 134.837L7.29253 134.274L7.61954 133.009L7.64112 132.496L7.55647 131.888L7.08171 129.905L7.00702 128.967V127.815L6.94392 127.249L6.78457 126.84L6.56213 126.575L4.85729 125.33L4.61494 124.931L4.37259 124.349L3.75009 121.593L3.15912 119.719L1.95065 117.063L1.5705 115.908L1.45432 115.24L1.44434 114.719L1.49748 114.48L1.58213 114.163L2.525 111.832L2.63125 111.628L2.77898 111.368L2.9898 111.137L3.25375 110.919L5.09137 109.937L5.33372 109.698L5.54786 109.42L5.68233 109.052L5.928 107.774L6.21352 105.043L6.38284 104.206L6.50901 103.829L6.65673 103.484L6.8576 103.185L7.08004 102.926L7.85194 102.257L8.12585 101.901L8.35825 101.401L8.59065 100.455L8.62218 99.8837L8.53753 99.4239L8.33999 99.1383L8.10759 98.886L6.22681 97.3605L5.94794 97.0152L5.67402 96.5819L5.32544 95.815L5.21918 95.2589V94.7576L5.32544 94.3658L5.65244 93.6902L5.84335 93.3848L6.07907 93.1125L6.85096 92.4419L7.05182 91.8045L7.22115 90.8616L7.31576 88.7849L7.3058 87.7989L7.23111 87.0934L7.13648 86.7365L6.84101 86.0924L6.66172 85.7986L6.45091 85.5363L4.82079 84.2166L4.56682 83.8531L4.32444 83.3916L4.05055 82.5682L4.00906 81.9972L4.07213 81.5191L4.23148 80.9896L4.37922 80.3123L4.52697 79.1055V78.4232L4.45227 77.8937L4.33606 77.555L4.15678 77.2546L3.94596 76.9923L3.69198 76.7516L2.75243 76.0793L2.41378 75.7074L2.03034 74.9704L1.93902 74.4508L1.9606 73.9694L2.43536 72.6945L2.60468 71.989L2.61464 71.4744L2.56152 71.0428L2.26605 69.9655L1.62861 68.2574L1.57549 67.8092L1.58545 67.4705L1.71161 67.1584L1.88092 66.863L2.10668 66.594L2.36066 66.3699L2.93171 65.9915L6.78125 64.6734L7.06677 64.3447L7.25768 63.855L7.37386 62.957L7.173 62.5353L6.83437 62.2996L5.94626 62.2017L5.50305 62.0373L5.10796 61.7634L4.70625 61.2804L4.63156 60.8753L4.7577 60.5799L5.01168 60.3558L6.24009 59.6984L6.49407 59.4511L6.68498 59.1489L6.86423 58.7157L7.12819 57.4425L7.04352 56.9976L6.84268 56.6706L5.98611 56.0265L5.73213 55.7459L5.49973 55.4106L5.29555 54.9608L5.3055 54.5574L5.47483 54.2586L5.77362 54.0876L8.28852 53.9L9.02887 53.7141L9.36753 53.4502L9.67795 53.0501L9.93192 52.2052L9.94188 51.6839L9.83565 51.2507L9.663 50.9602L9.44387 50.6879L8.9326 50.2015L8.3101 49.8247L5.92967 49.1142L5.6126 48.9599L5.40178 48.7042L5.50804 48.4917L5.75371 48.2892L7.2112 47.5472L10.5644 46.0051L12.0003 45.0738L13.1556 43.6528L15.9544 39.2489L16.4092 38.726L17.4584 37.7698L17.8916 37.5225L18.5257 37.2668L19.4454 37.1622L20.0264 37.1954L20.9178 37.4212L21.361 37.466L22.9878 37.3116L23.4842 37.1075L24.0237 36.7655L25.2321 35.5371L25.6554 35.0059L26.4257 33.819L26.6481 33.5551L29.1348 31.7689L29.7473 31.2178L30.1491 30.758L30.6238 29.6906L31.1733 28.7145L31.6066 28.1899L34.7589 25.8892L35.1506 25.519L35.3299 25.1986L35.4461 24.8616L35.5092 24.5197L35.5192 24.274L35.466 23.5486L35.4976 23.1502L35.6237 22.8016L38.5951 20.3995L39.2293 19.6343L39.5679 19.0018L39.621 18.5935L39.8318 18.1071L40.202 17.6423L40.9241 16.9617L41.2196 16.4205L41.3989 15.8927L41.452 14.9946L41.5151 14.563L41.7375 14.1978L42.1276 14.0036L42.9311 14.0916L44.4881 14.8103L44.8998 14.8651L45.28 14.7771L45.607 14.5613L45.8078 14.0965L45.861 13.6483L45.8294 13.2084L45.7032 12.4233L45.6717 12.0116L45.7032 11.58L45.8095 11.1816L45.9689 10.8579L46.2228 10.4761L46.3291 10.34L51.0551 8.30148L52.3482 7.13285L52.7599 7.03325L53.2778 7.05481L54.6506 7.60261L56.0168 8.40606L56.8518 8.60526L57.3481 8.55047L57.8661 8.37949L58.5417 7.8898L58.9119 7.508L59.3551 6.92367L60.4573 5.94925L61.0284 5.55583L62.3381 4.95658L63.789 4.50505L64.106 4.34735L64.3915 4.14152L64.6024 3.8477L64.9294 2.58444L65.2249 1.84907L65.4357 1.55856L65.7096 1.30127L66.1213 1.15185L67.2135 1.09377L67.6883 1.29296L68.0684 1.6482L68.3639 2.47985L68.4585 3.07082L68.4801 3.62526L68.4486 4.105V4.54325L68.8719 4.97484L69.2952 5.24708L72.567 6.01731Z" fill="#000E40" stroke="#000E40" stroke-linecap="round" stroke-linejoin="round"/>
</svg>
