<svg width="285" height="157" viewBox="0 0 285 157" fill="none" xmlns="http://www.w3.org/2000/svg">
<path d="M207.929 0.383636L224.931 8.71353L232.005 14.1036L232.502 14.5833L232.935 15.1045L234.185 17.1115L234.449 17.7406L234.544 18.0477L234.66 18.3116L235.41 19.5433L235.727 19.8787L236.233 20.2788L242.568 20.9079L242.864 21.0772L243.118 21.9835L243.413 22.3604L243.952 22.5994L245.604 23.0742L245.931 23.5423L245.984 23.9075L245.9 24.2561L245.667 24.4652L245.36 24.6014L244.311 24.8139L244.079 24.9915L244.016 25.2919L244.09 26.0057L244.1 26.3809L244.037 26.7677L243.879 27.1063L243.689 27.3537L243.488 27.5247L242.865 27.933L242.727 28.1206L242.822 28.3347L243.033 28.5555L244.069 29.3556L244.343 29.6644L245.508 31.2547L245.656 31.5435L245.813 31.8008L246.089 32.1145L247.229 32.908L247.588 33.2533L247.82 33.5637L247.927 33.743L248.137 33.8791L248.433 33.9106L248.986 33.5804L249.24 33.1919L249.45 32.7736L249.651 32.4731L250.307 32.4615L251.29 32.7404L253.428 33.6915L254.178 34.2842L254.601 34.7938L255.119 35.2005L258.081 36.3907L258.778 36.9485L259.148 37.4232L259.306 37.7154L259.698 37.8283L260.469 37.6573L260.906 37.4216L261.233 37.1344L261.952 35.7981L262.375 35.6537L263.009 35.7018L265.484 36.9335L266.034 37.3568L266.731 38.0955L266.922 38.3927L267.481 39.6161L267.676 40.2934L267.697 40.6636L267.76 41.0038L267.908 41.228H268.225L268.668 40.8262L268.879 40.4079L269.017 39.9232L269.334 38.1454L269.482 37.7436L269.661 37.4199L270.084 37.1676L270.75 37.0199L272.063 36.9203L272.665 36.6895L273.067 36.3957L273.246 36.0687L275.376 35.6819L277.348 37.6623L278.542 38.0192L280.881 38.0574L282.021 38.2881L283.114 38.8774L283.641 39.4451L284.983 41.5649L283.24 44.2093L282.835 45.5257L282.782 45.954L282.634 46.3557L282.338 46.8371L281.726 47.3351L281.208 48.1634L280.816 48.6764L280.257 49.0283L279.77 49.9562L279.231 51.6013L279.068 51.9781L278.857 52.3084L278.593 52.5707L278.16 52.662L277.821 52.4993L277.589 52.3101L277.567 51.3274L277.197 50.5903L277.144 50.2749L277.123 49.8317L277.133 49.4201L277.101 49.0515L276.963 48.7793L276.689 48.7893L276.382 49.1312L275.949 49.9811L275.607 50.431L275.121 50.5538L274.93 50.3181L274.867 49.9413L275.058 48.6183L275.048 48.2332L274.878 47.9393L274.551 47.7634L274.14 47.6455L273.706 47.5974L273.336 47.6455L273.051 47.8215L272.808 48.0505L271.474 49.7936L271.062 50.0774L270.629 50.1903L270.227 50.1206L269.878 49.9662L269.656 49.7089L269.54 49.3885L269.382 48.688L269.287 48.356L269.118 48.0622L268.854 47.8347L268.462 47.6986L268.036 47.6123L267.624 47.5907L267.181 47.7402L264.53 50.0093L264.093 50.0708L263.682 50.0093L263.408 49.7985L263.217 49.5213L263.069 49.2159L262.837 49.0017L262.498 48.9104L262.149 48.9486L261.738 49.2341L261.314 49.7155L260.318 51.2759L260.255 51.9034L260.333 52.2769L260.544 52.9708L260.702 53.2596L260.903 53.5302L261.157 53.7626L261.801 54.1361L262.043 54.3768L262.212 54.6706L262.339 54.986L262.646 55.9787L262.847 56.241L263.111 56.4601L263.449 56.6145L267.256 57.2868L267.604 57.4577L269.098 58.482L269.447 58.6314L269.858 58.7227L273.876 58.9518L274.15 59.1443L274.297 59.4299L274.413 59.7585L274.467 60.1237L274.573 60.4524L274.774 60.7247L275.144 60.8907L277.8 61.5314L278.117 61.7024L278.275 61.9796L278.117 62.4062L277.725 62.886L276.827 63.5516L276.246 63.7923L275.75 63.9252L275.37 63.9517L275.018 64.0264L274.543 64.3202L272.093 66.9281L271.562 67.3248L264.342 70.8025L264.138 70.9403L264.047 70.9834L263.716 71.2391L261.879 73.2129L261.371 73.4552L261.075 73.4237L260.906 72.8841L260.748 72.7729L254.879 75.1052L252.935 76.4034L252.681 76.7254L252.49 77.162L252.405 77.9803L252.455 78.4833L252.533 78.89L252.624 79.1424L252.709 79.3183L252.772 79.3631L252.933 79.4262L253.524 79.4793L253.778 79.559L253.788 79.8462L253.703 80.6214L253.713 81.0032L253.904 81.6805L255.342 85.0918L255.352 85.4371L255.214 85.8056L254.781 86.2438L254.517 86.6256L254.454 87.2432L254.56 88.0732L254.666 88.3786L254.908 88.5662L255.226 88.699L255.511 88.8866L255.617 89.1937L255.67 89.5721V89.9755L255.692 90.354L256.084 92.4771L256.316 97.8257L256.401 98.7021L256.422 98.7818L256.479 98.9412L256.627 99.1802L256.922 99.3545L257.704 99.6351L257.999 99.8343L258.169 100.118L258.222 100.473L258.2 100.88L257.503 105.721L257.312 106.149L256.974 106.529L256.188 106.783L255.66 106.868L255.154 106.878L254.752 106.972L254.394 107.223L253.634 108.7L253.433 108.986L250.704 111.595L250.123 112.356L249.784 112.615L249.341 112.82L248.524 112.952L248.091 112.942L247.764 112.862L247.51 112.688L247.277 112.477L247.067 112.218L246.887 111.937L246.665 111.692L246.379 111.504L246.052 111.521L245.778 111.77L245.546 112.412L245.176 113.069L242.415 116.137L242.236 116.469L241.633 117.92L241.125 119.555L240.921 119.851L240.647 120.022L240.214 119.865L239.982 119.597L239.844 119.255L239.675 118.179L239.653 117.804L239.663 117.434L239.748 117.09L239.905 116.795L240.085 116.516L240.191 116.252V115.961L239.641 113.206L239.515 112.915L239.368 112.679L239.114 112.618L238.818 112.749L238.564 113.088L238.206 114.859L237.867 116.081L237.719 116.941L237.741 117.727L237.835 118.466L237.877 119.231L237.804 120.065L237.709 120.496L237.477 121.272L237.181 121.62L236.723 121.931L235.075 122.387L232.515 122.163L232.05 122.326L231.479 122.648L230.508 123.38L229.912 123.949L229.416 124.635L228.8 125.856L228.314 126.52L227.532 127.063L227.014 127.176L226.518 127.541L226.244 127.863L225.468 130.484L224.73 133.899L223.642 133.094L223.4 132.787L223.337 132.432L223.422 131.19L223.4 130.848L223.315 130.572L223.231 130.416L223.083 130.191L221.811 128.685L221.494 128.122L221.357 127.817L221.25 127.49L221.144 126.774L221.038 126.437L220.912 126.137L220.669 125.958L220.299 125.984L218.873 126.969L218.43 127.027L216.737 126.703L215.977 126.668L215.11 126.925L214.708 127.214L214.423 127.541L214.282 127.888L214.219 128.278L214.19 128.673L214.282 129.412L214.527 130.425L214.534 130.493L214.527 130.604L214.471 130.838L214.336 131.104L214.101 131.31L213.847 131.441L211.724 131.894L211.46 132.106L211.302 132.44L211.038 133.233L210.89 133.59L210.696 133.879L210.372 133.984L209.914 133.942L209.154 133.577L208.762 133.257L208.488 132.938L208.002 132.073L207.811 131.799L207.547 131.628L207.167 131.575L205.832 132.118L203.019 132.644L202.152 133.117L201.613 133.512L201.38 133.751L201.179 134.022L200.988 134.332L200.831 134.684L200.705 135.084L200.631 135.499L200.61 135.904L200.651 136.268L200.746 136.602L200.904 136.894L201.136 137.123L201.463 137.272L202.625 137.483L202.882 137.641L202.974 137.948L202.987 138.72L202.952 139.117L202.861 139.458L202.615 139.674L202.308 139.79L200.47 140.001L199.795 140.174L199.531 140.368L199.34 140.639L199.214 140.969L199.199 141.318L199.262 141.655L199.391 141.967L199.866 142.83L199.951 143.172L199.972 143.564L199.878 144.417V144.81L199.994 145.131L200.205 145.38L200.447 145.614L200.648 145.854L200.67 146.165L200.532 146.427L200.258 146.568L198.85 146.826L198.608 147.03L198.492 147.383L198.429 148.175L198.439 148.565L198.354 150.162L198.279 150.489L198.1 150.751L197.793 150.861L186.004 152.735L185.306 152.626L180.844 150.994L180.527 150.81L180.132 150.688L179.699 150.635L179.012 150.844L178.198 151.203L177.891 151.274L177.543 151.203L176.349 149.948L174.528 148.799L173.768 148.537L172.616 148.379L170.151 148.741L169.548 149.02L169.274 149.209L169.042 149.45L168.831 149.727L167.348 152.171L166.472 153.95L165.7 155.106L165.235 155.572L164.971 155.763L164.356 156.022L163.627 156.136L163.036 156.014L162.307 155.763L160.982 155.033L160.423 154.579L160.096 154.148L159.842 153.535L159.251 152.357L159.06 152.089L158.828 151.849L158.532 151.613L156.947 150.763L156.215 150.044L155.665 149.819L153.215 149.505L152.472 149.613L152.017 149.862L151.91 150.255L151.826 150.64L151.71 150.984L151.456 151.161L151.129 151.24L145.184 151.313L144.792 151.24L144.422 151.049L144.115 150.506L144.04 150.036L144.05 149.546L144.113 149.106L144.145 148.681L144.135 148.298L144.062 147.941L143.914 147.656L143.375 146.819L143.259 146.502L143.205 146.153L143.269 145.77L143.406 145.423L143.576 145.094L144.759 143.351L144.917 143.013L145.043 142.656L145.075 142.272L145.053 141.894L144.99 141.547L144.864 141.231L144.716 140.938L143.247 139.168L143.056 138.894L142.908 138.605L142.792 138.29L142.717 137.943L142.686 137.559L142.623 137.199L142.349 136.592L141.99 136.065L141.68 135.885L141.237 135.798L139.525 136.167L139.167 136.099L138.375 135.315L137.505 134.206L135.329 130.508L135.276 130.445L134.378 128.771L134.28 128.476V128.202L134.494 128.018L137.198 126.781L138.011 126.22L138.257 125.991L138.448 125.695L138.586 125.304L138.67 124.88L138.723 124.449L138.702 124.05L138.649 123.7L138.543 123.365L138.279 122.751L137.835 121.064L137.684 120.764L137.304 120.553L136.733 120.473L134.061 120.974L133.634 120.933L133.179 120.79L132.555 120.334L132.08 120.128L131.509 120.017L130.727 120.156L130.058 119.887L129.657 119.655L128.768 118.594L128.461 118.428L128.04 118.38L126.899 118.846L126.536 119.074L126.317 119.316L126.176 119.66L126.122 120.046L126.176 121.162L126.101 121.491L125.878 121.698L125.583 121.846L124.527 122.057L124.179 122.042L123.852 121.917L123.598 121.522L123.324 121.285L122.965 121.235L122.391 121.642L122.158 122.063L122.032 122.517L121.991 123.755L121.938 124.16L121.831 124.528L121.609 124.774L121.292 124.892L120.9 124.877L120.51 124.741L120.151 124.351L120.077 123.977L120.098 123.685L120.204 123.464L120.543 122.92L120.669 122.545L120.764 122.118L120.955 119.985L120.88 119.228L120.774 118.901L120.595 118.635L120.352 118.448L120.057 118.353L116.292 118.667L115.415 118.928L114.853 119.182L114.599 119.401L114.272 119.509L113.848 119.45L113.309 119.118L113.023 118.801L112.832 118.459L112.726 118.122L112.525 117.87L112.208 117.751L111.138 118.217L109.966 119.016L109.459 119.092L103.082 118.159L102.438 117.859L102.215 117.689L102.077 117.551L101.92 117.332L101.772 117.065L101.666 116.733L101.644 116.353L101.697 114.738L101.656 114.452L101.571 114.281L101.232 114.072L99.6803 113.612L99.2221 113.332L98.9582 112.993L98.9051 112.626L98.7357 109.909L98.661 109.56L98.5232 109.265L98.1116 109.042L97.509 108.885L96.3055 108.742L95.2132 108.372L90.2864 107.933L88.8703 108.124L86.4999 108.936L85.6018 109.514L85.0839 110.08L84.9046 110.961L84.7668 111.34L84.6042 111.68L84.3933 111.954L83.897 112.2L81.7639 112.893L81.1928 113.315L80.8011 113.712L80.5969 114.017L80.3546 114.245L80.0691 114.409L79.6258 114.462L79.0863 114.399L78.1882 114.062L77.8496 113.682L77.6919 113.265L77.6604 112.885L77.5973 112.518L77.4712 112.21L77.2703 111.941L77.013 111.718L76.6959 111.544L76.2842 111.486L75.8194 111.585L75.1853 112.009L74.8782 112.357L74.6989 112.679L74.2441 113.977L73.9702 114.22L73.5469 114.261L72.8364 113.982L72.541 113.639L72.3932 113.237L72.3301 112.879L72.2239 112.561L71.6429 112.351L70.7349 112.216L68.6599 112.234L66.6745 111.864L65.9026 111.962L62.7403 113.023L61.8422 113.489L61.2712 113.884L61.1202 114.165L60.8562 115.005L60.73 115.284L60.5507 115.548L60.1175 115.692L59.4419 115.701L56.7975 115.146L53.8079 114.059L53.265 113.953L52.6492 113.943L52.0715 113.8H41.5603L41.1553 114.18L40.7005 115.996L40.3984 116.587L39.8423 116.758L37.8486 116.645L23.566 115.827L21.1357 114.655L19.7696 112.654L18.7802 110.146L17.6564 107.932L16.7799 108.265L16.5973 108.35L15.686 108.921L15.1149 109.099L14.7248 109.037L14.3662 108.773L13.4682 107.917L13.0466 107.806L12.7079 107.874L12.4755 108.106L12.0953 108.692L10.5067 111.609L10.2329 111.873L9.85272 112.122L9.47257 112.118L9.16548 111.999L8.89156 111.776L8.05325 110.762L7.87731 110.482L7.56688 110.148L6.39493 109.245L6.01478 109.041L5.64461 108.948L5.34912 109.016L4.25022 109.444L2.53546 109.756L2.42917 108.933L2.56697 108.581L2.78941 108.139L3.15958 107.58L3.35051 107.181L3.392 106.788L3.32893 106.459L3.19114 106.159L3.11642 105.857L3.15958 105.556L3.33886 104.959V104.922L3.32893 104.879L3.28739 104.784L3.13967 104.584L2.86575 104.413L2.51717 104.27L0.848862 103.858L0.528493 103.685L0.254579 103.48L0.0952557 103.216L0.0421143 102.909L0.136746 102.601L0.316028 102.263L1.62906 100.395L2.03079 99.6118L2.58024 98.1129L2.66489 97.6763L2.74959 96.7998L2.77117 95.9631L2.74959 95.5863L2.70643 95.2577L2.69645 94.9605L2.72801 94.7215L2.84417 94.4011L3.09818 94.011L3.45674 93.5545L5.60479 91.4662L7.09377 89.6054L7.44241 88.9845L8.24581 87.8258L8.69237 87.3079L9.93904 86.2405L10.3507 86.1127L10.9001 86.0861L11.9144 86.3152L12.2248 86.6821L12.3195 87.0954L12.2448 87.517L12.2033 87.9371L12.2664 88.3006L12.4141 88.5927L12.7843 89.1522L12.9005 89.4792L13.3337 91.2238L13.4599 91.5376L13.6076 91.8314L13.7985 92.0937L14.2949 91.9161L15.0336 91.272L16.516 89.368L17.4671 87.6499L17.7527 87.3262L18.1959 87.0904L20.5232 86.7485L21.4096 86.1542L23.068 83.9348L25.2691 84.1157L26.1141 83.8003L27.8388 81.966L29.7611 80.4255L30.4683 80.0902L31.0741 79.989L31.4443 80.1118L31.7182 80.3243L31.9291 80.5716L32.0984 80.8721L32.4254 81.1808L32.9118 81.4514L33.936 81.7037L34.4008 81.7121L34.7278 81.6274L34.9104 81.4149L35.269 80.8306L44.1068 76.1793L44.2545 75.8157L44.3923 75.404L44.4653 74.9542L44.56 74.1009L44.6546 73.6063L44.8654 73.085L45.3402 72.3878L45.7319 72.0957L46.1336 71.9197L47.7223 71.835L48.9789 72.0376L49.2959 72.2002L49.55 72.4393L49.9235 73.0054L50.0579 73.3091L50.2621 73.5482L50.5161 73.7507L50.8862 73.8154L55.8546 73.246L56.5518 72.9505L56.995 72.6186L57.186 71.7769L57.249 70.9486L57.2274 68.9151L57.1328 68.5814L56.932 68.3308L56.6365 68.1233L55.2106 67.5008L54.925 67.2883L54.7341 67.0426L54.9765 66.4882L55.6421 65.6947L58.2135 63.4139L58.7198 62.8428L58.8576 62.4428L59.4917 59.5743L59.5232 59.3286L59.5132 58.9982L59.4718 58.6679L59.3771 58.3375L59.0501 57.7184L59.2294 57.2138L59.8104 56.4219L61.3774 55.2682L63.4275 53.3028L65.7333 51.9781L66.4404 51.8071L66.9899 51.8022L67.7933 51.9781L68.7761 51.9349L69.2309 51.9831L69.5944 52.1109L69.9115 52.3052L70.3348 52.4495L70.8527 52.5491L71.7823 52.4429L72.3318 52.4745L72.6588 52.6504L73.0007 53.2115L73.2232 53.4522L73.761 53.5701L74.5744 53.4987L76.993 52.8878L77.6206 52.8662L78.4024 53.1335L81.8071 52.9061L82.6105 53.0472L83.7194 53.4638L85.381 53.6082L87.4195 54.2225L88.6794 54.9645L89.4513 55.6268L89.7584 55.8028L90.1602 55.8675L90.615 55.8841L91.1329 55.7878H93.9251L95.024 55.4359L98.2809 53.4489L98.8719 53.2563L101.262 53.15L102.097 53.3045L103.608 53.8041L103.991 53.834L105.163 53.7244L106.03 53.8556L107.086 54.2938L107.339 54.4698L107.502 54.6358L107.681 54.8848L108.136 55.7895L108.359 56.075L108.707 56.2543L108.981 56.0883L109.625 55.3628L110.163 55.2367L111.03 55.26L112.554 54.752L113.991 54.0597L116.118 53.4422L117.006 52.921L117.524 52.3997L118.051 50.8393L118.337 49.6857L118.432 49.0648L118.589 48.5087L118.812 48.0174L119.449 47.2255L121.267 45.6934L121.647 45.2385L121.954 44.7322L122.228 43.5503L122.301 42.9128L122.279 40.8876L122.1 38.9571V37.6025L122.216 36.8788L122.48 36.2147L123.096 35.5125L123.709 35.2984L124.268 35.3698L126.36 36.1168L130.389 36.2131L131.016 35.9508L131.439 35.4097L131.682 34.7257L132.115 33.8841L132.601 33.5604L133.003 33.4027L135.384 33.4857L135.921 33.5986L141.228 35.5441L143.366 36.99L143.684 37.3485L143.979 37.742L144.221 38.2001L144.422 38.7579L144.58 39.2907L144.929 41.0387L145.192 41.5849L145.629 41.9965L146.442 42.1891L147.002 41.9799L147.435 41.5782L147.837 40.9939L148.682 40.1539L149.105 39.6343L149.489 38.9056L150.016 38.4126L150.946 37.7967L154.002 36.7742L154.372 36.4986L155.576 35.252L155.946 35.1092L156.316 35.1324L156.643 35.3034L156.917 35.5176L157.043 35.7699L157.078 36.0488L157.232 36.2363L157.691 36.3376L159.613 35.9674L160.068 36.0155L160.227 36.2895L160.333 36.6264L160.707 36.8837L161.266 37.0066L162.428 36.9501L162.968 36.7177L163.316 36.3857L163.474 35.994L163.949 34.3024L164.033 33.8708L164.097 33.4475L164.107 33.0392L163.969 32.7171L163.768 32.4549L163.526 32.2158L163.315 31.9718L163.22 31.6713L163.283 31.3127L163.569 30.589L163.876 30.1707L164.341 29.7042L166.774 28.1671L167.017 27.9712L167.28 27.6624L168.115 26.0489L168.774 25.0877L169.852 23.0261L170.137 22.6708L170.612 22.2309L171.034 22.1496L171.435 22.2093L172.199 22.5148L173.203 22.7488L173.552 22.6542L173.774 22.4251L173.816 22.1047L173.741 21.7578L173.635 21.4009L173.582 21.0507L173.635 20.707L173.836 20.3584L174.692 19.5367L175.431 19.2844L176.427 18.4677L176.776 18.3067L177.124 18.3664L177.398 18.5607L177.536 18.8611L177.567 19.2379L177.493 20.063L177.546 20.4099L177.757 20.6456L178.369 21.0656L178.592 21.3129L178.698 21.6615L178.729 22.0384L178.814 22.3985L179.005 22.6708L179.312 22.8833L180.087 23.1522L181.186 23.3448L181.99 23.3614L182.476 23.2651L182.835 23.0875L183.736 22.1977L184.339 21.7147L184.74 21.6665L185.026 21.8093L185.142 22.1479L185.164 22.5347L185.11 25.0164L185.132 25.3982L185.248 25.7285L185.713 26.6216L188.336 30.1906L188.474 30.438L188.728 31.0571L188.982 32.1328L189.108 34.0634L189.171 34.4435L189.265 34.7722L189.583 34.9996L190.069 35.144H190.999L191.442 34.9481L191.731 34.6179L191.772 34.2244L191.804 33.836L191.782 33.4293L191.877 32.9844L192.014 32.576L192.458 32.1262L192.849 32.0083L193.251 32.0399L193.885 32.42L194.689 33.079L195.069 33.2849L195.612 33.416L196.478 33.494L196.986 33.411L197.388 33.245L198.625 32.1859L199.29 31.3841L199.664 30.7251L199.801 30.3333L199.992 29.9034L200.256 29.495L200.711 29.0601L201.144 28.9423L201.556 28.9954L202.295 29.3075L204.053 30.5143L204.295 30.755L204.591 30.9642L204.855 31.2049L205.9 31.5535L206.993 31.6132L207.479 31.4041L207.818 31.087L208.166 30.6156L208.641 30.101L211.74 27.518L212.142 27.0349L212.384 26.5618L212.447 26.1435L212.457 25.7269L212.351 25.4181L212.024 25.2538L210.799 24.9749L210.532 24.7607L210.362 24.4819L209.2 21.1984L209.094 20.8597L208.767 19.9517L208.704 19.7392L208.661 19.4819L208.588 18.7748L208.619 15.9893L208.513 14.8439L207.964 12.3738L207.456 11.0873L207.308 10.7852L207.129 10.4997L206.918 10.2258L206.692 9.9834L205.9 9.30781L205.445 8.7766L205.404 8.42138L205.457 8.06114L206.968 3.70531L207.14 3.31685L207.929 0.383636Z" fill="#000E40"/>
</svg>
