<svg width="285" height="180" viewBox="0 0 285 180" fill="none" xmlns="http://www.w3.org/2000/svg">
<path d="M98.5975 179.064L94.3147 177.381L93.5528 177.407L92.2414 177.882L91.428 178.023L86.8248 177.912L85.3491 177.54L80.1234 175.083L78.9913 174.046L78.5863 172.132L78.2044 171.343L76.1991 168.762L75.5982 168.267L74.5359 168.331L73.1796 168.76L71.4648 168.887L70.1036 167.811L69.2155 166.855L61.8601 161.664L61.3156 160.414L61.216 159.174L60.3993 157.096L62.0227 158.938L63.862 158.527L64.3334 158.269L65.8441 157.112L66.5479 156.935L68.1432 157.029L68.7109 156.963L69.1873 156.659L70.258 156.271L73.8718 156.179L74.1656 156.055L71.923 155.622L71.1046 154.921L70.9851 153.211L71.6341 151.928L72.5007 150.827L73.0501 149.871L73.2825 148.469L73.168 147.549L72.509 145.7L72.0608 142.989L71.7072 141.576L70.9868 140.144L71.7786 139.493L71.9429 139.239L72.089 138.799L72.5372 136.903L73.1431 135.142L74.2005 133.693L76.82 132.78L77.4873 131.713L77.904 130.147L78.153 128.323L78.1314 126.188L77.3877 122.498L77.1852 120.843L77.0059 120.358L75.8307 117.989L75.57 117.04L75.3227 114.492L74.2536 110.634L72.6186 108.511L68.0635 105.568L64.2156 102.08L63.2893 101.693L60.5819 102.065L58.1201 103.036L55.7944 104.445L53.8556 104.997L52.9857 103.853L52.3699 102.548L51.0252 101.861L47.9426 100.978L46.8321 99.9236L44.4018 96.8725L42.7485 95.9313L42.1193 95.0332L41.3574 93.6156L40.8013 93.2006L39.6908 92.759L39.0517 92.3689L34.4585 88.4231L32.0448 86.8229L29.3058 85.7239L19.2645 84.8691L17.9879 85.0716L16.9903 85.782L14.6497 88.3584L13.4777 89.0606H8.4861L6.90077 88.5526L4.47055 87.2794L2.81886 87.037L0.896546 81.5275L0.571213 80.0119L1.55724 77.2297L3.66543 74.9688L11.7829 68.7504L13.2503 68.299L14.9037 68.1495L16.0856 67.7694L17.0683 67.1951L17.9846 66.4497L18.554 65.7741L18.9192 65.1699L19.633 64.5125L20.7767 64.305L21.6084 64.4162L23.0078 64.9408L23.6054 65.0171L24.2279 64.8063L24.2993 64.3747L24.0918 63.5629L23.9805 62.7827L24.1249 61.8233L24.4154 61.1776L24.9234 60.4305L27.0449 58.2393L31.7842 55.0223L47.2869 47.793L47.9625 47.2601L48.1999 46.4235L48.0306 46.2226L47.4878 45.9604L46.7425 45.1635L46.8752 43.8173L47.8032 42.9458L48.7145 43.5202L49.8799 45.0341L52.0943 46.3073L54.2689 46.0533L59.1459 42.9956L61.5364 41.9547L61.8352 41.4369L64.0148 38.9933L65.1253 38.5335L67.9174 36.6992L69.1807 36.1663L69.8397 36.437L71.1677 37.4097L71.8466 37.5408L72.3911 37.4379L73.8436 36.9831L75.4123 35.0176L76.8914 34.0283L77.7413 33.6598L78.5016 33.5303L79.3781 33.7112L80.2329 34.1345L81.0049 34.7852L81.2804 35.4907L81.458 35.748L82.0324 35.8045L83.0716 35.6418L83.143 34.8118L83.0018 32.5525L83.2243 30.1256L84.5971 30.7398L85.5483 30.2219L87.9702 29.5761L88.5811 29.1993L87.7478 28.4656L86.5293 27.8431L82.7229 26.8355L81.146 26.9948L80.5998 27.2455L80.1948 27.7734L79.6088 28.1668L79.3681 28.3112L77.987 27.2721L79.4943 25.2269L79.9425 24.3339L79.8628 24.1563L78.9996 23.796L78.9083 22.6374L79.31 21.5832L79.7482 20.8081L79.6768 20.237L78.822 16.9054L78.6859 15.5873L79.5191 14.4286L80.0719 13.4559L79.7732 12.176L78.6509 10.0147L80.96 7.58779L81.6506 5.34349L80.9667 1.59851L81.9112 0.35022L85.2412 2.71904L87.8225 2.94149L90.9532 2.00855L94.0823 2.72071L97.3758 4.60316L100.893 6.91387L104.092 9.21795L106.439 10.5741L109.25 11.6963L111.78 12.606L115.41 13.0326L118.111 12.1179L120.581 12.3536L123.285 13.7779L125.133 15.1026H127.357L129.465 16.6215L130.622 19.2476L131.573 21.3027L132.823 23.3163L134.356 24.8452L136.298 26.3441L138.625 26.7376L139.591 25.1489L140.36 23.7612L143.354 24.2691L145.303 24.0368L148.18 23.8077L151.482 24.5016L154.8 26.6164L156.786 28.7412L158.329 32.1325V39.0763L158.628 41.4169L159.905 43.0437L163.907 44.1476L167.235 46.7323L169.586 49.1973L170.886 49.5675L172.902 48.281L176.01 54.4396L195.591 83.4581L205.515 90.4068L207.935 90.6226L219.861 87.2512L221.165 86.3249L222.893 84.4673L223.146 83.6207L223.205 82.8339L223.627 81.8645L224.706 81.5906L224.993 81.3399L226.001 79.9322L226.188 79.5272L226.369 77.8838L227.002 75.9947L227.993 74.3745L229.294 73.591L231.409 73.772L231.645 75.1564L231.074 76.755L230.757 78.3137L231.15 79.2882L232.233 80.1795L237.332 83.2489L239.824 84.0855L242.038 83.6207L243.952 81.1141L244.805 78.3054L245.134 77.6929L247.101 76.4744L248.56 74.997L249.981 74.4841L257.853 74.5157L258.807 74.0044L260.014 72.9984L261.502 73.4383L262.142 74.9688L261.704 76.2769L261.845 76.2702L262.381 75.8719L262.936 75.334L263.919 74.9107L265.343 75.2029L267.654 76.7085L268.812 76.9591L272.81 76.0329L274.418 76.3466L276.237 78.7337L277.172 79.5703L277.916 79.3412L279.164 78.0714L280.572 77.8074L281.764 78.4814L282.882 79.7712L284.152 83.2107L284.69 85.6824L284.035 87.0187L281.634 87.6728L280.724 87.7342L279.815 87.5001L277.705 86.368L276.249 86.1672L275.22 86.4245L274.483 87.2644L274.191 88.9742L274.358 89.4556L274.788 89.8374L275.099 90.5446L274.491 91.6585L273.728 92.09L272.083 92.1996L271.717 92.3523L270.891 93.5425L270.172 95.4383L269.639 97.485L269.068 103.109L269.028 105.169L269.407 107.01L271.199 109.032L272.209 110.647L272.046 112.4L270.97 113.441L265.964 115.27L259.752 115.579L259.115 115.77L258.651 116.1L258.429 116.565L258.072 118.129L257.68 118.886L256.065 119.284L249.93 117.925L246.56 115.855V116.462L244.108 115.377L242.779 116.704L241.698 118.836L240.481 120.204L235.063 119.863L230.338 120.747L228.673 119.955L228.021 117.618L227.629 116.698L225.659 114.299L224.874 113.555L220.525 110.802L215.667 108.904L212.786 108.429L209.912 108.451L207.193 109.04L204.789 110.212L201.27 113.072L200.812 113.72L200.654 114.732L200.274 115.621L200.113 116.215L200.294 117.01L200.56 117.305L202.693 118.258V119.38L201.456 119.963L199.207 119.817L198.359 120.124L197.695 121.03L197.597 122.168L198.201 126.022L194.454 123.064L194.429 123.097L193.629 123.688L192.99 124.311L191.242 123.257L190.381 123.842L188.872 126.927L187.464 128.208L184.42 128.927L183.429 129.42L181.817 132.428L180.391 136.565L178.324 139.875L174.938 139.322L174.113 138.16L173.452 136.774L172.74 135.791L171.515 135.345L169.352 135.248L168.734 135.363L168.037 135.726L167.629 136.155L167.202 136.658L166.518 137.242L165.097 137.511L162.961 136.991L162.119 137.562L160.838 138.119L156.093 137.282L153.741 138.157L149.035 141.347L146.412 142.542L140.889 143.749L138.786 144.677L136.618 147.021L136.449 146.254L134.067 149.649L133.721 150.28L133.028 151.186L130.738 155.203L128.104 162.115L127.329 163.558L126.499 163.824L124.877 163.613L123.976 163.636L123.268 163.55L123.156 163.583L123.004 163.737L122.996 163.865L123.023 164.217L122.8 164.69L121.376 167.059L120.31 167.954L117.135 168.621L116.383 169.572L115.808 170.93L114.876 172.552L114.062 173.397L111.693 175.049L110.634 175.399L109.012 175.646L101.775 179.101L100.218 179.331L98.5975 179.064Z" fill="#000E40"/>
</svg>
