<svg width="233" height="295" viewBox="0 0 233 295" fill="none" xmlns="http://www.w3.org/2000/svg">
<path fill-rule="evenodd" clip-rule="evenodd" d="M9.32672 13.226L7.19199 15.1018L7.25102 15.2987L7.70158 16.2809L7.90225 16.5879L8.2033 16.895L8.57912 16.9718L8.92929 16.834L9.56875 16.3832L9.84417 16.3124L10.0449 16.4324L10.1708 16.6273L10.2711 17.0111L10.3085 18.0169L10.0961 22.7862L9.93273 24.2723L9.73207 25.2801L8.93127 27.0063L7.91606 28.4255L6.88505 29.4392L4.35489 31.3406L2.83597 32.12L1.97225 32.3503L0.982553 32.4271L0.606802 32.6535L0.50647 33.1948L2.02142 38.7809L2.88911 45.4299L3.29044 47.2526L3.5915 48.0872L3.76658 48.4198L3.9535 48.6324L4.19157 48.5399L4.42964 48.2466L6.04493 45.489L6.32041 45.1996L6.68241 45.0658L7.09953 45.1386L7.96325 45.4712L9.44086 46.4298L11.9612 48.7249L12.4491 49.3902L12.638 49.7484L12.7876 50.1204L12.9371 50.5653L13.1634 51.4629L13.3267 51.8585L13.6277 52.1577L14.0409 52.3604L15.9828 52.9922L16.7875 53.4784L17.1121 53.7619L17.663 54.3898L17.8637 54.7559L18.0388 55.1338L18.1647 55.5531L18.214 56.0904L18.151 56.6888L17.8263 57.5253L16.7619 59.2063L16.3311 60.0231L16.1815 60.5802L16.0989 61.1982L16.0497 61.9954L16.0753 62.891L16.3251 65.8101L16.2995 66.7726L15.975 67.5757L15.5952 67.6032L15.245 67.4575L14.9439 67.1524L14.2927 66.6013L13.8796 66.4025L13.366 66.2903L10.8201 66.3297L10.4699 66.7273L10.4069 67.5225L10.7709 69.2586L11.2214 69.8688L11.7015 70.16L12.1521 70.227L12.516 70.4199L12.7915 70.7309L17.2774 77.7873L19.2312 80.0234L19.4574 80.3206L19.6069 80.917L19.6561 81.7772L18.1156 90.7508V91.2921L18.2277 91.7605L18.6291 92.0814L18.9675 92.1798L21.964 91.7605L23.0284 91.9219L23.904 92.2881L24.4922 92.8746L24.7185 93.2309L24.868 93.6344L25.1061 94.4985L25.3815 96.2995L26.501 100.663L26.5129 101.254L26.3869 101.978L25.8872 103.151L25.4996 103.738L25.1081 104.153L22.5916 105.596L22.3044 105.899L22.0663 106.267L21.3029 107.999L19.0324 111.456L18.269 112.885L17.4919 114.605L17.3797 115.089V115.615L17.73 116.288L18.0546 116.711L18.4185 117.056L19.8214 118.071L20.0476 118.465L20.1106 118.971L19.7348 120.42L18.9341 122.809L18.7708 123.163L18.5071 123.472L18.1313 123.65L17.1928 123.768L16.9056 124.09L16.88 124.695L17.2184 125.62L17.6571 126.053L18.5209 126.578L18.7708 126.893L18.9341 127.194L19.0226 127.437L19.06 127.594L19.0482 127.962L18.9596 128.586L18.2336 131.066L18.0467 131.499L17.8086 131.867L17.5214 132.163L17.1574 132.353L16.7068 132.383L15.2627 132.058L14.8495 132.072L14.5367 132.285L14.3872 132.668L14.4363 133.107L14.7866 133.554L16.0143 134.298L16.3055 134.578L16.3645 134.987L16.1146 135.505L15.8648 135.914L15.5007 136.184L15.0758 136.302L13.2598 136.505L13.0473 136.879L13.0846 137.436L13.61 138.402L14.1117 138.727L14.5997 138.816L15.0246 138.701L18.1333 137.39L18.572 137.282L22.0073 137.154L22.4716 137.282L22.8592 137.489L23.4967 138.046L24.4863 139.349L24.6733 139.709L24.8995 140.05L25.1041 140.414L25.3127 140.739L25.6058 141.325L26.1312 144.839L27.1838 147.488L27.4219 149.48L27.7976 150.171L28.199 150.492L29.1631 150.427L29.6884 150.492L30.1803 150.626L30.5305 150.877L30.7941 151.185L30.9948 151.557L31.9589 153.893L32.6593 155.216L32.8974 155.537L33.1846 155.838L33.586 156.046L34.5127 156.373L34.7921 157.078L34.918 158.227L34.4872 163.201L34.5914 164.65V165.172L34.5363 165.709L34.4872 167.337L34.5127 167.774L34.6288 168.185L34.7921 168.589L35.0184 168.921L35.3056 169.214L35.6303 169.488L36.7576 170.159L37.0823 170.427L37.2692 171.033L37.4069 171.87V173.561L37.7453 174.242L37.9578 174.877L37.9834 175.425L37.2692 176.7L36.7439 177.243L36.2441 177.617L33.5349 178.288L33.3342 178.379L33.0961 178.535L32.8698 178.893L32.7203 179.416L32.7085 180.282L32.8462 181.424L33.948 186.081L33.8851 186.386L33.6844 186.776L33.1965 187.341L32.9328 187.866V188.666L33.0823 189.179L33.2692 189.64L37.9066 197.314L38.0562 197.714L38.1309 198.145L37.881 198.84L37.4187 199.657L35.6164 201.647L35.0656 202.088L32.8698 203.221L32.5078 203.578L32.0691 204.194L31.5555 205.412L30.2531 207.193L29.8615 207.601L29.5527 207.847L29.1729 208.034L27.9708 208.465L27.6324 208.689L26.6683 209.628L26.1174 210.044L23.4967 211.268L20.5632 213.488L20.1755 213.618L19.7624 213.657L19.062 213.535L18.7117 213.657L18.273 213.974L17.7221 214.842L17.2833 215.256L16.7954 215.457L15.8018 215.36L15.3768 215.374L14.9892 215.51L14.3636 216.008L14.1255 216.419L13.9995 216.949L14.2376 218.031L14.4757 218.626L14.9007 219.492L14.9636 220.141L14.9381 220.986L14.6252 222.621L14.3989 223.474L14.1727 224.149L13.5588 225.338L13.1201 226.034L12.5436 226.755L12.4551 227.042L12.5298 227.298L13.6061 227.479L14.6213 227.454L16.453 227.117L16.8918 227.103L17.305 227.188L17.5548 227.465L17.6551 227.975L17.6807 228.627L17.606 229.631L17.5056 230.308L17.2676 230.894L16.9292 231.343L15.6975 231.93L15.2725 232.309L15.0089 232.618L14.7826 234.437L18.7432 235.03L19.3059 235.287L19.906 235.758L20.1185 236.173L20.2306 236.685L20.1421 237.545L19.9926 238.116L19.7918 238.632L18.9537 240.305L18.816 240.73L18.7156 241.204L18.6291 241.74L18.6035 242.763L18.7412 244.173L18.9281 244.726L19.2292 245.348L19.8804 246.3L20.3428 246.802L20.8071 247.147L24.0535 248.794L24.3171 249.194L24.4666 249.741L24.4922 250.668L24.3919 252.192L24.266 252.495L24.0397 252.758L23.7761 252.977L23.4377 253.195L22.9497 253.374L22.6487 253.581L22.3988 253.89L22.2729 254.307V254.758L22.5227 255.485L24.388 259.346L24.6634 260.226L24.6752 261.864L24.6004 262.98L24.4627 263.429L24.2502 263.807L23.9492 264.086L19.9375 266.751L19.662 267.056L19.4357 267.362L19.2489 267.678L19.1603 267.881L19.0856 268.161L19.0482 268.334L18.997 268.796L18.9852 269.627L19.0226 269.928L20.2995 272.33L20.6162 273.152L20.817 273.835L20.8681 274.821L21.0944 275.363L21.5823 275.882L22.81 276.516L23.599 276.766L25.8813 277.134L26.2689 277.284L26.5935 277.611L26.932 278.122L28.0338 280.549L29.5153 282.764L30.0662 283.915L30.2295 284.571L30.5049 284.868L30.9929 285.11L32.0947 285.132L33.3224 284.956L34.1979 285.346L34.9652 287.072L38.1211 288.019L38.4851 288.367L38.8471 288.793L38.6877 289.125L38.3572 289.33L37.9814 289.495L37.6568 289.771L37.4699 290.212L37.5702 291.039L37.9204 291.706L38.4969 292.367L40.1536 293.584L41.4816 294.076L46.2429 293.59L48.301 293.678L48.84 293.422L49.0899 293.036L48.9148 291.718L48.9266 291.265L49.0388 290.838L49.2513 290.474L49.4893 290.135L50.6541 289.017L51.1932 288.391L51.8563 287.342L52.0943 286.759L52.4957 285.449L52.7003 285.035L52.9639 284.724L53.928 284.187L55.6692 282.86L56.4838 282.642L59.1674 282.581L59.982 282.447L60.5211 282.185L61.3888 280.829L62.04 280.124L62.5417 279.914L63.0926 279.959L63.6809 280.126L66.0891 280.305L66.5535 280.447L67.3306 280.888L67.7182 281.041L68.4324 281.169L68.7708 280.959L68.8711 280.62L68.7708 280.223L68.6213 279.839L68.0448 278.811L67.8953 278.506L67.8323 278.282L67.8579 277.91L68.1825 277.455L68.7078 276.955L69.8589 276.29L70.3979 275.682L71.2538 274.522L71.6926 274.406L72.1549 274.463L73.8962 275.168L74.1972 275.404L74.2346 275.77L74.1224 276.168L73.2213 277.622L72.8455 278.455L72.7078 278.904V279.358L72.82 279.742L73.0954 280.038L73.4968 280.242L87.6588 283.266L88.0346 283.429L88.2884 283.628L88.3711 283.96V284.401L88.3376 284.913L88.4635 285.425L88.7645 285.921L89.5791 286.366L90.2795 286.372L90.7045 286.116L90.917 285.675L92.4438 278.918L92.912 277.548L93.038 277.079L93.0714 276.595L93.0459 275.63L93.1206 274.619L93.337 273.613L93.6007 273.107L93.9883 272.621L94.7772 272.056L95.3655 271.871H95.942L96.4044 272.013L96.8175 272.2L97.1815 272.43L97.8111 272.975L98.0748 273.27L98.4879 273.969L98.6886 274.387L98.9523 274.739L99.3398 275.091L99.6645 275.117L99.8908 275.085L102.549 274.117L102.962 273.881L103.863 273.034L104.276 272.997L104.652 273.113L106.911 274.408L107.298 274.367L107.599 274.131L108.064 273.396L109.116 271.275L109.455 270.82L109.779 270.749L110.08 270.891L110.732 271.473L111.312 271.678L112.302 271.806L113.478 271.428L114.204 271.336L114.718 271.402L115.042 271.647L115.306 271.952L116.9 274.79L117.175 275.146L117.6 275.467L118.013 275.503L118.389 275.404L119.867 274.52L122.513 273.725L122.814 273.495L123.703 272.432L124.128 272.04L124.866 271.58L125.372 271.65L126.623 272.233L127.461 272.182L127.937 271.932L128.764 271.048L129.545 270.564L130.084 270.529L130.46 270.733L130.66 271.08L130.836 271.456L131.174 271.863L131.662 272.17L132.764 272.363L133.352 271.841L133.665 271.32L133.69 270.775L133.631 269.346L133.665 268.852L133.765 268.346L133.915 267.907L135.847 264.381L136.185 263.907L136.636 263.382L138.08 262.252L138.481 261.848L139.219 260.815L140.046 259.858L142.037 257.977L142.513 257.28L142.989 256.801L146.436 254.414L146.7 254.085L146.926 253.754L147.264 253.111L148.596 249.808L149.072 249.188L149.81 248.473L152.319 246.718L152.781 246.237L152.87 245.952L152.944 245.507L153.031 244.001L153.005 243.525L152.956 243.064L152.856 242.649L152.618 242.309L152.254 242.076L151.311 241.832L150.924 241.629L150.674 241.33L150.536 240.927L150.487 240.462L150.55 239.004L150.751 238.514L151.077 238.063L152.067 237.161L152.335 236.73L153.324 233.945L154.15 232.313L154.3 231.855L154.375 231.361L154.337 230.9L154.211 230.502L153.887 229.745L153.838 229.331L153.912 228.886L154.088 228.461L155.215 226.57L155.39 226.125L156.104 221.649L156.116 221.171L155.978 220.769L155.728 220.452L155.416 220.186L155.128 219.885L154.928 219.553L154.902 219.1L154.965 218.667L155.077 218.25L155.152 218.013L156.09 216.151L156.216 215.712L156.258 215.279L156.041 214.947L155.74 214.679L155.052 214.187L154.776 213.892L154.627 213.539L154.701 213.138L154.89 212.756L155.691 211.827L155.955 211.481L156.718 209.898L157.324 209.065L157.788 208.668L158.265 208.426L161.112 208.095L167.339 203.702L168.139 203.436L169.054 203.312L172.025 203.326L172.915 203.184L174.333 202.658L174.947 202.529L175.348 202.564L175.799 202.678L176.1 202.893L176.312 203.208L176.425 203.619L176.488 204.072L176.588 204.507L176.726 204.908L176.901 205.265L177.113 205.607L177.4 205.898L177.725 206.17L178.001 206.475L178.164 206.857L178.25 207.284L178.339 208.223L178.451 208.638L178.638 208.979L179.23 209.648L179.655 210.282L179.919 210.599L180.332 210.809L180.558 210.77L180.759 210.553L180.897 210.13L181.109 209.026L181.322 208.41L181.735 207.729L182.148 207.497L182.561 207.552L182.886 207.792L183.199 208.073L183.63 208.333L184.218 208.483L185.27 208.434L185.859 208.239L186.309 207.969L186.547 207.626L186.748 207.205L186.898 206.713L187.098 205.66L187.199 204.828L187.299 204.406L187.563 203.843L187.938 203.629L188.381 203.589L188.757 203.778L189.021 204.089L189.146 204.491L189.196 204.952L189.095 207.499L189.158 207.939L189.359 208.296L189.723 208.542L197.339 209.979L197.819 209.874L198.083 209.744L198.47 209.093L199.259 207.38L200.135 205.93L201.563 204.465L201.805 204.115L201.939 203.674L201.988 203.204L201.888 201.851L201.98 201.43L202.167 201.058L204.221 198.34L205.01 196.643L205.361 195.734L205.561 194.677L205.599 193.651L205.573 192.691L205.447 191.787L205.361 191.378L205.286 190.957L205.349 190.563L205.624 190.028L205.974 189.728L206.38 189.52L209.498 188.549L210.175 188.191L210.63 187.786L210.738 187.337L210.779 186.867L210.563 186.032L210.012 184.445L209.837 183.573L209.699 182.656L209.662 181.668L209.612 181.204L209.512 180.784L208.912 179.21L208.825 178.786L209.138 178.155L209.827 177.418L212.347 175.491L212.898 174.95L213.286 174.088L213.699 172.925L214.049 172.195L214.387 172.116L215.188 172.439L215.769 172.539L216.745 172.395L217.284 172.161L217.734 171.893L219.462 170.102L219.963 169.417L220.406 168.628L220.569 168.185L220.619 167.713L220.593 167.246L220.481 166.825L220.294 166.453L219.832 165.792L219.552 165.484L219.127 164.864L218.989 164.583L218.901 164.335L218.838 163.963L218.812 163.512L218.862 163.002L218.962 162.501L219.237 161.847L219.639 161.168L220.506 160.091L220.92 159.66L221.321 159.359L222.072 159.105L222.523 159.04L223.536 159.15L224.024 159.314L224.829 159.739L225.543 160.241L226.582 160.652L228.703 157.525L228.886 157.113L229.128 156.405L229.061 156.003L228.886 155.605L228.66 155.229L228.51 154.733L228.636 154.352L228.961 154.005L230.204 152.139L232.207 146.563L227.332 143.551L226.844 143.028L226.356 142.333L226.543 141.979L226.793 141.652L227.381 141.069L227.705 140.827L227.993 140.493L228.193 140.113V139.51L227.955 139.176L227.591 138.928L226.627 138.816L225.712 138.938L225.11 138.922L224.396 138.784L223.153 138.182L222.59 137.737L222.202 137.351L222.027 137.036L221.864 136.682L221.789 136.249L221.764 135.79L221.789 135.227L221.764 134.597L221.577 133.769L221.327 133.32L221.051 133.019L219.131 131.375L218.83 130.686L218.781 130.106L218.944 129.608L219.407 128.82L220.3 127.606L220.4 127.502L220.55 127.383L220.788 127.269L221.038 127.24L222.728 127.535L222.854 127.541L222.903 127.527L223.241 127.291L223.454 126.996L223.617 126.563L223.704 126.09L223.804 124.36L223.591 122.563L223.253 121.827L222.777 121.425L219.353 121.459L218.364 121.335L217.888 121.191L217.236 120.626L216.447 119.707L213.6 115.755L212.562 114.999L210.228 112.745L209.353 112.123L208.638 111.794L206.822 112.038L205.178 112.572L204.827 112.763L204.54 113.032L204.377 113.408L204.314 113.873L204.302 114.357L204.251 114.808L204.101 115.205L203.613 115.819L203.476 116.192L203.45 116.638L203.513 117.065L203.55 117.473L203.462 117.841L203.224 118.085L202.51 118.447L202.171 118.683L201.921 119.042L201.705 119.465L201.217 120.195L200.953 120.524L200.641 120.799L200.239 120.951L199.777 121.01L196.554 120.705L196.066 120.74L195.641 120.845L195.265 121.03L194.952 121.286L194.376 121.896L193.851 122.579L193.55 122.86L193.162 123.031L192.243 123.159L191.83 123.281L191.505 123.518L191.204 123.831L190.427 124.864L190.126 125.153L189.739 125.317L189.274 125.362L188.206 125.283L187.755 125.336L187.38 125.514L186.754 126.059L186.404 126.269L186.002 126.401H185.526L180.613 125.279L180.301 125.285L179.913 125.358L179.563 125.535L179.232 125.807L178.431 126.795L177.579 127.531L171.24 125.947L169.595 125.769L168.531 125.813L168.118 126.108L167.592 126.319L166.703 126.49L166.152 126.313L165.702 126.082L164.934 125.515L164.271 125.315L163.382 125.262L162.857 125.124L162.418 124.923L162.117 124.638L161.853 124.325L161.615 123.986L161.428 123.624L161.302 123.203L161.314 122.683L161.426 121.506L161.352 120.898L161.06 120.217L160.622 119.961L160.033 119.892L158.444 119.931L157.93 119.735L157.517 119.475L155.183 117.095L154.934 116.766L154.721 116.412L154.658 115.957L154.709 115.438L154.959 114.412L155.185 114.07L155.486 113.932L156.313 113.957L156.704 113.853L157.017 113.609L157.267 113.247L157.479 112.839L157.843 111.928L157.981 111.424L158.044 110.905V110.424L157.82 109.068L157.395 107.356L157.119 106.584L156.769 105.822L156.289 105.141L155.15 103.929L153.297 102.374L153.171 102.183L153.045 101.846L153.094 100.777L152.994 100.124L152.667 99.8111L152.216 99.689L150.91 99.6359L149.82 99.4056L149.332 99.0769L149.082 98.6576L149.12 98.2029L149.232 97.7246L149.395 97.2502L149.458 96.7916L149.371 96.3074L148.732 95.6775L148.382 95.1323L148.081 94.5654L147.831 93.8529L147.414 93.5104L146.949 93.3254L146.473 93.3313L146.098 93.4966L145.747 93.7151L144.795 94.4946L144.419 94.6796L143.567 94.8981L142.603 94.9768L138.229 94.5418L137.236 94.591L136.459 94.9178L135.245 96.0437L134.607 96.1716L133.665 96.1066L129.834 95.0437L129.417 95.1559L129.092 95.4138L128.441 96.6204L128.128 96.9904L127.703 97.2699L126.977 97.3782L126.501 97.2325L126.137 96.9825L125.598 96.144L125.159 95.5988L124.241 94.8095L123.552 94.4867L122.95 94.3489L120.62 95.0083L119.715 94.9945L119.265 94.7761L119.001 94.4139L119.027 93.9513L119.153 93.5124L119.339 93.0794L120.459 91.0972L121.236 89.3375L121.738 87.9006L122.002 86.8496L122.426 84.1667L122.438 83.7573L122.1 83.2652L121.399 82.5468L118.765 80.4997L118.039 80.0667L113.665 78.4192L112.851 77.9763L112.337 77.559L112.162 77.1713L112.062 76.7382L112.013 76.256V75.7324L112.05 75.199L112.137 74.6538L112.638 72.5083L112.988 70.2329L113.051 69.17L113.014 68.6759L112.965 68.2016L112.764 67.3138L112.638 66.8887L112.463 66.4832L112.262 66.1053L111.849 65.562L109.88 63.6803L109.065 63.2394L108.44 63.0839L107.926 63.1744L107.237 63.1075L106.232 62.8064L105.28 62.019L104.741 61.6864L104.316 61.5033L103.928 61.5663L103.578 61.7415L103.291 62.0505L102.889 62.3851L102.425 62.641L101.543 62.6666L101.156 62.395L100.906 62.0171L100.806 61.5663L100.467 57.7025L100.717 49.8213L100.843 48.7013L102.295 41.57L102.346 40.517L102.264 39.5446L102.063 38.651L101.132 36.0863L101.006 35.354L101.095 34.7832L101.396 34.5194L101.813 34.3994L103.379 34.5391L103.818 34.4466L104.156 34.2203L104.369 33.8876L104.432 33.4467L104.227 32.4921L103.904 33.2282L103.011 33.4388L102.397 32.2185L101.492 31.2146L100.465 30.5336L99.3812 30.2423L98.2538 30.38L96.9887 29.9824L95.1904 27.2563L94.004 26.1304L92.8274 25.8332L90.4232 25.8489L89.1876 25.3647L88.1114 24.3825L85.6402 21.1899L85.0381 19.816L85.2644 19.6861L85.9412 16.9855L86.0829 15.9659L86.0907 14.6255L86.0022 13.602L85.772 12.7418L85.288 11.858L84.2531 10.8837L80.1764 8.8819L79.0372 7.66941L76.0152 3.50836L73.7486 1.82346L71.4328 1.18376L60.1296 1.48885L58.2762 2.03604L53.3771 4.63031L52.3678 4.68739L51.0732 3.80951L50.2429 3.73275L49.2197 4.45905L47.8583 6.96475L47.0398 7.86624L45.5878 8.2481L38.2588 7.01199L37.2397 5.59282L36.5294 3.61859L35.1934 1.27823L33.8005 0.305868L32.0297 0.0539246L30.1685 0.345243L28.5748 1.02629L26.9044 2.5419L25.7613 4.24845L24.5512 5.69911L22.6822 6.47266L20.5789 6.71477L19.485 7.2777L18.6842 8.8071L17.4998 11.9663L16.3231 14.0645L14.7157 14.0842L11.188 12.6296L9.32672 13.226ZM117.93 151.71L117.929 151.708L117.315 153.865L117.425 157.662L115.764 158.239L115.765 158.239L117.427 157.662L117.317 153.865L117.93 151.71ZM113.501 157.306L113.5 157.306L111.763 157.851L111.763 157.851L113.501 157.306ZM111.302 155.982L111.302 155.981L108.363 157.034L109.366 159.076L108.589 160.186L110.927 166.353L112.278 171.108L111.098 175.129L111.1 175.129L112.28 171.108L110.928 166.353L108.591 160.186L109.368 159.076L108.365 157.034L111.302 155.982ZM109.567 175.303L109.565 175.303L110.067 178.637L111.952 183.135L111.045 184.461L111.778 186.512L106.722 188.968L106.722 188.969L111.78 186.512L111.046 184.461L111.953 183.135L110.069 178.637L109.567 175.303ZM99.3052 164.861L99.3045 164.861L97.9448 165.582L97.9449 165.583L99.3052 164.861ZM95.4168 157.527L95.4167 157.527L94.0754 157.831L94.0768 157.832L95.4168 157.527ZM83.9352 138.448L83.9343 138.447L82.0738 139.427L82.075 139.428L83.9352 138.448ZM78.6711 138.397L78.6693 138.396L77.4633 142.535L77.4652 142.536L78.6711 138.397ZM76.0798 142.182L76.078 142.181L75.3079 143.504L75.3088 143.506L76.0798 142.182ZM81.0662 113.828L82.4941 116.253L82.4946 116.25L81.0677 113.828L81.0662 113.828ZM86.4094 106.818L94.3739 106.891L94.7458 110.485L96.7841 110.979L97.8544 115.373L100.076 117.554L101.636 120.207L103.694 121.337L103.694 121.335L101.638 120.207L100.078 117.554L97.8563 115.373L96.7861 110.979L94.7477 110.485L94.3759 106.891L86.4094 106.818ZM103.997 117.292L111.698 118.004L111.698 118.004L103.997 117.292L103.997 117.292ZM119.079 106.163L119.08 106.163L123.465 107.974L126.855 109.905L127.459 116.884L124.418 120.39L122.07 121.945L120.262 124.834L120.048 126.761L121.462 128.997L120.575 130.554L120.829 135.196L125.266 142.209L125.413 144.408L127.758 146.148L126.484 148.777L126.482 148.777L127.757 146.148L125.411 144.408L125.264 142.209L120.827 135.196L120.573 130.554L121.461 128.997L120.046 126.762L120.26 124.834L122.068 121.945L124.416 120.39L127.458 116.884L126.853 109.905L123.463 107.974L119.079 106.163ZM123.245 148.795L123.243 148.795L123.389 153.86L123.391 153.86L123.245 148.795Z" fill="#000E40"/>
</svg>
