<svg width="46" height="71" viewBox="0 0 46 71" fill="none" xmlns="http://www.w3.org/2000/svg">
<path d="M39.2525 40.9707L37.2539 38.7945L36.7359 40.6138L36.8289 43.816L35.4262 44.3023L33.5172 43.5155L32.0498 43.9753L31.663 42.3983L29.183 43.2864L30.0295 45.0079L29.3738 45.9441L31.3459 51.1449L32.4863 55.1554L31.4903 58.5468L30.1972 58.6929L30.6205 61.5049L32.2108 65.298L31.4455 66.4169L32.0647 68.1466L27.7968 70.2183L27.5395 65.2715L26.6315 62.0561L24.8072 61.3821L24.4304 56.2577L22.7206 56.1996L23.3829 51.53L21.5403 49.8866L20.3915 50.4958L20.1658 48.6615L18.9557 48.1054L18.7864 46.1582L18.2601 43.7014L17.128 43.9587L15.873 43.8691L15.4597 41.404L16.0855 39.3987L14.4073 36.4854L12.3057 34.671L10.5345 32.4748L9.61647 28.2518L8.57233 27.6111L7.002 28.4377L4.13017 27.5679L3.11258 31.0589L1.94392 30.7601L1.2932 31.8772L0.571106 30.4994L0.949581 27.792L1.0127 25.9992L1.76302 24.3375L1.59868 22.5597L1.54721 20.7735L2.31743 19.824L2.71587 17.827L2.42701 15.6972L2.71587 13.8845L4.27126 12.52L5.5229 11.3696L5.54782 9.37928L4.92861 7.62964L6.15203 6.84776L7.35722 8.8929L7.74897 6.71167L6.30807 4.1204L10.6225 3.63402L10.6589 0.936521L17.3803 0.997945L17.694 4.02909L19.4138 4.44576L20.3169 8.15087L22.191 9.99015L23.5074 12.2278L25.2437 13.1807L24.603 10.7156L25.4977 9.76938L31.9966 10.3703L33.1653 7.41715L35.3482 6.50749L36.8588 5.17948L36.6579 2.14168L38.2233 0.383728L41.9235 1.91092L44.7836 3.53939L45.2933 9.42576L42.7269 12.3822L40.7465 13.6936L39.221 16.1305L39.04 17.7556L40.2336 19.6414L39.4849 20.9544L39.6991 24.8687L43.4424 30.7833L43.5668 32.6375L45.5456 34.105L44.4699 36.3227L41.7375 36.3377L41.8604 40.6089L39.2525 40.9707Z" fill="#000E40"/>
</svg>
