<svg width="159" height="236" viewBox="0 0 159 236" fill="none" xmlns="http://www.w3.org/2000/svg">
<path d="M12.603 17.3403L15.5759 15.4246L16.4358 15.1408L17.1961 15.3001L18.4278 16.1202L19.1533 16.2795L22.3654 14.0153L22.7173 9.40547L22.2242 4.49685L22.8932 1.33787L23.9773 1.05734L28.3364 1.45241L30.2022 1.09551L31.4771 1.29805L32.4416 2.46668L34.4917 8.55556L35.3018 9.77731L36.6829 10.3749L39.6692 10.7086L40.8727 11.185L42.4647 12.2856L44.943 13.2102L49.8948 12.3121L53.2547 12.9363L53.8954 12.6624L54.5013 12.2524L56.1629 11.683L56.3322 11.4091L56.3107 11.6714L56.8884 13.7563L57.0793 15.4462L57.4461 16.3708L57.8761 16.8473L62.0028 19.8485L69.116 21.9252L71.4399 24.1048L73.0884 26.7027L74.9193 28.5088L81.385 28.0987L82.5338 27.7601L83.8434 26.6462L85.9914 23.4192L87.1685 22.0696L89.8028 21.0969L91.5226 22.5892L91.6422 22.6921L95.4103 32.5525L96.9674 34.7271L98.9461 36.0402L101.517 36.6444L104.215 36.0618L106.856 34.7537L109.419 34.1976L111.891 35.8758L113.201 36.4535L117.18 36.8884L118.059 38.0156L118.82 40.3944L119.897 44.8946L121.637 48.5267L123.707 49.9609L126.115 50.6299L128.876 51.9612L132.412 55.3659L133.806 56.0166L135.659 56.093L137.75 55.6647L139.792 54.8563L141.517 53.8354L145.559 49.6754L147.201 49.0778L148.539 49.116L155.202 50.9354L155.406 51.1578L156.238 52.0658L155.921 54.2437L154.871 55.688L152.237 57.2284L151.034 58.3738L149.709 61.8067L150.117 65.1184L151.553 68.2276L154.237 72.454L157.421 76.2072L158.2 77.8838L158.037 79.7364L157.051 83.2838L156.981 87.0553L156.46 88.048L154.84 88.9494L153.524 90.0334L151.263 93.6273L149.946 95.1146L145.939 97.8935L144.065 99.6962L142.621 102.193L142.29 103.655L142.108 106.623L141.791 107.683L141.009 108.225L139.925 108.312L137.925 107.963L135.846 107.946L130.219 109.928L126.768 109.703L125.599 110.541L125.113 115.752L126.036 117.055L127.417 117.966L128.657 119.188L129.573 121.059L130.116 122.473L130.891 123.502L132.496 124.226L137.92 125.468L140.278 125.109L141.074 125.265L141.786 125.881L143.082 127.563L143.949 127.921L145.441 127.139L146.645 125.549L147.933 124.291L149.666 124.522L150.997 126.218L150.927 128.237L149.969 130.28L148.666 132.023L145.645 134.45L142.898 134.76L135.348 131.766L133.784 131.84L132.299 132.584L130.933 134.123L130.377 135.257L129.918 136.432L129.362 137.362L127.666 138.056L127.088 138.904L122.926 152.823L122.236 155.379L124.862 155.225L126.215 154.682L134.327 155.705L136.109 156.764L137.453 158.552L137.974 161.232L138.052 161.984L138.207 162.572L138.369 162.997L138.439 163.306L138.157 164.172L137.516 164.39L136.882 164.342L136.572 164.421L136.748 166.022L137.402 166.85L138.114 167.426L140.255 172.142L140.981 174.768L141.502 176.167L142.158 177.047L140.615 178.579L139.432 180.1L134.784 184.014L139.482 187.002L140.869 186.833L144.427 185.528L145.891 185.867L146.87 187.592L146.694 189.585L145.806 191.458L144.638 192.827L141.377 195.321L140.089 196.823L136.638 203.28L135.828 205.297L135.68 207.664L136.723 210.837L136.631 211.781L136.449 211.924L135.991 211.803L132.257 212.513L131.532 213.011L130.969 213.967L131.11 214.494L131.666 215.073L132.357 216.188L133.321 218.411L133.441 219.424L133.293 221.017L133.054 221.827L132.329 223.38L132.138 224.268L132.173 224.995L132.483 226.387L132.539 227.032L132.04 229.932L130.913 232.476L129.195 234.196L126.94 234.649L120.116 232.827L118.031 232.679L113.896 233.507L111.889 233.167L110.332 232.642L107.396 233.466L105.875 233.524L104.643 232.946L102.361 231.396L100.973 231.147L91.0146 232.056L88.2674 232.82L86.9228 232.92L85.5217 232.561L81.8531 230.039L81.6539 230.031L81.6589 229.996L81.785 229.13L82.972 223.894L82.9371 223.245L82.8458 222.448L82.2515 222.033L81.9245 221.739L81.629 221.334L81.3219 220.592L81.3003 219.683L81.4912 216.306L81.3219 215.38L81.0364 214.812L74.6703 213.338L69.8065 213.438L69.1524 213.159L68.2959 212.638L66.5811 211.107L65.9255 210.345L65.5768 209.711L65.6399 209.316L65.7461 208.903L65.8938 208.509L66.2425 207.795L66.845 206.836L67.0143 206.411L67.109 205.876L67.0028 204.964L66.7919 204.484L66.5181 204.125L62.5738 201.819L54.0099 198.558L52.5624 197.633L52.1822 197.21L51.9997 196.795L52.0345 196.401L52.1822 195.578L52.3798 194.748L52.4213 194.364L52.3301 194.024L52.2238 193.712L51.1647 191.28L50.8576 190.304L50.6468 189.255L50.3297 188.292L49.9379 187.467L49.6308 187.133L49.2723 187.007L42.4513 187.668L41.384 187.441L40.5042 187.027L40.124 186.679L39.9132 186.313L39.6061 184.951L39.1828 183.77L38.982 183.023L38.9604 182.676L38.9703 182.369L39.1181 182.129L39.2974 182.004L39.4982 181.934L42.6075 181.41L42.8829 181.303L43.1569 181.138L43.3993 180.917L43.6217 180.636L43.781 180.308L43.8873 179.957L43.9404 179.64V179.423L43.7927 178.935L42.8531 177.032L42.1874 176.061L40.7366 174.881L40.3448 174.459L40.0809 174.083L39.9747 173.762L39.9116 173.425L39.7423 172.847L39.4683 172.11L38.7297 170.753L38.2433 170.243L37.8515 170.12L37.5976 170.349L37.151 170.902L36.912 171.124L36.6231 171.292L36.2645 171.322L35.8628 171.242L34.9648 170.663L34.5746 170.557L34.2045 170.54L33.6982 170.424L33.1023 170.157L32.1826 169.458L31.8241 168.98L31.6332 168.526L31.6232 167.765L31.6647 166.978L31.8556 165.719L32.0781 164.865L32.2573 164.365L32.3004 164.275L32.3951 163.957L32.5113 163.175L32.5014 162.728L32.4382 162.202L32.1959 161.898L31.8473 161.691L30.8015 161.438L29.935 161.063L29.2228 160.563L28.9157 160.17L28.768 159.76L28.7896 159.372L28.8842 158.952L29.3208 157.733L29.4336 157.302L29.4469 156.737L29.2992 156.098L28.4725 153.923L28.3348 153.452L28.3563 153.004L28.5041 152.189L28.514 151.883L28.4924 151.684L28.1754 150.042L27.9961 147.463L28.0061 147.074L28.0791 146.686L28.2053 146.331L28.3431 146.035L28.4492 145.867L28.861 145.388L30.4064 144.022L31.4954 142.559L31.6963 142.156L31.8539 141.713L31.927 141.083L31.7477 140.76L31.4406 140.629L31.082 140.638L29.7407 140.947L29.4104 140.878L29.276 140.61L29.198 140.321L29.2113 139.79L29.2328 139.457L29.3025 139.066L29.422 138.663L29.6013 138.303L30.4363 137.071L30.8164 136.391L31.1335 135.62L31.2497 135.111L31.1966 134.392L30.9227 133.296L30.3102 132.158L30.0877 131.479L30.0777 130.911L30.1939 130.424L30.2255 129.724L30.0877 129.314L29.7922 129.035L28.9755 128.829L28.5738 128.794L27.6226 128.502L27.0416 128.112L26.7876 127.75L26.6813 127.347V125.805L26.5868 125.089L26.376 124.053L25.5842 121.648L25.3583 120.528L22.7073 119.686L14.9784 119.166L14.5352 119.053L14.0986 118.793L13.4445 118.121L12.9698 117.797L12.505 117.628L12.1248 117.558L11.7231 117.38L11.597 117.066L11.6285 116.666L11.7547 116.27L11.924 115.89L12.1248 115.579L12.3788 115.353L12.7275 115.275L13.5193 115.315L13.8048 115.197L13.9243 114.897L13.9458 114.548L13.9874 114.2L14.1002 113.937L14.399 113.838L15.4979 113.758L15.805 113.637L16.0691 113.428L16.2283 113.122L16.313 112.817L16.3445 112.651V112.506L16.3346 112.259L14.3592 107.458L13.9541 106.212L13.8413 105.365L14.0388 105.066L14.7609 104.279L14.9718 103.981L15.151 103.625L15.2772 103.212L15.3619 102.787L15.3303 102.032L15.2987 101.663L15.2888 101.277L15.3519 100.461L15.8266 97.7673L15.8482 97.2345L15.5943 97.0236L15.2556 96.9423L12.4519 96.7945L12.1248 96.8825L11.8294 97.0651L10.0516 98.6853L9.76595 98.8795L9.44892 98.9708L9.09036 98.9526L8.74182 98.8479L6.87098 97.588L3.90955 96.3746L3.31856 95.9579L3.11774 95.5595L3.10771 95.1129L3.48786 93.8115L3.63558 93.4364L3.82657 93.1343L4.11208 92.9782L5.99285 92.8819L6.3348 92.7225L6.55223 92.4819L6.52406 91.8627L6.23521 91.6037L5.84341 91.4095L4.59679 91.2535L4.20661 91.1489L3.88959 90.9796L3.66719 90.7289L3.28705 90.1711L2.85381 89.6433L2.05866 88.9361L1.42451 88.5908L0.642639 88.5078L2.29099 86.9972L4.11208 85.7323L5.00014 84.6633L6.01443 83.0663L6.21525 82.326L6.2501 81.7782L6.15223 81.4512L5.98282 81.154L5.77208 80.8901L5.50815 80.6527L5.15951 80.4751L4.75778 80.3473L3.56425 80.1713L3.21562 80.0153L3.03638 79.2317L2.98319 77.9668L3.35341 72.6681L3.25878 71.9593L3.08948 71.2671L2.85705 70.6263L2.68775 70.3258L1.99716 69.4892L1.75481 69.119L1.554 68.5397L1.61702 68.1363L1.76484 67.7495L2.58815 66.4663L2.86708 66.2605L3.17418 66.1144L4.20995 65.887L4.58017 65.7077L4.95039 65.1931L5.38363 64.1639L5.63753 62.4292L5.98617 60.8688L6.19032 60.4704L6.45101 60.1866L7.87028 59.2155L8.18731 58.8984L8.54587 58.3257L8.63057 57.8974L8.60899 57.5073L8.53594 57.1521L7.86035 55.0821V54.5558L8.11425 54.3118L8.48447 54.0628L8.59075 53.759L8.54759 53.4635L8.37819 53.1996L7.92337 52.602L7.79723 52.3248L7.36399 50.8424L7.26936 50.2747L7.35406 49.951L7.44859 49.7601L7.68102 49.5841L8.25205 49.2903L8.5791 48.9401L8.89613 48.4022L9.5087 46.5331L9.74112 46.0384L10.5678 45.0706L10.938 44.4663L11.0757 43.9933L11.1289 43.5633L11.1188 43.218L11.0342 42.7366L11.0027 41.4501L11.1289 38.5235L11.0973 38.2397L11.0658 38.077L10.9396 37.7749L10.7819 37.5325L10.5711 37.2852L10.2508 37.1076L9.89219 37.0528L9.53362 37.1076L7.69601 37.8861L7.37889 37.8562L7.11495 37.5807L6.92407 37.0246L6.96723 36.5731L7.11495 36.1962L7.93837 34.8782L8.39318 34.2889L8.63554 34.0333L8.92105 33.854L9.27962 33.7992L10.9214 34.2026L11.1222 34.1909L11.3861 34.088L11.6932 33.3244L11.831 32.8779L11.9904 32.4861L12.1813 32.1309L12.4038 31.8371L12.6577 31.5814L13.5558 31.0502L13.8545 30.8129L14.1368 30.4692L14.1501 30.1472L14.0238 29.8467L11.1687 27.5792L11.0426 27.3916L10.8948 27.0231L10.9579 26.7143L11.0641 26.4736L11.4227 26.0669L12.6162 25.4411L13.9691 25.0427L15.4731 24.9232L15.8648 24.8352L16.2035 24.6493L16.5205 24.3106L16.5736 23.977L16.4475 23.6815L15.1062 22.8781L14.8323 22.6457L14.5999 22.3834L14.1982 21.8239L14.0289 21.5351L12.9366 18.9438L12.7141 17.9595L12.603 17.3403Z" fill="#000E40" stroke="#000E40" stroke-linecap="round" stroke-linejoin="round"/>
</svg>
