<svg width="191" height="204" viewBox="0 0 191 204" fill="none" xmlns="http://www.w3.org/2000/svg">
<path d="M15.693 173.273L15.6066 173.052L14.5011 171.147L14.2056 170.169L14.2902 168.756L14.9094 166.719L14.9028 165.838L14.0794 164.784L11.0234 163.067L9.77007 162.136L7.77641 159.505L5.56529 157.945L5.82591 157.88L5.91057 157.837L4.83987 157.083L3.93849 158.22L3.62143 158.429L3.20643 157.875L3.57329 156.61L4.65063 154.352L5.61509 150.66L6.76381 147.483L7.02443 145.966L6.10147 136.383L5.79935 134.718L5.41921 133.918L3.94679 132.359L3.05869 130.951L2.86779 130.372L2.61381 129.182L2.19051 124.723L1.73235 123.189L0.422607 119.436L2.11913 115.382L7.28837 108.412L8.46365 105.05L8.95667 104.142L9.71695 103.483L11.1811 103.189L11.9281 102.869L13.0768 101.704L17.2749 94.0761L17.9373 93.2627L18.5365 92.8643L19.74 92.4177L20.331 91.8235L20.6481 91.0698L21.2042 88.9417L21.5627 88.0686L24.4146 85.1303L31.8033 74.2657L34.514 71.2594L37.0074 69.2989L39.0574 66.12L54.6299 49.1681L57.7075 46.7744L61.4193 43.9175H61.426L61.4326 43.9126H61.4392L63.4113 42.3156L68.7847 36.4625L69.7293 35.083L69.7741 34.9336L70.6307 32.0983L71.3777 30.5313L72.3006 29.62L73.4759 29.0174L75.8281 28.272L88.1735 28.1177L91.7591 26.627L93.2531 23.1061L93.5636 21.9508L93.6764 20.563L93.5702 18.4996L93.7611 17.2098L98.1485 14.9074L99.4366 13.5279L100.288 12.2979L100.373 12.0605L100.021 11.7617L99.5346 10.3424L98.844 5.24121L100.421 2.50552L100.403 2.46236L100.892 1.69545L101.611 1.22399L102.478 0.996583L103.421 0.938477L104.256 1.39664L104.676 3.41189L105.303 3.87336L106.271 4.22861L106.827 5.07852L107.264 6.07121L107.883 6.87464L108.655 7.27969L109.923 7.67311L110.676 8.33877V7.5403L111.848 7.30127L112.536 6.92444L113.296 6.72525L114.938 6.51443L115.265 6.37L115.539 6.15419L115.781 5.89857L116.151 5.25449L116.374 4.98224L116.606 4.76312L116.88 4.63862L117.134 4.62203L117.466 4.67679L118.078 5.00382L118.892 5.6147L120.129 6.90785L120.477 7.60173L120.572 8.15118L120.487 8.52302L120.509 8.90481L120.656 9.22021L122.625 11.1873L123.005 11.3699L123.46 11.4861L124.21 11.4413L125.382 10.9981L125.756 10.9616L126.495 11.1475L126.802 11.2919L127.16 11.5575L129.192 13.8599L129.541 14.4824L129.657 14.8426L129.72 15.2361V15.6477L129.657 16.0279L129.519 16.4263L129.305 16.7649L129.107 17.0172L128.608 17.5069L128.005 17.8605L124.611 18.7071L124.293 18.8648L124.02 19.0773L123.819 19.3429L123.724 19.6699L123.787 20.0019L123.945 20.3057L124.156 20.5763L127.023 22.8986L127.361 23.3086L127.467 23.6406L127.53 24.0108L127.499 24.4258L127.351 25.2442L127.32 25.6476L127.394 26.0061L127.69 26.2933L128.145 26.4875L129.109 26.4377L129.596 26.2551L129.954 25.9729L130.133 25.6575L130.25 25.2874L130.271 24.8757L130.261 24.0241L130.303 23.6074L130.44 23.2621L130.694 23.0381L131.075 23.0264L131.476 23.214L131.888 23.722L132.12 24.1386L132.437 24.8657L132.799 25.1313L133.306 25.3222L135.482 25.4218L135.905 25.5015L136.254 25.7107L136.496 26.1688L136.574 26.617L136.553 27.037L136.602 27.4121L137.112 27.9002L139.932 29.6266L140.63 30.3255L140.981 30.943L140.887 31.8062L140.95 32.193L141.088 32.5183L141.33 32.7607L141.626 32.9599L142.354 33.1508L145.706 33.4894L146.71 33.4014L147.397 33.2354L147.962 32.8387L148.584 32.5183L149.281 32.2693L150.845 31.9556L155.138 32.6793L155.998 32.5366L156.431 32.2444L156.315 31.0027L156.368 30.6226L156.537 30.3304L157.193 30.4898L158.123 30.9529L160.028 32.256L161.444 32.94L163.508 32.5432H163.803L164.162 32.6046L164.51 32.7723L164.837 33.0346L165.164 33.4147L165.375 33.77L165.523 34.1368L165.649 35.322L165.501 38.3715L165.945 39.4571L166.884 39.892L168.272 40.0182L169.095 39.9352L169.792 39.7044L171.592 38.6188L172.311 38.4146L172.722 38.398L173.146 38.4578L173.896 38.7134L174.223 38.8927L174.508 39.0969L174.794 39.5617L175.061 40.2589L175.335 41.7197L175.367 42.5182L175.314 43.1357L175.151 43.4826L174.982 43.8046L174.548 44.3691L172.604 46.3395L172.414 46.6416L172.445 47.1263L172.699 47.7671L173.999 49.354L174.294 49.8603L174.316 50.4264L173.788 53.021L173.715 54.8453L173.756 55.7135L173.81 56.1301L174.338 58.8177L174.962 59.6377L181.339 65.3315L186.223 68.3245L186.236 69.0582L186.363 69.5712L186.412 69.7438L186.573 70.0891L186.975 70.607L187.229 70.8427L188.687 71.8636L188.919 72.1076L189.098 72.4164L189.352 73.0987L189.522 73.3975L190.35 74.4931L190.508 74.7935L190.634 75.1388L190.718 75.5057L190.74 75.9057L190.614 76.2809L190.315 76.5946L189.649 76.7922L188.688 76.8469L188.286 77.0445L187.969 77.4512L187.642 78.2762L187.579 78.8257L187.632 79.2689L187.928 79.908L188.044 80.2516L188.15 80.6118L188.203 81.0052L188.182 81.4153L188.087 81.7755L187.928 82.1058L187.737 82.4146L187.357 82.7997L186.797 83.2097L185.621 83.8239L184.913 84.0314L183.899 84.1327L183.529 84.2671L182.204 85.1005L181.803 85.288L180.323 85.6981L177.89 87.0526L177.531 87.1721L172.5 88.1333L171.856 88.4338L171.124 88.6363L167.912 89.0513L167.517 89.2156L167.199 89.5576L166.957 90.3029L166.514 92.1521L166.472 92.5821L166.494 93.0021L166.589 93.3789L167.043 94.3599L168.187 96.083L168.357 96.4366L168.451 96.752L168.536 97.1089L168.546 97.5256L168.483 97.9389L168.388 98.3307L168.081 98.7506L167.626 99.1856L166.122 100.079L165.72 100.231L165.118 100.304L164.283 100.256L163.913 100.125L163.677 99.8778L163.501 99.5939L163.31 99.3599L162.99 99.3167L162.641 99.5624L162.271 100.004L160.749 102.922L160.485 103.673L160.379 104.053L159.955 105.135L158.05 108.757L157.638 109.089L145.849 115.787L145.204 115.962L144.655 116L144.25 115.885L143.374 115.829L143.003 116.119L142.708 116.674L142.328 120.07L142.074 121.371L141.207 123.31L140.231 123.417L139.893 123.344L139.502 123.206L138.911 122.821L138.594 122.685L138.267 122.628L137.643 122.794L137.305 122.759L137.041 122.63L136.742 122.416L136.468 122.104L134.947 120.764L134.345 120.39L133.638 120.113L132.862 119.934L132.027 119.861L126.868 121.239L126.108 121.25L123.686 120.699H123.274L122.926 120.805L122.546 121.179L122.144 121.743L121.531 122.958L121.264 123.642L121.189 124.195L121.284 124.539L121.784 125.457L122.038 126.137L122.132 126.494L122.185 126.898L122.164 127.328L122.089 127.751L121.699 128.549L119.636 131.909L119.234 132.918L119.149 133.584L119.391 133.828L121.508 135.118L121.75 135.364L121.908 135.656L121.93 136.056L121.867 136.446L121.549 136.922L119.328 139.172L118.673 140.154L118.208 140.662L117.401 141.106L116.472 141.295L114.983 141.316L114.211 141.451L112.844 141.942L112.581 142.228L112.348 142.603L112.232 143.285L112.253 143.765L112.37 144.16L112.549 144.457L112.791 144.719L113.087 144.895L113.457 144.938L113.796 144.852L114.116 144.701L114.39 144.507L115.794 143.224L116.164 143.016L116.556 142.973L116.915 143.071L117.506 143.433L117.751 143.67L117.931 143.941L118.037 144.276L117.984 144.686L117.814 145.139L117.476 145.742L117.272 146.187L117.155 146.64L117.146 147.055L117.346 149.553L117.801 150.016L119.393 150.508L120.675 150.626L121.485 150.159L122.023 150.944L123.279 152.613L123.427 152.95L123.458 153.343L123.417 153.741L123.279 154.097L123.09 154.447L122.657 154.857L121.981 155.353L120.668 155.873L120.024 155.946L119.528 155.865L119.242 155.714L118.852 155.627L118.429 155.589L118.005 155.614L117.252 155.76L114.558 156.781L111.671 158.516L110.974 158.801L109.481 159.151L107.77 159.035L107.01 159.156L103.806 160.609L103.014 160.669L102.602 160.609L99.6192 159.624L98.7843 159.507L98.3942 159.558L97.6837 159.767L94.6193 161.998L93.8126 162.385L93.2531 162.541L90.8096 161.454L90.0062 161.336L89.636 161.401L89.1811 161.675L87.6921 162.944L87.0896 163.296L86.5999 163.504L83.1454 163.665L76.3145 162.697L75.2123 162.88L74.525 163.132L73.3315 163.804L72.1479 164.81L71.7578 165.26L71.5005 165.629L71.3312 166.015L69.545 171.459L69.0171 172.734L68.6055 173.53L67.387 174.604L67.1015 174.926L65.6224 176.238L64.5136 177.003L64.1649 177.904L62.5979 185.489L62.3124 186.166L62.2493 186.585L62.2908 187.053L62.5763 187.637L63.2636 188.59L63.5906 189.194L63.7284 189.521L63.8346 189.875L64.0454 191.02L64.0869 191.877L61.1919 203.269L59.5402 202.57L58.853 202.492L55.2574 202.954L53.8846 202.858L51.9474 202.453L51.1655 202.17L50.6376 201.886L50.4268 201.627L50.289 201.304L50.1828 201L50.1197 200.583L50.1512 200.039L50.045 199.564L49.8026 199.069L49.1901 198.41L48.7668 198.278L48.4248 198.347L48.1924 198.593L47.1367 200.019L46.8097 200.276L46.2701 200.504L45.9 200.535L45.8784 200.505L45.7722 200.374L45.6875 200.226L45.6028 200.029L45.5182 199.712L45.4767 199.335L45.4551 198.17L45.392 197.859L45.2011 197.33L44.9471 197.272L44.6898 197.351L44.0142 198.009L43.3801 198.18L42.4289 198.254L39.2982 197.944L38.6109 197.75L38.0614 197.35L37.5651 196.893L37.1285 196.384L35.8088 193.98L34.2551 189.979L33.6923 189.118L33.0167 188.427L32.5303 188.127L32.034 187.999L30.125 188.306L27.3744 189.229L26.7519 189.543L26.2771 189.656L25.6861 189.717L24.6155 189.656L24.0876 189.49L23.6759 189.275L23.4651 189.021L23.1065 188.44L22.9803 188.108L22.8741 187.747L22.6517 187.24L22.2499 186.651L19.8479 184.602L18.1149 182.574L17.763 181.985L17.5306 181.357L17.3397 180.194L17.3181 179.78L17.3496 178.922L17.3911 178.499L17.602 177.74L18.2394 176.382L18.1614 175.546L16.928 174.03L15.693 173.273Z" fill="#000E40"/>
</svg>
