<svg width="202" height="182" viewBox="0 0 202 182" fill="none" xmlns="http://www.w3.org/2000/svg">
<path d="M110.663 175.77L107.622 174.5L106.047 174.093L104.538 174L103.467 174.54L102.463 175.658L102.074 176.206L101.819 176.967L101.719 177.908L101.819 181.022L100.255 176.844L99.7222 176.228L98.7462 175.858L90.7715 167.725L89.6743 165.406L91.8538 167.144L93.6499 169.096L94.6642 169.604L106.576 168.71L108.884 169.404L112.815 171.806L113.075 171.91L110.68 175.751L110.673 175.756L110.663 175.77ZM120.789 152.057L120.554 151.509L119.788 150.101L119.111 148.401L118.834 144.271L120.099 141.175L121.935 138.297L123.349 134.796L123.693 132.824L123.638 131.302L122.906 130.314L119.506 129.685L118.812 128.873L119.04 127.562L121.063 124.492L121.606 123.427L121.201 122.728L119.343 122.467L116.377 123L115.079 122.857L113.998 121.727L115.906 117.519L116.15 115.088L115.162 112.497L114.197 111.621L113.349 111.392L112.655 110.952L112.134 109.428L111.918 107.527L111.902 106.45L111.636 105.666L110.693 104.63L106.668 102.711L106.047 101.483L106.369 99.4694L106.291 98.7341L105.58 98.407L105.315 98.7822L104.36 100.575L104.138 101.139L104.564 102.278L105.629 103.417L106.943 104.287L109.971 105.07L110.658 106.257L110.613 112.092L110.912 112.646L112.599 113.058L113.065 113.523L113.409 113.991L113.764 114.207L114.612 114.977L114.08 116.655L113.115 118.309L112.599 118.993L112.099 123.516L114.251 124.476L117.323 124.052L119.574 124.451L117.572 126.732L116.658 128.304L116.326 129.969L116.892 131.702L118.112 132.055L119.609 131.532L121.018 130.651L121.329 132.811L120.686 135.769L119.438 138.376L117.946 139.495L116.271 140.03L114.828 141.489L113.963 143.649L113.997 146.298L116.558 149.759L116.824 150.451L116.324 154.847L116.523 156.537L116.873 157.312L116.945 157.951L116.324 159.256L115.824 159.85L114.327 160.893L113.528 161.288L110.55 161.894L107.606 161.449L100.967 158.896L96.9019 159.256L95.7266 159.89L95.1506 161.243L94.4799 162.458L92.9776 162.701L92.4116 162.385L91.4571 161.48L90.8362 161.286L89.3887 161.399L88.6285 161.326L88.0856 160.974L87.8084 159.568L88.4857 157.883L92.2505 151.504L93.21 149.367L93.1818 148.396L94.0184 147.656L97.1575 142.963L96.3375 141.675L95.7714 142.266L95.3282 143.708L94.8285 144.935L94.3289 145.36L93.0142 145.931L92.4647 146.296L92.0646 146.806L90.7499 148.874L90.6669 149.246L90.4345 149.53L89.6692 149.756L88.8044 149.206L87.8499 148.396L86.8406 145.934L86.1086 144.696L85.0611 144.255L85.8263 146.745L85.9542 147.375L86.0936 148.821L86.5103 149.407L87.1095 149.739L89.251 151.49L89.5066 152.219L88.9903 153.484L87.7204 155.518L87.6208 155.858L86.5618 156.706L84.2377 160.44L83.3945 161.283L82.0631 161.59L79.0353 163.248L78.0426 164.047L77.1047 163.562L75.1857 163.291L74.3143 162.694L73.8096 163.436L72.5231 162.544L67.7655 161.281L67.8403 161.286L66.7845 155.797V153.926L66.9638 153.471L67.1646 152.757L67.143 152.166L67.0368 151.545L66.7414 150.606L66.2666 142.661L66.0873 141.773L64.8373 140.735L63.9077 140.194L63.6753 139.973L63.4529 139.655L62.7026 137.883L62.2062 137.075L61.7514 136.59L58.8746 134.597L58.4414 133.896L57.8388 132.641L57.2793 130.496L57.1814 129.569L57.3291 129.115L57.5748 129.037L61.0326 128.787L61.3497 128.652L61.592 128.451L62.2793 127.223L62.4801 126.957L62.7872 126.81L63.1358 126.783L63.4844 126.82L63.7799 126.964L64.2447 127.359L64.5402 127.429L64.8506 127.374L65.4947 127.165L69.6497 126.901L69.9982 126.818L70.2937 126.609L70.6639 125.714L70.8548 125.404L71.1088 125.198L72.5497 124.552L72.7688 124.343L72.8784 124.175L73.2801 122.943L73.6503 121.428L73.9574 120.772L74.3159 120.271L74.6745 119.965L75.1077 119.31L75.2239 118.71L75.2555 118.038L75.2239 117.002L75.9427 115.309L75.8896 114.6L75.7635 114.17L75.4895 113.906L75.1625 113.805L74.0221 113.721L73.6304 113.613L73.3763 113.317L73.1656 112.846L72.9547 112.049L72.7506 111.581L72.5596 111.206L72.3837 110.947L71.6616 110.286L71.3877 109.926L71.1022 109.454L70.7951 108.523L70.5627 108.052L70.2672 107.759H69.5799L68.9325 107.977L68.066 108.425L67.749 108.54L67.4319 108.573L67.1248 108.493L66.8824 108.327L66.1537 107.683L65.5312 107.344L63.8895 106.914L63.5309 106.744L63.2354 106.485L62.9715 106.106L62.8868 105.699L62.8652 105.278L62.9399 104.441L63.0877 103.641L63.2786 103.36L63.5326 103.176L63.8496 103.05L64.5252 102.876L65.1312 102.604L65.3851 102.406L66.3247 101.41L66.5256 100.958L66.7579 100.263L66.6002 99.3765L66.4625 98.8104L65.9346 97.6484L65.8084 97.4459L65.6823 97.2948L65.5129 97.1421L65.249 97.079L59.8225 98.2742L57.7408 99.2204L57.3789 99.1922L57.0204 98.9797L56.2701 97.7447L55.963 97.4641L55.7621 97.396L53.0115 97.2932L49.2682 96.6341L48.3801 95.1866L47.2397 92.6318L44.0458 82.9624L43.7188 81.2658L44.5538 79.068L44.997 77.4694L45.1663 76.578L45.251 75.504L45.2294 74.7736L45.2825 74.1826L45.3356 74.1196L45.8569 73.8407L46.0793 73.6116L46.2055 73.2696L46.2902 72.8945L46.3316 71.9068L46.0577 69.7737L45.7307 69.1943L44.7546 67.9991L44.016 66.6263L43.5611 66.0287L43.1063 65.7282L40.7574 65.6369L40.4403 65.4195L40.4304 65.1373L40.5681 64.8285L40.7159 64.2591L40.7905 63.4391L40.5997 61.6845L40.3673 60.979L40.0402 60.6503L36.2239 61.5334L35.95 61.721L35.7707 62.0364L35.6545 62.4447L35.3159 64.1545L34.9889 64.8435L34.7781 65.1024L34.5423 65.29L34.2468 65.2767L33.9198 65.0709L33.5928 64.7239L33.201 63.9504L32.9271 62.1227L32.6416 61.7044L32.2714 61.467L29.8163 61.4388L29.3831 61.3442L28.9398 61.1566L28.0733 60.461L27.6716 60.2868L27.3014 60.2685L26.9843 60.388L26.3154 61.1251L25.2795 61.9252L24.6886 62.2073L24.3616 62.2804L24.003 62.1974L23.6859 62.0148L23.3788 61.6596L23.1049 61.4189L22.7879 61.2678H22.4459L19.3301 61.8273L19.0197 61.7077L18.7773 61.4886L18.1116 60.7565L17.8261 60.5325L16.2209 59.7124L15.5453 59.1745L15.288 58.7148L15.0971 58.3014L14.8647 57.3552L14.3999 56.0836L14.2937 55.6387L14.2621 55.2702L14.3152 54.8536L14.4314 54.4867L14.9178 53.5023L15.0755 53.1155L15.1535 52.6341L15.0971 51.9486L14.9178 51.5568L14.6954 51.2265L13.8388 50.5509L12.9192 49.6262L12.7399 49.1581L12.6868 48.7132L12.803 48.3414L13.0038 48.0475L13.7226 47.3504L13.9135 47.0997L14.0513 46.8275L14.1144 46.6233V46.1701L13.7873 44.6064L13.4603 44.1615L13.0902 43.8893L11.3007 43.1705L10.5719 42.7405L9.48464 41.6715L9.21073 41.1884L9.05302 40.805L8.93681 40.3302L8.85216 40.0397L7.20047 29.0953L7.04277 28.6173L6.8419 28.2487L5.52056 26.7182L4.82334 25.6608L4.5594 25.3686L4.31705 25.1479L4.02155 24.9536L2.33835 24.4772L1.89509 24.1984L1.7042 23.8929L1.61955 23.609L1.57806 22.6728L1.61955 22.2777L1.68262 21.9042L2.22047 21.0294L2.28354 20.6775L2.30512 20.3256L2.27361 19.9653L2.3151 18.6307L2.28354 18.0464L2.05117 17.6994L1.19457 17.1616L1.14148 16.8611L1.24771 16.5773L1.73409 16.1291L2.008 15.9398L4.34694 14.9073L5.38277 15.0335L5.65668 14.9173L6.08992 14.3894L6.34392 14.1918L6.70249 14.1254L7.09424 14.1736L7.4644 14.2998L7.82297 14.3678L8.15332 14.2882L8.38569 14.0093L8.48032 13.5926L8.45874 13.0398L8.15165 12.7344L7.25027 12.243L7.02782 11.916L6.95315 11.4578L6.86845 9.64843L8.86214 9.7613L9.41823 9.59032L9.72036 8.99938L10.1752 7.18335L10.5802 6.8032H21.0914L21.669 6.94596L22.2849 6.95589L22.8277 7.06212L25.8174 8.14947L28.4618 8.70389L29.1374 8.69558L29.5706 8.55115L29.7499 8.28721L29.8761 8.00834L30.14 7.16841L30.2911 6.88786L30.8621 6.49276L31.7602 6.02629L34.9225 4.96554L35.6944 4.86762L37.6797 5.23778L39.7547 5.21955L40.6627 5.354L41.2437 5.56484L41.35 5.88187L41.413 6.24043L41.5608 6.64216L41.8563 6.98578L42.5668 7.26466L42.9901 7.22317L43.264 6.98082L43.7188 5.68267L43.8981 5.36063L44.2052 5.01205L44.8393 4.58874L45.3041 4.48914L45.7158 4.54725L46.0329 4.72157L46.2902 4.94401L46.491 5.21291L46.6172 5.52168L46.6802 5.8885L46.7118 6.26865L46.8695 6.68532L47.2081 7.06547L48.1062 7.40245L48.6457 7.46552L49.0889 7.41243L49.3744 7.24804L49.6168 7.02063L49.8209 6.71521L50.2127 6.31845L50.7838 5.89681L52.9169 5.20293L53.4132 4.95728L53.624 4.68337L53.7867 4.34304L53.9245 3.96457L54.1038 3.08315L54.6217 2.51708L55.5197 1.93936L57.8902 1.12765L59.3062 0.936768L64.2331 1.37497L65.3254 1.74519L66.5288 1.88794L67.1314 2.04565L67.5431 2.26804L67.6809 2.56354L67.7556 2.91212L67.9249 5.62958L67.9781 5.99641L68.242 6.33506L68.7002 6.61561L70.2522 7.07545L70.5909 7.28457L70.6756 7.45554L70.717 7.74111L70.6639 9.35628L70.6855 9.73642L70.7918 10.0684L70.9395 10.3357L71.0972 10.5548L71.235 10.6926L71.4574 10.8619L72.1015 11.1623L78.4792 12.0953L78.9855 12.0189L80.1575 11.2204L81.2282 10.754L81.5452 10.8735L81.7461 11.1259L81.8523 11.4628L82.0432 11.8048L82.3287 12.1218L82.8683 12.4538L83.2916 12.5119L83.6186 12.404L83.8725 12.1849L84.4353 11.9309L85.3117 11.6703L89.0766 11.3566L89.3721 11.4512L89.6145 11.6388L89.7938 11.9044L89.9 12.2314L89.9747 12.9883L89.7838 15.1214L89.6892 15.548L89.563 15.9232L89.2244 16.4677L89.1181 16.6885L89.0965 16.9806L89.1713 17.3541L89.5298 17.7443L89.9199 17.8804L90.3117 17.8953L90.6287 17.7775L90.8512 17.5318L90.9574 17.1633L91.0106 16.7582L91.052 15.5198L91.1782 15.0667L91.4106 14.645L91.985 14.2384L92.3435 14.2882L92.6174 14.5255L92.8714 14.9206L93.1984 15.0451L93.547 15.06L94.6028 14.8492L94.8982 14.7015L95.1207 14.494L95.1954 14.1653L95.1423 13.0498L95.1954 12.663L95.3365 12.3194L95.5556 12.077L95.9192 11.8496L97.0596 11.3832L97.4812 11.4313L97.7883 11.5973L98.6764 12.658L99.0781 12.8904L99.7471 13.1593L100.529 13.0199L101.1 13.1311L101.575 13.337L102.199 13.7935L102.654 13.9362L103.08 13.9777L105.753 13.4764L106.324 13.5561L106.704 13.7669L106.855 14.0673L107.298 15.7539L107.562 16.3681L107.669 16.7034L107.722 17.0537L107.743 17.4521L107.69 17.8837L107.606 18.307L107.468 18.6987L107.277 18.9942L107.031 19.2233L106.218 19.7844L103.514 21.0211L103.3 21.2054V21.4793L103.397 21.7747L104.296 23.448L104.349 23.5111L106.525 27.2096L107.395 28.3185L108.187 29.102L108.545 29.1701L110.257 28.8015L110.7 28.8878L111.01 29.0688L111.369 29.595L111.643 30.2025L111.706 30.5628L111.737 30.9462L111.812 31.2932L111.928 31.6086L112.076 31.8974L112.267 32.1713L113.736 33.9409L113.884 34.2347L114.01 34.5501L114.073 34.897L114.095 35.2755L114.063 35.659L113.937 36.0159L113.779 36.3545L112.596 38.0975L112.426 38.4262L112.288 38.7732L112.225 39.1566L112.278 39.5052L112.395 39.8223L112.934 40.6589L113.082 40.9444L113.155 41.3013L113.165 41.6848L113.133 42.1097L113.07 42.5497L113.06 43.0393L113.135 43.5091L113.442 44.052L113.812 44.2428L114.204 44.3159L120.148 44.2428L120.476 44.1648L120.73 43.9872L120.846 43.6436L120.93 43.2585L121.037 42.8651L121.491 42.616L122.235 42.5082L124.685 42.8219L125.235 43.0476L125.967 43.7664L127.552 44.6163L127.848 44.8521L128.08 45.0927L128.271 45.36L128.862 46.5386L129.116 47.1512L129.443 47.5827L130.002 48.0359L131.327 48.7663L132.056 49.017L132.647 49.1399L133.375 49.0253L133.991 48.7663L134.255 48.5755L134.72 48.109L135.492 46.9536L136.368 45.1741L137.851 42.7306L138.062 42.4534L138.294 42.2127L138.568 42.0234L139.17 41.7445L141.636 41.3827L142.788 41.5404L143.548 41.8026L145.369 42.9514L146.562 44.2063L146.911 44.2777L147.218 44.2063L148.032 43.8477L148.719 43.6386L149.152 43.6917L149.547 43.8129L149.864 43.9971L154.326 45.6289L155.023 45.7385L166.813 43.8644L167.12 43.7548L167.299 43.4925L167.374 43.1655L167.458 41.5686L167.449 41.1785L167.512 40.3867L167.628 40.0331L167.87 39.8289L169.278 39.5716L169.552 39.4305L169.69 39.1682L169.668 38.8578L169.467 38.6171L169.225 38.383L169.014 38.134L168.898 37.8137V37.4203L168.992 36.567L168.971 36.1753L168.886 35.8333L168.411 34.9701L168.282 34.658L168.219 34.321L168.234 33.9724L168.36 33.6421L168.551 33.3715L168.815 33.1773L169.49 33.0046L171.328 32.7938L171.635 32.6776L171.881 32.4618L171.972 32.1198L172.007 31.7231L171.994 30.9512L171.902 30.6441L171.645 30.4864L170.483 30.2756L170.156 30.1262L169.924 29.8971L169.766 29.605L169.671 29.2713L169.63 28.9077L169.651 28.5027L169.724 28.0877L169.851 27.6877L170.008 27.3357L170.199 27.0253L170.4 26.7547L170.632 26.5157L171.172 26.1206L172.038 25.6475L174.852 25.1213L176.187 24.5785L176.567 24.6316L176.831 24.8026L177.022 25.0765L177.508 25.9413L177.782 26.26L178.174 26.5805L178.934 26.9457L179.392 26.9871L179.716 26.8825L179.91 26.5937L180.058 26.2368L180.322 25.4434L180.48 25.1097L180.744 24.8972L182.867 24.444L183.121 24.3129L183.356 24.107L183.491 23.8414L183.547 23.6074L183.554 23.4962L183.547 23.4281L183.302 22.4155L183.21 21.6768L183.238 21.2817L183.302 20.8916L183.443 20.5447L183.728 20.2177L184.13 19.9288L184.996 19.6715L185.757 19.7064L187.45 20.0301L187.893 19.972L189.319 18.9876L189.689 18.961L189.932 19.1403L190.058 19.4407L190.164 19.7777L190.27 20.4932L190.376 20.8203L190.514 21.1257L190.831 21.6884L192.103 23.194L192.251 23.4198L192.335 23.5759L192.42 23.8514L192.442 24.1933L192.357 25.4351L192.42 25.7903L192.662 26.0974L193.75 26.9025L194.488 27.5466L194.435 28.1856L194.024 29.1634L193.484 31.0558L193.506 31.6633L193.696 32.0452L194.024 32.1929L194.414 32.241L194.794 32.2311L195.146 32.163L195.589 32.2842L196.054 32.5581L196.772 33.5192L196.983 34.087L196.952 34.5185L196.751 34.7991L196.528 35.0481L196.328 35.4266L196.18 35.9678L196.085 38.2934L195.991 38.735L195.853 39.0968L195.695 39.4504L195.579 40.0015L195.484 40.6971L195.453 46.3062L195.516 46.9984L195.717 47.4483L195.959 47.6741L196.245 47.8733L196.583 48.2982L196.942 48.8909L197.322 50.2006L197.269 50.755L197.026 51.0538L194.055 51.3261L191.487 52.0482L191.075 52.2424L190.513 52.6192L190.239 52.9545V53.2716L190.312 53.5986L190.713 54.515L191.806 56.5235L192.324 57.7519L192.471 58.2018L192.609 58.7712L192.757 59.7771L192.735 60.4013L192.598 60.8611L192.207 61.4355L191.372 62.2953L191.203 62.5543L190.999 62.9693L190.777 63.7545L190.808 64.2143L190.949 64.543L191.188 64.7256L191.7 64.9215L197.428 65.8145L197.302 66.6894L197.26 67.8796L197.302 68.6415L197.344 68.9968L197.428 69.3387L197.586 69.6176L197.808 69.8683L198.823 70.7282L199.228 71.1813L199.365 71.4635L199.428 71.7873L199.397 72.1624L199.281 72.506L198.995 73.1833L198.907 73.5634L198.922 73.8655L198.954 74.0631L198.964 74.1461L199.038 74.3602L199.387 75.1919L199.535 75.4558L199.736 75.9123L199.809 76.1497L199.862 76.4668L199.883 76.8237L199.862 77.2321L199.736 78.0786L199.556 78.9219L199.525 79.3253L199.546 79.7005L199.621 80.0524L199.737 80.3678L199.885 80.6549L200.127 81.2742L200.202 81.6178L200.212 81.983L200.086 82.3415L199.8 82.6071L199.188 82.798L197.885 82.9043L197.493 82.8445L197.144 82.72L196.922 82.4893L196.796 82.1772L196.426 80.8741L195.738 79.3386L195.559 79.0912L195.358 79.0033L195.111 79.1593L194.941 79.7221L194.787 80.6251L194.561 81.1098L193.484 82.549L193.242 83.0387L193.125 83.3823L193.167 83.6679L193.262 83.97L193.378 84.2771L193.535 84.5692L193.726 84.8398L193.98 85.0639L194.256 85.2614L194.595 85.4125L195 85.5105L197.302 85.5321L197.629 85.6067L197.903 85.781L198.114 86.0367L199.565 89.3534L199.659 89.6854L199.785 90.366L199.838 90.9304L199.828 91.2076L199.785 91.5711L199.594 92.3812L198.919 94.2769L198.58 95.497L198.474 96.3386V96.7304L198.502 97.0906L198.58 97.4376L198.686 97.7596L199.078 98.6527L200.536 101.251L200.652 101.661L200.62 101.918L200.24 102.696L200.102 103.135L200.018 103.545L199.858 103.902L199.563 104.114L199.023 104.104L198.643 103.975L197.783 103.452L197.445 103.364L197.055 103.465L196.653 103.732L194.656 106.103L194.282 106.358L193.786 106.571L192.793 106.742L191.226 106.7L191.029 106.612L190.297 105.661L190.033 105.57L189.716 105.684L189.377 106.242L188.755 107.925L187.002 111.687L185.783 113.344L185.645 113.674L185.551 114.026L185.572 114.368L185.616 114.678L185.71 114.974L185.805 115.475L185.88 116.37L186.017 116.649L186.25 116.845L186.588 116.901L187.637 116.775L187.996 116.788L188.345 116.884L192.267 119.275L195.386 122.236L195.524 122.52L195.546 122.851L195.439 123.191L195.292 123.516L194.707 124.404L193.492 125.814L193.301 126.119L193.217 126.32L193.132 126.619V126.949L193.122 127.215L193.047 127.386L191.226 126.185L190.793 125.799L190.381 125.297L190.023 124.766L189.727 124.426L189.633 124.359L189.39 124.426L188.989 124.643L188.27 125.321L188.016 125.815L187.9 126.267L187.931 127.404L188.016 128.129L188.101 128.461L188.227 128.77L188.418 129.017L188.672 129.2L189.02 129.275L191.432 129.276L191.718 129.351L191.96 129.515L192.161 129.758L192.319 130.037L192.372 130.364L192.033 130.75L191.314 131.114L188.544 131.869L187.667 132.402L186.185 134.089L185.478 134.356L178.836 135.471L178.529 135.657L178.19 136.129L178.159 136.484L178.244 136.821L178.466 137.06L178.72 137.251L178.994 137.386L179.515 137.545L181.11 137.689L184.791 137.344L185.234 137.493L185.856 137.839L186.215 137.89L186.902 137.839L187.176 137.905L187.302 138.152L186.668 138.649L185.484 139.27L180.167 141.159L179.914 141.361L179.64 141.539L179.213 141.637L175.865 141.487L172.228 141.975L171.484 141.955L171.283 141.904L171.029 141.755L170.797 141.549L170.586 141.296L170.395 141.029L169.93 140.179L169.739 139.919L169.497 139.69L169.202 139.494L167.656 138.994L167.329 138.825L167.075 138.616L166.853 138.381L166.272 138.264L163.596 138.362L162.899 138.187L162.391 137.983L162.127 137.759L161.546 137.699L161.219 137.545L160.986 137.312L160.807 137.068L160.497 136.924L160.169 136.926L159.884 137.073L159.768 137.517V138.994L159.736 139.47L159.652 139.915L159.525 140.276L159.356 140.551L159.165 140.749L158.807 141.019L158.279 141.16L155.888 141.346L155.201 141.197L154.758 140.964L154.642 140.659L154.356 140.075L154.134 139.837L153.827 139.688L153.468 139.626L152.007 139.761L149.725 140.383L149.213 140.677L148.686 141.267L148.422 141.743L147.64 144.177L147.482 144.504L147.123 144.743L146.584 144.859L144.826 144.696L140.86 143.265L140.11 143.234L139.202 143.393L138.779 143.562L138.367 143.821L137.818 144.384L137.544 144.832L137.353 145.274L136.684 147.141L136.018 148.434L135.827 148.715L135.372 149.195L134.886 149.618L133.731 150.119L131.576 150.748L130.837 150.758L129.971 150.46L128.847 149.764L128.488 149.656L128.097 149.61L127.632 149.703L127.104 149.895L125.907 150.727L125.379 151.308L124.333 151.657L120.907 151.575L120.809 152.032L120.789 152.057Z" fill="#000E40" stroke="#000E40" stroke-linecap="round" stroke-linejoin="round"/>
</svg>
