<svg width="214" height="301" viewBox="0 0 214 301" fill="none" xmlns="http://www.w3.org/2000/svg">
<path d="M2.26887 277.011L2.1178 277.028L1.20148 275.904L1.34261 275.217L1.81405 273.997L2.40499 272.856L2.41162 272.836L6.03375 270.102L6.03872 270.099L10.9058 270.476L16.012 271.822L20.3778 271.998L21.8153 271.341L22.1175 270.19L21.6809 266.882L21.5398 266.701L21.558 266.48L21.9332 265.762L21.9913 265.65L22.3897 265.283L24.1925 264.429L23.2529 263.12L22.9575 261.776L22.8313 260.416L22.4512 259.047L21.578 258.145L20.5139 257.516L19.908 256.816L20.3795 255.692L21.9648 253.328L22.7184 252.516L23.8937 251.73L25.8657 251.094L26.2891 250.312L26.0085 249.248L25.8093 248.496L26.9049 246.67L31.4649 246.22L33.2461 245.164L33.4851 244.23L33.3938 243.215L33.2212 242.331L33.2461 241.77L33.7607 241.325L35.7428 240.88L37.0492 240.131L37.9157 239.271L38.3772 238.008L38.4718 236.041L38.1896 234.402L37.2417 231.011L37.2949 229.376L38.0485 227.948L39.2321 227.168L51.1127 224.031L52.8109 223.224L52.952 221.297L51.7402 217.009L51.5775 214.592L52.0987 213.038L54.4443 210.382L55.9865 207.745L56.7965 205.416L56.4197 203.274L54.6667 201.616L52.3959 199.463L52.3859 199.458L51.2206 197.894L51.1774 196.549L51.6572 195.134L52.0589 193.361L51.9958 191.805L50.799 187.137L50.2495 183.518L50.6728 180.74L52.0605 178.563L57.1385 175.127L59.5638 174.214L60.8602 173.726L66.8428 170.318L68.2273 170.323H68.3086L69.3959 171.716L69.8424 173.842L69.8989 182.214L69.7644 183.377L69.3312 184.327L68.722 185.247L68.2505 186.193L68.2721 187.224L69.4274 188.216L70.9414 187.293L73.4131 184.539L74.2448 184.236L74.7096 184.388L75.0549 184.236L75.5197 182.969L75.5628 182.078L75.2391 180.077L75.4582 178.877L76.6551 176.864L77.6129 177.186L79.2115 180.605L80.4299 182.408L81.2898 182.383L84.2546 177.805L85.5228 176.399L86.8773 175.64L86.9371 175.607L88.5224 175.871L88.9025 176.482L89.0221 177.126L88.8876 177.806L88.5208 178.497L88.1406 179.284L88.0062 180.051L88.1257 180.796L88.5208 181.498L89.5566 181.927L91.698 182.338L92.6492 182.695L93.617 183.568L94.5565 185.733L95.4795 186.981L96.5435 187.632L97.7055 187.755L98.826 187.337L99.7423 186.395L100.249 184.785L99.91 182.365L100.347 181.742L102.277 181.719L103.65 181.185L104.397 179.729L104.419 176.948L105.292 178.469L108.876 181.9L110.292 184.148L110.615 184.974L110.728 185.872L110.69 187.781L110.828 188.46L112.187 189.971L113.525 189.767L116.04 187.522L117.259 186.834L118.358 186.588L126.438 187.054L129.428 186.533L131.203 184.785L132.864 181.729L131.956 181.15L130.851 180.947L129.823 181.131L129.148 181.729L127.989 180.348L124.858 177.853L125.379 177L124.541 175.277L124.095 174.667L123.555 174.241L123.168 174.226L122.337 174.77L121.893 174.913L121.654 174.704L121.316 173.754L121.19 173.505L118.182 172.23L117.217 171.04L117.006 168.831L118.182 168.708L119.682 168.414L120.471 166.281L120.316 165.342L119.468 163.31L119.217 162.284L119.259 160.974L119.498 160.033L119.828 159.145L120.111 157.986L120.67 151.804L120.569 149.973L120.267 149.215L119.516 147.78L119.252 147.055L119.161 146.14L119.176 144.005L119.007 143.341L118.275 142.922L117.612 143.222L116.985 143.649L116.379 143.597L116.055 143.049L115.512 141.245L115.192 140.556L113.245 138.919L111.308 138.672L109.301 138.868L107.146 138.532L105.899 137.618L104.307 135L103.195 133.88L102.153 133.493L99.92 133.307L98.8144 132.91L98.2301 132.397L97.1594 131.152L96.5402 130.817L94.8155 130.981L94.4287 130.888L93.8294 129.781L93.9075 128.473L93.9622 128.232L94.2594 126.909L94.7706 123.187L95.5143 122.085L96.3344 121.151L96.8523 119.789L96.7892 118.264L96.2962 116.904L95.5143 115.842L94.6129 115.219L93.3314 115.344L92.5396 116.476L91.9453 117.764L91.2066 118.373L90.6157 117.764L88.5307 113.838L88.383 113.515L88.3265 113.208L88.3763 112.897L88.5307 112.613L90.4248 112.422L91.9038 111.992L92.8899 110.802L93.285 108.337L92.5877 103.085L92.8334 100.907L94.5167 100.014L95.2985 98.2758L95.2354 95.9502L94.608 93.6212L93.6884 91.8865L92.5512 90.8623L91.2631 90.3892L89.9069 90.2979L88.5307 90.4539L87.8335 92.0143L87.5231 93.5515L87.0517 94.9542L85.8614 96.0962L84.7625 96.4448L83.6703 96.3353L82.6427 95.8373L81.7131 95.0073L81.0358 93.8569L80.8117 93.4767L80.6009 92.0475L80.5727 90.595L80.2208 89.0014L79.3293 87.6817L78.2769 87.2136L77.2062 86.9895L76.2633 86.4384L75.7105 85.3643L75.4034 84.1658L74.9387 83.0885L72.847 81.6891L71.6153 79.5776L70.6426 79.0464L69.5187 79.551L68.8746 80.6367L68.1708 81.2359L66.9308 80.2781L66.3681 79.2074L65.304 76.1679L65.1114 75.7795L64.6666 74.8781L64.6633 74.8681L64.6566 74.8632L64.65 74.8532L63.7668 70.8045L64.6583 68.1485L66.4079 65.8095L68.1725 62.7335L68.8763 58.9222L68.8133 55.3449L69.1868 52.1826L71.212 49.5747L72.0253 48.2816L71.7614 47.186L70.8916 46.3742L68.5393 45.5226L67.8837 44.862L67.877 43.7481L68.4895 41.9703L69.3212 40.8265L70.5812 39.4653L71.627 38.0244L71.8494 36.6383L71.1671 36.1453L68.4846 35.3269L67.5268 34.5783L66.9839 33.0942L66.3847 29.6099L65.8501 28.0329L65.055 26.7281L64.2167 25.933L63.2655 25.5595L62.0853 25.5064L59.9273 26.5655L56.9409 30.5013L54.4626 30.9794L52.3842 30.1229L51.4115 29.3742L49.9607 28.257L47.7628 25.8533L46.3684 23.4364L47.5735 22.4072L53.3271 19.8375L54.7846 18.8481L55.5664 17.7044L56.4645 16.7084L56.9708 16.2867L58.1262 15.636L58.908 15.0169L59.099 14.7479L59.1935 14.3893V14.0258L59.162 13.639L58.6557 11.1424L58.571 10.4137L58.6557 10.0651L58.835 9.77955L59.1305 9.57367L61.0992 8.75533L61.6388 8.62913L62.1251 8.61257L62.8539 8.84494L63.234 9.10888L63.5295 9.38775L63.7403 9.64672L65.0118 10.7556L65.9199 11.315L66.1739 11.5308L66.7764 12.311L67.3475 12.7061L70.9314 14.1238L72.1781 14.8193L72.5516 14.8724L78.8297 14.6981L85.3867 11.9508L86.4109 11.9093L86.7279 12.1301L87.0019 12.3775L89.6462 14.0225L90.5443 14.2682L95.6637 14.6035L99.4917 14.2217L100.136 13.981L100.474 13.9229L100.801 13.971L101.436 14.2765L101.763 14.2848L102.09 14.0873L103.233 10.6859L103.34 10.0584L103.298 9.57367L103.15 9.27321L102.981 8.9877L101.573 7.1667L101.246 6.58073L101.14 6.25367L101.193 5.83204L101.499 5.39049L102.271 4.91242L102.949 5.00705L103.361 5.15974L104.08 5.10498L104.639 4.95391L108.562 2.76108L110.277 2.44897L111.376 2.02069L111.671 1.95266L112.041 2.04562L112.421 2.24977L113.593 3.15282L113.904 3.48647L114.08 3.76702L114.918 4.78126L115.192 5.00371L115.499 5.12321L115.879 5.12656L116.259 4.87757L116.533 4.61363L118.122 1.69698L118.502 1.11101L118.734 0.878633L119.073 0.810547L119.495 0.921794L120.393 1.77834L120.751 2.04227L121.141 2.10367L121.712 1.92606L122.624 1.35503L122.806 1.27038L123.683 0.936739L124.807 3.15115L125.796 5.65944L127.162 7.65972L129.592 8.83167L143.875 9.65007L143.96 11.4595L144.034 11.9176L144.257 12.2446L145.158 12.736L145.465 13.0414L145.487 13.5942L145.392 14.0109L145.16 14.2897L144.83 14.3694L144.471 14.3014L144.101 14.1752L143.709 14.1271L143.351 14.1935L143.097 14.391L142.663 14.9189L142.389 15.0351L141.354 14.9089L139.015 15.9415L138.741 16.1307L138.254 16.5789L138.148 16.8628L138.201 17.1632L139.058 17.7011L139.29 18.048L139.322 18.6323L139.28 19.967L139.312 20.3272L139.29 20.6791L139.227 21.031L138.689 21.9058L138.626 22.2794L138.585 22.6744L138.626 23.6107L138.711 23.8945L138.902 24.1999L139.345 24.4788L141.028 24.9553L141.324 25.1495L141.566 25.3703L141.83 25.6624L142.527 26.7198L143.849 28.2503L144.049 28.6189L144.207 29.097L145.859 40.0413L145.943 40.3319L146.06 40.8066L146.217 41.1901L146.491 41.6731L147.579 42.7422L148.307 43.1721L150.097 43.8909L150.467 44.1631L150.794 44.608L151.121 46.1717V46.6249L151.058 46.8291L150.92 47.1013L150.729 47.352L150.01 48.0492L149.81 48.343L149.693 48.7148L149.747 49.1597L149.926 49.6279L150.845 50.5524L151.702 51.2281L151.924 51.5584L152.104 51.9502L152.16 52.6358L152.082 53.1172L151.924 53.504L151.438 54.4883L151.322 54.8552L151.269 55.2719L151.3 55.6404L151.407 56.0852L151.871 57.3568L152.104 58.303L152.295 58.7163L152.552 59.1762L153.227 59.714L154.833 60.534L155.118 60.7581L155.784 61.4902L156.026 61.7093L156.337 61.8288L159.452 61.2694H159.794L160.112 61.4205L160.385 61.6612L160.693 62.0164L161.01 62.199L161.368 62.282L161.695 62.209L162.286 61.9268L163.322 61.1266L163.991 60.3896L164.308 60.2701L164.678 60.2884L165.08 60.4627L165.946 61.1582L166.39 61.3458L166.823 61.4404L169.278 61.4686L169.648 61.706L169.934 62.1243L170.208 63.952L170.599 64.7255L170.926 65.0725L171.253 65.2783L171.549 65.2916L171.785 65.104L171.995 64.8451L172.322 64.1562L172.661 62.4464L172.777 62.038L172.957 61.7226L173.231 61.535L177.047 60.6519L177.374 60.9806L177.606 61.6861L177.797 63.4407L177.722 64.2607L177.575 64.8301L177.437 65.1389L177.447 65.4211L177.764 65.6385L180.113 65.7298L180.568 66.0303L181.023 66.6279L181.761 68.0007L182.737 69.1959L183.064 69.7753L183.338 71.9084L183.297 72.8961L183.212 73.2712L183.086 73.6132L182.863 73.8422L182.342 74.1211L182.289 74.1842L182.236 74.7752L182.258 75.5056L182.173 76.5796L182.004 77.471L181.56 79.0696L180.725 81.2675L181.052 82.964L184.246 92.6335L185.387 95.1882L186.275 96.6357L190.018 97.2948L192.769 97.3977L192.97 97.4657L193.277 97.7463L194.027 98.9813L194.386 99.1938L194.747 99.222L196.829 98.2758L202.256 97.0806L202.52 97.1437L202.689 97.2964L202.815 97.4475L202.941 97.65L203.469 98.812L203.607 99.378L203.765 100.265L203.532 100.96L203.331 101.412L202.392 102.408L202.138 102.605L201.532 102.877L200.856 103.052L200.539 103.178L200.285 103.362L200.094 103.643L199.947 104.443L199.872 105.279L199.893 105.701L199.978 106.108L200.242 106.486L200.537 106.745L200.896 106.916L202.538 107.346L203.16 107.685L203.889 108.329L204.131 108.495L204.438 108.574L204.756 108.541L205.073 108.427L205.939 107.978L206.587 107.761H207.274L207.569 108.053L207.802 108.525L208.109 109.456L208.394 109.927L208.668 110.288L209.39 110.948L209.566 111.207L209.757 111.582L209.961 112.05L210.172 112.847L210.383 113.319L210.637 113.614L211.029 113.722L212.169 113.807L212.496 113.908L212.77 114.172L212.896 114.602L212.949 115.311L212.231 117.004L212.262 118.04L212.231 118.712L212.114 119.311L211.681 119.967L211.322 120.272L210.964 120.774L210.657 121.43L210.287 122.945L209.885 124.177L209.775 124.344L209.556 124.554L208.115 125.199L207.861 125.405L207.67 125.716L207.3 126.61L207.005 126.819L206.656 126.903L202.501 127.166L201.857 127.376L201.547 127.43L201.251 127.361L200.787 126.966L200.491 126.821L200.142 126.785L199.794 126.811L199.487 126.959L199.286 127.225L198.599 128.453L198.356 128.654L198.039 128.788L194.581 129.039L194.336 129.117L194.188 129.57L194.286 130.498L194.845 132.643L195.448 133.898L195.881 134.598L198.758 136.592L199.213 137.077L199.709 137.885L200.459 139.656L200.682 139.975L200.914 140.196L201.844 140.737L203.094 141.774L203.273 142.663L203.748 150.607L204.043 151.547L204.15 152.168L204.171 152.759L203.97 153.472L203.791 153.927V155.798L204.847 161.288L204.772 161.283L202.91 161.299L199.41 162.413L195.755 162.91L192.926 163.842L191.451 164.048L190.841 164.432L189.261 165.82L188.662 165.747L187.892 165.391L186.999 165.73L182.973 168.554L182.125 168.791L179.263 168.134L178.586 168.114L177.776 168.839L175.745 171.669L175.335 172.511L175.568 173.824L176.721 176.289L177.188 178.314L177.449 178.309L177.965 178.796L178.287 179.38L177.932 179.666L177.754 179.871L177.51 180.363L177.288 180.922L176.688 183.91L176.532 184.324L173.727 188.062L172.585 189.111L168.913 188.822L168.314 189.45L168.629 189.996L170.188 191.052L170.676 191.87L170.692 192.954L170.394 193.889L168.425 197.828L163.656 204.649L162.18 207.467L161.215 208.837L160.145 209.413L159.552 210.213L158.199 214.086L157.567 215.454L149.194 223.554L141.707 233.596L137.859 237.475L133.329 241.006L133.502 239.716L133.113 234.218L132.58 234.002L131.96 234.671L131.433 235.596L131.106 236.731L130.867 239.334L130.751 239.975L130.495 240.619L130.467 241.137L130.339 241.487L129.802 241.615L129.641 241.413L129.236 241.042L128.831 240.886L128.636 241.305L128.065 241.623L124.893 239.06L123.263 238.337L121.749 239.133L121.2 241.067L121.05 243.466L120.685 245.68L120.014 244.552L119.287 243.68V242.953L119.747 241.919L119.47 241.361L118.871 241.592L118.354 242.951L118.288 244.61L118.603 245.926L119.136 246.935L119.757 247.674L119.286 250.343L118.947 249.414L118.421 248.747L116.957 247.674L116.791 247.301L116.864 246.856L116.819 246.494L116.243 246.346L115.833 246.554L115.633 247.015L115.501 247.472L115.312 247.674L113.731 247.714L111.885 248.056L110.433 249.045L109.978 251.011L110.488 252.297L111.386 252.928L113.198 253.615L114.236 254.668L114.696 255.401L114.362 255.735L113.163 256.227L112.083 257.166L110.917 257.717L109.52 257.066L109.321 257.686L109.165 257.908L109.198 258.202L109.52 258.999L108.499 259.57L106.58 260.247L105.748 261.055L105.836 258.497L105.083 255.88L103.808 253.831L102.266 253.009L102.448 252.287L102.032 247.673L102.481 246.091L102.92 245.347L103.031 244.763L102.488 243.677L102.116 243.104L101.922 242.917L101.678 242.782L100.269 241.58L99.8685 241.122L99.5531 240.276L99.2377 240.364L98.9223 240.848L98.7729 241.612L98.9954 242.287L99.9548 243.561L100.171 244.011L99.905 244.774L98.6517 246.504L98.2633 247.673L98.1853 249.166L98.3629 249.945L98.7281 250.604L99.1946 251.736L96.8539 253.551L96.4439 257.355L96.5934 262.018L95.9343 266.436L97.6591 267.307L98.6185 267.639L99.9382 267.765L101.192 267.496L102.168 266.819L103.931 265.049L103.077 266.13L100.836 269.666L99.9382 270.418L99.2277 270.833L98.7945 271.747L98.4558 272.661L98.0558 273.076L96.9851 273.444L97.0233 274.302L98.0707 276.611L98.6534 277.338L99.4137 277.836L100.167 277.717L100.423 276.859L100.3 275.677L100.45 274.687L101.565 274.403V276.664L101.764 277.076L102.186 277.021L102.529 276.693L102.485 276.332L103.062 276.502L103.595 276.396L104.038 276.767L104.349 278.376L104.792 276.905L105.114 275.272L105.647 274.536L106.678 275.73L107.171 277.304L107.254 279.184L106.704 280.504L105.335 280.37L106.299 281.452L106.865 283.268L107.121 285.376L107.277 289.529L107.189 290.358L106.957 291.186L106.374 292.511L106.258 293.311L105.476 295.643L105.337 296.647L105.403 297.463L105.476 297.617L105.36 297.7L104.045 299.011L102.93 299.649L101.709 299.956L100.655 299.732L101.009 299.026L101.163 298.306L101.062 297.605L100.67 296.994L101.558 294.207L101.206 290.437L100.059 287.117L98.5521 285.695L97.7487 285.253L94.5682 282.38L85.0929 278.939L79.8522 278.402L79.1833 278.192L78.4363 277.8L77.6975 277.634L77.0634 278.07L76.6684 278.577L76.1405 279.083L75.5412 279.5L74.9503 279.725L73.521 279.75L72.4155 279.54L71.2949 279.584L69.8292 280.393L68.8016 281.291L68.2239 281.988L67.97 282.68L67.6247 282.961L65.9763 283.067L65.4136 283.338L64.4342 284.36L63.2622 284.891L60.4834 285.693L56.9825 288.593L56.0595 289.06L54.5489 289.114L53.9496 289.29L53.4599 289.661L53.0482 290.492L52.8407 292.36L52.5303 293.03L50.9666 293.611L49.6137 292.811L48.4932 291.604L47.6234 290.989L46.0746 290.708L44.2818 289.427L43.226 289.061L41.4166 289.511L41.3386 290.899L41.4448 292.356L39.4944 293.347L39.3682 294.088L39.5657 294.964L39.8861 295.68L40.3642 296.105L42.2981 296.994L41.5312 297.884L40.6646 298.259L38.5299 298.319L35.9868 298.659L26.9232 296.614L21.2742 293.633L15.2103 292.066L12.8298 290.695L11.6744 290.384L10.1041 289.368L8.77938 286.953L6.76081 281.714L7.11608 279.784L5.78476 277.963L3.79107 276.839L2.26887 277.011ZM118.356 253.62L129.053 243.684L132.479 241.823L117.629 255.982L110.775 261.062L105.562 263.296L108.99 261.417L110.365 260.323L110.908 259.372L111.273 258.456L112.149 258.099L113.203 257.956L114.13 257.671L115.222 256.778L117.191 254.611L118.356 253.62Z" fill="#000E40" stroke="#000E40" stroke-linecap="round" stroke-linejoin="round"/>
</svg>
