<svg width="233" height="190" viewBox="0 0 233 190" fill="none" xmlns="http://www.w3.org/2000/svg">
<path d="M5.66328 21.4669L9.75522 21.4287L10.0722 21.6113L10.6001 22.0661L10.9421 22.2172L11.4168 22.2006L11.9564 21.9848L12.7598 21.3938L13.5101 20.5771L14.8547 18.2913L15.2979 17.7285L15.5403 17.5028L15.8258 17.292L20.0439 15.2917L21.7969 15.1805L22.2649 15.3182L22.5073 15.5224L22.9622 16.047L23.1531 16.3292L23.6179 16.8421L23.9133 16.9799L24.3151 16.8969L26.3469 15.3946L26.8549 15.2452L27.806 15.2485L28.3239 15.3282L28.6825 15.4494L28.9149 15.6652L29.1058 15.944L29.3382 16.6097L29.4262 16.9683L29.5391 17.3335L29.6238 17.692L29.8495 18.4075L30.145 18.9785L30.2828 19.1611L30.472 19.3188L32.0457 19.8019L38.9729 20.1189L41.6073 19.5645L42.263 19.5977L42.6332 19.8019L42.7709 20.1438L42.9087 20.4343L43.2673 20.5837L45.7423 20.6302L51.5241 17.4082L52.6264 17.1011L55.0035 16.9019L55.7007 16.6811L56.0393 16.4055L56.3813 15.9905L56.7514 15.0792L57.1532 13.9022L57.4603 13.4458L57.9151 12.9793L59.4572 12.0281L60.6541 11.6496L60.9811 11.4006L61.2766 11.0387L61.7414 9.74394L62.0585 9.23433L62.4602 8.80771L63.2835 8.2599L64.9569 7.57101L65.9495 6.32766L68.5209 1.30949L71.0142 2.79684L77.5496 3.56874L78.363 3.46914L78.5954 3.20021L78.7863 2.85495L78.9457 2.47812L79.0718 2.06811L79.4984 1.58669L80.2487 1.11027L82.108 0.53924L83.0624 0.431335L83.7381 0.49775L84.0335 0.711886L84.256 0.972502L84.6361 1.3045L85.1856 1.6697L87.0348 2.44491L87.503 2.72214L108.28 6.98337L113.439 9.42689L114.118 9.53147L114.626 9.45343L115.291 8.61515L117.214 8.17026L120.006 8.04245L121.073 7.70214L121.679 7.34026L121.626 6.97506L121.412 6.70449L119.299 5.39307L119.245 5.33499L119.171 5.19887L119.149 4.94489L119.265 4.63445L119.466 4.36555L119.73 4.14643L123.241 2.54121L125.537 1.93531L126.149 1.99341L126.551 2.1843L127.343 3.32306L128.251 4.37551L130.494 6.13675L135.716 8.53878L136.212 8.57199L136.551 8.43919L136.671 8.07897L136.649 7.70878L136.571 7.33861L136.549 6.97341L136.634 6.59159L136.901 6.27287L137.271 5.99399L137.862 5.72342L138.433 5.78649L139.818 6.23802L140.208 6.11021L140.444 5.83963L140.513 5.43624V5.35326L140.379 4.61622L140.47 4.2676L140.759 3.95552L142.228 3.60361L142.651 3.42101L143.095 3.07739L143.707 2.72214L145.148 2.46981L145.772 2.14612L146.162 1.74108L146.31 1.31944L146.543 0.904442L146.944 0.887851L149.218 1.72449L149.514 1.94526L149.673 2.25567L149.695 2.64413L149.462 4.83699L149.526 10.1988L149.62 10.9558L149.811 11.6579L150.085 12.3103L151.69 14.5596L154.008 17.2173L156.979 19.7853L157.422 20.3215L157.802 20.8958L158.078 21.5499L158.184 21.8968L158.226 22.2753L158.184 22.672L158.068 23.0588L157.508 24.1262L157.223 24.9512L157.15 25.3878L157.14 25.8044L157.341 28.5634L157.447 29.2954L157.626 29.6922L157.9 30.1171L158.428 30.6683L158.82 30.7944L159.115 30.6483L159.295 30.3047L159.559 29.9379L159.942 29.6424L160.714 29.493L161.179 29.5843L161.517 29.7967L161.708 30.0773L161.846 30.3977L161.921 30.7396L161.984 31.5165L162.058 31.9182L162.216 32.2901L162.903 32.9209L163.094 33.2512L163.136 33.6363L163.337 34.1542L163.732 34.7386L166.247 36.5164L166.458 36.7256L166.574 36.8816L166.712 37.1207L166.944 37.7415L167.029 38.0934L167.085 38.4736L167.092 38.8753L167.049 39.3036L166.942 39.7318L166.816 40.0921L166.637 40.3593L166.511 40.5237L166.31 40.7279L166.056 40.8872L165.739 41.0217L164.218 41.2059L163.954 41.3985L163.785 41.767L163.562 43.1083L163.612 43.6196L163.763 44.1657L164.323 44.8795L164.555 45.3609L164.65 45.8058L164.607 46.2623L164.585 46.7072L164.776 47.2417L165.04 47.338L165.315 47.2583L166.277 46.3768L166.667 46.1179L167.938 45.7012L169.016 45.5086L175.657 46.5329L178.087 46.4532L178.405 46.3104L178.669 46.0797L178.901 45.8058L179.095 45.4705L179.243 45.0771L179.369 44.6571L179.548 43.769L179.696 43.3208L179.97 42.9523L180.509 42.6933L180.9 42.7431L181.301 42.9855L182.379 43.842L182.857 44.0396L183.247 44.0445L184.472 43.4237L186.109 42.0442L187.961 41.7687L194.359 43.2162L194.971 44.6537L195.013 50.5069L194.875 51.9113L194.696 52.8077L194.263 53.4086L191.216 56.4215L190.582 57.3112L189.892 58.5114L189.807 58.709L190.846 61.6057L190.941 61.9609L191.343 64.8228L191.681 65.4552L192.02 65.8951L192.284 66.1308L192.991 67.4356L193.308 67.7659L193.698 67.99L194.97 68.337L195.297 68.5262L195.572 68.7669L196.228 69.5571L196.787 70.0003L197.126 70.1995L197.516 70.3522L198.386 70.495L201.196 70.4784L201.643 70.7141L202.139 71.0743L203.059 72.3359L203.386 72.6862L207.626 74.8375L208.471 74.9571L208.841 74.9073L209.179 74.7927L210.028 74.2117L210.355 74.0889L210.713 74.0291L211.115 74.0673L211.505 74.1951L211.938 74.4657L213.079 75.5912L213.399 76.0742L213.631 76.4926L213.769 77.208L213.801 77.9965L213.59 80.9613L213.643 82.5449L213.718 83.0496L214.129 84.7394L214.405 85.4317L214.647 85.8998L214.921 86.1687L216.306 87.0917L216.548 87.4784L216.686 87.8702L216.764 89.2513L216.898 89.9402L217.209 90.2722L217.599 90.4897L219.48 90.8167L219.722 91.1321L219.838 91.5488L219.911 92.0899L220.112 92.4186L220.461 92.5979L223.897 93.6337L224.763 93.7698L225.125 93.74L225.368 93.5474L225.547 93.2021L225.811 92.3539L226 92.0053L226.254 91.7795L226.593 91.6699L228.678 91.7247L229.206 91.8608L229.481 92.1165L229.629 92.4534L229.787 93.5574L229.818 93.9059L229.787 94.218L229.576 94.4139L229.005 94.7111L228.794 94.9501L228.752 95.2854L228.784 95.6307L228.975 96.3262L229.217 97.0118L232.242 102.81L232.823 104.238L232.982 105.101L232.718 105.302L232.398 105.438L230.972 105.71L227.756 105.694L227.418 105.84L227.227 106.134L227.321 106.817L227.607 107.164L228.952 107.896L230.114 109.128L231.571 110.021L232.283 110.707L232.59 111.384L232.549 111.628L232.464 111.812L232.263 112.03L231.953 112.154L230.812 112.224L230.474 112.332L230.22 112.563L229.828 113.222L229.564 113.439L229.184 113.451L225.324 112.415L224.923 112.403L224.564 112.48L223.927 112.74L222.871 112.979L222.595 113.174L222.395 113.482L222.235 113.862L222.087 114.312L221.981 114.817V115.516L222.172 116.16L222.647 117.119L222.848 117.853L223.133 118.291L223.99 118.743L224.549 119.141L224.675 119.515L224.669 119.81L224.423 120.34L224.402 120.795L225.114 121.877L225.23 122.348L225.177 122.76L223.44 125.086L221.666 127.989L219.624 130.318L218.547 131.166L214.888 132.977L213.452 133.22L206.757 132.677L206.324 132.556L205.605 132.212L204.81 131.527L204.588 131.256L204.218 130.695L203.964 130.474L203.637 130.31L203.256 130.242L202.886 130.268L202.559 130.389L202.285 130.587L198.764 134.41L198.162 135.355L197.719 136.359L197.461 137.313L197.408 137.879L197.44 138.349L197.534 138.698L198.879 141.055L199.133 141.686L199.472 142.791L199.745 143.953L199.905 145.173L199.82 145.94L199.513 146.608L197.491 145.24L196.784 144.885L195.992 144.632L195.581 144.594L195.157 144.719L194.724 144.978L194.181 145.613L193.942 146.13L193.773 146.641L193.537 147.527L193.378 147.891L193.187 148.22L192.838 148.457L192.383 148.616L191.57 148.57L191.147 148.376L190.883 148.08L190.861 147.738L190.946 147.401L191.125 147.116L191.621 146.664L191.801 146.408L191.832 146.088L191.663 145.829L191.387 145.6L189.472 144.838L189.07 144.82L188.658 144.958L188.109 145.399L187.601 145.577L185.886 145.481L185.494 145.585L184.935 145.876L184.429 146.227L183.7 146.955L183.044 147.833L182.611 148.14L181.964 148.457L176.414 150.147L174.012 150.485L161.79 155.889L161.051 155.585L160.639 155.568L160.281 155.686L160.048 156.163L160.038 156.536L160.176 157.267L160.155 157.667L160.07 158.078L159.912 158.433L159.042 159.697L158.05 160.728L156.348 162.15L156.106 162.437L155.936 162.756L155.839 163.083L155.88 163.357L155.978 163.535L156.021 163.601L156.106 163.646L156.517 163.732L157.193 163.754L157.489 163.907L157.583 164.204L157.53 164.569L157.245 164.878L156.77 165.09L155.878 165.191L154.622 165.626L153.861 166.249L153.46 166.657L153.174 167.059L152.983 167.391L152.04 170.244L151.385 171.709L151.259 172.105L151.152 172.534L151.026 173.82V174.212L151.069 174.592L151.154 174.929L151.313 175.223L153.292 177.133L153.503 177.401L153.651 177.701L153.767 178.028L153.842 178.382L153.852 178.772L153.989 180.276L153.863 180.643L153.556 181.041L152.806 181.436L151.418 183.006L151.26 183.34L151.197 183.725L151.187 184.115L151.197 184.505L151.303 184.842L151.536 185.093L151.81 185.309L152.127 185.498L152.394 185.717L152.573 185.985L152.595 186.305L152.479 186.615L152.278 186.909L152.064 187.186L150.575 188.569L148.644 189.925L147.728 189.798L145.583 187.105L143.498 185.986L139.934 185.387L138.782 184.922L138.362 184.618L137.559 183.851L137.154 183.594L136.664 183.536L135.691 183.697L135.195 183.563L127.55 178.154L126.969 177.56L125.628 175.44L125.1 174.872L124.008 174.283L122.868 174.052L120.529 174.014L119.335 173.657L117.363 171.677L115.233 172.064L115.054 172.391L114.652 172.685L114.05 172.915L112.737 173.015L112.071 173.163L111.648 173.415L111.468 173.739L111.321 174.14L111.004 175.918L110.866 176.403L110.655 176.821L110.212 177.223H109.895L109.747 176.999L109.684 176.659L109.662 176.288L109.468 175.611L108.909 174.388L108.718 174.091L108.021 173.352L107.471 172.929L104.996 171.697L104.362 171.649L103.939 171.793L103.22 173.13L102.893 173.417L102.456 173.652L101.684 173.823L101.293 173.71L101.135 173.418L100.765 172.944L100.068 172.386L97.106 171.196L96.5881 170.789L96.1648 170.279L95.4145 169.687L93.2765 168.735L92.2937 168.457L91.638 168.468L91.4372 168.769L91.2263 169.187L90.9724 169.575L90.4196 169.906L90.1241 169.874L89.9133 169.738L89.8071 169.559L89.5746 169.248L89.2161 168.903L88.0757 168.11L87.8001 167.796L87.6424 167.539L87.4947 167.25L86.3294 165.659L86.0554 165.351L85.0196 164.551L84.8088 164.33L84.7141 164.116L84.8519 163.928L85.4744 163.52L85.6753 163.349L85.8662 163.101L86.0239 162.763L86.087 162.376L86.077 162.001L86.0023 161.287L86.0654 160.987L86.2978 160.809L87.3469 160.596L87.654 160.46L87.8864 160.251L87.9711 159.903L87.918 159.537L87.5909 159.069L85.9392 158.595L85.3998 158.355L85.1043 157.979L84.8503 157.072L84.5548 156.903L78.2202 156.274L77.714 155.874L77.3969 155.538L76.6466 154.307L76.5304 154.043L76.4357 153.736L76.1718 153.107L74.9218 151.1L74.4885 150.578L73.9922 150.099L66.9173 144.709L49.9156 136.379L50.1795 131.465L50.1264 129.647L49.9571 128.846L47.1119 121.286L46.7948 120.685L44.1404 117.161L43.6756 116.668L43.01 115.652L42.419 114.498L42.2281 113.846V113.348L44.9223 108.801L45.1331 108.516L45.3805 108.267L45.6444 108.044L47.1235 107.164L47.3459 106.92L47.5783 106.497L47.7791 105.873L47.9385 104.694L47.9485 104.032L47.907 103.506L47.4206 101.593L47.1982 101.192L46.9658 100.86L45.1796 99.5998L44.8808 99.2678L44.6069 98.8445L44.2583 98.0941L44.1205 97.5646L43.9197 94.5268L43.6972 93.8578L43.3901 93.4063L35.9882 90.5494L35.5964 90.2606L35.11 89.8008L34.9407 89.3576L34.8461 88.9276L34.9839 86.2102V85.523L34.8992 84.3892L34.7299 83.8065L34.4975 83.3998L32.2648 81.6419L31.9477 81.5323L31.6207 81.5821L31.0397 81.9042L30.7442 81.9938L30.4803 81.9855L30.2695 81.7946L30.1002 81.5605L29.8229 81.0592L29.3266 80.3969L28.3871 79.3909L28.1231 79.1834L27.7745 79.0573H27.4259L27.1088 79.1602L26.4963 79.4706L26.1693 79.547L25.8306 79.4789L25.5418 79.3295L25.2779 79.1104L23.9897 77.5168L21.5661 73.1543L21.1445 72.0836L20.9652 71.3084L21.0913 70.9316L21.2922 70.6311L21.5661 70.4286L21.8931 70.3223L22.2566 70.3522L22.8692 70.641L23.1647 70.6992L23.4386 70.5979L23.7125 70.4037L23.9133 70.002L24.0395 69.4492L23.8702 67.5684L23.8602 66.9725L23.9017 66.5458L24.4611 64.3629L24.5458 63.7803L24.5773 63.1262L24.4927 62.1634L24.3234 61.6605L24.0378 61.3102L22.421 60.3358L22.1421 60.0951L21.6773 59.3564L18.6146 53.2293L18.2411 53.0865L17.8925 53.1032L16.8882 53.4484L16.5081 53.4567L16.1279 53.3771L14.5426 52.7462L14.0961 52.4889L13.5467 52.0557L13.3674 51.6258L11.9414 46.8267L11.8783 46.1345L12.0891 45.9419L14.4032 45.1352L14.6821 44.7783L14.8829 44.2454L14.8199 42.9871L14.7136 42.4426L14.5443 42.0691L14.0645 41.6707L13.7691 41.5313H13.4952L13.2412 41.6408L12.861 41.9048L12.3962 42.3331L11.8468 42.7514L11.2442 43.0867L10.874 43.0585L10.4374 42.7946L9.22234 41.0416L9.08454 40.9038L8.84219 40.7279L8.09188 40.4374L6.69748 40.1286L6.23932 39.9028L5.75294 39.3583L5.51059 38.8222L5.34124 38.0469L5.17193 37.6104L4.96114 37.2535L4.67557 36.9613L3.76756 35.718L3.3559 34.6041L2.95088 33.9135L2.61223 33.545L2.24206 33.4454L1.5764 33.5118L0.900757 33.3575L2.69024 30.7197L2.8446 30.3728L3.04881 29.7752L2.99237 29.4365L2.8446 29.1012L2.65372 28.7841L2.52758 28.3658L2.63381 28.0438L2.90772 27.7516L3.95682 26.178L5.66328 21.4669Z" fill="#000E40"/>
</svg>
