<svg width="183" height="209" viewBox="0 0 183 209" fill="none" xmlns="http://www.w3.org/2000/svg">
<path d="M34.4788 2.01971L43.7516 2.17741L49.5052 1.01874L64.0351 3.7843L68.7678 3.63655L70.8245 4.09637L75.2268 8.0505L77.2687 8.94856L93.1084 9.62086L93.9251 10.0342L93.9384 10.821L93.7342 11.8237L93.8886 12.8944L94.7269 14.073L95.6847 14.5826L110.686 15.0474L123.568 20.7777L128.068 21.528L134.935 19.1044L140.956 19.3368L143.76 19.961L145.584 21.0267L146.014 22.7465L145.832 25.0921L145.803 28.0286L146.346 30.1866L147.339 31.1345L148.705 31.2938L150.36 31.078L152.374 31.5744L152.17 33.4784L151.162 35.8372L150.775 37.6948L151.69 38.5596L153.175 38.3986L155.886 37.5221L159.928 38.2044L161.333 38.0965L162.83 37.3595L164.724 35.2678L165.984 34.5906L168.371 34.6503L168.379 34.6536L175.751 37.6383L179.583 37.7578L180.66 38.3704L181.512 40.6595L180.976 43.4185L178.715 48.9297L178.852 49.2201L176.603 49.5986L174.983 50.4104L174.254 50.6311L173.63 50.9615L173.388 51.1789L173.155 51.838L172.954 52.8124L172.69 54.9339L172.763 55.8718L172.943 56.4876L173.947 57.4986L174.339 58.0912L174.487 58.4265L174.593 58.79L174.634 59.205L174.54 59.6284L174.36 59.9703L173.927 60.05L173.569 59.957L173.23 59.7678L170.522 57.3907L170.312 57.1018L170.121 56.7848L169.995 56.4146L169.721 55.729L169.362 55.1248L169.14 54.8509L168.897 54.5936L168.59 54.4242L168.21 54.3728L167.903 54.4807L167.677 54.6832L167.458 55.5414L166.758 60.3687L166.736 61.7731L166.874 62.6678L167.954 63.6373L168.145 63.9211L168.305 64.2431V64.7727L168.179 65.3985L167.777 66.4011L167.551 66.8294L167.319 67.1963L166.631 67.9516L166.358 68.1607L166.031 68.3218L162.224 69.1916L161.97 69.4174L161.854 69.756L161.96 70.2374L164.15 74.8223L164.256 75.1012L164.309 75.3187L164.382 76.0491V76.4906L164.288 77.1065L164.065 77.8369L163.502 79.0288L163.122 79.5849L162.752 79.965L161.22 80.878L160.966 81.1204L160.743 81.4042L160.553 81.7279L159.683 84.4188L159.387 85.0878L159.092 85.5459L158.828 85.785L158.605 86.0539L158.034 86.8656L157.865 87.186L157.727 87.772L157.621 88.5638L157.452 90.9559L157.282 91.761L156.859 92.5793L156.552 93.0508L156.263 93.416L155.513 94.1447L155.28 94.4203L155.016 94.9183L154.245 96.8953L153.874 97.4697L153.526 97.8532L151.937 98.6765L149.286 99.2891L148.959 99.4401L148.664 99.6327L148.431 99.895L148.205 100.337L147.53 102.524L147.477 102.594L147.065 103.022L147.002 103.223L146.96 103.565L147.384 104.555L148.103 105.861L148.24 106.334L148.335 106.932L148.433 107.943L148.63 108.457L148.876 108.826L149.394 109.312L149.563 109.664L149.585 110.077L149.321 110.708L149.004 111.004L148.307 111.351L148.177 111.674L148.391 112.244L148.61 112.629L149.49 113.791L149.807 114.433L149.829 115.203L149.723 116.331L148.73 121.543L148.667 122.131L148.674 122.861L148.815 124.031L148.941 124.677L149.079 125.182L149.216 125.514L149.882 126.775L151.245 128.84L151.414 129.161L151.688 129.84L151.899 130.563L151.972 130.937L151.866 131.722L151.612 132.79L150.048 136.92L149.489 137.892L148.122 139.531L147.868 140.025L147.224 142.041L146.76 143.151L146.643 143.34L146.57 143.721L146.58 144.229L146.876 145.143L147.193 145.606L147.551 145.925L148.864 146.644L149.138 146.875L149.361 147.144L149.509 147.529L148.959 149.18L146.557 152.012L143.279 151.237L142.855 150.965L142.432 150.533V150.095L142.463 149.615L142.442 149.061L142.347 148.47L142.052 147.638L141.672 147.283L141.197 147.084L140.105 147.142L139.693 147.291L139.419 147.549L139.208 147.839L138.913 148.574L138.586 149.838L138.375 150.132L138.089 150.337L137.772 150.495L136.321 150.947L135.012 151.546L134.441 151.939L133.338 152.914L132.895 153.498L132.525 153.88L131.849 154.37L131.332 154.54L130.835 154.595L130 154.396L128.634 153.593L127.261 153.045L126.743 153.023L126.332 153.123L125.038 154.292L120.312 156.33L120.206 156.466L119.952 156.848L119.793 157.172L119.687 157.57L119.655 158.002L119.687 158.413L119.813 159.198L119.844 159.638L119.791 160.087L119.59 160.551L119.263 160.767L118.883 160.855L118.472 160.8L116.914 160.082L116.111 159.994L115.721 160.188L115.498 160.553L115.435 160.985L115.382 161.883L115.203 162.411L114.907 162.952L114.185 163.632L113.815 164.097L113.604 164.583L113.551 164.992L113.213 165.624L112.579 166.39L109.607 168.792L109.481 169.14L109.449 169.539L109.503 170.264L109.493 170.51L109.429 170.852L109.313 171.189L109.134 171.509L108.742 171.879L105.59 174.18L105.157 174.705L104.607 175.681L104.132 176.748L103.731 177.208L103.118 177.759L100.631 179.545L100.409 179.809L99.6388 180.996L99.2155 181.527L98.007 182.756L97.4675 183.097L96.9712 183.302L95.3444 183.456L94.9012 183.411L94.0098 183.185L93.4287 183.152L92.5091 183.257L91.875 183.512L91.4417 183.76L90.3926 184.716L89.9378 185.239L87.139 189.643L85.9837 191.064L84.5478 191.995L81.1945 193.537L81.0037 190.338L80.7928 189.915L80.3695 189.376L79.8699 189.1L79.2789 188.522L79.0996 187.999L79.0581 187.493L79.1428 187.058L79.249 186.645L79.5478 185.924L79.8931 185.259L80.1072 184.957L80.6136 184.356L80.836 183.946L81.0468 183.288L80.9837 182.799L80.7928 182.352L80.4227 181.889L80.1056 181.806L79.8416 181.932L79.1511 182.717L78.6116 183.139L76.6046 183.976L76.2461 184.045L75.8128 184.032L75.3331 183.922L70.9673 181.808L70.1638 181.57L69.7522 181.511L69.3289 181.522L68.9587 181.608L68.6201 181.738L66.799 182.779L66.1334 182.734L65.2038 182.53L63.2566 181.786L62.3486 181.605L61.7045 181.589L60.0744 182.837L53.7531 189.761L53.2252 190.192L52.2923 190.682L44.3724 191.324L43.2104 191.593L42.5979 191.94L41.562 192.991L41.167 193.31L40.4913 193.7L40.0365 193.721L39.7294 193.557L39.2646 192.898L38.8313 192.593L38.5143 192.626L38.2072 192.76L36.7248 194.228L36.3447 194.487L35.7736 194.767L35.3404 194.764L35.0665 194.58L34.7179 194.278L34.2531 193.964L32.5283 193.521L31.0592 192.842L29.366 192.352L28.5742 192.281L28.0563 192.428L27.877 192.742L27.7392 193.116L27.3375 194.792L27.2429 195.669L27.306 196.05L27.4122 196.396L27.6131 196.678L27.8455 196.929L28.6589 197.599L28.8697 197.873L28.9859 198.184V198.544L28.4995 199.507L28.3933 199.905L28.1293 200.385L27.7177 200.888L25.7389 202.085L25.5281 202.37L25.4219 202.754L25.3588 203.17L25.3804 203.577L25.475 204.389V204.834L25.4019 205.801L25.2957 206.261L25.148 206.746L24.9255 206.772L24.4391 206.279L24.0159 206.005L23.1394 205.816L22.6962 205.946L22.4388 206.274L22.3691 206.718L22.2064 208.318L17.3227 205.325L10.945 199.631L10.3209 198.811L9.79296 196.123L9.73985 195.707L9.69836 194.839L9.77138 193.014L10.2993 190.42L10.2777 189.854L9.9822 189.347L8.68244 187.76L8.42846 187.12L8.3969 186.635L8.58781 186.333L10.5317 184.362L10.9649 183.798L11.1342 183.476L11.2969 183.129L11.35 182.512L11.3185 181.713L11.0446 180.252L10.7773 179.555L10.4918 179.09L10.2063 178.886L9.87929 178.707L9.12897 178.451L8.70567 178.391L8.29398 178.408L7.57521 178.612L5.77577 179.698L5.07857 179.929L4.25521 180.012L2.86745 179.885L1.9279 179.45L1.48468 178.365L5.51348 174.482L6.96101 172.756L7.75616 171.635L8.29566 171.194L8.9198 170.935L9.5423 170.78L10.4503 170.367L10.8554 169.731L11.0313 169.19V168.699L10.9251 168.35L10.7275 168.06L10.3972 167.902L9.17214 167.645L8.8451 167.465L8.60275 167.233L6.85643 164.193L6.2223 163.353L5.1981 162.407L4.06764 161.556L3.79373 161.295L3.57128 160.968L3.42022 160.518L3.52979 160.178L3.79373 160.004L4.18383 159.967L5.4305 160.171L5.84218 160.15L6.19077 160.038L6.48624 159.844L6.74022 159.607L6.97596 159.341L7.47229 158.603L8.53968 156.624L8.63429 156.38L8.5181 156.086L8.33882 155.854L7.85244 155.361L5.84218 153.803L5.55664 153.488L5.30266 152.945L5.32424 152.547L5.50352 152.129L5.76746 151.727L6.19077 151.196L6.53938 150.89L6.91286 150.761L7.25152 150.764L10.442 151.629L15.6146 152.18L16.1425 152.055L16.6919 151.815L17.4306 151.147L17.7577 150.615L17.9486 150.097L17.9801 149.634V149.19L17.9585 148.759L17.8954 148.365L17.7892 147.993L17.5468 147.291L16.7019 145.679L16.6073 145.236L16.682 144.559L16.9144 144.204L17.263 144.014L22.1467 144.708L22.6115 144.687L23.1643 144.436L23.312 144.101L23.2589 143.775L23.0049 143.531L21.4379 142.577L21.1839 142.263L21.1092 141.808L21.247 141.06L21.7549 140.341L21.9558 139.791L22.0089 139.37L21.6288 138.281L21.5856 137.859L21.6603 137.331L21.9242 137.232L22.1666 137.331L23.1626 138.331L24.0192 138.903L25.4667 139.473L27.1599 139.876L27.7309 139.826L28.3966 139.644L30.4284 138.365L32.774 137.467L35.3968 136.048L36.8543 134.943L38.242 134.22L41.8376 134.204L42.7141 134.368L43.0527 134.541L44.0769 135.55L45.4016 137.167L45.556 137.471L45.6025 137.818L45.556 138.153L45.5344 138.488L45.6971 138.744L46.0026 138.928L48.6868 139.406L49.0702 139.539L49.4089 139.717L49.9683 140.162L51.3743 141.689L51.9337 142.134L52.3454 142.303L52.8318 142.394L53.5323 142.361L53.9125 142.145L54.1664 141.815L54.779 138.196L54.9167 137.818L55.1276 137.423L55.3915 137.018L55.8248 136.478L56.2995 135.675L56.4157 135.294L56.4904 134.888L56.4805 134.038L56.4273 133.626L56.3958 133.201L56.1319 131.163L56.3012 126.95L56.2912 126.588L56.3344 126.209L56.4506 125.774L56.8208 124.994L57.1511 124.601L57.5097 124.33L57.8367 124.186L60.8828 121.714L61.4223 121.399L61.7809 121.299L62.171 121.261L62.5627 121.282L63.8841 121.583L64.5115 121.566L64.8701 121.377L65.1241 121.126L65.5258 120.454L65.5988 120.179L65.5258 119.905L65.3664 119.7L64.9747 119.385L63.3446 118.61L63.059 118.392L62.9744 117.951L63.2068 117.249L64.0733 115.904L65.7565 114.29L66.0952 113.885L66.2114 113.484L66.2745 113.042L66.306 112.616L66.316 112.172L66.2213 111.795L66.062 111.51L65.74 111.165L65.476 110.768L65.149 110.441L64.0683 109.611L63.8143 109.362L63.645 108.995L63.6135 108.52L63.8874 107.722L64.1729 107.302L64.5464 107.045L69.4102 106.346L69.9497 106.178L70.5208 105.871L71.4404 105.177L71.7475 104.662L71.8537 104.188L71.7276 103.393L71.6114 102.071L71.5367 101.724L71.4105 101.377L71.2196 101.092L70.9972 100.823L70.8063 100.521L70.7116 100.141L70.5855 99.2957L70.4909 98.9156L70.3647 98.5653L69.3089 96.7144L68.1436 95.3914L67.5942 94.9316L67.2987 94.7473L66.9601 94.6178L66.1898 94.6577L65.5142 94.8253L65.3133 94.9316L64.6161 95.5026L64.3057 95.642L63.9471 95.6752L62.2257 94.9183L61.9087 94.7108L61.6979 94.4302V93.8874L61.9834 90.8596L62.0896 90.2039L62.4166 89.9566L67.2373 88.9689L67.7652 88.5704L68.5719 87.8301L69.1844 86.7113L69.4584 85.9559L69.553 85.3052L69.6161 84.1548L69.6061 83.6768L69.5115 83.2784L69.3737 82.9265L69.1728 82.631L65.6935 79.1516L60.4811 76.5703L60.2138 76.3197L60.003 76.0474L59.6544 75.4232L58.3347 73.7799L56.3659 72.1813L56.1335 71.9339L55.9111 71.6517L55.7634 71.323L55.6903 70.9263L55.6156 70.0698L55.5426 69.7029L55.4164 69.4157L55.2687 69.2348L55.0579 69.082L53.705 68.4546L53.0675 68.0661L52.8285 67.8122L52.6143 67.5216L52.3072 66.8626L52.2126 66.4908L52.2873 65.6674L52.5097 64.4955L53.1538 62.0752L53.2103 61.1439L53.0841 60.7937L52.8102 60.963L51.7611 61.9059L51.4656 62.1067L51.1386 62.2594L50.7369 62.3358L49.8388 62.3109L49.4022 62.2179L49.0354 62.0652L48.7366 61.8561L48.5141 61.5805L48.3448 61.2535L48.2386 60.8916L48.0908 60.553L47.8485 60.3554L47.5314 60.3106L47.2143 60.4268L46.9405 60.6841L46.7081 61.0443L46.2847 62.0204L46.0739 62.364L45.5776 62.8687L45.2887 63.0778L44.9402 63.204L44.56 63.2488L44.1799 63.1974L42.744 62.6114L41.8774 62.5134L40.9977 62.5466L40.2058 62.716L39.5302 62.9948L38.6106 63.5509L38.3782 63.8248L38.1873 64.1436L38.018 64.4955L37.6345 65.6956L37.4552 66.0276L37.2129 66.2816L36.9174 66.4194L36.5688 66.3945L36.2733 66.2932L35.9994 66.099L35.767 65.8484L35.5445 65.5695L35.196 64.9437L35.0582 64.605L34.9851 64.2099L34.942 63.7103L35.4499 59.6715L35.4715 59.1967L35.3337 57.9235L35.3121 57.0222L35.3968 55.5929L35.6823 53.7337L35.767 52.7709L35.757 52.3161L35.7039 51.9044L35.6408 51.511L34.8905 48.5113L34.7527 47.595L34.7096 47.0738L34.7727 45.354L34.9104 44.7431L35.0897 44.2899L35.4914 43.6608L35.9778 43.123L37.1614 42.0755L37.5448 41.5261L38.0943 40.3873L38.2636 39.7017L38.2736 39.1639L38.1358 38.812L37.9449 38.4999L37.6777 38.2509L37.3822 38.0533L36.167 37.6848L35.84 37.4923L35.6491 37.1918L35.5429 36.8116L35.4898 36.3917L35.3835 36.0348L35.2042 35.814L34.9088 35.8256L34.18 36.0182L33.7468 36.0348L32.8769 35.8821L32.5383 35.7094L32.2528 35.4886L32.0519 35.1932L31.9042 34.8562L31.8095 34.4711L31.7564 34.0511L31.7348 32.6384L31.5655 30.5103L31.6718 28.5963L31.9357 26.347L32.1249 25.2896L32.3042 24.5509L32.8753 23.4769L36.2168 18.6761L38.6189 16.5447L39.1053 16.0119L39.9934 14.6971L40.6906 13.3409L40.8914 12.7483L41.0076 12.2187L40.986 11.7855L40.9014 11.3987L40.7852 11.0335L40.6374 10.6965L40.3951 9.97775L40.2258 9.3453L40.1095 8.55347L40.0996 7.76663L40.1842 7.24208L40.3635 6.81711L40.5743 6.53491L40.8383 6.28425L41.1238 6.06513L42.0999 5.47749L42.3422 5.20027L42.1829 5.01767L41.8127 4.92637L35.6143 4.48647L34.7793 3.95527L34.4788 2.01971Z" fill="#000E40" stroke="#000E40" stroke-linecap="round" stroke-linejoin="round"/>
</svg>
