<svg width="190" height="247" viewBox="0 0 190 247" fill="none" xmlns="http://www.w3.org/2000/svg">
<path d="M32.6214 2.85084L32.8322 3.00522L33.8995 3.52148L35.1246 3.42852L36.1107 2.74792L37.0336 1.91128L38.0695 1.35186L39.3577 3.22268L38.9211 7.4424L40.0831 9.18042L41.5555 9.036L46.2251 4.35978L52.2044 1.56766L55.3136 0.991638L58.4045 1.09622L60.1159 1.70378L60.8762 2.76784L61.4323 4.28674L62.5031 6.24222L63.841 7.55196L66.6996 9.368L67.981 11.1608L69.6792 14.9423L70.5873 16.1757L74.9614 19.1554L76.1167 20.4253L77.2655 22.2197L77.9211 23.5195L78.3079 24.5919L78.4839 25.636L78.5055 26.8843L77.3285 29.3826V29.9852L77.5609 31.8942L77.7302 35.5495L78.117 37.676L78.9404 39.6016L80.3564 41.9389L80.5821 43.8429L80.0542 45.4713L80.026 46.4391L83.4273 46.4624L84.8085 47.4965L87.33 50.8049L87.7383 51.1934L88.6398 51.8159L89.0332 52.2458L89.2092 52.7687L89.4549 54.2926L89.4266 54.5632L90.2301 54.8736L91.5182 54.2395L92.3217 54.2361L93.5401 55.0462L95.8011 57.6259L97.1324 58.597L98.7542 60.2387L99.7518 61.2463L101.589 65.6503L101.687 70.1904L99.1094 73.2548L97.7847 73.5901L93.7841 73.5253L82.1841 76.3175L79.5363 77.8712L78.8823 80.4542L79.6426 81.5415L82.0512 82.2221L83.009 82.8595L83.3111 83.6729L83.6067 85.9289L83.8888 86.9398L84.3885 87.8013L87.2554 91.0865L88.1434 92.6386L88.7061 94.526L88.8605 96.9214L88.7128 98.0718L88.1135 100.007L87.9161 101.061L87.9941 102.177L88.2547 103.135L88.4306 104.094L88.2547 105.21L87.6919 105.822L86.2062 106.166L85.8609 106.818L86.1282 107.713L86.8188 108.644L88.1634 109.939L89.171 110.605L90.318 111.068L91.48 111.31L92.564 111.305L93.9169 110.527L94.5012 114.212L92.7898 117.852L90.0856 120.812L86.1349 123.553L91.0368 125.659L92.6636 126L93.8754 125.435L96.4252 123.312L98.799 122.691L101.334 123.096L106.201 124.854L108.455 125.661L112.864 124.886L114.921 125.178L115.879 126.184L116.294 127.673L116.611 129.353L117.266 130.983L118.266 131.957L119.456 132.389L124.443 132.709L129.175 131.622L134.768 129.26L137.937 127.321L139.007 127.208L140.269 127.837L141.572 128.647L142.889 128.38L144.248 127.771L145.656 127.535L146.972 128.046L147.832 129.129L148.367 130.704L150.043 140.679L151.396 144.241L153.368 146.177L155.679 146.361L160.299 145.292L162.644 145.451L163.989 145.903L165.214 146.613L165.805 147.807L165.234 149.684L164.269 150.586L160.558 151.374L160.84 152.578V154.789V155.531L161.016 156.603L161.615 157.33L163.22 157.699L164.037 158.252L164.897 159.681L164.982 160.949L164.806 162.279L164.875 163.937L165.362 165.31L166.756 167.224L167.347 168.55L167.482 170.078L167.327 171.376L167.44 172.49L168.398 173.442L170.109 174.462L170.87 175.19L171.489 176.243L172.073 179.264L171.847 181.94L171.96 184.302L173.559 186.342L168.29 188.726L167.241 189.993L167.347 191.364L170.587 204.38L172.032 206.998L174.327 207.977L175.813 208.254L177.229 208.769L178.461 209.781L179.404 211.579L179.925 214.104L180.031 216.01L180.461 217.65L181.962 219.356L183.271 220.294L184.644 221.011L186.045 221.425L187.483 221.524L188.778 221.099L188.68 221.723L188.582 222.112L188.427 222.567L188.237 222.937L188.022 223.246L187.768 223.491L187.335 223.687L186.754 223.82L185.645 223.858L184.352 223.691L182.186 223.048L181.668 223.098L180.967 223.269L179.89 223.794L177.893 223.973L175.723 223.526L175.544 223.596L175.385 223.795L175.428 224.204L175.566 224.496L176.062 225.13L176.188 225.41L176.14 225.666L175.855 225.779L175.264 225.586L170.644 222.653L169.905 222.314L169.479 222.223H169.067L168.687 222.364L168.413 222.653L168.255 223.276L168.234 223.742L168.255 225.405L168.224 225.814L168.107 226.222L167.875 226.501L167.536 226.652L166.997 226.567L166.585 226.405L164.902 225.407L164.543 225.258L164.047 225.321L163.476 225.601L162.621 226.443L162.462 226.928L162.493 227.336L162.694 227.59L162.842 227.849L162.832 228.086L162.663 228.334L162.367 228.51L161.952 228.619L159.945 228.129L159.638 228.234L159.311 228.481L158.825 229.132L158.624 229.6L158.592 230.03L158.677 230.365L158.909 231.038L158.972 231.41V231.765L158.856 232.112L158.634 232.376L158.091 232.63L155.651 233.103L154.879 233.031L154.339 232.872L154.019 232.658L152.593 231.937L151.727 231.75L150.838 231.683L150.327 231.873L149.809 232.245L149.049 233.202L148.7 233.85L148.458 234.411L148.332 234.871L148.184 235.277L147.952 235.571L147.656 235.717L147.181 235.538L146.195 234.881L145.677 235.018L145.106 235.458L144.177 236.63L143.966 237.251L143.944 237.746L144.061 238.07L144.114 238.41L144.051 238.783L143.924 239.168L143.682 239.471L143.324 239.602L142.696 239.437L141.957 238.994L141.069 238.315L140.604 237.816L140.415 237.54L140.214 237.326H139.929L139.58 237.603L138.984 239.007L138.702 239.997L138.266 240.496L137.895 240.848L135.361 242.22L128.963 240.772L127.11 241.048L125.474 242.427L124.248 243.048L123.858 243.043L123.38 242.845L122.303 241.989L121.901 241.746L121.511 241.697L120.972 241.956L120.698 242.324L120.55 242.772L120.371 243.66L120.245 244.08L120.097 244.474L119.903 244.809L119.67 245.083L119.406 245.314L119.089 245.457L116.659 245.536L110.017 244.512L108.94 244.705L107.668 245.121L107.278 245.38L106.317 246.262L106.042 246.341L105.778 246.245L105.587 245.71L105.608 245.266L105.651 244.809L105.557 244.364L105.324 243.883L104.765 243.169L104.614 242.623L104.564 242.112L104.787 240.77L104.956 240.402L105.22 240.209L106.74 240.025L107.057 239.891L107.311 239.731L107.512 239.527L107.638 239.363L107.818 239.095L107.944 238.735L108.05 238.307L108.093 237.879L108.087 237.477L108.03 237.097L107.946 236.745L107.713 236.124L107.575 235.885L107.459 235.729L107.248 235.52L104.733 233.742L104.338 233.158L104.138 232.64L104.096 232.255L103.905 231.924L103.218 231.293L103.06 230.922L102.986 230.52L102.922 229.743L102.848 229.401L102.71 229.081L102.519 228.8L102.18 228.588L101.716 228.496L100.944 228.646L100.56 228.941L100.296 229.308L100.117 229.652L99.8216 229.798L99.4298 229.672L98.9019 229.12L98.628 228.695L98.4487 228.299L98.3424 227.567L98.1416 224.808L98.1515 224.391L98.2246 223.955L98.5101 223.13L99.0696 222.062L99.1858 221.675L99.2272 221.279L99.1858 220.9L99.0795 220.553L98.8039 219.899L98.4238 219.325L97.9806 218.789L95.0092 216.221L92.6918 213.563L91.0866 211.314L90.8127 210.661L90.6218 209.959L90.5272 209.202L90.4641 203.84L90.6965 201.647L90.675 201.259L90.5156 200.949L90.2201 200.728L87.9458 199.891L87.5442 199.908L87.3118 200.323L87.1641 200.744L86.7739 201.149L86.1498 201.473L84.7089 201.725L84.0963 202.081L83.6531 202.424L83.2299 202.607L81.7608 202.959L81.4719 203.271L81.3806 203.62L81.5151 204.357V204.44L81.4453 204.843L81.2096 205.114L80.8195 205.241L79.4351 204.79L78.8641 204.727L78.2731 204.997L77.9028 205.276L77.6356 205.595L77.551 205.977L77.5726 206.342L77.6506 206.712L77.6721 207.082L77.5526 207.443L77.214 207.575L76.7176 207.542L71.4953 205.14L69.2526 203.379L68.3446 202.326L67.5528 201.188L67.151 200.997L66.5385 200.939L64.2427 201.545L60.7318 203.15L60.4679 203.369L60.267 203.638L60.1508 203.948L60.1724 204.202L60.2471 204.338L60.3002 204.396L62.4134 205.708L62.6275 205.978L62.6807 206.344L62.0748 206.705L61.0074 207.046L58.2153 207.174L56.293 207.618L55.6273 208.457L55.1194 208.535L54.4404 208.43L49.2811 205.987L28.5045 201.725L28.0364 201.448L26.1872 200.673L25.6377 200.308L25.2576 199.976L25.0351 199.715L24.7397 199.501L24.0641 199.435L23.1095 199.543L21.2503 200.114L20.5 200.59L20.0734 201.071L19.9472 201.481L19.7879 201.858L19.597 202.204L19.3646 202.472L18.5512 202.572L12.0158 201.8L9.52242 200.313L11.8365 193.499L12.464 190.995L12.5901 189.662V189.192L12.5121 188.824L12.3013 187.924L12.2382 187.24L12.3444 186.829L12.5901 186.54L13.3288 186.057L13.7837 185.584L13.963 185.139L14.0476 184.701L14.0891 183.032L14.2269 181.87L14.5224 181.181L14.9141 180.68L15.4104 180.325L15.9384 179.852L16.5343 179.04L16.7103 178.328V177.665L16.4994 177.187L16.0878 176.83L15.6014 176.588L14.7349 175.934L14.0908 175.121L13.8583 174.672L13.7106 173.846L13.6476 172.749L13.6791 170.735L13.8053 169.623L15.3789 163.421L15.6014 162.913L15.8553 162.553L16.0977 162.339L16.5127 162.159L16.9676 161.836L17.5486 160.914L17.7594 160.119L17.8656 159.497L17.8341 158.642L17.7925 158.253L17.8341 155.828L18.0449 154.696L17.9386 154.095L17.7378 153.727L16.35 152.521L16.0961 152.191L15.8952 151.716L15.8852 151.263L15.9284 150.866L16.0545 150.553L17.1253 149.316L17.3892 149.087L17.854 148.569L18.8782 146.645L19.4277 145.34L19.3529 144.909L19.0791 144.628L18.3288 144.283L17.4938 144.045L17.1352 144.065L16.8928 144.321L15.5167 147.306L15.2843 147.614L14.9988 147.81L14.6087 147.883L11.0447 147.068L9.61873 146.36L8.94972 145.916L8.64764 145.631L8.32722 145.249L8.27413 144.874L8.41192 144.582L9.37637 143.879L9.74654 143.395L9.83119 142.983L9.76812 142.596L9.58884 142.312L9.3249 142.122L8.99455 142.088L7.60016 142.48L7.17685 142.44L6.77512 142.339L4.17225 141.101L1.55277 140.302L1.21082 140.025L1.2324 139.691L1.33863 139.336L2.93723 136.565L3.11651 136.117L3.31738 135.415L3.25426 134.93L3.06337 134.273L2.7463 133.372L2.71479 131.901L2.83095 131.232L3.11651 130.817L6.61742 129.693L6.9345 129.413L7.22001 129.081L7.43086 128.234L7.45244 127.578L7.33622 126.302L7.42088 125.658L7.60016 125.228L9.52577 124.243L9.84284 123.964L10.1167 123.551L10.1599 123.169L10.0752 122.711L9.70505 121.368L9.75814 120.847L9.92749 120.409L10.1499 120.048L10.3508 119.612L10.3192 119.252L10.14 118.965L9.28341 118.176L8.98457 117.804L8.68913 117.202L8.72398 116.611L8.85843 115.985L9.11573 115.068L9.14729 114.531L9.08422 114.071L8.91487 113.769L8.66922 113.531L8.34216 113.425L7.56034 113.448L7.19012 113.404L6.8731 113.173L6.66225 112.733L6.39832 111.949L5.77415 110.766L5.46705 110.047L5.37242 109.692L5.35084 109.429L5.43549 109.142L5.90034 108.065L6.13271 107.743L6.37507 107.494L6.75521 107.437L7.15694 107.511L7.51551 107.652L7.74788 107.866L7.86409 108.027L7.98031 108.289L8.4451 109.64L8.61441 109.931L8.83685 110.208L9.12571 110.434L9.48428 110.603L9.90753 110.724L10.7741 110.733L12.2316 110.427L12.879 110.14L13.1744 109.863L13.46 109.488L13.7023 108.805L13.6924 108.221L13.6293 107.58L13.4716 106.709L13.5463 106.139L13.7156 105.699L13.9579 105.377L14.2003 104.971L14.2435 104.733L14.1804 104.446L13.6841 103.99L13.3454 103.458L13.0184 102.713L12.698 100.99L12.7412 100.187L12.9354 99.6952L13.2525 99.5259L13.5911 99.3002L13.9181 98.9665L14.2451 98.3672L14.2983 97.9058L14.2451 97.4808L13.6226 95.2664L13.6857 95.0174H13.9281L15.935 96.0864L16.4032 96.2624L16.6355 96.3072L16.8265 96.1993L16.8895 96.1478L17.8722 94.8298L18.0632 94.4048L17.9569 94.0994L17.7876 93.7773L17.5452 93.5051L16.189 92.2767L15.925 91.787L15.7242 91.0815L15.6179 89.6539L15.7873 89.0131L16.0612 88.6313L17.2165 88.2827L17.6282 88.0454L17.7228 87.7449L17.7013 87.4212L17.532 87.1124L17.268 86.8601L16.9509 86.6327L16.6206 86.2924L16.3882 85.7927L16.0927 81.3871L15.9865 80.9223L15.7856 80.587L15.437 80.4741L15.0469 80.2268L14.7083 79.8217L14.5174 78.839L14.6552 77.6704L15.7292 76.188L15.764 74.9646L12.049 71.2163L11.5659 70.5108L11.1227 69.6692L10.3342 67.1028L9.96068 66.2828L9.55231 63.977L10.2462 61.3808L11.3833 59.261L12.2847 58.3828L13.601 57.591L14.2518 55.8912L15.0336 54.3092L16.7484 53.861V53.0393L16.2737 51.698L17.605 51.3046L20.6611 51.5337L21.4462 51.0622L23.8698 48.9872L24.8691 48.5158L26.4644 48.3099L30.2807 47.0052L31.0161 45.7021L30.8502 44.5417L29.8292 42.6726L29.3611 42.4103L29.4142 42.1248L29.6151 41.8841L29.9222 41.5952L30.2393 41.2201L30.5978 40.5395L30.7356 40.0182L30.7987 39.5269L30.7671 35.9031L30.9149 35.2192L31.1689 34.8075L31.476 34.673H31.7814L31.9922 34.8789L32.1549 35.171L32.2811 35.5263L32.4288 35.845L32.6927 36.0824L33.0729 36.1903L33.9493 36.27L35.5479 36.0807L37.0054 35.6707L37.4071 35.3819L37.7873 34.8772L38.2421 33.7268L38.4214 33.013L38.5061 32.4138L38.4629 32.0187L38.3467 31.6983L38.0512 31.5489L35.9497 31.4078L35.5762 31.2501L35.3338 30.9928L35.1645 30.6724L35.0483 30.3222L34.8889 29.9902L34.6881 29.698L33.9162 28.9178L32.6795 27.1433L31.1224 25.5912L30.8053 25.3671L27.8339 24.3462L27.5268 24.1503L27.3641 23.1062L26.9774 17.8274L27.3359 16.511L29.1171 14.6568L29.811 13.5446L29.9687 12.7278L30.138 10.6628L30.2758 9.81122L30.6144 9.04596L31.4909 7.75116L31.6702 7.04898L31.8611 5.25784L32.3823 3.37374L32.6214 2.85084Z" fill="#000E40" stroke="#000E40" stroke-linecap="round" stroke-linejoin="round"/>
</svg>
