<svg width="115" height="185" viewBox="0 0 115 185" fill="none" xmlns="http://www.w3.org/2000/svg">
<path d="M45.2264 27.3262L45.3891 25.7259L45.4588 25.2827L45.7161 24.954L46.1593 24.8245L47.0358 25.0138L47.4591 25.2877L47.9455 25.7807L48.1679 25.7542L48.3157 25.2694L48.4219 24.8096L48.4949 23.8418V23.3969L48.4003 22.5852L48.3788 22.1785L48.4418 21.7618L48.5481 21.3784L48.7589 21.0929L50.7376 19.896L51.1493 19.393L51.4132 18.9133L51.5195 18.5149L52.0058 17.5521V17.1919L51.8896 16.8815L51.6788 16.6076L50.8654 15.9369L50.633 15.6863L50.4322 15.4041L50.3259 15.0588L50.2628 14.677L50.3575 13.8005L50.7592 12.1239L50.897 11.7504L51.0763 11.4367L51.5942 11.2889L52.386 11.3603L54.0792 11.85L55.5483 12.5289L57.273 12.9721L57.7378 13.2859L58.0864 13.588L58.3603 13.7723L58.7936 13.7756L59.3646 13.4951L59.7448 13.2361L61.2271 11.7687L61.5342 11.6342L61.8513 11.601L62.2846 11.9064L62.7494 12.5655L63.0565 12.7298L63.5113 12.7082L64.1869 12.3181L64.582 11.9994L65.6178 10.9486L66.2304 10.6017L67.3924 10.3328L75.3122 9.69035L76.2452 9.20065L76.773 8.76903L83.0943 1.84519L84.7244 0.596844L85.3685 0.613461L86.2766 0.79439L88.2237 1.53807L89.1533 1.74225L89.819 1.78708L91.64 0.746264L91.9786 0.616779L92.3488 0.530456L92.7721 0.518829L93.1838 0.578607L93.9872 0.815971L98.353 2.93081L98.8328 3.04036L99.266 3.05366L99.6246 2.98393L101.632 2.14729L102.171 1.72566L102.862 0.940466L103.126 0.814324L103.443 0.897304L103.813 1.36046L104.004 1.80699L104.067 2.29669L103.856 2.95407L103.634 3.36408L103.127 3.965L102.913 4.26713L102.568 4.93276L102.269 5.65321L102.163 6.06657L102.078 6.50148L102.12 7.00776L102.299 7.53067L102.89 8.10836L103.389 8.38392L103.813 8.92342L104.024 9.34672L104.215 12.5455L102.757 13.2876L102.511 13.4901L102.405 13.7026L102.616 13.9582L102.933 14.1126L105.313 14.8231L105.936 15.1999L106.447 15.6863L106.666 15.9585L106.839 16.249L106.945 16.6823L106.935 17.2035L106.681 18.0484L106.371 18.4485L106.032 18.7124L105.292 18.8984L102.777 19.0859L102.478 19.2569L102.309 19.5557L102.299 19.9591L102.503 20.409L102.735 20.7443L102.989 21.0248L103.846 21.6689L104.047 21.9959L104.132 22.4408L103.868 23.714L103.688 24.1473L103.497 24.4494L103.243 24.6967L102.015 25.3541L101.761 25.5782L101.635 25.8737L101.71 26.2787L102.111 26.7618L102.506 27.0357L102.95 27.2L103.838 27.298L104.176 27.5337L104.377 27.9553L104.261 28.8534L104.07 29.3431L103.785 29.6717L99.935 30.9898L99.364 31.3683L99.11 31.5924L98.8842 31.8613L98.7149 32.1568L98.5888 32.4689L98.5788 32.8075L98.6319 33.2557L99.2694 34.9638L99.5648 36.0412L99.618 36.4728L99.608 36.9874L99.4387 37.6929L98.9639 38.9678L98.9423 39.4492L99.0336 39.9687L99.4171 40.7058L99.7557 41.0776L100.695 41.7499L100.949 41.9906L101.16 42.2529L101.339 42.5534L101.456 42.892L101.53 43.4215V44.1038L101.383 45.3106L101.235 45.9879L101.075 46.5174L101.012 46.9955L101.054 47.5666L101.328 48.3899L101.57 48.8514L101.824 49.2149L103.454 50.5346L103.665 50.7969L103.844 51.0908L104.14 51.7348L104.234 52.0917L104.309 52.7972L104.319 53.7833L104.224 55.8599L104.055 56.8028L103.854 57.4403L103.082 58.1109L102.847 58.3831L102.656 58.6886L102.329 59.3642L102.222 59.7559V60.2573L102.329 60.8134L102.677 61.5803L102.951 62.0135L103.23 62.3588L105.111 63.8844L105.343 64.1367L105.534 64.4222L105.619 64.882L105.587 65.4531L105.355 66.3993L105.123 66.8989L104.849 67.2558L104.077 67.9248L103.854 68.1838L103.653 68.4826L103.506 68.8279L103.38 69.2047L103.21 70.0413L102.925 72.772L102.679 74.0502L102.545 74.4187L102.33 74.6959L102.088 74.935L100.25 75.9177L99.9865 76.1352L99.7757 76.3659L99.6279 76.6265L99.5217 76.8307L98.5788 79.1613L98.4942 79.4784L98.441 79.7175L98.451 80.2387L98.5672 80.906L98.9473 82.0614L100.156 84.7174L100.747 86.5915L101.369 89.3471L101.612 89.9298L101.854 90.3282L103.559 91.5732L103.781 91.8388L103.941 92.2471L104.004 92.8132V93.9652L104.078 94.9031L104.553 96.8868L104.638 97.4944L104.616 98.0073L104.289 99.2723L104.236 99.835L104.299 100.36L104.585 101.116L104.807 101.57L105.018 101.943L105.79 103.06L105.906 103.449L105.928 103.919L105.705 104.674L105.282 105.499L105.197 106.017L105.176 106.654L105.197 107.685L105.04 108.206L104.797 108.533L103.793 108.912L103.19 109.236L102.926 109.456L102.694 109.704L102.49 109.989L102.352 110.394L102.277 110.922L102.287 111.704L102.246 112.798L101.844 114.406L101.822 114.916L101.895 115.487L102.222 116.274L102.476 116.711L103.22 117.537L103.368 117.868L103.443 118.253L103.326 118.782L102.89 119.944L102.799 120.359L102.701 121.262L102.757 121.774L102.891 122.311L103.919 124.629L104.035 124.956L104.108 125.389L104.098 125.902L103.887 126.692L103.665 127.139L103.401 127.464L102.672 128.16L102.246 128.707L102.066 129.013L101.919 129.353V129.893L102.045 130.548L102.503 131.634L103.179 132.96L103.401 133.578L103.37 133.717L102.933 134.37L102.13 134.614L101.897 134.839L101.856 135.258L102.194 136.149L102.32 136.697L102.236 137.246L101.962 137.48L101.338 137.829L101.19 138.125L101.212 138.526L101.783 139.421L101.993 139.871L102.11 140.394L102.078 141.327L101.972 141.893L101.824 142.346L101.665 142.675L101.539 143.028L101.444 143.408L101.475 143.779L101.645 144.023L102.078 144.054L102.8 143.853L103.106 143.805L103.391 143.976L103.517 144.311L103.486 144.896L103.222 146.25L102.933 149.512L102.989 149.989L103.127 150.523L104.098 151.986L104.331 152.226L104.595 152.432L105.967 153.036L106.241 153.246L106.326 153.529L106.157 153.888L105.84 154.059L105.058 154.187L104.772 154.334L104.666 154.637L104.581 155.35L104.422 155.652L104.042 156.214L103.894 156.534L103.904 156.967L104.115 157.41L105.003 158.41L105.298 158.831L105.446 159.306L105.352 159.851L105.045 160.614L104.95 160.996L104.928 161.396L104.971 163.425L104.928 163.856L104.844 164.273L104.495 165.417L104.41 165.838L104.369 166.268L104.495 166.788L104.822 167.316L105.635 168.078L106.216 168.371L106.759 168.516L107.171 168.547L107.53 168.675L107.709 168.962L107.667 169.46L107.573 169.895L107.583 170.348L107.742 170.777L108.333 171.192L108.735 171.248L109.062 171.11L109.473 170.561L109.674 170.47L109.875 170.619L109.928 171.271V171.726L109.875 172.035L109.759 172.33L109.241 173.234L109.093 173.585L109.083 173.999L109.221 174.449L109.792 174.992L110.204 175.3L111.58 176.051L111.919 176.293L112.541 176.915L113.461 177.493L113.64 177.749L113.471 178.182L113.185 178.358L112.847 178.434L112.561 178.562L112.445 178.98L112.677 179.792L113.205 181.197L114.251 183.564L112.511 184.281L110.574 184.131L108.363 183.275L106.651 182.217L105.813 181.882L104.598 181.807L100.644 182.573L98.5058 181.248L98.1671 178.325L98.2518 175.4L97.3852 174.074L95.4663 173.883L95.2903 174.349V175.831L95.5294 176.997L96.0789 178.072L97.1529 179.701L96.3079 181.004L95.0712 181.127L93.7548 180.455L92.6908 179.382L91.9023 177.94L91.8359 176.771L92.46 173.371V174.075L92.5663 172.105L92.3123 170.709L91.6682 170.114L90.5975 170.554L90.2921 171.14L90.0066 172.824L89.6679 173.373L89.0239 173.431L87.3406 172.603L86.5339 173.34L85.6076 175.395L84.5086 176.183L83.4031 176.381L82.2975 176.248L78.9842 174.943L78.9559 174.661L79.0091 173.723L78.7518 173.094L77.3192 171.257L76.1223 170.377L75.299 168.73L74.2532 167.802L72.4155 169.082L71.969 169.993L71.7964 170.934L71.5142 171.667L70.7639 171.962L70.0036 171.399L69.4475 168.937L68.9046 168.378L65.915 168.091L64.3894 167.659L63.5296 166.972L63.5993 166.401L63.9894 165.798L64.2151 164.995L63.7819 163.83L63.1345 162.981L62.9436 162.827L62.9967 162.629L63.0631 161.652L63.3055 160.984L63.7138 160.672L63.7918 160.061L63.0631 158.508L62.6298 158.131L60.7391 157.034L58.7073 155.058L57.5453 154.479L55.8089 154.27L54.6253 153.881L53.04 152.932L51.5958 151.76L50.8389 150.674L51.3418 150.065L51.7037 149.374L52.2748 147.909L51.6788 147.791L50.6264 147.261L50.1881 147.14L49.5889 147.429L49.564 148.088L49.6802 148.805L49.5324 149.263L48.4202 149.522L47.5006 149.238L46.6656 148.788L45.8107 148.553L44.4445 148.729L44.1175 149.248L44.2835 150.148L44.4147 151.448L44.3084 152.945L44.0976 153.036L43.5697 152.691L42.514 152.86L39.0695 156.303L37.2833 156.949L36.4633 154.271L37.2202 152.55L41.0698 151.451L42.514 150.033L38.8271 148.275L37.2219 148.227L35.5353 150.033L35.3245 148.201L35.6316 145.395L36.2408 142.792L36.9314 141.544V140.772L35.942 140.698L35.1386 140.973L33.6313 142.187L33.0669 142.912L32.6585 143.651L32.4361 144.506L32.3099 145.679L32.0145 146.964L31.465 147.602L30.5769 146.82L28.9435 144.213L28.5633 143.236L28.5135 142.185L29.0165 140.457L28.9634 139.424L28.3326 138.696L24.747 136.508L23.6912 136.315L20.8642 136.911L19.674 136.803L18.6913 136.025L17.7268 134.393L17.4098 133.48L17.3318 132.814L17.2156 132.202L16.7972 131.49L16.2378 131.03L14.0051 130.133L13.2864 129.585L13.2017 129.506L13.0639 129.192L12.9577 128.845L12.9361 128.45L12.9676 128.067L13.0739 127.701L13.2847 127.449L13.6117 127.301L13.9819 127.245L14.4151 127.257L15.2103 127.444L17.1542 128.435L17.8829 128.664L18.263 128.686L18.6266 128.629L18.9436 128.5L19.1976 128.271L19.4084 128.007L19.5877 127.701L19.694 127.346L19.684 126.976L19.5894 126.634L19.4317 126.335L19.2939 126.013L19.1993 125.65L19.1461 125.255L19.1362 124.388L19.0731 123.872L18.9254 123.331L18.5734 122.564L18.2564 122.165L17.9177 121.896L15.8361 121.531L14.533 120.885L14.1744 120.837L13.8258 120.915L13.5204 121.068L12.961 121.488L12.707 121.725L12.3899 121.935L12.0198 122.079L11.3856 122.031L11.0437 121.822L10.8046 121.536L10.642 121.229L10.5357 120.879L10.4511 120.502V120.072L10.4826 119.622L10.6088 118.742L10.6403 118.296V117.871L10.5872 117.472L10.1008 116.115L10.0261 115.776L10.0361 115.404L10.1207 115.037L10.3 114.742L10.5108 114.473L11.55 113.603L11.7608 113.336L11.9301 113.002L12.0563 112.647L12.131 112.224L12.1725 111.784L12.1824 111.347L12.1609 110.92L12.1077 110.517L11.9384 109.762L11.6645 108.776L11.3691 108.037L11.1151 107.595L11.0802 107.574L9.65427 107.039L9.33722 106.716L9.15793 106.337L9.08324 105.949L8.97698 104.705L8.65993 102.738L8.45906 102.006L8.32127 101.679L8.21504 101.322L8.14034 100.951L8.1503 100.529L8.22335 100.119L8.34951 99.747L8.68814 99.1046L8.79438 98.7211L8.78442 98.2563L8.36111 97.1973L8.02248 96.5299L6.82563 93.0987L5.75825 91.0038L0.208862 82.3137L1.07539 80.3748L1.32937 79.0734L1.70951 75.677L2.00498 75.1226L2.37518 74.8321L3.25166 74.8885L3.65668 75.0031L4.20615 74.9649L4.85023 74.7906L16.6395 68.0925L17.0512 67.7605L18.9569 64.1383L19.3802 63.056L19.4865 62.6759L19.7504 61.9256L21.2726 59.0073L21.6428 58.5657L21.9914 58.32L22.3118 58.3632L22.5027 58.5973L22.6786 58.8811L22.9143 59.1285L23.2845 59.2596L24.1195 59.3078L24.7221 59.2347L25.1238 59.082L26.6278 58.1889L27.0826 57.754L27.3897 57.334L27.4843 56.9422L27.5474 56.5289L27.5374 56.1122L27.4528 55.7554L27.3582 55.4399L27.1889 55.0864L26.0451 53.3633L25.5903 52.3822L25.4956 52.0054L25.4741 51.5854L25.5156 51.1555L25.9588 49.3062L26.2011 48.5609L26.5182 48.2189L26.9133 48.0546L30.1254 47.6396L30.8574 47.4371L31.5015 47.1366L36.533 46.1755L36.8916 46.056L39.3251 44.7014L40.8042 44.2914L41.2059 44.1038L42.5306 43.2705L42.9007 43.136L43.915 43.0348L44.6222 42.8273L45.7991 42.2131L46.3585 41.8031L46.7387 41.4179L46.9296 41.1092L47.0889 40.7788L47.1835 40.4186L47.2051 40.0086L47.152 39.6152L47.0458 39.2549L46.9296 38.9113L46.6341 38.2722L46.581 37.829L46.6441 37.2795L46.9711 36.4545L47.2881 36.0478L47.6898 35.8503L48.651 35.7955L49.3167 35.598L49.6154 35.2842L49.7416 34.9091L49.72 34.509L49.6354 34.1421L49.5092 33.7968L49.3515 33.4964L48.5232 32.4008L48.3539 32.102L48.0999 31.4197L47.9206 31.111L47.6882 30.8669L46.2307 29.8461L45.9767 29.6103L45.575 29.0924L45.414 28.7471L45.3642 28.5745L45.238 28.0616L45.2264 27.3262Z" fill="#000E40"/>
</svg>
