<svg width="186" height="197" viewBox="0 0 186 197" fill="none" xmlns="http://www.w3.org/2000/svg">
<path d="M35.7974 157.81L34.398 155.71L33.3771 154.609L28.9748 151.329L26.6923 150.26L18.1914 150.335L16.8186 149.661L16.6775 146.957L15.1918 146.761L13.4239 147.961L12.6138 148.165H9.79679L9.77852 148.13L9.15106 147.153L7.68194 140.471L6.69923 137.367L5.32142 134.769L3.3809 132.895L0.70166 131.967L2.25872 126.393L2.6704 123.838L2.83973 121.453L2.79824 120.956L2.65049 120.428L2.49279 119.392L2.46126 118.426L2.63056 118.053L2.9161 117.877L3.67637 117.952L4.06814 117.882L4.43831 117.47L4.50138 117.107L4.39515 116.783L4.22582 116.478L4.04656 116.202L3.73944 115.588L3.26469 114.251L2.93768 112.807L2.71524 107.253L2.64219 106.466L2.31518 105.03L1.80887 103.295L1.18138 101.999L1.01207 101.571L0.821165 100.9L0.811211 100.394L0.927398 99.9887L1.13824 99.7264L1.77234 99.3463L2.111 99.0674L2.49444 98.5578L2.61065 98.1179L2.57912 97.7295L2.44132 97.4157L2.04626 96.868L1.81386 96.4762L1.59141 95.9699L1.36897 95.0237L1.4005 94.5007L1.5383 94.0924L1.86862 93.6442L2.17075 92.2996L2.37493 91.8298L2.62891 91.5028L2.88289 91.3584L3.11529 91.1758L3.81249 90.4753L4.36194 90.0802L4.60432 89.8495L4.82674 89.5705L5.00602 89.2104L5.15377 88.7621L5.42768 87.6682L5.57872 87.2698L5.76963 86.9694L6.02361 86.7535L7.12254 86.2705L7.53422 85.7658L7.64045 85.2496V84.491L7.74668 84.0345L7.9575 83.4269L8.28453 82.7729L8.80245 81.4083L9.18259 80.8273L9.56606 80.5319L11.2244 80.4937L14.1858 80.9618L14.556 80.9087L14.8515 80.7277L15.0839 80.4821L16.4467 77.8095L16.9531 77.2583L17.4179 77.016L19.0579 77.3812L20.0938 77.8576L21.2143 78.7108L21.8617 79.0877L22.2319 79.2171L23.4885 79.4329L24.2172 79.7185L25.5735 80.7942L26.2076 81.1527L26.9363 81.4299L27.7397 81.586L28.1099 81.5428L28.437 81.4266L28.8071 81.1278L30.1102 79.3998L30.7012 78.8984L32.2865 78.1979L34.4129 78.0253L34.9524 77.8958L35.6712 77.519L35.9568 77.1305L36.0414 76.7321L35.9667 76.3769L35.7243 75.7146L35.5451 75.0041L35.492 74.614L35.4704 74.2073L35.5135 73.3175L35.4388 72.5091L35.3758 72.1422L35.2811 71.7887L35.1334 71.465L34.9757 71.1595L34.1722 70.0805L33.993 69.7834L33.8668 69.4547L33.7821 69.0098L33.7506 68.4836L33.8452 67.6752L34.0992 67.0925L34.4262 66.5099L35.0172 65.7463L35.228 65.2366L35.2496 64.805L35.1234 64.4813L34.7964 63.8937L33.9515 62.8379L33.7605 62.5591L33.5282 61.8785L33.5066 61.4519L33.5282 60.9871L33.6029 60.411L33.6344 59.928L33.6128 59.5013L33.4867 59.171L33.2758 58.9121L32.9903 58.7278L31.835 58.4356L31.5179 58.2846L31.2855 58.0854L31.1378 57.7832L31.063 57.4214L30.9568 56.2179L30.8406 55.8576L30.4821 55.2086L30.3127 54.7969L30.2065 54.1296L30.2696 53.7312L30.3958 53.4938L30.575 53.3577L32.5753 52.5675L32.977 52.3351L33.1032 51.9882L33.0933 51.6329L32.6666 50.2153L32.406 49.5662L32.2334 49.2575L32.0325 48.9836L31.747 48.7993L27.5605 48.7562L27.1172 48.6865L26.7155 48.5669L26.3769 48.3993L26.103 48.1021L25.8922 47.717L25.7859 47.0049L25.859 46.5467L26.0167 46.1566L26.2391 45.896L27.1272 45.2519L27.4442 44.9382L27.4874 44.6344L27.3496 44.3638L27.0957 44.1248L25.1617 42.6391L24.9476 42.1593L24.8215 41.4538L24.9194 39.9217L25.0954 39.1846L25.3527 38.6916L25.6481 38.5372L26.0183 38.4642H26.3984L26.757 38.5538L27.3596 38.9306L27.7829 38.8974L28.2577 38.5937L28.9051 37.6557L29.0628 37.0532L29.0213 36.605L28.8204 36.3145L28.0983 35.5608L27.8759 35.2404L27.6966 34.8122L27.7381 34.4486L27.8974 34.1399L28.5531 33.2933L30.6065 29.0553L30.8805 28.3L31.0382 27.6908V27.2857L30.9535 26.9239L30.8273 26.5919L30.5003 25.9909L30.0455 25.483L29.5276 25.0265L28.9333 24.6297L27.2119 23.813L26.9048 23.5458L26.6724 23.2088L26.5462 22.6162L26.6093 22.1912L26.7471 21.8044L27.4028 20.4382L27.6036 20.1444L27.8676 19.9601L28.2377 19.9436L29.8895 20.2922H30.3127L30.6614 20.1726L30.9568 19.9934L31.4631 19.5302L32.0657 18.7998L32.4575 18.1192L32.4708 17.7109L32.3197 17.3872L31.063 16.5704L30.7892 16.2866L30.8954 16.0923L31.1693 15.9745L32.4575 15.9496L33.3904 15.6608L34.6155 14.0854L40.6661 13.3301L45.3391 14.0522L47.5685 13.8065L53.3436 12.1598L59.9006 11.9639L60.5878 11.7299L61.8345 11.114L62.3723 11.119L63.0944 11.2833L66.3264 12.7723L66.9174 12.8703L67.6926 12.8819L69.1086 12.6943L70.2175 12.286L70.3553 12.1416L70.7288 11.6834L72.007 9.43576L72.2394 9.18013L72.9681 9.05396L78.9756 9.10376L79.6197 9.26478L81.3628 10.2707L81.7645 10.6359L81.9554 10.9082L82.201 11.1422L82.5181 11.2817L83.9656 10.9679L84.9899 10.5596L86.1934 9.87234L86.5038 9.76279L86.8523 9.75116L92.0216 10.5529L92.6873 10.5098L92.8666 10.3786L93.0359 10.2093L93.2268 9.95866L93.3845 9.62335L93.9688 8.131L94.7822 6.48595L94.983 6.18881L95.2254 5.93979L96.1019 5.35217L97.7503 4.69646L98.3462 4.34454L98.8741 3.87143L99.0749 3.55937L99.2443 3.21575L99.5298 2.45049L99.7622 1.64704L100.048 1.3582L100.534 1.27023L104.88 1.85454L105.282 1.99729L105.592 2.22473L105.708 2.65133L105.635 3.03147L105.519 3.41329L105.625 3.90132L105.984 4.49393L107.136 5.57791L107.475 6.14233L107.644 6.58223L107.465 7.15326L107.402 7.53008L107.423 7.90689L107.508 8.26712L107.614 8.61571L107.699 8.98091L107.73 9.39095L107.677 10.2691L107.699 10.6459L107.762 10.9397L107.825 11.1422L108.969 13.5957L109.528 14.4456L109.729 14.7079L109.951 14.9204L111.895 16.3812L112.064 16.8145L112.043 17.1597L108.764 21.3313L108.394 21.9621L108.256 22.3323L108.172 22.6859L108.182 22.9913L108.245 23.1756L108.55 23.4528L109.832 24.4023L110.127 24.8953L110.275 25.3718L110.338 25.7502L110.423 26.1038L110.539 26.4358L111.459 27.8817L111.565 28.1921V28.5125L111.439 28.8279L111.248 29.1317L110.582 29.9301L110.391 30.2156L110.307 30.541L110.391 30.8431L110.57 31.1203L110.856 31.381L111.268 31.6532L111.89 31.947L113.319 32.2724L115.897 32.0665L120.775 32.8351L128.029 32.3321L129.392 32.5678H129.762L130.057 32.3919L130.195 31.859L130.258 30.9162L130.333 30.4895L130.439 30.0762L130.957 29.7176L131.785 29.3973L134.722 29.0719L135.862 29.1433L136.468 28.9557L137.155 28.5407L139.363 26.4524L139.574 26.1636L139.806 25.8963L140.529 25.5477L142.23 25.5909L145.572 26.0905L146.046 26.308L146.553 26.7047L146.732 27.055L146.827 27.4866L146.752 28.212L146.626 28.6934L146.456 29.1283L145.749 30.5393L145.633 30.8979L145.548 31.2979L145.475 31.7495L145.454 32.6127L145.57 33.8012L145.728 34.2677L145.982 34.7923L146.531 35.5957L146.921 36.019L147.313 36.3095L150.052 37.6989L150.274 38.0359L150.401 38.4974L150.422 39.2792L150.337 40.5641L150.231 40.8197L150.04 41.0422L149.818 41.2264L149.532 41.4107L149.121 41.5617L148.867 41.736L148.656 41.9967L148.55 42.3486V42.7287L148.76 43.3413L150.334 46.5982L150.567 47.3402L150.576 48.7213L150.513 49.6625L150.397 50.041L150.218 50.3597L149.964 50.5954L146.579 52.8431L146.347 53.1004L146.156 53.3577L145.998 53.6249L145.924 53.7959L145.86 54.0317L145.829 54.1777L145.786 54.5678L145.776 55.2683L145.807 55.5223L146.885 57.5475L147.152 58.2414L147.321 58.8174L147.364 59.6491L147.555 60.1056L147.967 60.5438L149.003 61.0783L149.668 61.2892L151.594 61.5996L151.921 61.7257L152.195 62.0013L152.48 62.4329L153.41 64.4797L154.66 66.3472L155.125 67.3183L155.263 67.8711L155.495 68.1217L155.907 68.3259L156.836 68.3442L157.872 68.1964L158.611 68.5251L159.258 69.9809L157.713 71.8135L157.723 72.5689L157.997 72.7897L159.024 73.2959L159.383 73.5648L159.721 73.9417L160.165 74.6239L160.271 75.1269L160.218 75.5519L159.743 76.2474L159.521 76.8401L159.511 77.2683L159.627 77.8178L159.806 78.3905L160.038 79.4678L159.932 79.9475L159.721 80.3028L158.453 80.9535L158.111 81.2274L157.731 81.7221L157.668 82.2716L157.7 82.9123L157.794 83.9415L157.678 84.4478L157.446 84.7898L156.167 85.3326L153.84 86.7087L153.586 86.8963L153.279 87.1868L152.497 88.3255L152.265 88.9547L152.139 89.6104L152.16 90.374L152.276 90.8405L152.424 91.2273L152.615 91.4962L152.837 91.7535L153.462 92.1286L153.852 92.2465L155.958 92.3278L156.37 92.4075L156.718 92.5519L156.992 92.7611L157.203 93.0217L157.457 93.4965L157.489 93.5778L157.552 93.777L157.731 94.9473L157.583 95.3557L157.298 95.5897L156.918 95.6346L156.559 95.8703L156.242 96.2853L155.756 97.7627L155.513 98.1893L155.271 98.4782L155.039 98.8367L155.08 99.1388L155.271 99.3961L156.539 100.115L156.803 100.329L157.29 100.82L157.532 101.03L157.859 101.134L158.951 101.129L159.331 101.23L159.648 101.408L159.912 101.634L160.334 102.148L160.545 102.529L160.736 103.003L160.968 103.807V104.335L160.81 104.71L159.987 105.331L159.713 105.593L159.471 106.048L159.492 106.564L159.693 107.389L159.884 107.874L160.075 108.259L160.286 108.526L160.56 108.735L162.187 109.19L162.535 109.351L162.846 110.256L164.049 116.678L164.388 117.552L164.746 117.696L167.158 118.016L168.986 117.875L169.419 118.015L169.866 118.305L170.437 119.157L170.88 119.547L171.302 119.836L171.672 120.007L171.989 120.242L172.274 120.593L172.264 120.948L172.095 121.203L171.831 121.411L170.669 122.07L170.384 122.392L170.183 122.883L170.085 123.893L170.163 124.445L170.289 124.885L170.691 125.427L171.177 125.898L173.416 127.467L176.399 128.698L176.854 128.981L177.045 129.321L177.108 129.716L177.118 132.689L177.266 133.473L177.414 134.01L177.998 135.264L178.685 136.402L179.932 138.004L180.915 140.023L181.348 141.432L181.369 141.857L181.326 142.282L181.257 142.702L181.137 143.033L181.021 143.283L180.725 143.73L180.292 144.168L180.07 144.296L179.932 144.326L179.646 144.312L179.562 144.409L179.436 144.673L179.288 145.305L179.077 145.846L178.707 146.429L178.484 146.686L177.256 147.765L177.087 148.036L176.961 148.429L176.919 149.098L177.025 149.502L177.248 149.719L177.546 149.754L178.064 149.658L181.35 148.242L182.05 148.061L182.409 148.013L182.789 148.044L183.127 148.16L183.454 148.336L184.057 148.851L185.081 149.935L183.423 152.154L182.536 152.749L180.209 153.09L179.766 153.326L179.48 153.65L178.529 155.368L177.047 157.272L176.308 157.916L175.812 158.094L175.621 157.831L175.473 157.538L175.347 157.224L174.914 155.479L174.798 155.152L174.427 154.593L174.28 154.301L174.217 153.937L174.258 153.517L174.333 153.095L174.238 152.682L173.928 152.315L172.913 152.086L172.364 152.113L171.952 152.241L170.706 153.308L170.259 153.826L169.456 154.984L169.107 155.605L167.618 157.466L165.47 159.555L165.111 160.011L164.857 160.401L164.741 160.721L164.71 160.961L164.72 161.258L164.763 161.586L164.784 161.963L164.763 162.8L164.678 163.676L164.593 164.113L164.044 165.612L163.642 166.395L162.329 168.263L162.15 168.601L162.055 168.909L162.109 169.216L162.268 169.48L162.542 169.685L162.862 169.858L164.53 170.27L164.879 170.413L165.153 170.584L165.301 170.784L165.342 170.879L165.352 170.922V170.959L165.173 171.556L165.13 171.857L165.204 172.159L165.342 172.459L165.405 172.788L165.364 173.181L165.173 173.58L164.803 174.139L164.58 174.581L164.442 174.933L164.549 175.756L160.626 177.949L160.067 178.1L159.348 178.155L158.936 178.002L158.257 177.907L157.485 178.386L157.18 178.827L157.127 179.249L157.233 179.576L157.56 180.162L158.968 181.983L159.137 182.268L159.285 182.569L159.326 183.053L159.22 183.681L158.076 187.082L157.749 187.28L157.422 187.272L156.788 186.966L156.461 186.918L156.123 186.976L155.478 187.217L151.65 187.599L146.531 187.263L145.633 187.018L142.989 185.372L142.715 185.125L142.398 184.904L141.373 184.946L134.816 187.693L128.538 187.867L128.165 187.814L126.918 187.119L123.334 185.701L122.763 185.306L122.161 184.526L121.907 184.31L120.999 183.751L119.727 182.642L119.516 182.383L119.221 182.104L118.841 181.84L118.112 181.608L117.625 181.624L117.086 181.75L115.117 182.569L114.822 182.775L114.642 183.06L114.558 183.409L114.642 184.137L115.149 186.634L115.18 187.021V187.384L115.086 187.743L114.895 188.012L114.113 188.631L112.958 189.282L112.451 189.703L111.553 190.699L110.771 191.843L109.314 192.833L103.56 195.402L102.355 196.431L101.919 195.676L100.8 194.62L100.342 193.955L100.222 193.339L100.003 190.673L98.9106 188.033L98.7479 187.333L98.6915 186.639L98.5255 185.9L98.0707 185.085L96.1616 183.792L93.6966 183.359L88.9639 183.292L82.6957 180.675L80.5128 180.575L78.9956 181.272L77.7522 184.979L77.6643 185.379L77.2808 187.12L77.2526 188.857L76.9986 189.808L76.2865 189.866L74.9103 188.893L74.0969 188.047L72.1597 184.018L73.2935 182.746L73.3782 181.198L72.7224 179.816L71.6517 179.066L70.088 179.282L69.1966 180.502L68.4745 182.049L67.4254 183.253L65.9961 183.53L65.2359 182.678L65.1097 181.256L65.5612 179.833L66.6319 178.58L67.6113 177.927L68.3683 176.993L68.8231 174.885L68.6969 172.942L67.9865 172.126L66.8178 171.973L63.6771 172.343L62.5217 173.097L61.4444 174.035L59.9869 174.886L58.395 175.243L57.233 174.876L56.5142 173.719L56.2685 171.742L55.7755 170.056L54.6566 170.228L52.5434 172.029L51.4877 172.32L49.9671 172.248L48.9745 171.485L50.3124 167.473L49.9389 165.633L48.8184 164.315L47.424 163.643L43.8284 163.193L41.3667 162.886L38.5995 161.805L37.1071 159.442L36.571 158.96L35.7974 157.81Z" fill="#000E40" stroke="#000E40" stroke-linecap="round" stroke-linejoin="round"/>
</svg>
