<svg width="171" height="181" viewBox="0 0 171 181" fill="none" xmlns="http://www.w3.org/2000/svg">
<path d="M133.479 4.01973L133.769 5.96359L134.604 6.49478L140.803 6.93468L141.173 7.02598L141.332 7.20859L141.09 7.4858L140.114 8.07345L139.828 8.29257L139.564 8.54323L139.354 8.82542L139.174 9.25039L139.09 9.77495L139.1 10.5618L139.216 11.3536L139.385 11.9861L139.627 12.7049L139.775 13.0418L139.891 13.407L139.976 13.7938L139.998 14.2271L139.881 14.7566L139.681 15.3492L138.983 16.7054L138.095 18.0202L137.609 18.553L135.207 20.6845L131.865 25.4852L131.294 26.5592L131.115 27.2979L130.926 28.3553L130.662 30.6046L130.556 32.5186L130.725 34.6467L130.746 36.0594L130.8 36.4794L130.894 36.8645L131.042 37.2015L131.243 37.497L131.528 37.7177L131.867 37.8904L132.737 38.0431L133.17 38.0265L133.899 37.8339L134.194 37.8223L134.374 38.0431L134.48 38.4L134.533 38.82L134.639 39.2001L134.83 39.5006L135.157 39.6931L136.372 40.0616L136.668 40.2592L136.935 40.5082L137.126 40.8203L137.264 41.1722L137.254 41.71L137.084 42.3956L136.535 43.5344L136.151 44.0838L134.968 45.1313L134.481 45.6691L134.08 46.2983L133.9 46.7514L133.763 47.3623L133.7 49.0821L133.743 49.6033L133.881 50.5197L134.631 53.5193L134.694 53.9127L134.747 54.3244L134.757 54.7792L134.672 55.742L134.387 57.6012L134.302 59.0305L134.324 59.9319L134.462 61.2051L134.44 61.6798L133.932 65.7186L133.975 66.2183L134.048 66.6134L134.186 66.952L134.535 67.5778L134.757 67.8567L134.989 68.1074L135.263 68.3016L135.559 68.4028L135.907 68.4277L136.203 68.29L136.445 68.036L136.625 67.704L137.008 66.5038L137.177 66.1519L137.368 65.8332L137.601 65.5593L138.52 65.0032L139.196 64.7243L139.988 64.555L140.867 64.5218L141.734 64.6197L143.17 65.2057L143.55 65.2571L143.93 65.2123L144.279 65.0862L144.568 64.877L145.064 64.3724L145.275 64.0287L145.698 63.0527L145.93 62.6924L146.204 62.4351L146.521 62.3189L146.839 62.3638L147.081 62.5613L147.229 62.8999L147.335 63.2618L147.504 63.5888L147.727 63.8644L148.025 64.0736L148.392 64.2263L148.829 64.3192L149.727 64.3441L150.129 64.2678L150.456 64.1151L150.751 63.9142L151.8 62.9713L152.074 62.802L152.2 63.1523L152.144 64.0835L151.5 66.5038L151.277 67.6758L151.203 68.4991L151.297 68.871L151.604 69.53L151.819 69.8205L152.058 70.0745L152.695 70.4629L154.048 71.0904L154.259 71.2431L154.406 71.424L154.533 71.7112L154.606 72.0781L154.68 72.9346L154.753 73.3314L154.901 73.6601L155.124 73.9423L155.356 74.1896L157.325 75.7882L158.644 77.4316L158.993 78.0557L159.204 78.328L159.471 78.5786L164.683 81.1599L168.163 84.6393L168.364 84.9348L168.502 85.2867L168.596 85.6851L168.606 86.1632L168.543 87.3135L168.448 87.9643L168.174 88.7196L167.562 89.8384L166.755 90.5788L166.227 90.9772L161.407 91.9649L161.08 92.2122L160.973 92.8679L160.688 95.8958V96.4386L160.899 96.7191L161.216 96.9266L162.937 97.6836L163.296 97.6504L163.606 97.5109L164.303 96.9399L164.504 96.8337L165.18 96.666L165.95 96.6262L166.289 96.7556L166.584 96.9399L167.134 97.3997L168.299 98.7227L169.355 100.574L169.481 100.924L169.576 101.304L169.702 102.149L169.796 102.529L169.987 102.831L170.21 103.1L170.401 103.386L170.527 103.733L170.601 104.08L170.718 105.401L170.844 106.196L170.738 106.671L170.43 107.185L169.511 107.879L168.94 108.186L168.4 108.354L163.536 109.053L163.163 109.31L162.877 109.73L162.604 110.529L162.635 111.003L162.804 111.37L163.058 111.619L164.139 112.449L164.466 112.776L164.73 113.173L165.069 113.52L165.228 113.805L165.323 114.182L165.313 114.626L165.281 115.052L165.218 115.494L165.102 115.895L164.763 116.3L163.08 117.914L162.213 119.259L161.981 119.961L162.066 120.402L162.351 120.62L163.981 121.395L164.373 121.71L164.532 121.915L164.605 122.188L164.532 122.464L164.131 123.136L163.877 123.387L163.518 123.576L162.891 123.593L161.569 123.292L161.178 123.271L160.787 123.309L160.429 123.409L159.889 123.724L156.843 126.196L156.516 126.34L156.158 126.611L155.827 127.004L155.457 127.784L155.341 128.219L155.298 128.598L155.308 128.96L155.139 133.173L155.402 135.211L155.434 135.636L155.487 136.048L155.497 136.898L155.422 137.304L155.306 137.685L154.831 138.488L154.398 139.028L154.134 139.433L153.923 139.828L153.786 140.206L153.173 143.825L152.919 144.155L152.539 144.371L151.838 144.404L151.352 144.313L150.94 144.144L150.381 143.699L148.975 142.172L148.415 141.727L148.077 141.549L147.693 141.416L145.009 140.938L144.704 140.754L144.541 140.498L144.563 140.163L144.609 139.828L144.563 139.481L144.408 139.177L143.084 137.56L142.059 136.551L141.721 136.378L140.844 136.214L137.249 136.23L135.861 136.953L134.403 138.058L131.781 139.477L129.435 140.375L127.403 141.654L126.738 141.836L126.167 141.886L124.473 141.483L123.026 140.913L122.169 140.341L121.173 139.341L120.931 139.242L120.667 139.341L120.592 139.869L120.635 140.291L121.016 141.38L120.962 141.801L120.762 142.351L120.254 143.07L120.116 143.818L120.191 144.273L120.444 144.587L122.012 145.541L122.266 145.785L122.319 146.111L122.171 146.446L121.618 146.697L121.153 146.718L116.27 146.024L115.921 146.214L115.689 146.569L115.614 147.246L115.709 147.689L116.553 149.301L116.796 150.003L116.902 150.375L116.965 150.769L116.987 151.2V151.644L116.955 152.107L116.764 152.625L116.437 153.157L115.699 153.825L115.149 154.065L114.621 154.19L109.449 153.639L106.258 152.774L105.919 152.771L105.546 152.9L105.197 153.206L104.774 153.737L104.51 154.139L104.331 154.557L104.309 154.955L104.563 155.498L104.849 155.813L106.859 157.371L107.345 157.864L107.525 158.096L107.641 158.39L107.546 158.634L106.479 160.613L105.983 161.351L105.747 161.617L105.493 161.854L105.197 162.048L104.849 162.16L104.437 162.181L103.19 161.977L102.8 162.014L102.536 162.188L102.427 162.528L102.578 162.978L102.8 163.305L103.074 163.566L104.205 164.417L105.229 165.363L105.863 166.203L107.609 169.243L107.852 169.475L108.179 169.655L109.404 169.912L109.734 170.07L109.932 170.36L110.038 170.709V171.2L109.862 171.741L109.457 172.377L108.549 172.79L107.926 172.945L107.302 173.204L106.763 173.645L105.968 174.766L104.52 176.492L100.491 180.375L100.639 177.325L100.513 176.14L100.365 175.773L100.154 175.418L99.8273 175.038L99.5003 174.776L99.1517 174.608L98.7931 174.547H98.506L96.4426 174.943L95.0266 174.259L93.1209 172.956L92.1913 172.493L91.5356 172.334L91.3663 172.626L91.3132 173.006L91.4294 174.248L90.9961 174.54L90.1362 174.683L85.8435 173.959L84.2797 174.273L83.5825 174.522L82.96 174.842L82.3957 175.239L81.7084 175.405L80.7041 175.493L77.3526 175.154L76.6238 174.963L76.3284 174.764L76.086 174.522L75.9482 174.196L75.8851 173.81L75.9797 172.946L75.6278 172.329L74.9306 171.63L72.1103 169.904L71.6007 169.415L71.5509 169.04L71.5724 168.62L71.4944 168.172L71.2521 167.714L70.9035 167.505L70.4802 167.425L68.3039 167.326L67.7976 167.135L67.4357 166.869L67.1187 166.142L66.8863 165.725L66.4746 165.217L66.0729 165.03L65.6927 165.041L65.4387 165.265L65.301 165.611L65.2595 166.027L65.2694 166.879L65.2479 167.291L65.1316 167.661L64.9524 167.976L64.5938 168.258L64.1074 168.441L63.143 168.491L62.6881 168.297L62.3927 168.009L62.318 167.651L62.3495 167.248L62.4972 166.429L62.5288 166.014L62.4657 165.644L62.3594 165.312L62.0208 164.902L59.154 162.58L58.9432 162.309L58.7855 162.005L58.7224 161.673L58.817 161.346L59.0179 161.081L59.2918 160.868L59.6088 160.71L63.0035 159.864L63.6061 159.51L64.1058 159.021L64.3033 158.768L64.5175 158.43L64.6552 158.031L64.7183 157.651V157.239L64.6552 156.846L64.539 156.486L64.1904 155.863L62.1586 153.561L61.8 153.295L61.4929 153.151L60.7542 152.965L60.3807 153.001L59.2088 153.445L58.4584 153.489L58.0036 153.373L57.6235 153.191L55.6547 151.224L55.507 150.908L55.4854 150.526L55.5701 150.155L55.4754 149.605L55.1268 148.911L53.8901 147.618L53.0767 147.007L52.4642 146.68L52.1322 146.625L51.8782 146.642L51.6043 146.766L51.3719 146.986L51.1495 147.258L50.7793 147.902L50.5369 148.158L50.263 148.373L49.936 148.518L48.2943 148.729L47.534 148.928L46.8468 149.305L45.6748 149.544V150.342L44.9212 149.676L43.6529 149.283L42.881 148.878L42.2618 148.075L41.8253 147.082L41.2692 146.232L40.3014 145.877L39.6739 145.415L39.2539 143.4L38.4189 142.942L37.4761 143L36.6095 143.227L35.8908 143.699L35.4011 144.466L33.673 140.289L33.1385 138.027L33.5535 135.575L31.7225 135.125L29.8633 133.956L28.9055 132.31L29.7936 130.422V129.755L27.8912 129.521L26.2777 128.769L25.2701 127.399L25.1439 125.338L25.9822 123.487L27.5459 122.293L29.4267 122.042L31.2295 123.063L32.6172 122.444L34.8781 122.428L36.9482 121.988L37.7865 120.113L36.9067 118.764L31.2295 115.622L26.623 111.354L25.6021 109.655L25.2286 108.236L25.1589 107.263L24.968 106.374L24.2143 105.222L23.3827 104.651L22.5161 104.299L22.0165 103.857L22.3053 103.007V102.335L21.5019 97.7981L20.9109 96.3473L19.1214 93.5668L18.1138 91.4187L18.3678 90.4194L19.4949 89.8334L18.7347 88.5137L15.4943 85.1971L12.0299 82.9976L10.4944 81.1234L6.71958 72.8334L5.55758 72.0731L4.2412 72.0482L3.1705 71.4938L2.72728 69.1747L3.09414 67.7206L4.03037 66.117L5.24218 64.8289L6.48884 64.3408L6.06554 62.8651L6.15019 61.7429L6.63659 60.981L7.42508 60.6108L6.86898 59.3011L4.09346 55.1975L3.98723 54.5169L5.05128 52.3291L4.08682 51.67L2.85343 51.2086L1.78274 50.4649L1.32458 48.931L1.19843 48.2554L1.8259 48.7252L2.41685 48.4198L2.72728 46.7415L2.5646 45.6824L0.712046 40.4119L0.316956 39.5354L0.386675 38.6573L1.21004 37.2148L1.90724 36.4827L2.74554 36.0146L9.37226 34.2782L10.9708 34.3214L15.7815 35.7706L17.4863 35.9299L20.1838 37.0222L22.0928 39.3578L24.0301 41.1855L26.7558 40.7373L36.9399 31.5392L44.6655 26.2156L46.5878 23.5015L48.208 16.317L49.2571 14.1756L51.7355 10.4705L53.2145 8.93001L54.6587 8.38886L71.6256 7.05088L75.8021 8.06847L77.2181 8.13154L96.3612 5.02403L102.488 1.78869L105.579 0.772766L108.663 0.684784L120.157 3.80891L133.479 4.01973Z" fill="#000E40"/>
</svg>
