<svg width="172" height="123" viewBox="0 0 172 123" fill="none" xmlns="http://www.w3.org/2000/svg">
<path d="M0.799988 71.1057L0.863068 63.7054L1.61671 62.0321L1.85575 60.4169L1.06061 56.2487L1.20171 54.1637L2.22261 52.4871L6.67307 48.8733L7.09637 48.1213L7.80851 46.4779L8.32311 45.7525L9.16141 45.1765L10.9791 44.5955L11.8025 44.0577L12.8947 42.6068L13.7264 40.6812L14.163 38.4883L14.0783 36.2723L14.2891 34.8895L14.8104 34.2105L15.4511 33.7026L16.0421 32.8476L16.5135 31.6608L16.6679 30.9602L16.5202 27.4526L16.3857 26.6077L16.4355 25.7993L16.8854 24.536L17.0149 24.3501L17.5328 23.6048L19.1662 22.2187L19.807 21.2924L19.9414 20.66L19.9348 19.3203L20.0195 18.8107L20.8644 16.9665L22.3435 12.6122L23.5403 11.6677L26.1598 11.2809L27.2156 10.3795L27.1873 8.62496L27.5044 6.22954L27.9974 3.85575L28.5187 2.14099L29.9562 0.753235L31.3224 1.17816L33.8788 4.01016L35.5554 5.16053L37.0195 5.33814L38.477 5.19868L40.9421 5.38131L42.4776 4.91316L43.2163 4.99949L43.9069 5.65522L45.1668 7.42809L45.9204 7.67044L47.1389 8.30956L48.6462 9.67239L50.0273 10.2683L50.8224 8.61002L50.6896 8.27136L51.928 9.02998L53.1647 10.5456L53.2427 11.3822L52.6053 12.7401L52.3945 13.4987L52.353 13.922L52.3214 14.7802L52.343 15.1936L52.5339 16.3572L52.7663 16.9847L53.1182 17.574L54.8513 19.6025L57.2533 21.651L57.655 22.2403L57.8774 22.7466L57.9837 23.1084L58.1098 23.4404L58.4684 24.0215L58.6792 24.2754L59.0909 24.4895L59.6188 24.6556L60.6895 24.717L61.2804 24.6556L61.7552 24.5427L62.3777 24.229L65.1283 23.306L67.0506 22.9956L67.5469 23.1234L68.0333 23.4238L68.7089 24.1144L69.2717 24.9759L70.8254 28.9765L72.1451 31.3802L72.5817 31.8898L73.0781 32.3463L73.6275 32.7464L74.3148 32.9406L77.4455 33.251L78.3967 33.1763L79.0308 33.0054L79.7064 32.348L79.9637 32.2683L80.2177 32.3264L80.4086 32.856L80.4717 33.1664L80.4933 34.3317L80.5348 34.7085L80.6194 35.0256L80.7041 35.2231L80.7887 35.3709L80.895 35.502L80.9166 35.5319L81.2868 35.5004L81.8262 35.2729L82.1533 35.0156L83.209 33.5897L83.4414 33.344L83.7834 33.2743L84.2067 33.4071L84.8192 34.0661L85.0616 34.5608L85.1678 35.0355L85.1363 35.58L85.1994 35.9967L85.3056 36.3005L85.4434 36.6241L85.6542 36.8831L86.1821 37.167L86.9639 37.4492L88.9012 37.8542L90.274 37.9505L93.8696 37.489L94.5568 37.5671L96.2085 38.2659L98.9973 39.0793L101.632 40.3176L105.861 45.4105L107.121 46.4198L107.702 46.5858L108.209 46.5975L109.244 46.2455L110.005 46.0994L110.853 46.0829L111.72 46.1974L112.47 46.4182L112.818 46.6821L113.082 47.1037L113.252 47.9636V48.5097L113.114 49.4311L113.082 49.8626L113.104 50.2827L113.167 50.6711L113.421 51.1375L113.833 51.6654L117.618 54.8559L118.252 55.1863L118.826 55.3722L119.681 55.505L120.029 55.6279L120.337 55.8038L120.876 56.2155L121.099 56.4579L121.384 56.8678L121.691 57.4157L122.156 58.4897L122.319 59.1537L122.372 59.733L122.221 60.568L122.114 60.8967L121.945 61.2951L121.787 62.0736L121.734 62.4803V62.8887L121.809 63.2572L122.031 63.6257L122.405 63.9544L123.165 64.2997L123.683 64.3793L124.138 64.3628L124.804 64.1071L125.353 63.7452L125.595 63.5162L126.719 62.2728L128.145 61.3001L131.191 60.7904L132.47 60.2327L135.801 58L136.128 57.8771L136.487 57.824L136.857 57.8771L137.152 58.1162L137.378 58.488L137.428 59.2267L137.4 59.7629L137.274 60.6593L137.239 61.2735L137.274 61.9956L137.315 62.389L137.506 63.1095L137.644 63.8565L137.634 64.2765L137.577 64.6964L137.508 65.1114L137.401 65.4982L136.986 68.0496L136.965 68.9228L137.071 70.1545L137.549 73.2571L137.644 73.6488L137.898 74.1468L138.341 74.7826L139.176 75.6043L139.694 76.0076L140.159 76.2467L142.244 76.6451L143.997 76.6667L145.532 76.4044L146.188 76.1521L146.495 75.9877L147.023 75.6059L147.456 75.0814L147.815 74.4987L147.984 74.18L148.396 73.1325L148.6 72.8868L148.86 72.7923L149.139 72.8868L149.393 73.0827L149.848 73.5591L150.652 74.1734L150.925 74.5917L151.179 75.1793L151.422 76.4359L151.506 77.1697L151.613 77.7241L151.782 77.9963L152.099 78.0727L153.804 78.1159L154.279 78.3068L154.733 78.6537L155.314 79.404L156.033 80.1211L157.378 81.1453L161.775 85.2622L162.082 85.6373L162.293 85.976L163.55 88.4859L164.947 90.7717L165.064 91.1419L165.085 91.5801L164.894 92.2508L164.504 93.0476L164.146 93.6335L163.825 94.2776L163.699 94.6395L163.593 95.0329L163.54 95.4712L163.571 96.0256L163.697 96.6431L164.061 97.5793L164.3 98.099L164.737 98.7696L169.4 103.447L171.682 106.699L171.739 107.104L171.612 107.631L168.133 112.896L167.738 114.075L167.051 117.619L166.881 118.844L166.878 118.864L166.32 118.534L164.989 118.2L161.136 118.263L157.248 117.313L155.932 117.362L154.368 118.213L151.706 120.534L148.346 120.643L143.789 122.957L142.31 122.899L138.281 121.342L138.183 121.424L136.986 121.176L134.508 118.799L133.155 118.163L129.767 117.24L128.647 116.43L126.499 116.319L119.639 119.153L118.182 119.174L117.717 117.606L114.181 114.315L113.061 113.753L108.322 114L106.736 113.779L103.932 112.826L99.5451 112.322L98.2851 111.895L95.7221 112.362L94.9618 112.586L94.2298 113.207L93.9343 113.886L93.589 114.465L93.1939 114.941L92.9864 115.107L92.7225 115.318L91.3065 115.403L86.8909 113.19L86.7847 113.15L86.6867 113.137L86.5888 113.15L86.4909 113.19L85.948 113.388L85.4417 113.446L84.9354 113.379L84.4424 113.182L82.9069 111.377L79.6533 108.592L76.8496 105.225L75.6726 104.359L70.9267 102.709L69.3846 102.481L67.9901 103.154L66.6522 105.225L65.1233 109.988L64.2087 111.726L61.2921 114.042L60.2081 114.209L59.1025 113.872L58.0318 113.21L56.9827 112.473L55.7709 111.91L54.7351 111.995L54.164 113.2L54.7417 115.262L54.1707 116.64L52.9456 117.476L51.5661 117.908L49.0595 115.868L48.4885 114.631L49.6505 113.183L49.7766 111.588L50.2265 110.649L50.4738 109.593L50.009 107.666L49.2985 106.265L48.3905 105.102L46.377 103.213L43.9334 101.829L43.6944 101.346L42.5822 100.629L41.4135 100.951L40.2582 101.698L39.0049 102.111H34.0963L33.2015 102.614L33.0256 102.593L32.6587 102.176L31.4967 99.7573L30.5322 96.5203L29.6375 94.4104L24.5745 87.7206L24.2989 87.5829L24.0167 87.5248L23.7279 87.5613L22.4115 88.2219L21.3558 88.3166L20.2784 88.0892L18.9405 87.5397L18.6516 87.4982L18.3761 87.5397L18.1022 87.6725L17.5677 88.1008L17.0398 88.2518L16.5467 88.1174L16.1035 87.6675L12.7653 82.4883L12.0332 80.4083L11.9701 78.994L12.1245 77.8121V76.8061L11.6165 75.9429L11.1451 75.8583L9.26433 75.9728L9.27927 74.3377L10.2935 71.2351L7.85665 70.02L5.53265 69.7262L3.29995 70.6126L2.62433 71.353L2.55461 71.363L2.43509 71.3796L0.799988 71.1057Z" fill="#000E40"/>
</svg>
