<svg width="206" height="189" viewBox="0 0 206 189" fill="none" xmlns="http://www.w3.org/2000/svg">
<path d="M73.6605 188.273L72.8471 187.818L72.6562 187.745L74.4656 184.504L76.9506 181.951L77.9267 180.321L78.1923 177.826L77.022 179.108L75.84 180.135L74.4922 180.256L72.8455 178.811L72.2296 176.609L72.6346 173.997L73.9992 170.28L73.4945 169.949L72.3906 169.865L71.6801 169.672L71.1805 169.334L70.304 168.489L69.2333 167.785L68.3518 166.432L67.653 164.652L67.4422 162.856L65.9664 164.765L66.4661 166.726L67.6978 168.533L68.3751 169.974L68.5858 171.254L68.9693 171.986L69.1752 172.811L68.8864 174.332L68.3435 175.429L66.0477 177.828L61.999 184.073L61.7699 184.338L59.3347 183.86L58.6757 183.259L58.6658 181.49L58.6341 181.108L58.2441 179.124L58.2025 178.405L58.2441 178.024L58.3387 177.625L58.7188 176.467L58.7719 176.038L58.7089 175.517L57.019 168.404L56.6173 167.574L56.2055 167.154L54.2683 167.112L53.9098 167.033L53.5296 166.862L52.4938 166.156L51.8979 166.024L50.9683 165.476L49.4677 164.09L49.4145 164.06L49.0344 164.008L45.8505 164.324L44.9524 164.244L44.6453 164.075L44.6237 163.998L44.6021 163.861L44.5806 162.845L44.6021 162.489L44.7084 162.187L44.9193 161.952L45.1516 161.749L45.3741 161.45L45.5119 161.062L45.5019 160.448L45.2695 160.136L44.911 159.96L41.7072 159.667L39.3682 159.759L38.7341 159.636L38.407 159.413L38.1962 159.121L38.07 158.814L37.9639 158.464L37.8261 158.11L36.1744 155.479L35.8889 154.91L35.7626 154.608L35.678 154.282L35.6564 153.92L35.7195 153.559L35.8457 153.207L36.2158 152.607L36.8848 151.877L37.0757 151.572L37.1919 151.218L37.2351 150.848L37.2036 150.489L37.0774 149.822L36.7603 148.862L36.3968 147.998L36.0582 147.583L35.6465 147.334L34.0612 147.113L33.5864 146.953L33.0785 146.708L31.9231 145.805L31.5213 145.682L31.2458 145.805L30.8756 145.909L30.4523 145.933L29.7651 145.665L29.4796 145.342L29.3418 144.966L29.2156 143.901V143.554L29.2572 143.21L29.4148 142.918L29.6157 142.679L29.8797 142.471L30.1751 142.349L30.5137 142.277L32.3729 142.234L32.7149 142.159L33.032 142.048L33.2644 141.841L33.4652 141.549L33.623 141.212L34.0246 140.644L34.531 140.25L35.1219 139.986L35.3858 139.804L35.5967 139.545L35.766 139.221L36.1461 138.013L36.3055 137.653L36.4748 137.359L36.9329 136.753L37.0707 136.466L37.1654 136.122L37.2185 133.838L37.2816 133.468L37.3978 133.144L37.5986 132.913L37.8841 132.762L38.5282 132.585L40.3276 131.808L40.5917 131.63L40.7493 131.152L40.7394 130.375L40.419 128.838L40.1799 128.117L39.9126 127.618L39.6703 127.399L39.3748 127.213L39.0262 127.09L38.2444 127L37.8327 126.876L37.3264 126.499L37.0724 126.159L36.8931 125.803L36.1495 122.608L35.9071 122.067L35.6647 121.7L35.3792 121.504L32.0791 120.413L31.4666 120.055L30.6847 119.389L30.3892 119.203L30.0506 119.049L28.3674 118.692L27.9241 118.44L27.7017 118.136L27.6071 117.806L27.4162 116.34L27.2054 115.385L27.0145 114.882L26.8136 114.542L26.6028 114.356L26.5298 114.318L25.6002 114.109L25.0258 113.84L24.7619 113.548L24.6041 113.207L24.4879 112.515L24.3933 109.129L23.2944 104.394L23.052 103.971L22.7035 103.722L21.7739 103.39L21.1895 103.033L20.9572 102.666L20.8409 102.283L20.7562 101.569L20.4824 100.218L20.3977 99.5007L20.3545 98.7554L20.3644 98.362L20.5969 96.277V95.9201L20.5654 95.5682L20.006 92.8242L19.9644 92.469L19.9744 92.1054L20.0591 91.7352L20.2068 91.468L20.5554 91.1576L20.7131 90.8986L20.8392 90.4687L20.8493 89.6801L20.743 89.2519L20.5853 88.958L19.5611 88.2011L19.1178 87.7496L18.917 87.3711L18.8422 86.9528V86.571L18.9269 85.741L19.0216 85.316L19.1477 84.9259L19.3485 84.6404L19.591 84.4345L20.5952 83.9963L20.8176 83.8353L20.997 83.5963L21.1032 83.1879L20.977 82.9107L20.7762 82.6999L20.5438 82.5936L20.2898 82.5422L15.6701 83.0119L15.0791 83.2792L14.8251 83.5033L14.6773 83.8353L14.5711 84.2304L14.508 84.6155L14.3702 84.9691L13.9802 85.5202L13.7859 85.8372L13.4904 86.5826L13.268 86.8349L12.9825 86.9743L12.6338 87.0341L12.2637 86.9893L11.9151 86.8798L10.954 86.3502L10.5638 86.2406L9.66583 86.3386L9.35539 86.4946L8.57351 87.0756L7.97097 87.3329L7.61241 87.3877L7.23226 87.3462L6.79892 87.1121L6.59811 86.8133L6.50348 86.4415L6.46031 84.9309L6.37571 84.5308L6.24947 84.0992L5.58057 82.416L2.16421 71.0799L0.346558 66.3505L8.22326 63.648L16.8503 61.8619L26.2425 57.3915L26.9812 57.2454L30.386 57.7517L36.1992 60.2202L43.1995 61.5581L47.6715 61.827L48.2874 61.7142L48.5098 61.5232L48.8899 61.0568L49.28 60.2517L49.3747 59.9413L49.808 57.7833L49.8395 57.3915L49.8179 57.0213L49.7116 56.6976L49.5423 56.4154L49.119 55.9407L47.7877 54.9015L47.562 54.6608L47.4673 54.3521L47.4988 53.9869L47.6051 53.6416L48.6227 51.0237L49.056 49.304L49.5954 46.3077L50.1134 44.7406L50.8853 40.0179L50.8753 39.6245L50.8123 39.2759L50.5699 39.0435L50.2213 38.8858L48.5845 38.6584L47.3661 38.3098L47.0274 38.1372L46.8581 37.8649L46.8797 37.4981L47.1337 36.1983L47.1436 35.7999L47.0806 35.4563L46.986 35.1259L46.9112 34.7906L46.8797 34.4105L46.9544 33.9274L47.1868 33.3132L47.7927 32.1595L47.9687 31.7395L48.0534 31.3627L48.0749 31.054L48.0318 30.8863L47.9189 30.692L47.5039 30.2904L42.2284 27.0533L41.7735 26.5736L41.6258 26.2798L41.5312 25.9494L41.5096 25.5759L41.4997 25.1925L41.5743 24.7127L41.6906 24.1898L41.9545 23.476L42.3246 22.983L44.1457 21.4259L44.5673 21.1819L47.557 20.5096L48.289 20.1727L48.6161 19.7626L48.8169 19.3111L48.9016 18.8745L48.943 18.4678L48.9215 18.091L48.7522 17.4237L48.5928 17.1249L48.3605 16.8875L48.0301 16.7149L45.5268 16.0525L44.8611 15.6973L44.6071 15.4599L44.3964 15.2092L44.2485 14.9154L44.1291 14.6L44.066 14.2431L44.0378 13.9111L44.0162 13.3434L43.9731 13.0911L43.8535 12.8305L43.6112 12.6429L43.2625 12.5848L42.5239 12.5532L42.1968 12.4686L41.9959 12.2743L41.8898 11.9158L41.9113 11.4742L42.0806 10.8683L42.4192 10.5679L43.3488 9.962L43.5912 9.61175L43.7174 9.28804L43.8551 6.83618L43.9398 6.31166L44.0378 6.02447L44.144 5.62107L44.1291 5.47335L44.0859 5.26251L43.7274 4.39765L43.4319 3.41659L43.3787 2.9601L43.4219 2.42559L43.739 1.5159L44.1025 1.17563L44.4827 0.981399L44.8628 0.97142L45.243 1.01129L45.56 1.10425L45.7392 1.33166L45.7709 1.63708L45.7493 2.17989L45.7592 2.86881L45.8323 3.60251L45.9584 4.29806L46.053 4.63337L46.1908 4.93383L46.4647 5.14133L46.8349 5.25425L50.7259 5.24427L52.4938 4.12708L54.7233 2.21809L55.7905 1.60552L56.5542 1.32001L57.1983 1.44118H57.854L59.0342 1.2885L59.6501 0.983021L60.1116 0.674304L61.5126 0.373844L62.653 0.33899L63.3751 0.438586L65.2443 1.28348L65.8153 1.35157L66.4378 1.16732L67.6247 0.881804L71.3049 0.222778L71.949 0.275869L73.3219 0.67096L77.7723 2.89703L88.4743 4.81098L89.4671 5.34386L89.6778 5.40693H90.1642L90.7701 5.27583L91.8474 4.88241L92.5131 4.43088L94.0702 2.83395L95.1692 1.94251L95.7816 1.63708L98.627 0.822026L100.539 0.549783L101.343 0.66098L101.726 0.808753L102.033 0.996344L102.276 1.23703L102.498 1.48769L103.047 2.29945L103.914 3.32033L104.178 3.54774L104.505 3.72206L107.825 4.38605L108.174 4.54872L108.469 4.75956L108.701 5.00191L109.719 6.68846L110.237 6.77813L111.06 6.66521L114.761 5.13971L118.811 4.14035L119.583 4.17521L119.963 4.25489L120.29 4.41923L120.532 4.65662L120.693 4.94877L120.756 5.29407L120.722 5.69746L120.461 7.0221L120.404 7.44044L120.418 7.81892L120.481 8.17414L120.839 9.11706L120.871 9.47563L120.849 10.2625L121.009 10.5812L121.304 10.8136L122.043 10.8235L122.455 10.7422L122.75 10.6393L124.951 9.14857L125.448 9.00085L125.786 9.08717L125.924 9.37932L125.987 9.708L125.924 10.0948L125.776 10.4367L125.585 10.7571L124.666 11.778L124.465 12.0569L124.274 12.3706L124.168 12.7259L124.189 13.0645L124.38 13.2936L124.613 13.4197L125.542 13.5874L125.901 13.7136L126.186 13.9211L126.356 14.2033L126.472 14.5187L126.598 15.2076L126.777 16.6435L126.787 17.022L126.681 18.169L126.766 18.4678L127.039 18.599L127.378 18.6853L127.674 18.8247L127.906 19.014L128.067 19.2381L128.158 19.4356L128.349 19.5983L128.66 19.761L130.55 19.6182L130.708 19.6365L130.751 19.7344V19.9834L130.54 20.669L130.477 21.0325V21.3844L130.562 21.7165L130.688 22.0319L130.763 22.3572V22.7091L130.668 23.0826L130.194 24.1799L129.644 25.8996L129.443 26.3744L129.063 26.884L128.704 27.0002L128.394 26.9421L127.898 26.4557L127.591 26.2433L127.084 26.152L126.883 26.3329L126.799 26.6533V27.0202L126.874 27.3671L127.033 27.646L127.655 28.0443L127.835 28.3166L127.878 28.6635L127.951 28.9939L128.099 29.2379L128.758 29.5284L129.053 29.7226L129.222 29.9932L129.433 30.2156L130.004 30.3003L133.113 29.975L133.641 29.7973L133.864 29.5301L134.244 28.7382L134.539 28.2768L135.079 27.7107L135.512 27.4949L135.924 27.3737L136.287 27.387L136.604 27.4517L136.827 27.6675L136.943 27.9614L137.016 28.2967L137.185 29.7342L137.207 30.0961L137.26 30.453L137.386 30.7469L137.682 30.9195L138.03 31.0191L139.572 31.1602L139.936 31.288L140.232 31.4839L140.96 32.1811L141.478 32.3587L142.229 32.4683L143.721 32.4152L144.44 32.279L144.904 32.0167L145.328 31.2083L145.666 30.7153L146.405 30.1144L146.913 29.887L147.356 29.7708L147.718 29.7973L148.057 29.887L148.342 30.0646L148.575 30.3003L148.945 30.8415L149.167 31.0672L149.453 31.2083L162.002 29.3309L162.056 33.5107L162.52 34.691L163.232 35.013L164.024 35.189L164.785 35.2023L166.562 34.8537L167.006 34.8587L167.238 35.0529L167.376 35.3417L167.492 36.0439L167.618 37.503L167.809 38.1654L169.711 42.3436L170.656 44.8817L171.046 45.4677L171.479 45.8395L173.222 46.2745L173.666 46.4936L173.792 46.7708L173.739 47.0016L173.506 47.1892L172.925 47.4664L172.281 47.654L171.996 47.8681L171.805 48.2283L171.889 49.123L172.059 49.6144L172.301 49.9746L172.618 50.1423L173.812 50.383L174.013 50.6436L174.069 50.9988L173.991 51.4122L173.769 52.3218L173.715 52.8547L173.769 53.5552L173.991 53.9005L174.321 54.0466L174.975 53.9188L177.11 53.0357L177.87 53.5088L179.014 54.4915L181.68 57.4729L182.832 58.5253L183.614 59.0332L183.878 58.8457L184.353 58.3809L186.162 56.9981L186.574 56.9533L187.08 57.0661L190.032 58.8689L190.571 59.3768L192.324 61.7258L197.688 66.4036L197.888 66.6593L199.22 68.7426L199.653 69.0895L200.023 69.1659L200.265 68.9816L200.466 68.7243L200.689 68.0786L200.921 67.8761L201.251 67.813L204.125 68.2761L205.29 68.2546L205.818 68.3907L205.934 68.6795L205.891 69.0132L205.722 69.3701L204.63 71.3122L204.503 71.6708L204.46 72.0244L204.482 72.9108L204.419 73.3242L203.743 74.7036L203.458 75.4656L203.351 75.8839L203.298 76.2889L203.277 76.684L203.371 77.4874L203.466 77.9788L203.519 78.359L203.487 78.7125L203.308 78.9682L203.086 79.1939L202.536 79.5293L202.272 79.6488L202.03 79.6903L201.851 79.5243L201.713 79.2703L201.587 78.9748L201.27 78.4088L201.079 78.1332L200.642 77.6319L200.41 77.4078L200.114 77.2136L199.787 77.0791L199.46 77.011L199.25 77.0011L198.964 77.0326L198.679 77.1206L198.139 77.4609L197.917 77.7099L197.706 77.9987L197.41 78.7574L197.156 79.604L197.009 79.9891L196.861 80.2962L196.255 81.2905L196.107 81.6507L195.981 82.0193L195.928 82.4144L195.969 83.51L195.938 83.8834L195.812 84.2437L195.611 84.501L195.335 84.6885L192.849 85.5551L191.413 85.6181L190.135 85.4472L189.339 85.1982L189.054 84.9857L188.843 84.7416L188.601 84.5441L188.294 84.4479L187.606 84.4329L187.268 84.3532L187.014 84.1607L186.781 83.9498L186.549 83.7971L186.253 83.7955L185.958 83.8701L185.387 84.1772L185.13 84.4843L184.95 84.9259L185.013 85.9535L185.324 86.805L186.348 88.968L186.527 89.5158L186.653 90.2213L186.864 92.7462L186.811 93.1114L186.695 93.4434L186.484 93.6841L186.22 93.8584L185.604 94.0709L182.012 94.3663L181.639 94.4443L181.343 94.6236L181.101 94.9789L181.132 95.2843L181.248 95.5848L181.639 96.1077L183.312 97.7494L183.903 98.1378L186.823 99.3961L188.069 100.168L188.323 100.39L188.662 100.815L189.723 102.622L190.251 103.75L191.054 106.717L191.318 107.376L191.624 107.807L194.004 109.753L194.226 109.892L194.459 109.846L194.65 109.587L195.02 108.959L195.231 108.714L195.453 108.564L195.707 108.616L195.93 108.788L197.082 109.98L198.121 110.671L198.469 110.978L198.956 111.551L199.094 111.979L199.04 112.346L198.83 112.598L198.079 113.239L197.593 113.795L197.276 114.278L197.266 114.366L198.682 116.786L198.766 117.374L198.682 117.792L197.677 118.587L197.392 118.752L197.097 118.86L196.766 118.85L196.439 118.738L195.795 118.39L195.468 118.26L195.098 118.255L194.771 118.413L194.369 118.674L194.115 118.972L192.168 120.784L191.946 121.041L191.735 121.348L191.534 121.675L191.418 122.16L191.449 122.525L191.534 122.867L193.453 126.668L193.456 126.675L192.847 126.786L192.093 127.213L189.852 129.087L189.099 129.505L186.715 130.38L183.133 133.914L180.915 134.266L181.514 136.61L180.604 138.844L179.273 141.09L178.591 143.497L178.091 146.19L176.826 148.864L175.163 150.476L173.427 150.003V149.264H173.931L175.324 149.873L176.594 147.11L177.409 143.56L177.426 141.797L176.866 141.356L174.398 138.406L173.36 137.823L171.131 137.022L170.171 136.305L169.023 136.997L167.824 136.924L165.938 136.305L164.785 136.633L164.031 137.354L163.477 138.079L162.944 138.406H158.452L155.63 140.114L152.208 140.793L150.007 141.877L148.027 143.418L143.419 148.305L142.116 150.571L141.706 153.449H141.196L141.218 151.98L140.974 151.65L140.308 152.03L139.631 152.297L139.553 152.923L139.486 153.112L139.143 152.207L139.32 151.796L139.398 151.158L139.387 150.682L138.61 150.149L138.454 150.003L137.854 148.824L137.499 148.364L137.044 147.969L135.647 147.339L134.438 147.378L131.898 147.968L126.963 147.227L117.664 148.997L116.034 148.952L110.959 151.867L107.144 154.058L105.154 155.728L99.6578 162.184L97.4333 164.242L89.3807 168.326L88.0825 169.239L87.0119 170.454L84.9485 173.391L83.8945 174.42L81.5106 176.096L80.4964 177.097L73.9808 187.876L73.6605 188.273Z" fill="#000E40"/>
</svg>
