<svg width="175" height="225" viewBox="0 0 175 225" fill="none" xmlns="http://www.w3.org/2000/svg">
<path d="M32.8574 19.2218L33.1429 19.8095L34.0592 20.827L35.1681 21.7002L36.1359 22.1185L37.2165 21.9608L37.927 21.2769L41.1142 16.9526L41.4694 16.2537L41.7832 14.7962L41.7234 13.5994L41.5508 12.4191L41.5159 11.0264L41.9459 8.81361L42.834 6.96935L44.1088 5.77249L45.6726 5.50856L47.13 6.30867L51.2502 10.8089L52.525 11.4912L53.7784 11.8166L60.4333 11.8365L61.7497 11.3518L63.3914 9.86439L65.6025 5.60981L66.9338 3.55639L68.3914 2.22839L69.9202 1.48471L71.308 1.57601L72.3106 2.73137L72.5679 3.83195L72.5331 4.76487L72.5995 5.75423L73.1738 6.99591L73.9872 7.81762L75.9493 9.05597L76.7943 9.99055L77.2375 11.1409L77.9695 14.1655L78.3563 15.0403L79.2428 15.3938L80.1126 14.9324L81.8772 13.2143L85.2719 10.9036L87.0365 10.2976L88.8857 10.2578L94.9995 11.5642L96.7608 12.283L97.36 13.7754L97.5293 16.0064L98.6 22.1285L99.0366 23.6607L99.6989 24.821L100.826 25.3688L101.806 24.9223L102.707 24.3379L103.58 24.4259L104.066 25.7788L104.553 27.814L105.272 28.9461L106.497 27.555L106.827 25.9432L106.679 21.7766L106.87 19.934L108.208 16.9161L110.117 14.5788L112.3 12.864L114.461 11.697L116.455 11.2638L120.66 11.2206L122.449 10.54L123.752 9.12071L125.366 5.65131L126.725 4.31833L128.063 3.83361L129.458 3.76555L132.197 4.44283L133.839 5.47535L134.687 6.82825L136.119 10.8089L138.394 14.2667L139.189 16.0645L139.456 18.9297L138.815 21.7649L139.273 23.0049L140.407 23.8499L141.802 25.4883L142.568 27.5998L143.146 29.9853L143.991 31.954L145.555 32.8421L146.959 32.3491L147.824 31.5888L147.874 31.7731L148.254 32.6014L148.423 32.8604L148.677 33.1193L148.994 33.1841L149.29 33.0679L149.829 32.6877L150.062 32.628L150.231 32.7292L150.337 32.8936L150.422 33.2173L150.453 34.0655L150.274 38.0877L150.136 39.341L149.967 40.1909L149.291 41.6468L148.435 42.8436L147.565 43.6985L145.43 45.3021L144.149 45.9594L143.42 46.1537L142.585 46.2184L142.268 46.4093L142.183 46.8658L143.462 51.5769L144.194 57.1843L144.532 58.7215L144.786 59.4254L144.934 59.7059L145.092 59.8852L145.293 59.8071L145.493 59.5598L146.856 57.2342L147.089 56.9901L147.394 56.8773L147.746 56.9387L148.475 57.2192L149.721 58.0276L151.848 59.9632L152.26 60.5243L152.419 60.8264L152.545 61.1401L152.671 61.5153L152.862 62.2723L153 62.6059L153.254 62.8583L153.603 63.0292L155.241 63.5621L155.92 63.9721L156.194 64.2111L156.659 64.7407L156.828 65.0494L156.976 65.3682L157.082 65.7217L157.123 66.1749L157.07 66.6795L156.796 67.3851L155.898 68.8027L155.535 69.4916L155.409 69.9614L155.339 70.4826L155.297 71.1549L155.319 71.9102L155.53 74.372L155.508 75.1837L155.234 75.861L154.914 75.8842L154.618 75.7614L154.364 75.5041L153.815 75.0393L153.466 74.8717L153.033 74.777L150.885 74.8102L150.59 75.1456L150.536 75.8162L150.844 77.2803L151.224 77.7949L151.629 78.0406L152.009 78.097L152.316 78.2597L152.548 78.522L156.333 84.4731L157.982 86.3589L158.172 86.6095L158.299 87.1125L158.34 87.8379L157.04 95.4059V95.8624L157.135 96.2574L157.474 96.528L157.759 96.611L160.287 96.2574L161.185 96.3936L161.924 96.7023L162.42 97.197L162.611 97.4975L162.737 97.8378L162.938 98.5665L163.171 100.085L164.115 103.766L164.125 104.264L164.019 104.874L163.597 105.864L163.27 106.359L162.94 106.709L160.817 107.926L160.574 108.181L160.374 108.492L159.73 109.952L157.814 112.867L157.17 114.073L156.514 115.523L156.42 115.932V116.375L156.715 116.943L156.989 117.3L157.296 117.59L158.48 118.447L158.67 118.779L158.724 119.205L158.407 120.427L157.731 122.442L157.593 122.741L157.371 123.002L157.054 123.151L156.262 123.251L156.019 123.523L155.998 124.033L156.283 124.813L156.654 125.178L157.382 125.621L157.593 125.887L157.731 126.141L157.806 126.345L157.837 126.478L157.827 126.788L157.753 127.314L157.14 129.406L156.982 129.771L156.781 130.082L156.539 130.331L156.232 130.492L155.852 130.517L154.633 130.243L154.285 130.254L154.021 130.434L153.895 130.757L153.936 131.127L154.232 131.504L155.267 132.132L155.513 132.367L155.563 132.713L155.352 133.149L155.141 133.495L154.834 133.722L154.476 133.822L152.943 133.993L152.764 134.308L152.796 134.778L153.239 135.593L153.662 135.867L154.074 135.941L154.433 135.845L157.055 134.74L157.425 134.648L160.324 134.54L160.716 134.648L161.043 134.823L161.58 135.292L162.415 136.391L162.573 136.695L162.764 136.982L162.937 137.289L163.113 137.563L163.36 138.058L163.803 141.021L164.691 143.255L164.892 144.935L165.209 145.518L165.548 145.789L166.361 145.734L166.805 145.789L167.22 145.901L167.515 146.114L167.737 146.373L167.907 146.687L168.72 148.657L169.311 149.773L169.512 150.043L169.754 150.297L170.093 150.473L170.875 150.749L171.111 151.343L171.217 152.312L170.853 156.507L170.941 157.729V158.169L170.895 158.622L170.853 159.995L170.875 160.363L170.973 160.71L171.111 161.051L171.301 161.331L171.544 161.578L171.818 161.809L172.769 162.375L173.043 162.601L173.2 163.112L173.317 163.818V165.244L173.602 165.818L173.781 166.354L173.803 166.816L173.2 167.891L172.757 168.35L172.336 168.665L170.05 169.231L169.88 169.307L169.68 169.439L169.489 169.741L169.363 170.182L169.353 170.913L169.469 171.875L170.398 175.803L170.345 176.06L170.176 176.389L169.764 176.865L169.542 177.309V177.983L169.668 178.416L169.826 178.804L173.738 185.277L173.864 185.614L173.928 185.977L173.717 186.563L173.327 187.252L171.806 188.93L171.341 189.302L169.489 190.258L169.183 190.559L168.813 191.078L168.38 192.106L167.281 193.608L166.951 193.952L166.69 194.159L166.37 194.317L165.355 194.681L165.07 194.87L164.256 195.662L163.792 196.012L161.58 197.044L159.105 198.917L158.778 199.026L158.43 199.06L157.839 198.957L157.543 199.06L157.173 199.327L156.708 200.059L156.338 200.408L155.927 200.577L155.088 200.495L154.73 200.507L154.403 200.622L153.875 201.042L153.674 201.389L153.568 201.835L153.768 202.748L153.969 203.249L154.328 203.98L154.381 204.528L154.359 205.24L154.096 206.619L153.905 207.338L153.714 207.907L153.196 208.91L152.826 209.498L152.339 210.105L152.265 210.348L152.328 210.563L153.236 210.716L154.092 210.695L155.638 210.411L156.008 210.399L156.356 210.47L156.567 210.705L156.652 211.134L156.673 211.684L156.61 212.53L156.526 213.102L156.325 213.596L156.039 213.975L155 214.469L154.642 214.79L154.419 215.05L154.228 216.584L152.527 216.541L151.805 216.89L151.572 217.157L151.362 217.446L149.154 219.534L148.466 219.949L147.861 220.137L146.72 220.065L143.784 220.391L142.955 220.711L142.437 221.07L142.331 221.483L142.256 221.91L142.193 222.852L142.056 223.385L141.76 223.561H141.39L140.027 223.325L132.773 223.828L127.896 223.06L125.318 223.266L123.888 222.94L123.266 222.647L122.854 222.374L122.569 222.114L122.39 221.836L122.305 221.534L122.39 221.209L122.58 220.923L123.246 220.125L123.437 219.821L123.563 219.506V219.185L123.457 218.875L122.537 217.429L122.421 217.097L122.336 216.744L122.273 216.365L122.126 215.889L121.83 215.396L120.549 214.446L120.243 214.169L120.18 213.985L120.17 213.679L120.255 213.326L120.393 212.955L120.763 212.325L124.041 208.153L124.063 207.808L123.893 207.375L121.95 205.914L121.727 205.701L121.526 205.439L120.967 204.589L119.823 202.136L119.76 201.933L119.697 201.639L119.675 201.262L119.729 200.384L119.697 199.974L119.612 199.609L119.506 199.26L119.421 198.9L119.4 198.523L119.463 198.147L119.642 197.576L119.473 197.136L119.134 196.571L117.982 195.487L117.624 194.895L117.517 194.407L117.634 194.025L117.707 193.645L117.59 193.218L117.28 193.002L116.878 192.859L112.532 192.275L112.046 192.363L111.76 192.652L111.528 193.455L111.243 194.221L111.073 194.564L110.872 194.876L110.345 195.349L109.749 195.701L108.1 196.357L107.224 196.945L106.981 197.194L106.78 197.491L105.967 199.136L105.383 200.628L105.225 200.964L105.034 201.214L104.865 201.384L104.686 201.515L104.02 201.558L98.8507 200.756L98.5021 200.768L98.1917 200.877L96.9882 201.565L95.9639 201.973L94.5164 202.287L94.1994 202.147L93.9537 201.913L93.7628 201.641L93.3611 201.276L91.618 200.27L90.974 200.109L84.9664 200.059L84.2377 200.185L84.0053 200.441L82.7271 202.688L82.3536 203.147L82.2158 203.291L81.107 203.699L79.6909 203.887L78.9158 203.875L78.3248 203.777L75.0928 202.288L74.3707 202.124L73.8328 202.119L72.5861 202.735L71.8989 202.969L65.3419 203.165L59.5668 204.811L57.3374 205.057L52.6645 204.335L46.6138 205.09L32.4855 200.987L32.0522 200.461L31.8614 200.177L31.7037 199.871L31.5874 199.523L31.4497 198.769L31.2273 198.07L30.5085 196.892L28.6343 194.456L28.2857 193.855L28.1911 193.512L28.1695 193.147L28.2442 192.77L28.3504 192.403L28.4135 191.993L28.382 191.634L28.1712 191.068L27.8857 190.763L27.5371 190.527L25.0188 189.603L24.564 189.163L24.3216 188.711L24.5325 186.381L24.6387 185.97L24.8495 185.692L25.1881 185.574L26.4066 185.461L26.7552 185.363L26.9876 185.177L27.0407 184.862L26.9992 184.503L26.9046 184.14L26.6506 183.469L24.735 179.95L24.5656 179.374L24.5242 178.965L24.7881 178.915L28.1927 179.425L28.6161 179.405L28.9862 179.326L29.3282 179.199L29.6137 179.007L29.8677 178.776L30.2794 178.195L30.5118 177.926L30.7658 177.702L31.0928 177.554L32.2332 177.33L32.4656 177.083L32.6034 176.716L32.688 176.261L32.7611 175.049L32.6548 174.1L32.4756 173.592L32.2332 173.225L31.9261 173.036L30.6263 172.505L30.1084 172.06L29.876 171.681L29.7913 171.294L29.8129 171.017L29.8544 170.694L29.9491 170.323L30.203 169.646L30.6047 168.919L31.5028 167.802L31.609 167.327L31.5028 167L31.2173 166.681L30.3723 165.913L30.203 165.494V165.078L30.3607 164.767L30.6363 164.545L31.2704 164.231L31.5443 163.941L31.7236 163.506L31.7335 162.664L31.6273 162.169L31.4795 161.754L30.6977 160.619L29.5888 159.382L29.0991 158.722L28.8767 158.237L28.7505 157.759V157.319L28.9829 154.816L28.9729 154.181L28.8568 153.212L28.6244 152.732L28.2542 152.462L27.8309 152.407L27.4408 152.462L27.1552 152.654L26.9644 152.971L26.6373 153.679L26.4365 153.981L26.1941 154.231L25.9933 154.525L25.5783 155.68L25.4239 156.022L25.213 156.298L24.9342 156.507L24.554 156.582L21.5079 156.276L21.1809 156.172L20.7477 155.934L20.6099 155.488L20.5568 154.15L20.409 153.703L20.2081 153.356L19.9343 153.142L19.6172 152.95L18.2643 152.548L17.6202 152.141L17.2567 151.643L16.8765 150.82L16.5064 150.511L16.1362 150.415L15.4174 150.599L14.9626 150.505L14.7202 150.262L14.604 149.95L14.6787 149.611L15.102 148.989L15.2929 148.572L15.1983 148.26L14.9758 148.001L14.3417 147.616L12.0991 145.88L9.22227 144.165L8.462 143.503L8.09181 143.056L7.83783 142.561L7.57389 141.328L7.37303 140.898L7.13068 140.561L6.4866 140.191L4.60248 139.854L4.07461 139.683L3.47202 139.296L3.17655 138.931L3.01885 138.533L3.00889 138.113L3.06201 137.673L4.39333 132.709L4.54108 132.328L4.71038 131.987L4.91125 131.677L5.13369 131.4L5.63002 130.91L6.17284 130.478L7.71498 129.643L7.98889 129.408L8.17978 129.145L8.22129 128.78L7.96731 128.584L7.60875 128.423L6.26415 128.095L5.7894 127.875L5.20839 127.477L4.88136 126.967L4.59584 126.362L4.21572 125.367L3.79241 124.952L2.79972 124.215L1.87676 122.927L1.52817 122.554L0.567017 122.004L2.96905 119.172L3.5185 117.52L3.37078 117.135L3.14833 116.866L2.87442 116.636L1.56136 115.917L1.20281 115.598L0.885739 115.135L0.590269 114.22L0.580315 113.712L0.65334 113.332L0.769552 113.143L1.23435 112.032L1.87843 110.017L2.13241 109.523L3.49859 107.884L4.05802 106.911L5.62172 102.781L5.87572 101.714L5.98195 100.929L5.9089 100.555L5.69808 99.8314L5.4242 99.1525L5.25487 98.8321L3.89201 96.7671L3.22635 95.5055L3.08858 95.1735L2.95079 94.6688L2.82462 94.0231L2.68353 92.8528L2.6769 92.1224L2.73997 91.5347L3.73266 86.3223L3.83889 85.1952L3.81731 84.425L3.50024 83.7825L2.62044 82.6206L2.40134 82.2354L2.1872 81.666L2.31666 81.3423L3.01386 80.9954L3.33093 80.6999L3.59487 80.0691L3.57329 79.6558L3.40396 79.3039L2.88604 78.8175L2.64037 78.449L2.44283 77.9343L2.34488 76.9234L2.25027 76.3258L2.11248 75.8527L1.3937 74.5463L0.970416 73.5569L1.01191 73.215L1.07498 73.0141L1.48666 72.5858L1.53977 72.5161L2.21542 70.3283L2.44118 69.8867L2.67358 69.6244L2.96905 69.4318L3.29608 69.2808L5.9471 68.6683L7.53572 67.8449L7.88431 67.4614L8.2545 66.887L9.02639 64.91L9.29033 64.412L9.52273 64.1364L10.273 63.4077L10.5619 63.0425L10.869 62.5711L11.2923 61.7527L11.4616 60.9476L11.6309 58.5555L11.7372 57.7637L11.875 57.1777L12.0443 56.8573L12.6153 56.0456L12.8377 55.7767L13.1017 55.5376L13.3972 55.0795L13.6927 54.4105L14.5625 51.7196L14.7534 51.3959L14.9758 51.1121L15.2298 50.8697L16.762 49.9567L17.1322 49.5766L17.5123 49.0205L18.0751 47.8286L18.2975 47.0982L18.3921 46.4823V46.0408L18.3191 45.3104L18.2659 45.0929L18.1597 44.814L15.9702 40.2291L15.8639 39.7477L15.9801 39.4091L16.2341 39.1833L20.0405 38.3135L20.3675 38.1525L20.6414 37.9433L21.3287 37.188L21.5611 36.8211L21.7868 36.3929L22.1885 35.3902L22.3147 34.7644V34.2349L22.1553 33.9128L21.9644 33.629L20.8838 32.6595L20.746 31.7648L20.7676 30.3604L21.4681 25.5331L21.6872 24.6749L21.913 24.4724L22.2201 24.3645L22.6002 24.416L22.9073 24.5853L23.1497 24.8426L23.3721 25.1165L23.7307 25.7207L24.0046 26.4063L24.1307 26.7765L24.3216 27.0935L24.5325 27.3824L27.2399 29.7595L27.5786 29.9487L27.9371 30.0417L28.3704 29.962L28.5497 29.6201L28.6443 29.1968L28.6028 28.7818L28.4966 28.4182L28.3488 28.0829L27.957 27.4903L26.9527 26.4793L26.7735 25.8635L26.7004 24.9256L26.9644 22.8041L27.1652 21.8297L27.3976 21.1707L27.64 20.9532L28.2642 20.6229L28.9929 20.4021L30.613 19.5903L32.8574 19.2218Z" fill="#000E40" stroke="#000E40" stroke-linecap="round" stroke-linejoin="round"/>
</svg>
