<svg width="1230" height="822" viewBox="0 0 1230 822" fill="none" xmlns="http://www.w3.org/2000/svg">
<path d="M598 180C606.667 188.833 618.8 212.4 598 236" stroke="#3DEE20" stroke-opacity="0.7" stroke-width="5" stroke-linecap="round"/>
<path d="M685 543.5C693.667 549.667 704.8 567.2 680 588" stroke="#3DEE20" stroke-opacity="0.7" stroke-width="5" stroke-linecap="round"/>
<path d="M1040 560.5C1040.17 544.5 1044.7 521 1061.5 555" stroke="#3DEE20" stroke-opacity="0.7" stroke-width="5" stroke-linecap="round"/>
<path d="M890 508.5C898.833 495.5 925.7 477.3 962.5 508.5" stroke="#3DEE20" stroke-opacity="0.7" stroke-width="9" stroke-linecap="round"/>
<path d="M1017.5 502.5C1007 479.667 995.4 432.5 1033 426.5C1080 419 1119 391.5 1115.5 362" stroke="#3DEE20" stroke-opacity="0.7" stroke-width="9" stroke-linecap="round"/>
<path d="M965 248C981.333 244.333 1010.8 247.1 998 287.5" stroke="#3DEE20" stroke-opacity="0.7" stroke-width="5" stroke-linecap="round"/>
<path d="M873.5 192C883.833 192.167 903.7 199.6 900.5 228" stroke="#3DEE20" stroke-opacity="0.7" stroke-width="5" stroke-linecap="round"/>
<path d="M843 150.5C858.833 145.5 888.1 143.7 878.5 176.5" stroke="#3DEE20" stroke-opacity="0.7" stroke-width="5" stroke-linecap="round"/>
<path d="M605 91.0001C609.5 79.8334 621.8 64.2001 635 91.0001" stroke="#3DEE20" stroke-opacity="0.7" stroke-width="5" stroke-linecap="round"/>
<path d="M134 111.072C145.851 93.1333 185.577 59.7761 249.674 69.8608C329.794 82.4667 414.922 145.011 467 139.678" stroke="#3DEE20" stroke-opacity="0.7" stroke-width="9" stroke-linecap="round"/>
<path d="M564.5 180.5C552 185.167 532.6 202.9 555 236.5" stroke="#3DEE20" stroke-opacity="0.7" stroke-width="5" stroke-linecap="round"/>
</svg>
