<svg width="203" height="221" viewBox="0 0 203 221" fill="none" xmlns="http://www.w3.org/2000/svg">
<path d="M54 177.5L43 179.5L41.5 180.5L43.5 182C43.6667 181.667 44.1 181 44.5 181C45 181 50.5 179.5 51 179.5C51.4 179.5 53.8333 179.167 55 179C57.1667 179.833 61.9 181.4 63.5 181C65.5 180.5 73 180 75.5 179.5C78 179 80 178 80.5 177.5L85.5 172.5L89.5 170L88 169C84.6667 171.833 77.7 177.5 76.5 177.5C75 177.5 64.5 179.5 63 179.5C61.8 179.5 56.5 178.167 54 177.5Z" fill="#FF0000" fill-opacity="0.4"/>
<path d="M162 159.5L142 161L149 155L159.5 151L162 147.5L156.5 139L149 137.5L127 139L144 132L152.5 126.5L167.5 117L156.5 113L142 119.5L136 109.5L144 109L147.5 99L140 88L137 70.5L123 63L113.5 77L102 63L97.5 52.5V40H109L123 35C124.167 31.1667 126.6 23.2 127 22C127.5 20.5 137 14.5 138.5 14.5H156.5L142 88L162 91.5L178.5 96L174.5 104.5C173.333 106.333 171 110.6 171 113C171 116 174.5 121 172.5 123C170.9 124.6 168.5 129.667 167.5 132L174.5 143L180.5 151L178.5 159.5H162Z" fill="#FF0000" fill-opacity="0.4"/>
<path d="M29 87.5L10.5 75.5L37.5 67L39.5 49L32 34H35L42.5 49L41.5 68.5L56.5 69.5L62.5 63V52L58 41.5L52 37L54.5 32L59.5 29L66.5 32L62.5 41.5L65 52L87 39L82.5 30L93 41.5L90 52L96.5 58L80 87.5L60.5 89L42.5 81L32 104.5L42.5 110.5L32 125L33.5 120.5L29 115.5H13V110.5V103L26 98L29 87.5Z" fill="#FF0000" fill-opacity="0.4"/>
</svg>
