<svg width="172" height="241" viewBox="0 0 172 241" fill="none" xmlns="http://www.w3.org/2000/svg">
<path d="M95.5 197.5L93.5 219.5H99.5H106.5L108.5 223.5H112.5C113.5 223.5 114.5 221 114.5 219.5V216.5C114.5 215.333 115 212.6 117 211C119.5 209 117 207.5 121.5 204C124.5 203 121.5 201.5 121.5 199C121.5 197 119.5 198.167 118.5 199C117 198.833 114.1 198.3 114.5 197.5C115 196.5 114.5 195 114.5 192.5C114.5 190 116 190 117 188C118 186 118.5 183 118.5 180.5V174C118.5 172.5 121.5 168.5 128 167H135.5C137 167 138.5 163 139.5 161.5C140.3 160.3 143.167 161 144.5 161.5C146.833 161.167 151.6 160.2 152 159C152.5 157.5 153.5 153.5 154.5 150.5C155.5 147.5 156.5 145.5 157 143.5C157.4 141.9 160.167 141.167 161.5 141H168.5V135L165.5 127.5L152 118.5L144.5 108L132 92L126 86C124.833 88.8333 122.3 94.8 121.5 96C120.7 97.2 116.5 95.5 114.5 94.5L108.5 90H101H93.5V103.5C89.3333 106.167 80.8 111.7 80 112.5C79.2 113.3 70 114.167 65.5 114.5L54 118.5C52.8333 121.667 50.5 128.3 50.5 129.5V141L56.5 143.5C59.5 146.5 65.8 152.7 67 153.5C68.2 154.3 67.5 159.167 67 161.5L65.5 167L70.5 170.5L74.5 168.5L84 178.5L93.5 188L95.5 197.5Z" fill="#FF0000" fill-opacity="0.4"/>
<path d="M41.5 224.5L34 221L51 214L51.5 211.5V205.5C53 204.5 56 202.4 56 202C56 201.5 61 198 61.5 197.5L65 194V188.5L60 178L56 167L53 159.5L41.5 158.5V155.5C45.1667 156.167 52.5 157.3 52.5 156.5C52.5 155.5 54.5 151.5 55 150C55.4 148.8 55.8333 148.5 56 148.5L55 143.5L58 146L66 151.5L66.5 156.5L66 164.5L74 169L81.5 175.5L92 185L95.5 198.5L94 219.5L88.5 222.5C84.5 222.167 76.4 221.4 76 221C75.5 220.5 77 219.5 77.5 219.5C77.9 219.5 79.6667 217.5 80.5 216.5L83 212.5L82 207.5L80 201L69.5 197.5L64.5 199.5L60 209H57L52.5 213.5L61 217.5C57.6667 221 50.9 228.1 50.5 228.5C50.1 228.9 47.6667 232.667 46.5 234.5L40.5 237.5L37 241L34 238.5L36 235L41.5 230.5V224.5Z" fill="#FF0000" fill-opacity="0.4"/>
</svg>
