<svg width="221" height="199" viewBox="0 0 221 199" fill="none" xmlns="http://www.w3.org/2000/svg">
<path d="M94 22V12.5L91 11V15V20L96 26H101.5L106 31.5L113 35.5L117 40L121.5 47L125 53L129 60.5L134 62.5V66L137 73.5V60.5L132 58.5L126.5 52L125 45.5L114 34.5L109 30.5L105 24.5C105 23.6667 105.2 21.6 106 20C106.8 18.4 107 17.6667 107 17.5C107 15.8333 106.8 12.5 106 12.5C105.2 12.5 105 14.1667 105 15L103 24.5H97L94 22Z" fill="#FF0000" fill-opacity="0.4"/>
<path d="M164 12.5L179 9L180.5 10L166.5 13.5L153 17.5L140.5 18.5L138.5 25.5L143 33V40.5L140 43.5L133 46.5L128 48.5H125.5V46.5H126.5L134 44L141.5 39.5V34L137.051 27V21.5L138.5 18L137.051 12.5H138.5L141.5 15.5H153.5L164 12.5Z" fill="#FF0000" fill-opacity="0.4"/>
<path d="M146.5 54.5L139 45.5V43.5C139.667 44.1667 141.1 45.8 141.5 47C142 48.5 149.5 53 149.5 54.5C149.5 56 153 59.5 154 61C154.8 62.2 157.667 62.8333 159 63C160.667 62.8333 164.2 62.4 165 62C165.8 61.6 164.667 59.1667 164 58L165 53L167.5 49L165 47L165.5 42L167.5 37C168.833 37 171.7 36.8 172.5 36C173.5 35 174.5 35 174.5 33.5C174.5 32.3 177.833 32.3333 179.5 32.5H182C183.833 31.8333 187.7 30.5 188.5 30.5H192.5L193.5 33.5H187.5C186.7 33.5 182.833 34.5 181 35L175.5 37V41.5L182 42L188.5 43.5C190.333 43.8333 194.3 44.7 195.5 45.5C197 46.5 201 45.5 203.5 45.5C205.5 45.5 207 44.8333 207.5 44.5H210L208.5 47.5C206.833 47.8333 203.2 48.3 202 47.5C200.5 46.5 194.5 47.5 192.5 47.5C190.5 47.5 185 44.5 184 44.5C183 44.5 176 43.5 174.5 43.5C173.3 43.5 176 48.1667 177.5 50.5L189.5 54.5V57C190.5 60 192.5 66.4 192.5 68C192.5 69.6 194.5 78.6667 195.5 83L188.5 87.5H176C174.5 87.5 150.5 88.5 149.5 88.5C148.5 88.5 144.5 78.5 144.5 77C144.5 75.8 147.833 73.5 149.5 72.5V59.5L146.5 54.5Z" fill="#FF0000" fill-opacity="0.4"/>
<path d="M212 88L195 82.5L194 84L212.5 89.5L212 88Z" fill="#FF0000" fill-opacity="0.4"/>
<path d="M144 96L149.5 88H152L146 96L144 104L165.5 106L180.5 107.5V110L166 107.5L170.5 116.5L180.5 122L179 123L169 117.5L164 107.5L144 105.5V115.5L146 123H144L142.5 115.5V105.5L144 96Z" fill="#FF0000" fill-opacity="0.4"/>
</svg>
