<svg width="257" height="186" viewBox="0 0 257 186" fill="none" xmlns="http://www.w3.org/2000/svg">
<path d="M142.5 87L82.5 98H81V106.5L107.5 116L102.5 133.5L114 140.5L145 160L193.5 153.5L234 185.5L238 183.5C234.333 175.5 227 159.2 227 158V143L243.5 131.5C244.167 129.167 245.5 124.1 245.5 122.5C245.5 120.5 240 107.5 239.5 106.5C239 105.5 222.5 95 220.5 94C218.9 93.2 219.833 83 220.5 78L211.5 80.5L142.5 87Z" fill="#FF0000" fill-opacity="0.4"/>
<path d="M59.5 90.5V96L73.5 98.1875C77.5 98.7917 85.7 100 86.5 100C87.5 100 96 93.5 97.5 92C99 90.5 105.5 87 106.5 85.5C107.5 84 115 82 116.5 80C117.7 78.4 123 75 125.5 73.5L123 67C119.167 71.6667 111.3 81 110.5 81C109.7 81 104.833 83 102.5 84H92.5V75L87.5 76.5L89.5 85.5L82.5 80L73.5 81C71 84.1667 65.7 90.5 64.5 90.5C63 90.5 59 84.5 57.5 84C56.3 83.6 50.6667 84.8333 48 85.5L37.5 95L42 98.5L45 93.5L50.5 87L59.5 90.5Z" fill="#FF0000" fill-opacity="0.4"/>
</svg>
