<svg width="283" height="179" viewBox="0 0 283 179" fill="none" xmlns="http://www.w3.org/2000/svg">
<path d="M13.5 65.5C16 64.5 21.2 62.5 22 62.5V60.5C24.8333 59 31.2 55.6 34 54C37.5 52 41 45.5 41 44.5C41 43.7 51 42.8333 56 42.5L74 23.5H91C101.333 22.8333 122.4 21.2 124 20C125.6 18.8 141.333 19.5 149 20L166.5 18.5L169 28L173 39.5L180.5 54L187.5 68.5L199.5 82.5H207.5L220.5 81L223.5 74L231.5 70.5C232.667 72.6667 235.4 77 237 77C238.6 77 240.667 75 241.5 74C244 73.3333 249.3 71.7 250.5 70.5C251.7 69.3 259 70 262.5 70.5L272 72L282 74L283 82.5V88.5L278 91C277.167 91.6667 275.3 93.1 274.5 93.5C273.7 93.9 273.167 99.3333 273 102L279.5 110.5L271 116.5L261.5 119.5H251.5L235 123L225 119.5C222.5 117.833 217.2 114.2 216 113C214.5 111.5 210 113.5 207.5 114.5C205 115.5 202 125 201 125C200.2 125 196 126.667 194 127.5L187.5 132.5L180.5 139.5C178.5 140.667 174.2 143 173 143H164.5H153C151.5 143 143.5 146 142.5 146.5C141.5 147 136 154 135.5 155.5C135.1 156.7 131 162.333 129 165L116.5 174L110.5 177.5H89L79.5 175.5L68.5 169.5C64.3333 167 56 161.5 56 159.5C56 157 58.5 157.5 61.5 157C64.5 156.5 64.5 155 68.5 154C72.5 153 70.5 152 70.5 150V143C70.5 140 71.5 138 72.5 136C73.5 134 73.5 134 73.5 132.5C73.5 131 75 128.5 75 125C75 121.5 74.5 120 73.5 116.5C72.5 113 72.5 114 70.5 110.5C68.5 107 69 107 67 105.5C65 104 63 105.5 61.5 105.5H53C49 105.5 49.5 104 46.5 102C43.5 100 43.5 98.5 41 96C38.5 93.5 37 91.5 34 89C31 86.5 29 86.5 26.5 86.5H17.5C16 86.5 11.5 90.5 10.5 90.5C9.7 90.5 7.16667 89.5 6 89L0 84V76L6 70L13.5 65.5Z" fill="#FF0000" fill-opacity="0.4"/>
</svg>
