<svg width="196" height="248" viewBox="0 0 196 248" fill="none" xmlns="http://www.w3.org/2000/svg">
<path d="M80 22.5L84 35L77 40.5L80 61L85 76L69.5 79.5L59.5 90.5L52.5 117L44.5 115.5L41 100L39.5 92L38.5 85L30.5 76L15.5 69L11.5 59L13.5 48L0 35L4 25.5L8.5 14.5L15.5 6L24.5 0L37.5 3.5L51 0L63 3.5L71 13.5L80 22.5Z" fill="#FF0000" fill-opacity="0.4"/>
<path d="M122.5 86.5L116 93H118L119.5 91.5C120.5 90.8333 122.5 89.3 122.5 88.5C122.5 87.5 125 87.5 126 86.5C126.8 85.7 128 85.5 128.5 85.5L126 84L122.5 86.5Z" fill="#FF0000" fill-opacity="0.4"/>
</svg>
