<svg width="158" height="234" viewBox="0 0 158 234" fill="none" xmlns="http://www.w3.org/2000/svg">
<path d="M109.5 233L81 229.5C77.1667 226.167 69.5 219.3 69.5 218.5C69.5 217.5 64 211 62 209C60 207 53.5 199 52.5 197.5C51.5 196 43 187 43 184.5C43 182.5 38.3333 178 36 176L33.5 167C34 165.833 35 163.2 35 162C35 160.8 35.6667 157.5 36 156L38 150.5L39 149.5L43 145L52.5 140.5C54 140 57.3 139 58.5 139H69.5L71.5 140.5L75 142.5L77.5 148C79.5 148.5 83.7 149.5 84.5 149.5C85.3 149.5 85.5 148.5 85.5 148L88 140.5L95 134H102.5C104 135.833 107.2 139.7 108 140.5C108.8 141.3 109.333 145.167 109.5 147L123 153.5L132.5 154.5L134.5 156C135.333 157.333 137 160.2 137 161C137 162 138.5 168.5 140 170C141.5 171.5 138.5 178 137 179C135.8 179.8 136.5 183 137 184.5H146.5V190L138.5 202L132.5 212.5L128 233H109.5Z" fill="#FF0000" fill-opacity="0.4"/>
<path d="M29 61L7.5 51L9.5 49L33 61L116.5 91.5L128.5 89V71.5L111.5 63L93.5 55.5L81 47.5V45.5L87 47.5L97.5 55.5L114 61L122.5 49H125L116.5 61L131 70.5L150 69.5L152.5 70.5L147 71.5H139.5L131 74.5V89L148.5 83L156 81.5V83L151.5 86L139.5 89L120.5 95L116.5 109.5L110.5 127.5L106 135L103.5 132.5L109 124L114 108L116.5 95L83.5 83L92 108L97.5 127.5L99.5 132.5H97.5L93.5 127.5L89 104.5L81 83L68.5 93L60.5 104.5L59 103L67 89L81 81.5L31 64L19 69.5H3V66.5H19L29 61Z" fill="#FF0000" fill-opacity="0.4"/>
</svg>
