<svg width="200" height="180" viewBox="0 0 200 180" fill="none" xmlns="http://www.w3.org/2000/svg">
<path d="M131.5 123C129.833 126.5 126.2 133.7 125 134.5L122 138L138 150.5L139.5 147.5L125 137.5C126.333 135.833 129.1 132.3 129.5 131.5C130 130.5 134.5 125 135.5 124C136.5 123 140.5 125 141.5 125C142.3 125 149.167 127 152.5 128L150.5 123.5L143 121H132.5L129.5 108L110.5 103.5L92 84.4999L89.5 85.9999C95.8333 92.3333 108.5 105.2 108.5 106C108.5 107 115 108 116 108C116.8 108 124 110 127.5 111L131.5 123Z" fill="#FF0000" fill-opacity="0.4"/>
</svg>
