<svg width="189" height="245" viewBox="0 0 189 245" fill="none" xmlns="http://www.w3.org/2000/svg">
<path d="M168 212C168.8 212.4 176 211.833 179.5 211.5L178.5 210.5H171.5H164L160 211.5L153 215L142 220.5H137L135.5 216L133.5 205.5L135.5 206C137.333 206.333 141.4 207 143 207C144.6 207 147 207.667 148 208L150 209.5L148 213.5C147.6 214.3 147.833 215.5 148 216L150 214L151 210.5V207H154.5L156.5 208L160 207L162 206V204C160.833 204.5 158.4 205.6 158 206C157.5 206.5 153.5 206 153 205.5C152.6 205.1 148.833 205.333 147 205.5H141L133.5 203.5L135.5 198.5L142 195.5L147 195L153 193H157.5L162 194L163 200.5L164 207L166.5 208.5L168 208L165.5 205.5V200.5C165.5 199.5 164.5 196 164 195C163.6 194.2 161.167 192.333 160 191.5L153 191C150.667 192 145.8 194 145 194C144 194 136.5 197 135.5 197C134.7 197 132.5 201.667 131.5 204L133 212C133.833 215 135.5 221.2 135.5 222C135.5 223 142.5 222.5 143.5 222C144.5 221.5 153 217 156 215C158.4 213.4 161 212.333 162 212C163.667 211.833 167.2 211.6 168 212Z" fill="#FF0000" fill-opacity="0.4"/>
<path d="M25.4999 97.5L11.4999 95.5C7.99986 107.167 0.899858 130.7 0.499858 131.5C0.0998581 132.3 11.6665 145.5 17.4999 152L24.9999 127L26.9999 99.5L61.4999 72.5L95.4999 57L93.9999 55.5L60.4999 71L25.4999 97.5Z" fill="#FF0000" fill-opacity="0.4"/>
<path d="M34 150L24.5 128V118.5L41.5 113.5L42 110V93L39.5 90.5L41 89.5L43.5 93V110L49 112.5L54 121.5H51L47 114L25.5 121.5L64 125.5L83 128L113.5 140.5L121.5 147L119 149L111.5 142.5L81.5 129.5L64 128L25.5 124L48 136.5L92.5 152L115 155.5L148 132L149 135C147.5 136.167 144.4 138.5 144 138.5C143.6 138.5 133.833 146.167 129 150L115.5 159C107.5 157.5 91.3 154.5 90.5 154.5C89.7 154.5 61.8333 143.833 48 138.5L25.5 126.5L35 149L42 165.5L41 166L34 150Z" fill="#FF0000" fill-opacity="0.4"/>
</svg>
