<svg width="205" height="188" viewBox="0 0 205 188" fill="none" xmlns="http://www.w3.org/2000/svg">
<path d="M59 170.5V184.5L84.5 170.5L116.5 151.5L135 150C138.167 149.333 144.8 148 146 148C147.5 148 151.5 143.5 152.5 142.5C153.3 141.7 155.833 140.167 157 139.5L163.5 136L170.5 138.5L175.5 143.5L174.5 151.5C175.167 150.333 176.6 147.7 177 146.5C177.5 145 181.5 137 182 136C182.4 135.2 184.167 133 185 132L194 124.5C194 123.667 194.2 121.9 195 121.5C196 121 196.5 120 197.5 118.5C198.3 117.3 199.5 115.667 200 115V111L197.5 108L194 109H188.5L164.5 118.5L141.5 124.5H116.5L102.5 120L109 109L131 104L126 96.5001L146 92.5001L159 81.0001L130.5 90.5001C123.333 93.3334 108.8 99.1001 108 99.5001C107.2 99.9001 102.333 104 100 106L83 123V104.5L68.5 79.0001L64.5 73.5001L50 61.0001H41.5L27 57.5001L11 64.5001V69.5001L27 82.0001L45.5 83.5001L59 79.0001L70 92.5001L73.5 132L36.5 134.5C35.3333 137.167 33 142.7 33 143.5C33 144.5 36 147 36.5 148C36.9 148.8 35.6667 153 35 155L41.5 158C45.3333 159.333 53.2 162 54 162C54.8 162 57.6667 167.667 59 170.5Z" fill="#FF0000" fill-opacity="0.4"/>
</svg>
