<svg width="38" height="38" viewBox="0 0 38 38" fill="none" xmlns="http://www.w3.org/2000/svg">
<path d="M19.0002 36.9447C20.7491 36.9447 22.1668 35.5269 22.1668 33.778C22.1668 32.0291 20.7491 30.6113 19.0002 30.6113C17.2513 30.6113 15.8335 32.0291 15.8335 33.778C15.8335 35.5269 17.2513 36.9447 19.0002 36.9447Z" fill="black"/>
<path d="M22.1668 25.3335C22.1668 26.1734 21.8332 26.9789 21.2393 27.5727C20.6455 28.1666 19.84 28.5002 19.0002 28.5002C18.1603 28.5002 17.3549 28.1666 16.761 27.5727C16.1671 26.9789 15.8335 26.1734 15.8335 25.3335V5.27799C15.8335 4.43814 16.1671 3.63269 16.761 3.03882C17.3549 2.44496 18.1603 2.11133 19.0002 2.11133C19.84 2.11133 20.6455 2.44496 21.2393 3.03882C21.8332 3.63269 22.1668 4.43814 22.1668 5.27799V25.3335Z" fill="black"/>
</svg>
