<svg width="36" height="32" viewBox="0 0 36 32" fill="none" xmlns="http://www.w3.org/2000/svg">
<path d="M33.7896 10.9422L31.3272 3.64622C30.97 2.58397 30.2829 1.65991 29.3636 1.00535C28.4443 0.350784 27.3395 -0.000992366 26.2062 2.10271e-06H9.7938C8.6605 -0.000992366 7.55571 0.350784 6.63639 1.00535C5.71708 1.65991 5.03001 2.58397 4.6728 3.64622L2.2104 10.9422C1.5556 11.2128 0.996409 11.6686 0.60312 12.2522C0.209832 12.8358 -8.6562e-07 13.5212 0 14.2222V23.1111C0 24.4231 0.7272 25.5573 1.8 26.1742V30.2222C1.8 30.6937 1.98964 31.1459 2.32721 31.4793C2.66477 31.8127 3.12261 32 3.6 32H5.4C5.87739 32 6.33523 31.8127 6.67279 31.4793C7.01036 31.1459 7.2 30.6937 7.2 30.2222V26.6667H28.8V30.2222C28.8 30.6937 28.9896 31.1459 29.3272 31.4793C29.6648 31.8127 30.1226 32 30.6 32H32.4C32.8774 32 33.3352 31.8127 33.6728 31.4793C34.0104 31.1459 34.2 30.6937 34.2 30.2222V26.1742C34.7461 25.8649 35.2 25.4189 35.516 24.8811C35.832 24.3434 35.999 23.7329 36 23.1111V14.2222C36 13.5212 35.7902 12.8358 35.3969 12.2522C35.0036 11.6686 34.4444 11.2128 33.7896 10.9422ZM9.7938 3.55556H26.2044C26.9802 3.55556 27.6678 4.04267 27.9126 4.77156L29.9034 10.6667H6.0966L8.0856 4.77156C8.20503 4.41741 8.43429 4.10938 8.74089 3.89113C9.04749 3.67287 9.41586 3.55547 9.7938 3.55556ZM6.3 21.3333C5.94531 21.3332 5.59412 21.2641 5.26648 21.1299C4.93884 20.9958 4.64116 20.7992 4.39044 20.5514C4.13972 20.3036 3.94087 20.0095 3.80525 19.6858C3.66963 19.3621 3.59988 19.0152 3.6 18.6649C3.60012 18.3146 3.6701 17.9677 3.80594 17.6441C3.94178 17.3205 4.14083 17.0265 4.39171 16.7789C4.6426 16.5313 4.94041 16.3349 5.26814 16.2009C5.59588 16.067 5.94711 15.9981 6.3018 15.9982C7.01812 15.9985 7.70501 16.2797 8.21136 16.7802C8.71771 17.2806 9.00204 17.9592 9.0018 18.6667C9.00156 19.3741 8.71677 20.0526 8.21009 20.5527C7.7034 21.0527 7.01632 21.3336 6.3 21.3333ZM29.7 21.3333C29.3453 21.3332 28.9941 21.2641 28.6665 21.1299C28.3388 20.9958 28.0412 20.7992 27.7904 20.5514C27.5397 20.3036 27.3409 20.0095 27.2052 19.6858C27.0696 19.3621 26.9999 19.0152 27 18.6649C27.0001 18.3146 27.0701 17.9677 27.2059 17.6441C27.3418 17.3205 27.5408 17.0265 27.7917 16.7789C28.0426 16.5313 28.3404 16.3349 28.6681 16.2009C28.9959 16.067 29.3471 15.9981 29.7018 15.9982C30.4181 15.9985 31.105 16.2797 31.6114 16.7802C32.1177 17.2806 32.402 17.9592 32.4018 18.6667C32.4016 19.3741 32.1168 20.0526 31.6101 20.5527C31.1034 21.0527 30.4163 21.3336 29.7 21.3333Z" fill="black"/>
</svg>
