<svg width="87" height="33" viewBox="0 0 87 33" fill="none" xmlns="http://www.w3.org/2000/svg">
<mask id="path-1-inside-1_396_908" fill="white">
<path d="M20.9294 13C22.6253 13 24.0385 11.6034 23.6093 9.9628C23.3613 9.01504 22.9973 8.09749 22.5227 7.23168C21.5534 5.46356 20.1543 3.96818 18.4544 2.88365C16.7546 1.79911 14.8088 1.1604 12.7969 1.02649C10.785 0.892584 8.77181 1.2678 6.94323 2.11749C5.11464 2.96718 3.52965 4.26394 2.33462 5.88801C1.1396 7.51208 0.373074 9.41109 0.10585 11.4097C-0.161375 13.4082 0.0793143 15.4419 0.805688 17.3229C1.16138 18.244 1.62792 19.1139 2.19241 19.9146C3.16957 21.3006 5.14832 21.121 6.24187 19.8249L6.32744 19.7234C7.37373 18.4833 7.11901 16.6242 6.5345 15.1106V15.1106C6.17986 14.1922 6.06235 13.1993 6.19282 12.2235C6.32328 11.2478 6.69753 10.3206 7.28099 9.52765C7.86445 8.73472 8.6383 8.10159 9.53109 7.68674C10.4239 7.27189 11.4068 7.08869 12.3891 7.15407C13.3714 7.21945 14.3214 7.53129 15.1513 8.0608C15.9812 8.59031 16.6643 9.32042 17.1376 10.1837V10.1837C17.9175 11.6065 19.1742 13 20.7967 13H20.9294Z"/>
</mask>
<path d="M20.9294 13C22.6253 13 24.0385 11.6034 23.6093 9.9628C23.3613 9.01504 22.9973 8.09749 22.5227 7.23168C21.5534 5.46356 20.1543 3.96818 18.4544 2.88365C16.7546 1.79911 14.8088 1.1604 12.7969 1.02649C10.785 0.892584 8.77181 1.2678 6.94323 2.11749C5.11464 2.96718 3.52965 4.26394 2.33462 5.88801C1.1396 7.51208 0.373074 9.41109 0.10585 11.4097C-0.161375 13.4082 0.0793143 15.4419 0.805688 17.3229C1.16138 18.244 1.62792 19.1139 2.19241 19.9146C3.16957 21.3006 5.14832 21.121 6.24187 19.8249L6.32744 19.7234C7.37373 18.4833 7.11901 16.6242 6.5345 15.1106V15.1106C6.17986 14.1922 6.06235 13.1993 6.19282 12.2235C6.32328 11.2478 6.69753 10.3206 7.28099 9.52765C7.86445 8.73472 8.6383 8.10159 9.53109 7.68674C10.4239 7.27189 11.4068 7.08869 12.3891 7.15407C13.3714 7.21945 14.3214 7.53129 15.1513 8.0608C15.9812 8.59031 16.6643 9.32042 17.1376 10.1837V10.1837C17.9175 11.6065 19.1742 13 20.7967 13H20.9294Z" stroke="#232323" stroke-width="12" mask="url(#path-1-inside-1_396_908)"/>
<mask id="path-2-inside-2_396_908" fill="white">
<path d="M22 21C23.1046 21 24.017 21.9015 23.8337 22.9908C23.6094 24.3244 23.1604 25.6153 22.5013 26.8071C21.5183 28.5848 20.1001 30.0838 18.3796 31.1637C16.6591 32.2436 14.6926 32.8691 12.6643 32.9816C10.6361 33.0941 8.6125 32.6898 6.78315 31.8067C4.9538 30.9236 3.37857 29.5905 2.20505 27.9325C1.03153 26.2744 0.298126 24.3455 0.0735558 22.3266C-0.151014 20.3077 0.1406 18.2649 0.921076 16.3894C1.44434 15.132 2.17587 13.9775 3.08054 12.9723C3.81946 12.1513 5.09288 12.305 5.77993 13.1699L7.29848 15.0815C7.98553 15.9464 7.79904 17.196 7.23143 18.1436C7.09344 18.374 6.97189 18.6148 6.86804 18.8643C6.50651 19.733 6.37143 20.6793 6.47545 21.6145C6.57948 22.5497 6.9192 23.4432 7.4628 24.2112C8.0064 24.9793 8.73607 25.5968 9.58346 26.0059C10.4308 26.4149 11.3682 26.6022 12.3077 26.5501C13.2472 26.498 14.1582 26.2083 14.9551 25.708C15.7521 25.2078 16.409 24.5134 16.8644 23.69C16.9952 23.4534 17.1081 23.2085 17.2027 22.9571C17.5916 21.9233 18.4541 21 19.5586 21H22Z"/>
</mask>
<path d="M22 21C23.1046 21 24.017 21.9015 23.8337 22.9908C23.6094 24.3244 23.1604 25.6153 22.5013 26.8071C21.5183 28.5848 20.1001 30.0838 18.3796 31.1637C16.6591 32.2436 14.6926 32.8691 12.6643 32.9816C10.6361 33.0941 8.6125 32.6898 6.78315 31.8067C4.9538 30.9236 3.37857 29.5905 2.20505 27.9325C1.03153 26.2744 0.298126 24.3455 0.0735558 22.3266C-0.151014 20.3077 0.1406 18.2649 0.921076 16.3894C1.44434 15.132 2.17587 13.9775 3.08054 12.9723C3.81946 12.1513 5.09288 12.305 5.77993 13.1699L7.29848 15.0815C7.98553 15.9464 7.79904 17.196 7.23143 18.1436C7.09344 18.374 6.97189 18.6148 6.86804 18.8643C6.50651 19.733 6.37143 20.6793 6.47545 21.6145C6.57948 22.5497 6.9192 23.4432 7.4628 24.2112C8.0064 24.9793 8.73607 25.5968 9.58346 26.0059C10.4308 26.4149 11.3682 26.6022 12.3077 26.5501C13.2472 26.498 14.1582 26.2083 14.9551 25.708C15.7521 25.2078 16.409 24.5134 16.8644 23.69C16.9952 23.4534 17.1081 23.2085 17.2027 22.9571C17.5916 21.9233 18.4541 21 19.5586 21H22Z" stroke="#232323" stroke-width="12" mask="url(#path-2-inside-2_396_908)"/>
<mask id="path-3-inside-3_396_908" fill="white">
<path d="M66.0595 12C64.3698 12 62.9618 10.6086 63.3879 8.97355C63.6359 8.02198 64.0009 7.10077 64.4773 6.23168C65.4466 4.46356 66.8457 2.96818 68.5456 1.88365C70.2454 0.799114 72.1912 0.160399 74.2031 0.0264916C76.215 -0.107416 78.2282 0.2678 80.0568 1.11749C81.8854 1.96718 83.4704 3.26394 84.6654 4.88801C85.8604 6.51208 86.6269 8.41109 86.8942 10.4097C87.1614 12.4082 86.9207 14.4419 86.1943 16.3229C85.8373 17.2475 85.3686 18.1205 84.8012 18.9236C83.8263 20.3037 81.8549 20.1248 80.7653 18.8334L80.6941 18.7489C79.6438 17.5041 79.8995 15.638 80.4862 14.1186V14.1186C80.8422 13.1968 80.9602 12.2001 80.8292 11.2206C80.6982 10.2411 80.3226 9.31042 79.7369 8.51448C79.1512 7.71854 78.3744 7.08301 77.4783 6.66658C76.5821 6.25016 75.5954 6.06627 74.6094 6.13189C73.6234 6.19752 72.6698 6.51055 71.8368 7.04207C71.0037 7.57359 70.318 8.30646 69.8429 9.173V9.173C69.06 10.6012 67.7986 12 66.1699 12H66.0595Z"/>
</mask>
<path d="M66.0595 12C64.3698 12 62.9618 10.6086 63.3879 8.97355C63.6359 8.02198 64.0009 7.10077 64.4773 6.23168C65.4466 4.46356 66.8457 2.96818 68.5456 1.88365C70.2454 0.799114 72.1912 0.160399 74.2031 0.0264916C76.215 -0.107416 78.2282 0.2678 80.0568 1.11749C81.8854 1.96718 83.4704 3.26394 84.6654 4.88801C85.8604 6.51208 86.6269 8.41109 86.8942 10.4097C87.1614 12.4082 86.9207 14.4419 86.1943 16.3229C85.8373 17.2475 85.3686 18.1205 84.8012 18.9236C83.8263 20.3037 81.8549 20.1248 80.7653 18.8334L80.6941 18.7489C79.6438 17.5041 79.8995 15.638 80.4862 14.1186V14.1186C80.8422 13.1968 80.9602 12.2001 80.8292 11.2206C80.6982 10.2411 80.3226 9.31042 79.7369 8.51448C79.1512 7.71854 78.3744 7.08301 77.4783 6.66658C76.5821 6.25016 75.5954 6.06627 74.6094 6.13189C73.6234 6.19752 72.6698 6.51055 71.8368 7.04207C71.0037 7.57359 70.318 8.30646 69.8429 9.173V9.173C69.06 10.6012 67.7986 12 66.1699 12H66.0595Z" stroke="#232323" stroke-width="12" mask="url(#path-3-inside-3_396_908)"/>
<mask id="path-4-inside-4_396_908" fill="white">
<path d="M65.9413 21C64.3169 21 62.9645 22.3361 63.3587 23.9119C63.6096 24.9151 63.9901 25.8855 64.4937 26.7981C65.4735 28.5735 66.8872 30.0717 68.6029 31.1527C70.3186 32.2337 72.2802 32.8623 74.3047 32.9798C76.3291 33.0973 78.3503 32.6999 80.1795 31.8246C82.0087 30.9494 83.5863 29.6248 84.765 27.9746C85.9436 26.3245 86.6848 24.4026 86.9194 22.3883C87.154 20.3741 86.8744 18.3333 86.1066 16.4564C85.7119 15.4918 85.195 14.5866 84.5713 13.7618C83.5914 12.4662 81.7026 12.681 80.6834 13.946V13.946C79.6643 15.2109 79.9559 17.0629 80.6061 18.5515C80.6252 18.5953 80.6438 18.6394 80.662 18.6837C81.0534 19.6405 81.196 20.6809 81.0764 21.7078C80.9568 22.7346 80.5789 23.7144 79.978 24.5556C79.3772 25.3968 78.573 26.072 77.6405 26.5182C76.7079 26.9645 75.6776 27.1671 74.6455 27.1072C73.6135 27.0473 72.6135 26.7268 71.7388 26.1757C70.8642 25.6246 70.1435 24.8609 69.644 23.9558C69.6209 23.9138 69.5983 23.8717 69.5761 23.8293C68.8248 22.389 67.5657 21 65.9413 21V21Z"/>
</mask>
<path d="M65.9413 21C64.3169 21 62.9645 22.3361 63.3587 23.9119C63.6096 24.9151 63.9901 25.8855 64.4937 26.7981C65.4735 28.5735 66.8872 30.0717 68.6029 31.1527C70.3186 32.2337 72.2802 32.8623 74.3047 32.9798C76.3291 33.0973 78.3503 32.6999 80.1795 31.8246C82.0087 30.9494 83.5863 29.6248 84.765 27.9746C85.9436 26.3245 86.6848 24.4026 86.9194 22.3883C87.154 20.3741 86.8744 18.3333 86.1066 16.4564C85.7119 15.4918 85.195 14.5866 84.5713 13.7618C83.5914 12.4662 81.7026 12.681 80.6834 13.946V13.946C79.6643 15.2109 79.9559 17.0629 80.6061 18.5515C80.6252 18.5953 80.6438 18.6394 80.662 18.6837C81.0534 19.6405 81.196 20.6809 81.0764 21.7078C80.9568 22.7346 80.5789 23.7144 79.978 24.5556C79.3772 25.3968 78.573 26.072 77.6405 26.5182C76.7079 26.9645 75.6776 27.1671 74.6455 27.1072C73.6135 27.0473 72.6135 26.7268 71.7388 26.1757C70.8642 25.6246 70.1435 24.8609 69.644 23.9558C69.6209 23.9138 69.5983 23.8717 69.5761 23.8293C68.8248 22.389 67.5657 21 65.9413 21V21Z" stroke="#232323" stroke-width="12" mask="url(#path-4-inside-4_396_908)"/>
<line x1="20.5" y1="10.5" x2="65.5" y2="10.5" stroke="#232323" stroke-width="5" stroke-linecap="round"/>
<line x1="19.5" y1="23.5" x2="66.5" y2="23.5" stroke="#232323" stroke-width="5" stroke-linecap="round"/>
</svg>
