<svg width="62" height="44" viewBox="0 0 62 44" fill="none" xmlns="http://www.w3.org/2000/svg">
<g clip-path="url(#clip0_335_1880)">
<path d="M37.364 0.154736C36.1503 0.324451 33.5394 1.03348 30.5753 2.00462C26.075 3.46919 15.6158 7.33868 14.771 7.84719C14.0796 8.27902 13.3581 9.08045 13.097 9.72788C12.6824 10.699 12.7281 10.7298 14.0495 10.853C15.2169 10.9611 15.2632 10.9454 15.7235 10.5136C16.3222 9.94348 17.152 9.69645 18.3958 9.69645C20.0084 9.69645 36.6883 10.914 37.2106 11.0529C37.9477 11.2842 38.5777 11.6545 39.1 12.163C39.653 12.7337 39.7144 13.0876 39.2535 13.0876C39.0687 13.0876 38.6541 13.3497 38.3322 13.6885C37.6872 14.3359 37.5488 14.9526 37.9634 15.4919C38.1475 15.7383 38.1788 17.1413 38.1938 25.0185V34.2522L36.781 34.1598C35.9975 34.0982 34.646 34.0058 33.7862 33.9593L32.2042 33.8512V35.2385V36.6106L35.3224 36.8111C38.1638 36.9959 38.4863 36.9959 39.0393 36.7495C39.3775 36.6106 41.5274 35.84 43.8008 35.0537C53.0619 31.8322 58.6068 29.7812 59.4824 29.2576C60.4963 28.641 60.4656 28.9496 60.4656 18.0659V8.23062L60.9265 7.96851C61.4795 7.66051 62.0018 6.84336 62.0018 6.28834C62.0018 4.05313 59.5751 1.78714 56.703 1.37102C56.1193 1.27862 52.0035 0.969994 47.5646 0.677082C43.1256 0.384167 39.2228 0.12394 38.8846 0.0931396C38.547 0.062336 37.8707 0.0931358 37.364 0.154736Z" fill="#232323"/>
<path d="M4.21903 11.9938C2.468 12.5639 1.19355 13.7513 0.778341 15.2158C0.378786 16.588 0.778341 17.7597 1.79226 18.1758L2.25319 18.3606L2.28388 29.4907L2.32959 40.6051L2.69846 41.1293C2.91327 41.4222 3.40489 41.8076 3.85016 42.0081C4.58727 42.3469 5.30935 42.4091 15.8299 43.1489C21.9736 43.565 27.4565 43.9196 27.9945 43.9196C29.1768 43.9196 30.0066 43.55 30.544 42.8095L30.8972 42.301L30.9435 31.3249L30.9899 20.3337L31.4201 20.1024C32.2036 19.7013 32.5104 19.162 32.5104 18.1909C32.5104 17.0349 31.9881 15.9865 30.8978 14.9537C29.8839 13.9826 28.7479 13.4426 27.1659 13.1504C25.7988 12.904 8.53523 11.7015 6.47733 11.7015C5.58616 11.716 4.78767 11.8241 4.21903 11.9938Z" fill="#232323"/>
</g>
<defs>
<clipPath id="clip0_335_1880">
<rect width="62" height="44" fill="white"/>
</clipPath>
</defs>
</svg>
