<svg width="77" height="35" viewBox="0 0 77 35" fill="none" xmlns="http://www.w3.org/2000/svg">
<path d="M64.0562 19.8567C60.1061 19.8567 56.9106 23.0876 56.9106 27.0485C56.9106 31.0172 60.1138 34.2558 64.0562 34.2558C68.014 34.2558 71.1941 31.0172 71.1941 27.0485C71.1941 23.0876 68.014 19.8567 64.0562 19.8567ZM64.0408 31.6929C61.5999 31.6929 59.6056 29.6891 59.6056 27.2116C59.6056 24.7574 61.5922 22.7614 64.0408 22.7614C66.4971 22.7614 68.4683 24.7496 68.4683 27.2116C68.4606 29.6891 66.4971 31.6929 64.0408 31.6929Z" fill="#232323"/>
<path d="M17.6792 20.6955C16.6705 20.1441 15.5617 19.8567 14.3297 19.8567C10.4104 19.8567 7.23798 23.0177 7.19948 26.9398C7.19948 26.9786 7.18408 27.0252 7.18408 27.0485C7.18408 31.0172 10.3873 34.2558 14.322 34.2558C18.3106 34.2558 21.483 31.0172 21.483 27.0485C21.483 25.4408 20.9363 23.9341 20.0585 22.7225C19.4348 21.8915 18.5955 21.177 17.6792 20.6955ZM14.3528 31.6929C11.9042 31.6929 9.92528 29.6891 9.92528 27.2116V27.1728C9.99458 24.7185 11.9273 22.7614 14.3528 22.7614C15.1074 22.7614 15.8004 22.9245 16.4318 23.2973C17.0093 23.6157 17.5329 24.0273 17.9102 24.5632C18.4723 25.2777 18.7957 26.1942 18.7957 27.2116C18.788 29.6891 16.8245 31.6929 14.3528 31.6929Z" fill="#232323"/>
<path d="M76.1222 12.1134L56.3024 8.54083L49.9191 0.0131836L32.1706 0.331612H20.251C19.9738 0.331612 19.6889 0.40151 19.4502 0.510241L11.1804 10.4669L3.97322 12.3464H2.63342V20.1363H0.77002V27.1028H2.63342V27.1727H5.04352V26.365C5.14362 21.8915 9.20152 18.3344 14.1911 18.3344C15.6926 18.3344 17.1633 18.6684 18.4338 19.2819C19.6427 19.8334 20.6899 20.6022 21.4984 21.5886C22.6303 22.9477 23.3079 24.6486 23.3079 26.466H23.3695V27.9106H54.9395V26.466C54.9395 21.9614 59.0282 18.3344 64.0717 18.3344C69.0998 18.3344 73.2039 21.9614 73.2039 26.466H74.4205C75.3984 26.466 76.23 25.7204 76.23 24.8583V14.5832L76.1222 12.1134ZM33.7337 14.3502L31.185 11.7717H21.5292H18.6032L25.5101 3.46152H33.7414L33.7337 14.3502ZM49.6034 11.7795H39.9476L37.3989 14.3502V3.46152H45.6379L52.5217 11.7795H49.6034Z" fill="#232323"/>
</svg>
