<svg width="60" height="60" viewBox="0 0 60 60" fill="none" xmlns="http://www.w3.org/2000/svg">
<path d="M44.1036 53.2116C44.918 54.5518 44.4965 56.3118 43.0853 56.9959C38.5063 59.2154 33.4224 60.2407 28.3109 59.9524C22.2513 59.6107 16.4379 57.4391 11.6382 53.7244C6.8386 50.0096 3.27856 44.9265 1.42821 39.1462C-0.422136 33.3659 -0.475757 27.1603 1.27443 21.3489C3.02462 15.5375 6.49629 10.3936 11.231 6.59648C15.9657 2.79936 21.7408 0.527621 27.7936 0.0812473C33.8464 -0.365126 39.8922 1.03486 45.1328 4.09634C49.5533 6.67881 53.2255 10.3411 55.8172 14.7202C56.6159 16.0697 55.9954 17.7698 54.5764 18.4374V18.4374C53.1573 19.105 51.4794 18.4847 50.6511 17.1531C48.5689 13.8061 45.6961 11.0026 42.2681 8.99994C38.0196 6.51801 33.1183 5.38304 28.2113 5.74492C23.3043 6.10679 18.6224 7.94849 14.784 11.0268C10.9456 14.1051 8.1311 18.2753 6.71223 22.9866C5.29336 27.6979 5.33683 32.7287 6.8369 37.4148C8.33697 42.1009 11.2231 46.2218 15.1141 49.2333C19.0052 52.2448 23.7182 54.0053 28.6307 54.2824C32.5945 54.5059 36.5378 53.7551 40.1219 52.1146C41.5479 51.4619 43.2893 51.8714 44.1036 53.2116V53.2116Z" fill="#232323"/>
<line x1="30" y1="37" x2="44" y2="37" stroke="#232323" stroke-width="6" stroke-linecap="round"/>
<line x1="30" y1="15" x2="30" y2="37" stroke="#232323" stroke-width="6" stroke-linecap="round"/>
</svg>
