<svg width="70" height="70" viewBox="0 0 70 70" fill="none" xmlns="http://www.w3.org/2000/svg">
<path d="M59.5123 20.1914C59.482 18.5985 59.4531 17.0937 59.4531 15.6379C59.4531 14.4974 58.5288 13.5727 57.388 13.5727C48.556 13.5727 41.8317 11.0345 36.2266 5.58475C35.4247 4.80495 34.1488 4.80522 33.3472 5.58475C27.7427 11.0345 21.0194 13.5727 12.188 13.5727C11.0475 13.5727 10.1229 14.4974 10.1229 15.6379C10.1229 17.0939 10.0942 18.5993 10.0637 20.1925C9.78059 35.0164 9.3929 55.3184 34.1105 63.886C34.3297 63.962 34.5582 64 34.7868 64C35.0153 64 35.2441 63.962 35.463 63.886C60.1825 55.3181 59.7954 35.0156 59.5123 20.1914ZM35.8182 59.355C35.1624 59.611 34.4117 59.611 33.7559 59.355C13.599 51.4867 13.9136 34.9273 14.1934 20.2712V20.2712C14.2214 18.8064 15.3863 17.6231 16.8437 17.4732C22.9873 16.8413 28.1804 14.8954 32.7513 11.5101C33.955 10.6186 35.6191 10.6186 36.8228 11.51C41.3947 14.8957 46.589 16.8419 52.7339 17.4734C54.1906 17.6232 55.3549 18.8058 55.3829 20.2699V20.2699C55.6623 34.9265 55.9767 51.4865 35.8182 59.355Z" fill="#232323"/>
<path d="M41.8985 27.3259L31.931 37.2929L27.6776 33.0395C26.8711 32.2333 25.5635 32.2333 24.7572 33.0395C23.9507 33.8463 23.9507 35.1537 24.7572 35.9602L30.4708 41.6737C30.8739 42.0769 31.4026 42.2784 31.931 42.2784C32.4594 42.2784 32.9881 42.0769 33.3912 41.6737L44.8186 30.2466C45.6254 29.4401 45.6254 28.1324 44.8189 27.3262C44.0126 26.5197 42.705 26.5194 41.8985 27.3259Z" fill="#232323"/>
</svg>
