<svg width="54" height="54" viewBox="0 0 54 54" fill="none" xmlns="http://www.w3.org/2000/svg">
<path fill-rule="evenodd" clip-rule="evenodd" d="M27 54H27C38.8315 54 45.4087 54 49.7043 49.7043C54 45.4087 54 38.8354 54 27V27V27C54 15.1646 54 8.59134 49.7043 4.29568C45.4087 0 38.8315 0 27 0C15.1685 0 8.59135 0 4.29568 4.29568C0 8.59135 0 15.1685 0 27C0 38.8315 0 45.4087 4.29568 49.7043C8.59134 54 15.1685 54 27 54H27ZM37.1405 21.6616C35.1009 21.6616 33.5871 23.2362 33.5871 25.1789C33.5871 26.7651 34.7024 28.0028 36.1143 28.369L33.2199 32.8028H35.9234L38.3841 28.6765H40.2259V32.8028H42.483V21.6616H37.1405ZM37.4509 26.7916C36.5227 26.7916 35.9479 26.0631 35.9479 25.2327C35.9479 24.4023 36.4747 23.6112 37.4509 23.6112H40.2289V26.7916H37.4509ZM24.031 23.7238L24.7801 21.6616H30.0217L27.371 31.004L31.3034 28.2799L32.4628 29.9837L28.5255 32.6549C26.7943 33.7996 24.7654 32.3288 25.2844 30.3822L27.1047 23.7062L24.031 23.7238ZM29.0191 20.229C29.8817 20.229 30.581 19.599 30.581 18.8219C30.581 18.0448 29.8817 17.4148 29.0191 17.4148C28.1566 17.4148 27.4573 18.0448 27.4573 18.8219C27.4573 19.599 28.1566 20.229 29.0191 20.229ZM21.0524 19.0723V30.7461H22.6191V35.8379H20.4238V32.8229H12.2124V35.8329H10.0161V30.7412H11.0422C11.5426 30.047 12.3915 28.2345 12.3915 25.3028V19.0723H21.0524ZM14.5751 21.1432V25.1745C14.5751 27.8722 13.8407 29.9304 13.3463 30.7392H18.8003V21.1432H14.5751Z" fill="#232323"/>
</svg>
