<svg width="20" height="20" viewBox="0 0 20 20" fill="none" xmlns="http://www.w3.org/2000/svg">
<rect width="20" height="20" rx="3" fill="#000E40"/>
<path d="M9.894 15.168C8.87667 15.168 7.95733 14.9487 7.136 14.51C6.324 14.0713 5.68467 13.4693 5.218 12.704C4.76067 11.9293 4.532 11.0613 4.532 10.1C4.532 9.13867 4.76067 8.27533 5.218 7.51C5.68467 6.73533 6.324 6.12867 7.136 5.69C7.95733 5.25133 8.87667 5.032 9.894 5.032C10.9113 5.032 11.826 5.25133 12.638 5.69C13.45 6.12867 14.0893 6.73533 14.556 7.51C15.0227 8.27533 15.256 9.13867 15.256 10.1C15.256 11.0613 15.0227 11.9293 14.556 12.704C14.0893 13.4693 13.45 14.0713 12.638 14.51C11.826 14.9487 10.9113 15.168 9.894 15.168ZM9.894 13.236C10.4727 13.236 10.9953 13.1053 11.462 12.844C11.9287 12.5733 12.2927 12.2 12.554 11.724C12.8247 11.248 12.96 10.7067 12.96 10.1C12.96 9.49333 12.8247 8.952 12.554 8.476C12.2927 8 11.9287 7.63133 11.462 7.37C10.9953 7.09933 10.4727 6.964 9.894 6.964C9.31533 6.964 8.79267 7.09933 8.326 7.37C7.85933 7.63133 7.49067 8 7.22 8.476C6.95867 8.952 6.828 9.49333 6.828 10.1C6.828 10.7067 6.95867 11.248 7.22 11.724C7.49067 12.2 7.85933 12.5733 8.326 12.844C8.79267 13.1053 9.31533 13.236 9.894 13.236Z" fill="#3C65F6"/>
</svg>
