<svg width="28" height="39" viewBox="0 0 28 39" fill="none" xmlns="http://www.w3.org/2000/svg">
<path d="M0 24.9198C0 19.0935 8.1375 6.63944 12.0034 1.05751C12.9818 -0.352502 15.0182 -0.352502 15.9966 1.05751C19.8625 6.63944 28 19.0935 28 24.9198C28 32.728 21.7318 39 14 39C6.26818 39 0 32.728 0 24.9198ZM7.63636 24.9198C7.63636 24.291 7.06364 23.6463 6.36364 23.6463C5.66045 23.6463 5.09091 24.291 5.09091 24.9198C5.09091 29.9183 9.07614 33.906 14 33.906C14.7 33.906 15.2727 33.3329 15.2727 32.6325C15.2727 31.932 14.7 31.359 14 31.359C10.4841 31.359 7.63636 28.5095 7.63636 24.9198Z" fill="black"/>
</svg>
