<svg width="60" height="60" viewBox="0 0 60 60" fill="none" xmlns="http://www.w3.org/2000/svg">
<rect width="60" height="60" rx="19" fill="#A70000"/>
<mask id="path-2-inside-1_191_1588" fill="white">
<path d="M42.7364 36.3513C44.5682 33.89 45.6775 30.9668 45.9397 27.9099C46.2018 24.853 45.6065 21.7836 44.2205 19.0464C42.8345 16.3091 40.7128 14.0126 38.0937 12.4146C35.4746 10.8166 32.4618 9.98059 29.3938 10.0003C26.3257 10.0201 23.3239 10.8949 20.7256 12.5264C18.1273 14.158 16.0353 16.4817 14.6847 19.2365C13.3341 21.9914 12.7784 25.0682 13.0799 28.1215C13.3814 31.1747 14.5282 34.0835 16.3916 36.5209L18.7667 34.7052C17.241 32.7094 16.302 30.3277 16.0551 27.8277C15.8082 25.3277 16.2633 22.8083 17.3692 20.5526C18.475 18.2969 20.1879 16.3943 22.3155 15.0584C24.443 13.7224 26.9009 13.0061 29.413 12.99C31.9251 12.9738 34.392 13.6584 36.5366 14.9668C38.6811 16.2752 40.4184 18.1556 41.5533 20.3969C42.6881 22.6381 43.1756 25.1514 42.9609 27.6544C42.7462 30.1574 41.838 32.551 40.3381 34.5663L42.7364 36.3513Z"/>
</mask>
<path d="M42.7364 36.3513C44.5682 33.89 45.6775 30.9668 45.9397 27.9099C46.2018 24.853 45.6065 21.7836 44.2205 19.0464C42.8345 16.3091 40.7128 14.0126 38.0937 12.4146C35.4746 10.8166 32.4618 9.98059 29.3938 10.0003C26.3257 10.0201 23.3239 10.8949 20.7256 12.5264C18.1273 14.158 16.0353 16.4817 14.6847 19.2365C13.3341 21.9914 12.7784 25.0682 13.0799 28.1215C13.3814 31.1747 14.5282 34.0835 16.3916 36.5209L18.7667 34.7052C17.241 32.7094 16.302 30.3277 16.0551 27.8277C15.8082 25.3277 16.2633 22.8083 17.3692 20.5526C18.475 18.2969 20.1879 16.3943 22.3155 15.0584C24.443 13.7224 26.9009 13.0061 29.413 12.99C31.9251 12.9738 34.392 13.6584 36.5366 14.9668C38.6811 16.2752 40.4184 18.1556 41.5533 20.3969C42.6881 22.6381 43.1756 25.1514 42.9609 27.6544C42.7462 30.1574 41.838 32.551 40.3381 34.5663L42.7364 36.3513Z" stroke="white" stroke-width="6" mask="url(#path-2-inside-1_191_1588)"/>
<path d="M27.8205 50.9267C28.3323 51.5781 29.2753 51.6913 29.9267 51.1795C30.5781 50.6677 30.6913 49.7247 30.1795 49.0733L27.8205 50.9267ZM19.1795 35.0733L18.2527 33.8938L15.8938 35.7473L16.8205 36.9267L19.1795 35.0733ZM30.1795 49.0733L19.1795 35.0733L16.8205 36.9267L27.8205 50.9267L30.1795 49.0733Z" fill="white"/>
<path d="M27.8205 50.9267C28.3323 51.5781 29.2753 51.6913 29.9267 51.1795C30.5781 50.6677 30.6913 49.7247 30.1795 49.0733L27.8205 50.9267ZM19.1795 35.0733L18.2527 33.8938L15.8938 35.7473L16.8205 36.9267L19.1795 35.0733ZM30.1795 49.0733L19.1795 35.0733L16.8205 36.9267L27.8205 50.9267L30.1795 49.0733Z" fill="white"/>
<path d="M43 33L36 45" stroke="white" stroke-width="3" stroke-linecap="round"/>
<path d="M43 33L36 45" stroke="white" stroke-width="3" stroke-linecap="round"/>
<circle cx="29.5" cy="24.5" r="4" stroke="white" stroke-width="3"/>
<line x1="10.8373" y1="52.8849" x2="50.8849" y2="6.1627" stroke="#232323" stroke-width="3" stroke-linecap="round"/>
</svg>
