<svg width="60" height="60" viewBox="0 0 60 60" fill="none" xmlns="http://www.w3.org/2000/svg">
<rect width="60" height="60" rx="19" fill="#A70000"/>
<path d="M15.0001 27.3615C21.853 29.0568 23.3407 34.9553 23.0514 51.5154" stroke="white" stroke-width="3" stroke-linecap="round"/>
<path d="M22.9998 26.506C27.2582 29.5571 28.1957 35.6392 28.0551 51.8092" stroke="white" stroke-width="3" stroke-linecap="round"/>
<path d="M10.7023 23.9567C13.8887 15.7666 17.2381 14.9813 25.0236 18.3425" stroke="white" stroke-width="3" stroke-linecap="round"/>
<path d="M49.3211 23.9567C46.1347 15.7666 42.7853 14.9813 34.9998 18.3425" stroke="white" stroke-width="3" stroke-linecap="round"/>
<path d="M37.39 12.6642C31.4236 6.21187 28.0194 6.70883 22.0077 12.6896" stroke="white" stroke-width="3" stroke-linecap="round"/>
<path d="M37.5876 26.506C33.3292 29.5571 32.3917 35.6392 32.5323 51.8092" stroke="white" stroke-width="3" stroke-linecap="round"/>
<path d="M45.1356 27.3615C38.2827 29.0568 36.7951 34.9553 37.0843 51.5154" stroke="white" stroke-width="3" stroke-linecap="round"/>
<line x1="9.8373" y1="54.8849" x2="49.8849" y2="8.1627" stroke="#232323" stroke-width="3" stroke-linecap="round"/>
</svg>
