<svg width="60" height="60" viewBox="0 0 60 60" fill="none" xmlns="http://www.w3.org/2000/svg">
<rect width="60" height="60" rx="19" fill="#A70000"/>
<circle cx="30.5" cy="33.5" r="7" stroke="white" stroke-width="3"/>
<rect x="9.5" y="22.5" width="41" height="22" rx="3.5" stroke="white" stroke-width="3"/>
<mask id="path-4-inside-1_191_1495" fill="white">
<path d="M22.6063 20C23.376 20 24.0161 19.3678 23.8389 18.6188C23.5846 17.5441 23.0363 16.551 22.2426 15.7574C21.1174 14.6321 19.5913 14 18 14C16.4087 14 14.8826 14.6321 13.7574 15.7574C12.9637 16.551 12.4154 17.5441 12.1611 18.6188C11.9839 19.3678 12.624 20 13.3937 20V20C14.1634 20 14.7614 19.348 15.085 18.6496C15.2421 18.3103 15.4588 17.9978 15.7283 17.7283C16.3308 17.1258 17.148 16.7874 18 16.7874C18.852 16.7874 19.6692 17.1258 20.2717 17.7283C20.5412 17.9978 20.7579 18.3103 20.915 18.6496C21.2386 19.348 21.8366 20 22.6063 20V20Z"/>
</mask>
<path d="M22.6063 20C23.376 20 24.0161 19.3678 23.8389 18.6188C23.5846 17.5441 23.0363 16.551 22.2426 15.7574C21.1174 14.6321 19.5913 14 18 14C16.4087 14 14.8826 14.6321 13.7574 15.7574C12.9637 16.551 12.4154 17.5441 12.1611 18.6188C11.9839 19.3678 12.624 20 13.3937 20V20C14.1634 20 14.7614 19.348 15.085 18.6496C15.2421 18.3103 15.4588 17.9978 15.7283 17.7283C16.3308 17.1258 17.148 16.7874 18 16.7874C18.852 16.7874 19.6692 17.1258 20.2717 17.7283C20.5412 17.9978 20.7579 18.3103 20.915 18.6496C21.2386 19.348 21.8366 20 22.6063 20V20Z" stroke="white" stroke-width="8" mask="url(#path-4-inside-1_191_1495)"/>
<circle cx="44" cy="28" r="1.5" stroke="white"/>
<line x1="9.8373" y1="52.8849" x2="49.8849" y2="6.1627" stroke="#232323" stroke-width="3" stroke-linecap="round"/>
</svg>
