<svg width="52" height="40" viewBox="0 0 52 40" fill="none" xmlns="http://www.w3.org/2000/svg">
<path d="M19.292 28.8715L19.7496 26.498C20.6388 21.8988 22.958 15.6329 28.9744 11.9145L31.2936 10.4851L17.0456 1.64534C15.34 0.585203 13.3848 0.026123 11.388 0.026123C7.57121 0.026123 4.10281 1.99872 2.11121 5.29518C-1.01399 10.4799 0.603206 17.2732 5.70961 20.4431L19.292 28.8715ZM4.94001 7.04626C6.32321 4.75193 8.73601 3.38587 11.388 3.38587C12.7712 3.38587 14.1284 3.77618 15.3192 4.50931L25.0952 10.5748C20.3892 14.3776 18.1272 19.5675 17.0404 23.5286L7.43601 17.5738C3.88961 15.3692 2.76641 10.6486 4.94001 7.04626Z" fill="#232323"/>
<path d="M46.5191 20.4536L33.7791 12.5474L33.5451 12.6476C32.0579 13.291 30.7839 14.098 29.6555 14.9894L41.9223 22.5844C42.3851 22.8745 42.5359 23.4863 42.2499 23.961C42.0679 24.2722 41.7403 24.441 41.4075 24.441C41.2307 24.441 41.0539 24.3935 40.8927 24.2933C40.8927 24.2933 28.3087 16.4135 28.2307 16.2447C23.7327 20.7015 22.4743 26.7722 22.1311 29.6784L22.0947 30.0001L35.6771 38.4233C37.3099 39.4359 39.1819 39.9739 41.0851 39.9739C44.7355 39.9739 48.0531 38.091 49.9563 34.9369C52.9463 29.9843 51.4019 23.4863 46.5191 20.4536Z" fill="#232323"/>
</svg>
