<svg width="21" height="25" viewBox="0 0 21 25" fill="none" xmlns="http://www.w3.org/2000/svg">
<g clip-path="url(#clip0_330_722)">
<path d="M14.2219 20.0665C8.85248 23.6941 5.50885 20.6859 5.50885 20.6859C5.50885 20.6859 6.46056 20.6316 6.7874 20.4108C6.95856 20.2952 7.08396 20.1123 6.91663 19.8948C6.74935 19.6774 5.01445 19.3055 3.38311 17.1854C0.015847 12.8091 2.77098 7.10578 2.77098 7.10578C2.77098 7.10578 3.13175 7.57466 3.36704 7.88045C5.51601 10.6734 11.6643 10.6094 14.0485 13.7081C16.2445 16.5622 15.2958 19.341 14.2219 20.0665Z" fill="url(#paint0_linear_330_722)"/>
<path d="M16.2611 21.3246C11.9239 24.255 8.90564 21.6929 8.90564 21.6929C8.90564 21.6929 9.59451 21.2275 8.89946 20.3241C8.20441 19.4208 5.92947 18.0263 5.50134 17.7219C5.07321 17.4174 4.65994 16.8803 4.65994 16.8803C4.65994 16.8803 6.96319 17.9587 7.49897 17.5967C8.03476 17.2347 6.60009 16.126 5.84869 15.1494C3.53812 12.1463 3.64293 8.4019 3.64293 8.4019C3.64293 8.4019 6.08414 10.3148 8.89346 11.4966C11.7028 12.6785 14.4263 13.5472 15.9103 15.476C17.3944 17.4048 17.4348 20.5316 16.2611 21.3246Z" fill="url(#paint1_linear_330_722)"/>
<path d="M16.2429 22.239C12.5121 24.7594 9.41809 22.7379 9.41809 22.7379C9.41809 22.7379 10.1929 22.6023 10.3136 22.0165C10.4342 21.4307 9.39659 20.425 9.39659 20.425C9.39659 20.425 9.9586 20.3556 10.3346 20.1016C10.7105 19.8476 11.1226 19.2978 10.0621 17.9195C9.00155 16.5413 8.28135 16.2909 7.31904 15.0403C6.35672 13.7897 6.27064 12.8781 6.27064 12.8781C6.27064 12.8781 6.76875 13.2398 7.47859 13.4197C8.18843 13.5996 9.26603 13.6862 10.2208 14.1272C11.1756 14.5683 12.1522 15.2662 12.1522 15.2662C12.1522 15.2662 12.1938 14.8633 12.1131 14.5299C12.0324 14.1965 11.8883 14.0093 11.8883 14.0093C11.8883 14.0093 12.8259 14.6947 13.7477 15.0548C14.6694 15.4147 15.6111 15.8388 16.3312 16.7746C17.0513 17.7105 18.1421 20.956 16.2429 22.239Z" fill="url(#paint2_linear_330_722)"/>
<path d="M16.1321 22.2904C14.5125 23.3846 13.1012 23.2261 13.1012 23.2261C13.1012 23.2261 14.3374 22.6237 13.578 21.6368C12.8186 20.6499 11.5043 20.5035 11.5043 20.5035C11.5043 20.5035 12.4066 20.1524 12.8885 19.8268C13.3705 19.5013 13.5853 18.9425 13.0222 18.2108C11.7784 16.5944 9.85712 15.8494 9.85712 15.8494C9.85712 15.8494 11.4393 15.5822 12.2169 15.7551C12.9945 15.928 13.4506 16.2922 13.4506 16.2922C13.4506 16.2922 13.5078 16.176 13.5057 15.9447C13.5035 15.7134 13.3195 15.3982 13.3195 15.3982C13.3195 15.3982 15.2007 16.015 16.1696 17.2742C17.1385 18.5332 17.8482 21.1311 16.2382 22.2188" fill="url(#paint3_linear_330_722)"/>
<path d="M12.7368 24.2103C8.15105 22.3891 9.64354 17.6907 9.64354 17.6907C9.64354 17.6907 9.97038 18.4119 10.2495 18.5227C10.3957 18.5808 10.5838 18.5569 10.7138 18.2764C10.8437 17.9961 10.6365 16.3629 11.9033 13.6291C14.5181 7.98612 20.0427 6.32076 20.0427 6.32076C20.0427 6.32076 19.7625 6.92536 19.5798 7.31966C17.9111 10.921 19.7858 15.7739 17.9343 19.7695C16.2291 23.4496 13.654 24.5745 12.7368 24.2103Z" fill="url(#paint4_linear_330_722)"/>
<path d="M12.825 24.2619C9.43779 22.9162 10.4091 19.444 10.4091 19.444C10.4091 19.444 10.9471 19.6578 11.3975 18.6855C11.8478 17.7132 12.1917 15.3919 12.2869 14.9318C12.382 14.4718 12.6498 13.8937 12.6498 13.8937C12.6498 13.8937 12.5427 16.0602 12.9611 16.2264C13.3796 16.3927 13.7623 14.8024 14.2492 13.7513C15.7463 10.5191 18.4856 8.52706 18.4856 8.52706C18.4856 8.52706 17.8152 11.2476 17.7812 13.8166C17.7472 16.3855 17.9147 18.7233 16.9531 20.7992C15.9915 22.8752 13.7415 24.626 12.825 24.2619Z" fill="url(#paint5_linear_330_722)"/>
<path d="M12.7812 24.1995C10.2073 23.1776 10.8011 20.1128 10.8011 20.1128C10.8011 20.1128 11.0782 20.5343 11.4961 20.2954C11.914 20.0565 12.3306 18.8519 12.3306 18.8519C12.3306 18.8519 12.5125 19.1732 12.7718 19.2761C13.0312 19.3791 13.4957 19.3455 14.154 17.9255C14.8122 16.5055 14.8044 15.9108 15.4017 14.6222C15.999 13.3336 16.5831 12.7871 16.5831 12.7871C16.5831 12.7871 16.4635 13.3001 16.5156 13.8501C16.5678 14.4001 16.7707 15.1346 16.7088 15.9818C16.6468 16.829 16.4196 17.8286 16.4196 17.8286C16.4196 17.8286 16.6971 17.6379 16.8988 17.4066C17.1005 17.1753 17.1899 16.9824 17.1899 16.9824C17.1899 16.9824 16.9617 17.9504 16.9455 18.7328C16.9294 19.5152 16.8755 20.3449 16.4285 21.3091C15.9815 22.2734 14.0915 24.7197 12.7812 24.1995Z" fill="url(#paint6_linear_330_722)"/>
<path d="M12.7398 24.1665C11.6224 23.7229 11.3865 22.7367 11.3865 22.7367C11.3865 22.7367 12.085 23.2008 12.5563 22.184C13.0277 21.1671 12.8073 20.2493 12.8073 20.2493C12.8073 20.2493 13.2583 20.6359 13.5908 20.7679C13.9233 20.8999 14.346 20.7356 14.6955 19.9817C15.4675 18.3163 15.4976 16.6883 15.4976 16.6883C15.4976 16.6883 16.0572 17.554 16.1304 18.1435C16.2036 18.733 16.0721 19.2205 16.0721 19.2205C16.0721 19.2205 16.1631 19.1943 16.316 19.0682C16.469 18.9421 16.6337 18.6547 16.6337 18.6547C16.6337 18.6547 16.679 20.1879 16.0775 21.4853C15.4762 22.7826 13.9238 24.6365 12.813 24.1955" fill="url(#paint7_linear_330_722)"/>
<path d="M13.6166 23.375C5.33271 23.4661 4.22394 17.6334 4.22394 17.6334C4.22394 17.6334 5.2396 18.2755 5.74384 18.2699C6.00792 18.267 6.27685 18.1551 6.27282 17.7884C6.26878 17.4218 4.77929 15.7249 4.73997 12.1496C4.6588 4.76982 11.8633 0.427243 11.8633 0.427243C11.8633 0.427243 11.872 1.21793 11.8777 1.73359C11.9295 6.44332 18.2704 10.912 18.3279 16.1374C18.3808 20.9502 15.2734 23.3567 13.6166 23.375Z" fill="url(#paint8_linear_330_722)"/>
<path d="M13.761 23.4078C7.63812 23.4752 6.61877 19.223 6.61877 19.223C6.61877 19.223 7.59123 19.2123 7.57724 17.9404C7.56325 16.6684 6.41685 13.9648 6.23072 13.4168C6.04458 12.8687 6.03626 12.1124 6.03626 12.1124C6.03626 12.1124 7.43176 14.5382 8.18812 14.5298C8.94448 14.5215 8.38305 12.6023 8.36792 11.2272C8.32142 6.99878 11.0573 3.5649 11.0573 3.5649C11.0573 3.5649 11.994 6.85524 13.7902 9.68917C15.5865 12.5231 17.523 15.0117 17.5528 17.7275C17.5827 20.4433 15.4178 23.3896 13.761 23.4078Z" fill="url(#paint9_linear_330_722)"/>
<path d="M13.6165 23.375C8.97025 23.4261 7.66957 19.7959 7.66957 19.7959C7.66957 19.7959 8.39369 20.1318 8.857 19.6797C9.32031 19.2276 9.08757 17.7174 9.08757 17.7174C9.08757 17.7174 9.59483 17.9869 10.0631 17.9817C10.5313 17.9766 11.213 17.7284 11.1925 15.872C11.1721 14.0156 10.7327 13.3672 10.7142 11.6827C10.6957 9.99821 11.1905 9.13322 11.1905 9.13322C11.1905 9.13322 11.3774 9.75004 11.852 10.3293C12.3267 10.9086 13.163 11.6214 13.6778 12.5784C14.1926 13.5354 14.566 14.7347 14.566 14.7347C14.566 14.7347 14.8505 14.3993 14.9908 14.0539C15.1311 13.7086 15.1283 13.4564 15.1283 13.4564C15.1283 13.4564 15.4773 14.6215 16.0152 15.4867C16.5531 16.3518 17.0676 17.2858 17.0815 18.5464C17.0954 19.8069 15.9816 23.349 13.6165 23.375Z" fill="url(#paint10_linear_330_722)"/>
<path d="M13.4846 23.3764C11.4677 23.3986 10.4004 22.4248 10.4004 22.4248C10.4004 22.4248 11.7954 22.6158 11.7808 21.2865C11.7661 19.9572 10.7715 19.0514 10.7715 19.0514C10.7715 19.0514 11.7347 19.2699 12.3348 19.2633C12.935 19.2567 13.4593 18.8843 13.4485 17.8987C13.4245 15.7215 12.3 13.9231 12.3 13.9231C12.3 13.9231 13.7727 14.6175 14.3077 15.2305C14.8427 15.8435 14.9933 16.4377 14.9933 16.4377C14.9933 16.4377 15.1127 16.3676 15.2545 16.1598C15.3963 15.9519 15.44 15.5618 15.44 15.5618C15.44 15.5618 16.6109 17.2221 16.6296 18.9182C16.6482 20.6141 15.6218 23.3529 13.6168 23.375" fill="url(#paint11_linear_330_722)"/>
</g>
<defs>
<linearGradient id="paint0_linear_330_722" x1="2.27293" y1="7.44226" x2="11.8738" y2="21.6531" gradientUnits="userSpaceOnUse">
<stop stop-color="#ED1C24"/>
<stop offset="1" stop-color="#F47920"/>
</linearGradient>
<linearGradient id="paint1_linear_330_722" x1="4.0767" y1="8.1089" x2="14.0261" y2="22.8348" gradientUnits="userSpaceOnUse">
<stop stop-color="#F47920"/>
<stop offset="1" stop-color="#FFC20E"/>
</linearGradient>
<linearGradient id="paint2_linear_330_722" x1="7.13357" y1="12.2952" x2="14.6008" y2="23.3485" gradientUnits="userSpaceOnUse">
<stop stop-color="#FFC20E"/>
<stop offset="1" stop-color="#FFF200"/>
</linearGradient>
<linearGradient id="paint3_linear_330_722" x1="16.1804" y1="22.2579" x2="11.2262" y2="14.9245" gradientUnits="userSpaceOnUse">
<stop stop-color="white"/>
<stop offset="1" stop-color="#FFF200"/>
</linearGradient>
<linearGradient id="paint4_linear_330_722" x1="19.6173" y1="6.15183" x2="12.4852" y2="24.1105" gradientUnits="userSpaceOnUse">
<stop stop-color="#ED1C24"/>
<stop offset="1" stop-color="#F47920"/>
</linearGradient>
<linearGradient id="paint5_linear_330_722" x1="18.8242" y1="8.66168" x2="12.6537" y2="24.194" gradientUnits="userSpaceOnUse">
<stop stop-color="#F47920"/>
<stop offset="1" stop-color="#FFC20E"/>
</linearGradient>
<linearGradient id="paint6_linear_330_722" x1="17.1784" y1="13.0235" x2="12.7469" y2="24.186" gradientUnits="userSpaceOnUse">
<stop stop-color="#FFC20E"/>
<stop offset="1" stop-color="#FFF200"/>
</linearGradient>
<linearGradient id="paint7_linear_330_722" x1="12.7731" y1="24.1798" x2="15.7132" y2="16.7739" gradientUnits="userSpaceOnUse">
<stop stop-color="white"/>
<stop offset="1" stop-color="#FFF200"/>
</linearGradient>
<linearGradient id="paint8_linear_330_722" x1="11.0949" y1="0.435694" x2="11.3475" y2="23.4001" gradientUnits="userSpaceOnUse">
<stop stop-color="#ED1C24"/>
<stop offset="1" stop-color="#F47920"/>
</linearGradient>
<linearGradient id="paint9_linear_330_722" x1="11.6696" y1="3.55823" x2="11.8881" y2="23.4285" gradientUnits="userSpaceOnUse">
<stop stop-color="#F47920"/>
<stop offset="1" stop-color="#FFC20E"/>
</linearGradient>
<linearGradient id="paint10_linear_330_722" x1="12.2651" y1="9.12147" x2="12.422" y2="23.3882" gradientUnits="userSpaceOnUse">
<stop stop-color="#FFC20E"/>
<stop offset="1" stop-color="#FFF200"/>
</linearGradient>
<linearGradient id="paint11_linear_330_722" x1="13.5447" y1="23.3758" x2="13.4406" y2="13.9106" gradientUnits="userSpaceOnUse">
<stop stop-color="white"/>
<stop offset="1" stop-color="#FFF200"/>
</linearGradient>
<clipPath id="clip0_330_722">
<rect width="19.0085" height="24.3166" fill="white" transform="translate(0.992676 0.316864) rotate(-0.630145)"/>
</clipPath>
</defs>
</svg>
