<svg width="52" height="52" viewBox="0 0 52 52" fill="none" xmlns="http://www.w3.org/2000/svg">
<path d="M50.57 6.19324C50.0656 5.68884 49.3948 5.36644 48.6876 5.29884C47.372 5.16884 43.7684 7.27484 41.7404 8.54364C38.8336 10.3584 34.4552 13.4368 30.108 17.784L20.592 27.2948C19.3804 28.5064 19.3804 30.4772 20.592 31.6888L20.6388 31.7304L7.58155 44.7876C6.36995 45.9992 6.36995 47.97 7.58155 49.1816C8.79315 50.3932 10.764 50.3932 11.9756 49.1816L50.57 10.5872C51.4124 9.74484 51.6984 8.47084 51.298 7.34764C51.1524 6.91604 50.8976 6.51564 50.57 6.19324Z" fill="black"/>
<path d="M33.5087 30.8204L29.1147 35.2144L42.7595 48.8592C43.9711 50.0708 45.9419 50.0708 47.1483 48.8592C48.3599 47.6476 48.3599 45.6768 47.1483 44.4652L33.5087 30.8204Z" fill="black"/>
<path d="M15.8964 21.9024L19.3076 25.3136L23.6392 20.982L20.3944 17.7372C20.9924 15.704 20.4932 13.4108 18.8916 11.8092C18.876 11.7936 18.8552 11.7832 18.8396 11.7676C18.824 11.752 18.8136 11.7312 18.798 11.7156L9.29761 2.21522C8.89721 1.81482 8.25241 1.81482 7.85201 2.21522C7.45161 2.61562 7.45161 3.26042 7.85201 3.66082L16.6764 12.48C16.6764 12.48 16.6816 12.4852 16.6868 12.4852C16.9364 12.7348 16.9364 13.1352 16.6868 13.3848C16.4372 13.6344 16.0368 13.6344 15.7872 13.3848L15.782 13.3796L6.95241 4.55522C6.55201 4.15482 5.90721 4.15482 5.50681 4.55522C5.10641 4.95562 5.10641 5.60042 5.50681 6.00082L14.3312 14.8304C14.3312 14.8304 14.3364 14.8304 14.3364 14.8356C14.586 15.0852 14.586 15.4856 14.3364 15.7352C14.0868 15.9848 13.6864 15.9848 13.4368 15.7352C13.4368 15.7352 13.4368 15.73 13.4316 15.73L4.60721 6.90042C4.20681 6.50002 3.56201 6.50002 3.16161 6.90042C2.76121 7.30082 2.76121 7.94562 3.16161 8.34602L11.986 17.1704L11.9912 17.1756C12.2408 17.4252 12.2408 17.8256 11.9912 18.0752C11.7416 18.3248 11.3412 18.3248 11.0916 18.0752C11.0916 18.0752 11.0916 18.07 11.0864 18.07V18.0752L2.26201 9.24562C1.86681 8.84522 1.21681 8.84522 0.816413 9.24562C0.416013 9.64602 0.416013 10.2908 0.816413 10.6912L10.322 20.1968C10.3376 20.2124 10.3584 20.2228 10.374 20.2384C10.3896 20.254 10.4 20.2748 10.4156 20.2904C11.9028 21.7724 13.9828 22.308 15.8964 21.9024Z" fill="black"/>
<path d="M46.5766 43.9244L34.107 31.4496L29.7754 35.776L42.2502 48.2508C43.4462 49.4468 45.3858 49.4468 46.5818 48.2508C47.7726 47.06 47.7726 45.1152 46.5766 43.9244Z" fill="black"/>
</svg>
