<svg width="45" height="45" viewBox="0 0 45 45" fill="none" xmlns="http://www.w3.org/2000/svg">
<path d="M2.5 5C2.5 2.23828 4.73828 0 7.5 0H20C22.7578 0 25 2.23828 25 5V20H25.625C29.4219 20 32.5 23.0781 32.5 26.875V29.375C32.5 30.4141 33.3359 31.25 34.375 31.25C35.4141 31.25 36.25 30.4141 36.25 29.375V17.2734C34.0938 16.7891 32.5 14.8281 32.5 12.5V7.5L30 5C29.3125 4.30937 29.3125 3.19062 30 2.5C30.6875 1.80938 31.8125 1.80938 32.5 2.5L38.5391 8.53906C39.4766 9.47656 40 10.7422 40 12.0703V29.375C40 32.4844 37.4844 35 34.375 35C31.2656 35 28.75 32.4844 28.75 29.375V26.875C28.75 25.1484 27.3516 23.6797 25.625 23.6797H25V35C26.3828 35 27.5 36.1172 27.5 37.5C27.5 38.8828 26.3828 40 25 40H2.5C1.11953 40 0 38.8828 0 37.5C0 36.1172 1.11953 35 2.5 35V5ZM7.5 13.75C7.5 14.4375 8.0625 15 8.75 15H18.75C19.4375 15 20 14.4375 20 13.75V6.25C20 5.55937 19.4375 5 18.75 5H8.75C8.0625 5 7.5 5.55937 7.5 6.25V13.75Z" fill="#232323"/>
</svg>
