<svg width="70" height="70" viewBox="0 0 70 70" fill="none" xmlns="http://www.w3.org/2000/svg">
<path d="M56 38.5833V59H40.6429V54.9167H27.3333V59H13V38.5833H56ZM46.7335 34.8624C46.1458 32.3011 44.82 30.0492 42.7304 28.328C40.7063 26.6508 38.3116 26.3333 35.534 25.3125H35.5238V18.8527L36.0603 18.7087L37.2346 18.2749C37.6861 18.1228 38.0946 17.9952 38.5205 17.9053C38.9382 17.8063 39.228 17.7645 39.4266 17.7645C39.8125 17.7645 40.3009 17.8257 40.8722 17.9503C41.4537 18.0911 42.0731 18.2432 42.7028 18.4158C43.359 18.6138 43.9446 18.7639 44.5129 18.8915C45.0545 19.015 45.508 19.066 45.8837 19.066C46.4816 19.067 46.7857 18.9844 47.8095 18.8026V11.4098C46.7857 11.6527 46.6045 11.7865 45.8827 11.7865C45.507 11.7865 45.0422 11.7293 44.4995 11.5925C43.9334 11.4843 43.3498 11.3159 42.6935 11.126C42.0639 10.9351 41.4691 10.7911 40.9193 10.6707C40.3634 10.539 40.002 10.4757 39.6088 10.4757C38.3055 10.4757 36.5476 10.783 35.5238 11.3495V10H33.4762V25.3125H33.4117C30.6556 26.3333 28.2425 26.709 26.2205 28.3862C24.1708 30.1094 22.8398 32.2154 22.2102 34.7777C22.2102 34.7777 20.2475 34.5 20.2475 36.5417H48.8835C48.8835 34.5 46.7335 34.8624 46.7335 34.8624V34.8624Z" fill="#232323"/>
</svg>
