<svg width="56" height="56" viewBox="0 0 56 56" fill="none" xmlns="http://www.w3.org/2000/svg">
<path d="M28.0001 0.560059C31.5841 0.560059 35.0617 1.24326 38.4273 2.60406C41.7929 3.97046 44.7889 5.96406 47.4153 8.58486C50.0417 11.2113 52.0353 14.2017 53.3961 17.5729C54.7569 20.9385 55.4401 24.4161 55.4401 28.0001C55.4401 31.5841 54.7569 35.0617 53.3961 38.4273C52.0297 41.7929 50.0361 44.7889 47.4153 47.4153C44.7945 50.0417 41.7985 52.0353 38.4273 53.3961C35.0617 54.7569 31.5841 55.4401 28.0001 55.4401C24.4161 55.4401 20.9385 54.7569 17.5729 53.3961C14.2073 52.0297 11.2113 50.0361 8.58486 47.4153C5.95846 44.7889 3.96486 41.7985 2.60406 38.4273C1.24326 35.0617 0.560059 31.5841 0.560059 28.0001C0.560059 24.4161 1.24326 20.9385 2.60406 17.5729C3.97046 14.2073 5.96406 11.2113 8.58486 8.58486C11.2113 5.95846 14.2017 3.96486 17.5729 2.60406C20.9385 1.24326 24.4161 0.560059 28.0001 0.560059ZM17.5953 21.1177L10.4609 13.9889C8.84806 16.0049 7.62726 18.2113 6.79846 20.6137C5.96406 23.0161 5.54966 25.4801 5.54966 28.0001C5.54966 30.5201 5.96406 32.9841 6.79846 35.3865C7.62726 37.7889 8.85366 39.9953 10.4609 42.0113L17.5953 34.8769C16.2177 32.7993 15.5289 30.5033 15.5289 27.9945C15.5289 25.4913 16.2177 23.2009 17.5953 21.1177ZM42.0113 45.5393L34.8825 38.4049C32.8049 39.7825 30.5089 40.4713 28.0001 40.4713C25.4913 40.4713 23.2009 39.7825 21.1177 38.4049L13.9889 45.5393C16.0049 47.1521 18.2113 48.3729 20.6137 49.2017C23.0161 50.0361 25.4801 50.4505 28.0001 50.4505C30.5201 50.4505 32.9841 50.0361 35.3865 49.2017C37.7889 48.3729 40.0009 47.1521 42.0113 45.5393ZM28.0001 20.5185C25.9337 20.5185 24.1697 21.2521 22.7081 22.7137C21.2465 24.1753 20.5129 25.9393 20.5129 28.0057C20.5129 30.0721 21.2465 31.8361 22.7081 33.2977C24.1697 34.7593 25.9337 35.4929 28.0001 35.4929C30.0665 35.4929 31.8305 34.7593 33.2921 33.2977C34.7537 31.8361 35.4873 30.0721 35.4873 28.0057C35.4873 25.9393 34.7537 24.1753 33.2921 22.7137C31.8305 21.2465 30.0665 20.5185 28.0001 20.5185ZM28.0001 5.54966C25.4801 5.54966 23.0161 5.96406 20.6137 6.79846C18.2113 7.62726 15.9993 8.85366 13.9889 10.4609L21.1233 17.5953C23.2009 16.2177 25.4969 15.5289 28.0057 15.5289C30.5145 15.5289 32.8049 16.2177 34.8881 17.5953L42.0225 10.4609C40.0065 8.84806 37.8001 7.62726 35.3977 6.79846C32.9841 5.96406 30.5201 5.54966 28.0001 5.54966ZM45.5393 13.9889L38.4049 21.1177C39.7825 23.1953 40.4713 25.4913 40.4713 28.0001C40.4713 30.5089 39.7825 32.7993 38.4049 34.8825L45.5393 42.0169C47.1521 40.0009 48.3729 37.7945 49.2017 35.3921C50.0361 32.9841 50.4505 30.5201 50.4505 28.0001C50.4505 25.4801 50.0361 23.0161 49.2017 20.6137C48.3729 18.2113 47.1521 16.0049 45.5393 13.9889Z" fill="#232323"/>
</svg>
