<svg width="52" height="46" viewBox="0 0 52 46" fill="none" xmlns="http://www.w3.org/2000/svg">
<path d="M47.9865 26.4619C47.9865 27.833 46.8407 28.907 45.542 28.907H43.0975L43.1509 41.1021C43.1509 41.3154 43.1357 41.5135 43.1127 41.7191V42.9531C43.1127 44.6365 41.7453 46 40.0571 46H38.8348C38.7507 46 38.6667 45.9314 38.5827 45.9924C38.4757 45.9314 38.3688 46 38.2618 46H33.9457C32.2574 46 30.89 44.6365 30.89 42.9531V36.25C30.89 34.9018 29.7976 33.8125 28.4455 33.8125H23.5564C22.2042 33.8125 21.1118 34.9018 21.1118 36.25V42.9531C21.1118 44.6365 19.7444 46 18.0561 46H13.7858C13.6712 46 13.5566 45.9924 13.4421 45.9848C13.3504 45.9924 13.2587 46 13.167 46H11.9448C10.2573 46 8.88909 44.6365 8.88909 42.9531V34.4219C8.88909 34.3533 8.89138 34.2771 8.89597 34.2086V28.907H6.44837C5.07102 28.907 4 27.833 4 26.4619C4 25.7764 4.22948 25.167 4.76468 24.6338L24.3508 7.61059C24.8856 7.07632 25.4967 7 26.0315 7C26.5662 7 27.1774 7.15265 27.6433 7.53427L47.1462 24.6338C47.7574 25.167 48.0706 25.7764 47.9865 26.4619Z" fill="#232323"/>
</svg>
