<svg width="31" height="53" viewBox="0 0 31 53" fill="none" xmlns="http://www.w3.org/2000/svg">
<path d="M0.115169 33.9112C-0.261525 35.4056 0.761939 36.8969 2.30161 36.9634C5.20023 37.0885 8.11591 36.8927 10.9351 36.3793C14.6968 35.6943 18.1979 34.4601 21.1984 32.7613C24.1989 31.0626 26.6278 28.9394 28.3188 26.5373C30.0098 24.1352 30.9228 21.511 30.9953 18.8445C31.0678 16.178 30.298 13.5323 28.7387 11.0888C27.1795 8.64518 24.8676 6.46149 21.9615 4.68734C19.0554 2.91319 15.6238 1.59054 11.902 0.810021C9.08297 0.218846 6.14793 -0.0507288 3.21371 0.00784446C1.70518 0.0379576 0.651231 1.45215 0.942056 2.93268V2.93268C1.19377 4.21409 2.37469 5.08488 3.6805 5.0703C5.72695 5.04744 7.77087 5.24429 9.73702 5.65661C12.4392 6.22329 14.9306 7.18357 17.0405 8.47165C19.1504 9.75973 20.8289 11.3451 21.961 13.1192C23.093 14.8933 23.6519 16.8142 23.5993 18.7501C23.5467 20.686 22.8838 22.5913 21.6561 24.3353C20.4284 26.0792 18.6649 27.6207 16.4865 28.8541C14.308 30.0875 11.7662 30.9835 9.0351 31.4808C7.03138 31.8457 4.96057 31.9897 2.89996 31.9103C1.61754 31.8609 0.428866 32.6668 0.115169 33.9112V33.9112Z" fill="#232323"/>
<circle cx="3" cy="50" r="3" fill="#232323"/>
</svg>
