<svg width="50" height="50" viewBox="0 0 50 50" fill="none" xmlns="http://www.w3.org/2000/svg">
<circle cx="25" cy="25" r="25" fill="url(#paint0_linear_191_1611)"/>
<path d="M24.5105 17.6102C20.6775 17.6102 17.5858 20.7163 17.5858 24.5671C17.5858 28.4178 20.6775 31.5239 24.5105 31.5239C28.3436 31.5239 31.4353 28.4178 31.4353 24.5671C31.4353 20.7163 28.3436 17.6102 24.5105 17.6102ZM24.5105 29.0899C22.0335 29.0899 20.0085 27.0616 20.0085 24.5671C20.0085 22.0725 22.0275 20.0442 24.5105 20.0442C26.9936 20.0442 29.0125 22.0725 29.0125 24.5671C29.0125 27.0616 26.9875 29.0899 24.5105 29.0899V29.0899ZM33.3338 17.3256C33.3338 18.2278 32.6105 18.9483 31.7186 18.9483C30.8206 18.9483 30.1034 18.2217 30.1034 17.3256C30.1034 16.4295 30.8266 15.703 31.7186 15.703C32.6105 15.703 33.3338 16.4295 33.3338 17.3256ZM37.9201 18.9725C37.8177 16.7989 37.3235 14.8735 35.7384 13.2872C34.1594 11.7008 32.2429 11.2043 30.0793 11.0954C27.8494 10.9682 21.1657 10.9682 18.9358 11.0954C16.7782 11.1983 14.8617 11.6948 13.2766 13.2811C11.6916 14.8674 11.2034 16.7928 11.0949 18.9665C10.9684 21.2067 10.9684 27.9213 11.0949 30.1616C11.1974 32.3352 11.6916 34.2606 13.2766 35.8469C14.8617 37.4333 16.7722 37.9298 18.9358 38.0387C21.1657 38.1659 27.8494 38.1659 30.0793 38.0387C32.2429 37.9358 34.1594 37.4393 35.7384 35.8469C37.3175 34.2606 37.8117 32.3352 37.9201 30.1616C38.0467 27.9213 38.0467 21.2128 37.9201 18.9725V18.9725ZM35.0393 32.5653C34.5692 33.752 33.6592 34.6663 32.4719 35.1446C30.694 35.853 26.4753 35.6895 24.5105 35.6895C22.5458 35.6895 18.321 35.8469 16.5492 35.1446C15.3679 34.6723 14.4579 33.7581 13.9818 32.5653C13.2766 30.7792 13.4393 26.5409 13.4393 24.5671C13.4393 22.5932 13.2826 18.3489 13.9818 16.5688C14.4518 15.3821 15.3619 14.4678 16.5492 13.9895C18.3271 13.2811 22.5458 13.4446 24.5105 13.4446C26.4753 13.4446 30.7 13.2872 32.4719 13.9895C33.6532 14.4618 34.5632 15.376 35.0393 16.5688C35.7445 18.3549 35.5817 22.5932 35.5817 24.5671C35.5817 26.5409 35.7445 30.7852 35.0393 32.5653Z" fill="white"/>
<defs>
<linearGradient id="paint0_linear_191_1611" x1="25" y1="0" x2="25" y2="50" gradientUnits="userSpaceOnUse">
<stop stop-color="#833AB4"/>
<stop offset="0.526042" stop-color="#FD1D1D"/>
<stop offset="1" stop-color="#FCB045"/>
</linearGradient>
</defs>
</svg>
