<svg width="49" height="57" viewBox="0 0 49 57" fill="none" xmlns="http://www.w3.org/2000/svg">
<path fill-rule="evenodd" clip-rule="evenodd" d="M0 21.9144C0 33.9673 0.0133525 43.8635 0.0297675 43.9059C0.04606 43.9483 0.109882 43.9831 0.1715 43.9831C0.233118 43.9831 0.296205 44.016 0.311763 44.0562C0.327198 44.0964 0.373748 44.1294 0.414908 44.1294C0.45619 44.1294 0.49 44.1513 0.49 44.1781C0.49 44.2049 0.523075 44.2269 0.5635 44.2269C0.603925 44.2269 0.637 44.2488 0.637 44.2756C0.637 44.3025 0.6811 44.3244 0.735 44.3244C0.7889 44.3244 0.833 44.3463 0.833 44.3732C0.833 44.4 0.888125 44.4219 0.9555 44.4219C1.0317 44.4219 1.078 44.4496 1.078 44.4951C1.078 44.5357 1.12161 44.5682 1.176 44.5682C1.2299 44.5682 1.274 44.5902 1.274 44.617C1.274 44.6438 1.32912 44.6657 1.3965 44.6657C1.46387 44.6657 1.519 44.6877 1.519 44.7145C1.519 44.7413 1.5631 44.7633 1.617 44.7633C1.6709 44.7633 1.715 44.7852 1.715 44.812C1.715 44.8388 1.77013 44.8608 1.8375 44.8608C1.90488 44.8608 1.96 44.8858 1.96 44.9164C1.96 44.9913 2.11129 45.1012 2.21725 45.103C2.26441 45.1039 2.303 45.1265 2.303 45.1534C2.303 45.1802 2.34477 45.2021 2.39573 45.2021C2.44682 45.2021 2.5012 45.235 2.51676 45.2753C2.5322 45.3155 2.58977 45.3484 2.64441 45.3484C2.69917 45.3484 2.744 45.3703 2.744 45.3972C2.744 45.424 2.79912 45.4459 2.8665 45.4459C2.93388 45.4459 2.989 45.4679 2.989 45.4947C2.989 45.5215 3.0331 45.5434 3.087 45.5434C3.1409 45.5434 3.185 45.5654 3.185 45.5922C3.185 45.619 3.24013 45.641 3.3075 45.641C3.37488 45.641 3.43 45.6645 3.43 45.6933C3.43 45.7792 3.56304 45.8848 3.67145 45.8848C3.72731 45.8848 3.773 45.9067 3.773 45.9335C3.773 45.9604 3.81477 45.9823 3.86573 45.9823C3.91682 45.9823 3.9712 46.0152 3.98676 46.0554C4.0022 46.0957 4.05977 46.1286 4.11441 46.1286C4.16917 46.1286 4.214 46.1505 4.214 46.1773C4.214 46.2042 4.2581 46.2261 4.312 46.2261C4.3659 46.2261 4.41 46.2481 4.41 46.2749C4.41 46.3017 4.46513 46.3236 4.5325 46.3236C4.59987 46.3236 4.655 46.3456 4.655 46.3724C4.655 46.3992 4.6991 46.4212 4.753 46.4212C4.80739 46.4212 4.851 46.4537 4.851 46.4943C4.851 46.5345 4.88408 46.5674 4.9245 46.5674C4.96493 46.5674 4.998 46.5894 4.998 46.6162C4.998 46.643 5.0421 46.665 5.096 46.665C5.1499 46.665 5.194 46.6869 5.194 46.7137C5.194 46.7406 5.23969 46.7625 5.29555 46.7625C5.35129 46.7625 5.42773 46.7899 5.46534 46.8234C5.63966 46.9791 5.68657 47.0063 5.77992 47.0063C5.83492 47.0063 5.88 47.0282 5.88 47.0551C5.88 47.0819 5.9241 47.1038 5.978 47.1038C6.0319 47.1038 6.076 47.1258 6.076 47.1526C6.076 47.1794 6.13112 47.2013 6.1985 47.2013C6.26587 47.2013 6.321 47.2263 6.321 47.2569C6.321 47.3319 6.47229 47.4417 6.57825 47.4436C6.62541 47.4444 6.664 47.4671 6.664 47.4939C6.664 47.5207 6.7081 47.5427 6.762 47.5427C6.8159 47.5427 6.86 47.5622 6.86 47.5862C6.86 47.6101 6.91513 47.6434 6.9825 47.6602C7.04988 47.677 7.105 47.7124 7.105 47.7387C7.105 47.7649 7.16013 47.7865 7.2275 47.7865C7.29488 47.7865 7.35 47.8084 7.35 47.8353C7.35 47.8621 7.3941 47.884 7.448 47.884C7.5019 47.884 7.546 47.906 7.546 47.9328C7.546 47.9596 7.60112 47.9815 7.6685 47.9815C7.73588 47.9815 7.791 48.0051 7.791 48.0338C7.791 48.1198 7.92404 48.2253 8.03245 48.2253C8.08831 48.2253 8.134 48.2473 8.134 48.2741C8.134 48.3009 8.1781 48.3229 8.232 48.3229C8.2859 48.3229 8.33 48.3448 8.33 48.3716C8.33 48.3984 8.38513 48.4204 8.4525 48.4204C8.5287 48.4204 8.575 48.4481 8.575 48.4935C8.575 48.5341 8.61861 48.5667 8.673 48.5667C8.7269 48.5667 8.771 48.5886 8.771 48.6154C8.771 48.6423 8.82613 48.6642 8.8935 48.6642C8.96087 48.6642 9.016 48.6861 9.016 48.713C9.016 48.7398 9.05018 48.7617 9.09183 48.7617C9.1336 48.7617 9.21874 48.8166 9.28121 48.8836C9.34369 48.9507 9.43079 49.0055 9.47488 49.0055C9.51898 49.0055 9.555 49.0275 9.555 49.0543C9.555 49.0811 9.61013 49.1031 9.6775 49.1031C9.74487 49.1031 9.8 49.125 9.8 49.1518C9.8 49.1786 9.84177 49.2006 9.89273 49.2006C9.94382 49.2006 9.99821 49.2335 10.0138 49.2737C10.0292 49.3139 10.0868 49.3469 10.1414 49.3469C10.1962 49.3469 10.241 49.3688 10.241 49.3956C10.241 49.4224 10.2838 49.4444 10.3361 49.4444C10.3884 49.4444 10.4448 49.4663 10.4615 49.4931C10.4782 49.52 10.5346 49.5419 10.5869 49.5419C10.6392 49.5419 10.682 49.5669 10.682 49.5975C10.682 49.6725 10.8333 49.7823 10.9393 49.7841C10.9864 49.785 11.025 49.8077 11.025 49.8345C11.025 49.8613 11.0678 49.8832 11.1201 49.8832C11.1724 49.8832 11.2288 49.9052 11.2455 49.932C11.2622 49.9588 11.3186 49.9808 11.3709 49.9808C11.4232 49.9808 11.466 50.0137 11.466 50.0539C11.466 50.0994 11.5123 50.1271 11.5885 50.1271C11.6559 50.1271 11.711 50.149 11.711 50.1758C11.711 50.2026 11.7551 50.2246 11.809 50.2246C11.8629 50.2246 11.907 50.2465 11.907 50.2733C11.907 50.3002 11.9621 50.3221 12.0295 50.3221C12.0969 50.3221 12.152 50.3456 12.152 50.3744C12.152 50.4603 12.285 50.5659 12.3934 50.5659C12.4493 50.5659 12.495 50.5878 12.495 50.6147C12.495 50.6415 12.5391 50.6634 12.593 50.6634C12.6469 50.6634 12.691 50.6854 12.691 50.7122C12.691 50.739 12.7461 50.761 12.8135 50.761C12.8897 50.761 12.936 50.7886 12.936 50.8341C12.936 50.8747 12.9796 50.9072 13.034 50.9072C13.0879 50.9072 13.132 50.9292 13.132 50.956C13.132 50.9828 13.1871 51.0048 13.2545 51.0048C13.3219 51.0048 13.377 51.0267 13.377 51.0535C13.377 51.0803 13.413 51.1023 13.4571 51.1023C13.5012 51.1023 13.5883 51.1571 13.6508 51.2242C13.7133 51.2912 13.7984 51.3461 13.8402 51.3461C13.8818 51.3461 13.916 51.368 13.916 51.3949C13.916 51.4217 13.9711 51.4436 14.0385 51.4436C14.1059 51.4436 14.161 51.4656 14.161 51.4924C14.161 51.5192 14.2028 51.5411 14.2537 51.5411C14.3048 51.5411 14.3592 51.5741 14.3748 51.6143C14.3902 51.6545 14.4478 51.6874 14.5024 51.6874C14.5572 51.6874 14.602 51.7094 14.602 51.7362C14.602 51.763 14.6571 51.7849 14.7245 51.7849C14.7919 51.7849 14.847 51.8069 14.847 51.8337C14.847 51.8605 14.8858 51.8825 14.9334 51.8825C14.9809 51.8825 15.0611 51.9373 15.1117 52.0044C15.1623 52.0714 15.2448 52.1263 15.2949 52.1263C15.345 52.1263 15.386 52.1482 15.386 52.175C15.386 52.2019 15.4411 52.2238 15.5085 52.2238C15.5759 52.2238 15.631 52.2457 15.631 52.2726C15.631 52.2994 15.6751 52.3213 15.729 52.3213C15.7834 52.3213 15.827 52.3539 15.827 52.3945C15.827 52.4399 15.8733 52.4676 15.9495 52.4676C16.0169 52.4676 16.072 52.4896 16.072 52.5164C16.072 52.5432 16.1161 52.5651 16.17 52.5651C16.2239 52.5651 16.268 52.5871 16.268 52.6139C16.268 52.6407 16.3179 52.6627 16.3789 52.6627C16.44 52.6627 16.531 52.7174 16.5817 52.7846C16.6323 52.8516 16.7148 52.9065 16.7649 52.9065C16.815 52.9065 16.856 52.9284 16.856 52.9552C16.856 52.982 16.9001 53.004 16.954 53.004C17.0079 53.004 17.052 53.0259 17.052 53.0528C17.052 53.0796 17.1071 53.1015 17.1745 53.1015C17.2507 53.1015 17.297 53.1292 17.297 53.1747C17.297 53.2153 17.3406 53.2478 17.395 53.2478C17.4489 53.2478 17.493 53.2697 17.493 53.2966C17.493 53.3234 17.5481 53.3453 17.6155 53.3453C17.6829 53.3453 17.738 53.3673 17.738 53.3941C17.738 53.4209 17.7821 53.4428 17.836 53.4428C17.8899 53.4428 17.934 53.4648 17.934 53.4916C17.934 53.5184 17.9647 53.5404 18.0022 53.5404C18.0398 53.5404 18.0832 53.5733 18.0988 53.6135C18.1142 53.6537 18.1607 53.6867 18.2019 53.6867C18.2432 53.6867 18.277 53.7086 18.277 53.7354C18.277 53.7622 18.3321 53.7842 18.3995 53.7842C18.4669 53.7842 18.522 53.8061 18.522 53.8329C18.522 53.8598 18.5638 53.8817 18.6147 53.8817C18.6658 53.8817 18.7202 53.9146 18.7358 53.9548C18.7512 53.9951 18.8088 54.028 18.8634 54.028C18.9182 54.028 18.963 54.0499 18.963 54.0768C18.963 54.1036 19.0181 54.1255 19.0855 54.1255C19.1529 54.1255 19.208 54.1475 19.208 54.1743C19.208 54.2011 19.244 54.223 19.2881 54.223C19.3322 54.223 19.4193 54.2779 19.4818 54.3449C19.5443 54.412 19.6294 54.4668 19.6712 54.4668C19.7128 54.4668 19.747 54.4888 19.747 54.5156C19.747 54.5424 19.8021 54.5644 19.8695 54.5644C19.9369 54.5644 19.992 54.5863 19.992 54.6131C19.992 54.6399 20.0361 54.6619 20.09 54.6619C20.1439 54.6619 20.188 54.6835 20.188 54.7097C20.188 54.736 20.2431 54.7714 20.3105 54.7882C20.3779 54.805 20.433 54.8383 20.433 54.8622C20.433 54.8862 20.4771 54.9057 20.531 54.9057C20.5849 54.9057 20.629 54.9276 20.629 54.9545C20.629 54.9813 20.6789 55.0032 20.7399 55.0032C20.801 55.0032 20.892 55.058 20.9427 55.1251C20.9933 55.1922 21.0758 55.247 21.1259 55.247C21.176 55.247 21.217 55.269 21.217 55.2958C21.217 55.3226 21.2611 55.3446 21.315 55.3446C21.3689 55.3446 21.413 55.3665 21.413 55.3933C21.413 55.4201 21.4681 55.4421 21.5355 55.4421C21.6029 55.4421 21.658 55.464 21.658 55.4908C21.658 55.5177 21.6998 55.5396 21.7507 55.5396C21.8018 55.5396 21.8562 55.5725 21.8718 55.6127C21.8872 55.653 21.9448 55.6859 21.9994 55.6859C22.0542 55.6859 22.099 55.7078 22.099 55.7346C22.099 55.7615 22.1389 55.7834 22.1878 55.7834C22.2366 55.7834 22.3297 55.8328 22.3945 55.8931C22.5334 56.0222 22.7196 56.1247 22.8151 56.1247C22.8525 56.1247 22.883 56.1467 22.883 56.1735C22.883 56.2003 22.9258 56.2223 22.9781 56.2223C23.0304 56.2223 23.0868 56.2442 23.1035 56.271C23.1202 56.2978 23.1766 56.3198 23.2289 56.3198C23.2812 56.3198 23.324 56.3527 23.324 56.3929C23.324 56.4384 23.3703 56.4661 23.4465 56.4661C23.5139 56.4661 23.569 56.488 23.569 56.5148C23.569 56.5417 23.6131 56.5636 23.667 56.5636C23.7209 56.5636 23.765 56.5855 23.765 56.6124C23.765 56.6392 23.7957 56.6611 23.8332 56.6611C23.8708 56.6611 23.9142 56.694 23.9298 56.7343C23.9452 56.7745 23.9899 56.8074 24.0289 56.8074C24.0679 56.8074 24.1087 56.8339 24.1195 56.8662C24.1325 56.9051 24.262 56.925 24.5 56.925C24.738 56.925 24.8675 56.9051 24.8805 56.8662C24.8913 56.8339 24.9431 56.8074 24.9956 56.8074C25.0481 56.8074 25.1038 56.7745 25.1192 56.7343C25.1348 56.694 25.1892 56.6611 25.2403 56.6611C25.2912 56.6611 25.333 56.6392 25.333 56.6124C25.333 56.5855 25.3758 56.5636 25.4281 56.5636C25.4804 56.5636 25.5368 56.5417 25.5535 56.5148C25.5702 56.488 25.6266 56.4661 25.6789 56.4661C25.7312 56.4661 25.774 56.4332 25.774 56.3929C25.774 56.3527 25.8071 56.3198 25.8475 56.3198C25.8879 56.3198 25.921 56.2978 25.921 56.271C25.921 56.2442 25.9651 56.2223 26.019 56.2223C26.0729 56.2223 26.117 56.2003 26.117 56.1735C26.117 56.1467 26.1721 56.1247 26.2395 56.1247C26.3069 56.1247 26.362 56.1028 26.362 56.076C26.362 56.0492 26.4061 56.0272 26.46 56.0272C26.5144 56.0272 26.558 55.9947 26.558 55.9541C26.558 55.9086 26.6043 55.8809 26.6805 55.8809C26.7479 55.8809 26.803 55.859 26.803 55.8322C26.803 55.8054 26.8471 55.7834 26.901 55.7834C26.9549 55.7834 26.999 55.7615 26.999 55.7346C26.999 55.7078 27.04 55.6859 27.0901 55.6859C27.1402 55.6859 27.2227 55.631 27.2733 55.564C27.324 55.4968 27.415 55.4421 27.4761 55.4421C27.5371 55.4421 27.587 55.4201 27.587 55.3933C27.587 55.3665 27.6311 55.3446 27.685 55.3446C27.7389 55.3446 27.783 55.3226 27.783 55.2958C27.783 55.269 27.8278 55.247 27.8826 55.247C27.9372 55.247 27.9948 55.2141 28.0102 55.1739C28.0258 55.1337 28.0802 55.1007 28.1313 55.1007C28.1822 55.1007 28.224 55.0788 28.224 55.052C28.224 55.0252 28.2791 55.0032 28.3465 55.0032C28.4139 55.0032 28.469 54.9813 28.469 54.9545C28.469 54.9276 28.5032 54.9057 28.5448 54.9057C28.5866 54.9057 28.6717 54.8508 28.7342 54.7838C28.7967 54.7167 28.8838 54.6619 28.9279 54.6619C28.972 54.6619 29.008 54.6399 29.008 54.6131C29.008 54.5863 29.0631 54.5644 29.1305 54.5644C29.1979 54.5644 29.253 54.5424 29.253 54.5156C29.253 54.4888 29.2978 54.4668 29.3526 54.4668C29.4072 54.4668 29.4648 54.4339 29.4802 54.3937C29.4958 54.3535 29.5502 54.3206 29.6013 54.3206C29.6522 54.3206 29.694 54.2986 29.694 54.2718C29.694 54.245 29.7339 54.223 29.7828 54.223C29.8316 54.223 29.9189 54.1791 29.9767 54.1255C30.0345 54.0719 30.1166 54.028 30.159 54.028C30.2014 54.028 30.2488 53.9951 30.2642 53.9548C30.2798 53.9146 30.3342 53.8817 30.3853 53.8817C30.4362 53.8817 30.478 53.8598 30.478 53.8329C30.478 53.8061 30.5331 53.7842 30.6005 53.7842C30.6679 53.7842 30.723 53.7622 30.723 53.7354C30.723 53.7086 30.7671 53.6867 30.821 53.6867C30.8754 53.6867 30.919 53.6541 30.919 53.6135C30.919 53.568 30.9653 53.5404 31.0415 53.5404C31.1089 53.5404 31.164 53.5184 31.164 53.4916C31.164 53.4648 31.2081 53.4428 31.262 53.4428C31.3159 53.4428 31.36 53.4209 31.36 53.3941C31.36 53.3673 31.3931 53.3453 31.4335 53.3453C31.4739 53.3453 31.507 53.3234 31.507 53.2966C31.507 53.2697 31.5511 53.2478 31.605 53.2478C31.6594 53.2478 31.703 53.2153 31.703 53.1747C31.703 53.1292 31.7493 53.1015 31.8255 53.1015C31.8929 53.1015 31.948 53.0796 31.948 53.0528C31.948 53.0259 31.9921 53.004 32.046 53.004C32.0999 53.004 32.144 52.982 32.144 52.9552C32.144 52.9284 32.1991 52.9065 32.2665 52.9065C32.3427 52.9065 32.389 52.8788 32.389 52.8333C32.389 52.7927 32.4326 52.7602 32.487 52.7602C32.5409 52.7602 32.585 52.7382 32.585 52.7114C32.585 52.6846 32.6352 52.6627 32.6967 52.6627C32.7581 52.6627 32.8402 52.6188 32.879 52.5651C32.9178 52.5115 32.9999 52.4676 33.0613 52.4676C33.1279 52.4676 33.173 52.4381 33.173 52.3945C33.173 52.3539 33.2166 52.3213 33.271 52.3213C33.3249 52.3213 33.369 52.2994 33.369 52.2726C33.369 52.2457 33.4241 52.2238 33.4915 52.2238C33.5589 52.2238 33.614 52.2019 33.614 52.175C33.614 52.1482 33.6588 52.1263 33.7136 52.1263C33.7682 52.1263 33.8258 52.0934 33.8412 52.0531C33.8568 52.0129 33.9112 51.98 33.9623 51.98C34.0132 51.98 34.055 51.9581 34.055 51.9312C34.055 51.9044 34.1052 51.8825 34.1667 51.8825C34.2281 51.8825 34.3102 51.8386 34.349 51.7849C34.3878 51.7313 34.4596 51.6874 34.5084 51.6874C34.5571 51.6874 34.6098 51.6545 34.6252 51.6143C34.6408 51.5741 34.6952 51.5411 34.7463 51.5411C34.7972 51.5411 34.839 51.5192 34.839 51.4924C34.839 51.4656 34.8941 51.4436 34.9615 51.4436C35.0289 51.4436 35.084 51.4217 35.084 51.3949C35.084 51.368 35.1281 51.3461 35.182 51.3461C35.2359 51.3461 35.28 51.3245 35.28 51.2983C35.28 51.272 35.3351 51.2366 35.4025 51.2198C35.4699 51.203 35.525 51.1697 35.525 51.1458C35.525 51.1218 35.5691 51.1023 35.623 51.1023C35.6769 51.1023 35.721 51.0803 35.721 51.0535C35.721 51.0267 35.7541 51.0048 35.7945 51.0048C35.8349 51.0048 35.868 50.9828 35.868 50.956C35.868 50.9292 35.9121 50.9072 35.966 50.9072C36.0204 50.9072 36.064 50.8747 36.064 50.8341C36.064 50.7886 36.1103 50.761 36.1865 50.761C36.2539 50.761 36.309 50.739 36.309 50.7122C36.309 50.6854 36.3531 50.6634 36.407 50.6634C36.4609 50.6634 36.505 50.6415 36.505 50.6147C36.505 50.5878 36.5501 50.5659 36.6051 50.5659C36.6984 50.5659 36.7453 50.5387 36.9197 50.383C36.9573 50.3495 37.0117 50.3221 37.0404 50.3221C37.0694 50.3221 37.093 50.3002 37.093 50.2733C37.093 50.2465 37.1371 50.2246 37.191 50.2246C37.2449 50.2246 37.289 50.2026 37.289 50.1758C37.289 50.149 37.3441 50.1271 37.4115 50.1271C37.4877 50.1271 37.534 50.0994 37.534 50.0539C37.534 50.0084 37.5803 49.9808 37.6565 49.9808C37.7239 49.9808 37.779 49.9588 37.779 49.932C37.779 49.9052 37.8231 49.8832 37.877 49.8832C37.9309 49.8832 37.975 49.8613 37.975 49.8345C37.975 49.8077 38.0088 49.7857 38.0502 49.7857C38.1319 49.7857 38.3353 49.6665 38.4864 49.5301C38.5387 49.4829 38.6214 49.4444 38.6702 49.4444C38.7191 49.4444 38.759 49.4224 38.759 49.3956C38.759 49.3688 38.8038 49.3469 38.8586 49.3469C38.9132 49.3469 38.9708 49.3139 38.9862 49.2737C39.0018 49.2335 39.0562 49.2006 39.1073 49.2006C39.1582 49.2006 39.2 49.1786 39.2 49.1518C39.2 49.125 39.2551 49.1031 39.3225 49.1031C39.3899 49.1031 39.445 49.0811 39.445 49.0543C39.445 49.0275 39.4891 49.0055 39.543 49.0055C39.5969 49.0055 39.641 48.9836 39.641 48.9568C39.641 48.93 39.6731 48.908 39.7123 48.908C39.7515 48.908 39.8387 48.8532 39.9061 48.7861C39.9735 48.7191 40.0737 48.6642 40.1288 48.6642C40.1839 48.6642 40.229 48.6423 40.229 48.6154C40.229 48.5886 40.2731 48.5667 40.327 48.5667C40.3814 48.5667 40.425 48.5341 40.425 48.4935C40.425 48.4481 40.4713 48.4204 40.5475 48.4204C40.6149 48.4204 40.67 48.3984 40.67 48.3716C40.67 48.3448 40.7141 48.3229 40.768 48.3229C40.8219 48.3229 40.866 48.3009 40.866 48.2741C40.866 48.2473 40.9211 48.2253 40.9885 48.2253C41.0559 48.2253 41.111 48.2034 41.111 48.1766C41.111 48.1498 41.1388 48.1278 41.1727 48.1278C41.2067 48.1278 41.2939 48.073 41.3667 48.0059C41.4393 47.9389 41.5328 47.884 41.5744 47.884C41.6159 47.884 41.65 47.8621 41.65 47.8353C41.65 47.8084 41.7051 47.7865 41.7725 47.7865C41.8399 47.7865 41.895 47.7649 41.895 47.7387C41.895 47.7124 41.9501 47.677 42.0175 47.6602C42.0849 47.6434 42.14 47.6101 42.14 47.5862C42.14 47.5622 42.1841 47.5427 42.238 47.5427C42.2919 47.5427 42.336 47.5207 42.336 47.4939C42.336 47.4671 42.3656 47.4452 42.402 47.4452C42.5003 47.4452 42.777 47.2986 42.777 47.2466C42.777 47.2217 42.8101 47.2013 42.8505 47.2013C42.8909 47.2013 42.924 47.1794 42.924 47.1526C42.924 47.1258 42.9681 47.1038 43.022 47.1038C43.0759 47.1038 43.12 47.0819 43.12 47.0551C43.12 47.0282 43.1657 47.0063 43.2216 47.0063C43.2773 47.0063 43.3537 46.9789 43.3913 46.9454C43.5657 46.7897 43.6126 46.7625 43.7059 46.7625C43.7609 46.7625 43.806 46.7406 43.806 46.7137C43.806 46.6869 43.8501 46.665 43.904 46.665C43.9579 46.665 44.002 46.643 44.002 46.6162C44.002 46.5894 44.0351 46.5674 44.0755 46.5674C44.1159 46.5674 44.149 46.5345 44.149 46.4943C44.149 46.4537 44.1926 46.4212 44.247 46.4212C44.3009 46.4212 44.345 46.3992 44.345 46.3724C44.345 46.3456 44.4001 46.3236 44.4675 46.3236C44.5349 46.3236 44.59 46.3017 44.59 46.2749C44.59 46.2481 44.6341 46.2261 44.688 46.2261C44.7419 46.2261 44.786 46.2042 44.786 46.1773C44.786 46.1505 44.8308 46.1286 44.8856 46.1286C44.9402 46.1286 44.9978 46.0957 45.0132 46.0554C45.0288 46.0152 45.0832 45.9823 45.1343 45.9823C45.1852 45.9823 45.227 45.9604 45.227 45.9335C45.227 45.9067 45.2727 45.8848 45.3286 45.8848C45.437 45.8848 45.57 45.7792 45.57 45.6933C45.57 45.6645 45.6251 45.641 45.6925 45.641C45.7599 45.641 45.815 45.619 45.815 45.5922C45.815 45.5654 45.8591 45.5434 45.913 45.5434C45.9669 45.5434 46.011 45.5215 46.011 45.4947C46.011 45.4679 46.0661 45.4459 46.1335 45.4459C46.2009 45.4459 46.256 45.424 46.256 45.3972C46.256 45.3703 46.3008 45.3484 46.3556 45.3484C46.4102 45.3484 46.4678 45.3155 46.4832 45.2753C46.4988 45.235 46.5532 45.2021 46.6043 45.2021C46.6552 45.2021 46.697 45.1802 46.697 45.1534C46.697 45.1265 46.7356 45.1039 46.7827 45.103C46.8887 45.1012 47.04 44.9913 47.04 44.9164C47.04 44.8858 47.0951 44.8608 47.1625 44.8608C47.2299 44.8608 47.285 44.8388 47.285 44.812C47.285 44.7852 47.3291 44.7633 47.383 44.7633C47.4369 44.7633 47.481 44.7413 47.481 44.7145C47.481 44.6877 47.5361 44.6657 47.6035 44.6657C47.6709 44.6657 47.726 44.6438 47.726 44.617C47.726 44.5902 47.7701 44.5682 47.824 44.5682C47.8784 44.5682 47.922 44.5357 47.922 44.4951C47.922 44.4496 47.9683 44.4219 48.0445 44.4219C48.1119 44.4219 48.167 44.4 48.167 44.3732C48.167 44.3463 48.2111 44.3244 48.265 44.3244C48.3189 44.3244 48.363 44.3025 48.363 44.2756C48.363 44.2488 48.3961 44.2269 48.4365 44.2269C48.4769 44.2269 48.51 44.2049 48.51 44.1781C48.51 44.1513 48.5438 44.1294 48.5851 44.1294C48.6263 44.1294 48.6728 44.0964 48.6882 44.0562C48.7038 44.016 48.7669 43.9831 48.8285 43.9831C48.8901 43.9831 48.9539 43.9483 48.9702 43.9059C48.9866 43.8635 49 33.9673 49 21.9144V0H24.5H0V21.9144ZM22.5643 14.5554C22.5641 16.8886 22.5443 19.0335 22.52 19.3218C22.4621 20.0135 22.5042 19.9986 22.9705 19.1634C23.0378 19.0427 23.134 18.8857 23.184 18.8145C23.2341 18.7433 23.275 18.6699 23.275 18.6514C23.275 18.6328 23.3159 18.5594 23.366 18.4883C23.416 18.4171 23.5128 18.26 23.581 18.1394C23.6491 18.0187 23.9636 17.4811 24.2797 16.9447C24.5959 16.4083 24.8949 15.8996 24.9442 15.8142C24.9934 15.7287 25.0901 15.5701 25.1589 15.4616C25.2276 15.3531 25.284 15.2525 25.284 15.238C25.284 15.2235 25.3404 15.123 25.4091 15.0145C25.4779 14.906 25.5746 14.7474 25.6239 14.6619C25.6732 14.5765 25.9731 14.0678 26.2903 13.5314C26.6076 12.995 26.9409 12.43 27.0311 12.2758C27.1213 12.1216 27.2752 11.8582 27.3734 11.6906C27.4714 11.523 27.5765 11.342 27.6068 11.2883C27.8103 10.9287 28.1062 10.4459 28.1669 10.3741C28.2592 10.2652 38.4933 10.2389 38.6022 10.3472C38.6897 10.4343 38.6872 21.0125 38.5998 21.1255C38.5644 21.1712 38.2909 21.2655 37.9505 21.3491C37.4185 21.4798 36.8435 21.6266 34.447 22.243C34.0293 22.3505 33.5552 22.4701 33.3935 22.5088C33.2318 22.5475 33.0334 22.5981 32.9525 22.6213C32.8263 22.6575 32.3371 22.7829 31.5805 22.9729C31.4727 22.9999 31.3183 23.0419 31.2375 23.0659C31.1567 23.0899 30.9141 23.1526 30.6985 23.2051C30.4829 23.2576 30.0088 23.3786 29.645 23.4736C29.2812 23.5687 28.6197 23.7383 28.175 23.8505C27.7303 23.9626 27.3569 24.0623 27.3453 24.0722C27.2566 24.1463 27.4313 24.1969 29.351 24.6536C29.7418 24.7466 30.1387 24.8429 30.233 24.8677C30.3273 24.8925 30.7353 24.9915 31.1395 25.0875C31.5438 25.1836 31.9517 25.2823 32.046 25.307C32.1403 25.3316 32.5427 25.4292 32.9404 25.5242C34.6054 25.9215 35.1177 26.0447 35.28 26.087C35.3743 26.1117 35.694 26.1883 35.9905 26.2576C36.2869 26.3268 36.6122 26.4046 36.7133 26.4306C37.1351 26.5387 37.2916 26.5764 37.828 26.6991C38.1379 26.7702 38.4466 26.8544 38.514 26.8864L38.6365 26.9446L38.649 32.4475C38.6581 36.4846 38.6467 37.9682 38.606 38.017C38.5598 38.0723 37.7146 38.0813 33.5036 38.071L28.4565 38.0585L28.0463 37.3581C27.8206 36.9728 27.636 36.6471 27.636 36.6342C27.636 36.6213 27.5951 36.5525 27.545 36.4813C27.495 36.4101 27.3988 36.2531 27.3315 36.1324C27.1246 35.7622 26.9957 35.5362 26.803 35.206C26.7013 35.0316 26.5742 34.8122 26.5205 34.7183C26.4669 34.6245 26.3404 34.4051 26.2395 34.2307C26.1386 34.0564 26.0119 33.837 25.958 33.7431C25.9041 33.6492 25.65 33.2104 25.3936 32.7679C25.1371 32.3254 24.8741 31.8693 24.8092 31.7545C24.7441 31.6395 24.5489 31.3021 24.375 31.0045C24.2012 30.707 24.059 30.4557 24.059 30.4463C24.059 30.4369 23.9818 30.3092 23.8875 30.1624C23.7932 30.0156 23.716 29.8855 23.716 29.8729C23.716 29.8605 23.6136 29.6783 23.4884 29.4683C23.3632 29.2583 23.2052 28.9876 23.1373 28.8669C23.0694 28.7463 22.9696 28.5707 22.9155 28.4768C22.8612 28.383 22.7558 28.197 22.6811 28.0636C22.5142 27.7652 22.4681 27.835 22.5143 28.3159C22.5319 28.4983 22.5568 30.7705 22.5696 33.3652L22.5932 38.0829H16.5249C11.8705 38.0829 10.4429 38.0693 10.3978 38.0244C10.3119 37.9389 10.3122 10.4324 10.398 10.347C10.4435 10.3018 11.8428 10.2912 16.5108 10.3007L22.5645 10.3131L22.5643 14.5554Z" fill="#232323"/>
</svg>
