<svg width="51" height="27" viewBox="0 0 51 27" fill="none" xmlns="http://www.w3.org/2000/svg">
<path fill-rule="evenodd" clip-rule="evenodd" d="M7.71445 13L3.64084 15.1122C2.71111 15.5943 3.05388 17 4.10116 17H38.7298C38.9069 17 39.0808 16.953 39.2337 16.8638L47.8051 11.8638C48.6868 11.3495 48.322 10 47.3013 10H44.143L39.2337 12.8638C39.0808 12.953 38.9069 13 38.7298 13H7.71445Z" fill="#232323"/>
<path fill-rule="evenodd" clip-rule="evenodd" d="M7.61485 23L3.54123 25.1122C2.61151 25.5943 2.95427 27 4.00155 27H38.6302C38.8073 27 38.9811 26.953 39.1341 26.8638L47.7055 21.8638C48.5872 21.3495 48.2224 20 47.2016 20H44.0434L39.1341 22.8638C38.9811 22.953 38.8073 23 38.6302 23H7.61485Z" fill="#232323"/>
<path d="M13.2835 0.112246C13.4258 0.0384957 13.5836 0 13.7438 0H47.3011C48.3218 0 48.6866 1.34946 47.805 1.86378L39.2335 6.86378C39.0806 6.95299 38.9067 7 38.7297 7H4.10099C3.05371 7 2.71095 5.59432 3.64067 5.11225L13.2835 0.112246Z" fill="#232323"/>
</svg>
