<svg width="104" height="55" viewBox="0 0 104 55" fill="none" xmlns="http://www.w3.org/2000/svg">
<path d="M25 25C23.3431 25 22 23.6569 22 22C22 20.3431 23.3431 19 25 19H36C37.6569 19 39 20.3431 39 22C39 23.6569 37.6569 25 36 25H25Z" fill="#232323"/>
<path d="M69 25C67.3431 25 66 23.6569 66 22C66 20.3431 67.3431 19 69 19H79C80.6569 19 82 20.3431 82 22C82 23.6569 80.6569 25 79 25H69Z" fill="#232323"/>
<path d="M55.2381 32.1077C55.9203 33.6176 55.2492 35.3947 53.7393 36.0768C52.2294 36.759 50.4524 36.0879 49.7702 34.578L41.2351 15.6858C40.553 14.1759 41.224 12.3989 42.7339 11.7168C44.2439 11.0346 46.0209 11.7057 46.703 13.2156L55.2381 32.1077Z" fill="#232323"/>
<path d="M49.9212 32.1077C49.239 33.6176 49.9101 35.3947 51.42 36.0768C52.9299 36.759 54.7069 36.0879 55.3891 34.578L64.3426 14.7595C65.0248 13.2496 64.3538 11.4726 62.8438 10.7904C61.3339 10.1083 59.5569 10.7793 58.8748 12.2892L49.9212 32.1077Z" fill="#232323"/>
<path d="M6.62715 51.9699C5.66546 53.3191 3.79212 53.6332 2.44293 52.6716C1.09373 51.7099 0.779591 49.8365 1.74127 48.4873L21.8011 20.3443C22.7628 18.9951 24.6361 18.681 25.9853 19.6427C27.3345 20.6044 27.6487 22.4777 26.687 23.8269L6.62715 51.9699Z" fill="#232323"/>
<path d="M96.7405 51.9835C97.7022 53.3327 99.5756 53.6468 100.925 52.6851C102.274 51.7234 102.588 49.8501 101.626 48.5009L81.6272 20.443C80.6655 19.0938 78.7922 18.7796 77.443 19.7413C76.0938 20.703 75.7796 22.5763 76.7413 23.9255L96.7405 51.9835Z" fill="#232323"/>
<path d="M4 54C2.34315 54 1 52.6569 1 51C1 49.3431 2.34315 48 4 48L99 48C100.657 48 102 49.3431 102 51C102 52.6569 100.657 54 99 54L4 54Z" fill="#232323"/>
<path d="M64.3758 14.7108C64.789 12.9291 64.7894 11.0766 64.3771 9.29476C63.9648 7.51292 63.1507 5.84889 61.9969 4.42982C60.8431 3.01075 59.3803 1.87417 57.72 1.10694C56.0598 0.339703 54.2462 -0.0378924 52.4177 0.00299982C50.5893 0.0438921 48.7943 0.50219 47.1701 1.34288C45.5458 2.18357 44.1352 3.3844 43.046 4.85364C41.9569 6.32288 41.2179 8.02164 40.8857 9.82013C40.5535 11.6186 40.6367 13.4693 41.1291 15.2307L46.8181 13.6403C46.5681 12.746 46.5258 11.8064 46.6945 10.8932C46.8632 9.98003 47.2384 9.1175 47.7914 8.37151C48.3445 7.62553 49.0607 7.01581 49.8854 6.58896C50.7101 6.16211 51.6214 5.92942 52.5498 5.90865C53.4782 5.88789 54.399 6.07961 55.242 6.46917C56.085 6.85872 56.8277 7.4358 57.4135 8.15632C57.9993 8.87684 58.4127 9.72173 58.6221 10.6264C58.8314 11.5312 58.8312 12.4718 58.6214 13.3764L64.3758 14.7108Z" fill="#232323"/>
<circle cx="53" cy="12" r="2" fill="#232323"/>
</svg>
