<svg width="70" height="70" viewBox="0 0 70 70" fill="none" xmlns="http://www.w3.org/2000/svg">
<path d="M51.1665 55.1665H18.2333C13.705 55.1665 10 51.4615 10 46.9332V16.0583C10 14.8233 10.8233 14 12.0583 14H51.1665C52.4015 14 53.2248 14.8233 53.2248 16.0583V44.8749C53.2248 46.1099 52.4015 46.9332 51.1665 46.9332C49.9315 46.9332 49.1082 46.1099 49.1082 44.8749V18.1167H14.1166V46.9332C14.1166 49.1974 15.9691 51.0499 18.2333 51.0499H51.1665C52.4015 51.0499 53.2248 51.8732 53.2248 53.1082C53.2248 54.3432 52.4015 55.1665 51.1665 55.1665Z" fill="#232323"/>
<path d="M34.6999 18.1167C33.4649 18.1167 32.6415 17.2933 32.6415 16.0583C32.6415 14.8233 33.4649 14 34.6999 14C35.9349 14 36.7582 14.8233 36.7582 16.0583C36.7582 17.2933 35.9349 18.1167 34.6999 18.1167Z" fill="#232323"/>
<path d="M51.1665 55.1666H40.8749C39.6399 55.1666 38.8165 54.3432 38.8165 53.1082C38.8165 51.8732 39.6399 51.0499 40.8749 51.0499H51.1665C53.4306 51.0499 55.2831 49.1974 55.2831 46.9332V22.2333H51.1665C49.9315 22.2333 49.1082 21.41 49.1082 20.175C49.1082 18.94 49.9315 18.1167 51.1665 18.1167H57.3415C58.5764 18.1167 59.3998 18.94 59.3998 20.175V46.9332C59.3998 51.4616 55.6948 55.1666 51.1665 55.1666Z" fill="#232323"/>
<path d="M30.5832 38.6995H20.2916C19.0566 38.6995 18.2333 37.8762 18.2333 36.6412V24.2912C18.2333 23.0562 19.0566 22.2329 20.2916 22.2329H30.5832C31.8182 22.2329 32.6416 23.0562 32.6416 24.2912V36.6412C32.6416 37.8762 31.8182 38.6995 30.5832 38.6995ZM22.3499 34.5829H28.5249V26.3496H22.3499V34.5829Z" fill="#232323"/>
<path d="M42.9332 26.3496H36.7582C35.5232 26.3496 34.6999 25.5262 34.6999 24.2912C34.6999 23.0562 35.5232 22.2329 36.7582 22.2329H42.9332C44.1682 22.2329 44.9915 23.0562 44.9915 24.2912C44.9915 25.5262 44.1682 26.3496 42.9332 26.3496Z" fill="#232323"/>
<path d="M42.9332 32.5249H36.7582C35.5232 32.5249 34.6999 31.7015 34.6999 30.4665C34.6999 29.2315 35.5232 28.4082 36.7582 28.4082H42.9332C44.1682 28.4082 44.9915 29.2315 44.9915 30.4665C44.9915 31.7015 44.1682 32.5249 42.9332 32.5249Z" fill="#232323"/>
<path d="M42.9332 38.7001H36.7582C35.5232 38.7001 34.6999 37.8768 34.6999 36.6418C34.6999 35.4068 35.5232 34.5835 36.7582 34.5835H42.9332C44.1682 34.5835 44.9915 35.4068 44.9915 36.6418C44.9915 37.8768 44.1682 38.7001 42.9332 38.7001Z" fill="#232323"/>
<path d="M42.9332 46.9331H20.2916C19.0566 46.9331 18.2333 46.1097 18.2333 44.8747C18.2333 43.6397 19.0566 42.8164 20.2916 42.8164H42.9332C44.1682 42.8164 44.9915 43.6397 44.9915 44.8747C44.9915 46.1097 44.1682 46.9331 42.9332 46.9331Z" fill="#232323"/>
</svg>
