<svg width="18" height="18" viewBox="0 0 18 18" fill="none" xmlns="http://www.w3.org/2000/svg">
<g clip-path="url(#clip0_682_494)">
<path d="M17.047 4.73827C17.0591 4.90232 17.0591 5.06641 17.0591 5.23047C17.0591 10.2344 13.1409 16 5.97972 16C3.77348 16 1.724 15.3789 0 14.3008C0.313464 14.3359 0.614831 14.3477 0.940355 14.3477C2.76076 14.3477 4.43655 13.75 5.77476 12.7305C4.06282 12.6953 2.62817 11.6055 2.13387 10.1055C2.37501 10.1406 2.61611 10.164 2.86931 10.164C3.21892 10.164 3.56856 10.1172 3.89405 10.0352C2.10979 9.68357 0.771544 8.16015 0.771544 6.32031V6.27345C1.28993 6.5547 1.89277 6.73048 2.53169 6.75389C1.48282 6.07419 0.795665 4.91405 0.795665 3.60154C0.795665 2.89842 0.988523 2.25389 1.32611 1.69139C3.243 3.98826 6.12437 5.48824 9.35531 5.65233C9.29504 5.37108 9.25886 5.07814 9.25886 4.78516C9.25886 2.6992 10.9949 1 13.1529 1C14.2741 1 15.2868 1.45703 15.9981 2.19531C16.8782 2.03126 17.7221 1.71484 18.4696 1.28125C18.1802 2.16018 17.5653 2.89846 16.7576 3.36718C17.5413 3.28519 18.3008 3.0742 19 2.78126C18.4696 3.53123 17.8065 4.19917 17.047 4.73827V4.73827Z" fill="#ECECEC"/>
</g>
<defs>
<clipPath id="clip0_682_494">
<rect width="18" height="18" fill="white"/>
</clipPath>
</defs>
</svg>
