<svg width="24" height="6" viewBox="0 0 24 6" fill="none" xmlns="http://www.w3.org/2000/svg">
<path d="M8.35128 0.696L6.79128 5H5.59128L4.62328 2.328L3.62328 5H2.42328L0.871281 0.696H2.04728L3.06328 3.608L4.11928 0.696H5.17528L6.19928 3.608L7.24728 0.696H8.35128ZM15.7419 0.696L14.1819 5H12.9819L12.0139 2.328L11.0139 5H9.81391L8.26191 0.696H9.43791L10.4539 3.608L11.5099 0.696H12.5659L13.5899 3.608L14.6379 0.696H15.7419ZM23.1325 0.696L21.5725 5H20.3725L19.4045 2.328L18.4045 5H17.2045L15.6525 0.696H16.8285L17.8445 3.608L18.9005 0.696H19.9565L20.9805 3.608L22.0285 0.696H23.1325Z" fill="#ECECEC"/>
</svg>
