<svg width="22" height="18" viewBox="0 0 22 18" fill="none" xmlns="http://www.w3.org/2000/svg">
<path d="M0.271863 9.97732C2.11331 8.95671 4.16886 8.1049 6.08947 7.24873C9.39367 5.8464 12.711 4.46837 16.0618 3.18544C16.7138 2.96684 17.8851 2.75306 18 3.7252C17.9371 5.10125 17.6784 6.46924 17.5009 7.83723C17.0505 10.8456 16.5298 13.8436 16.0222 16.8421C15.8472 17.8408 14.6038 18.3578 13.8082 17.7187C11.8961 16.4191 9.96929 15.1322 8.08163 13.8025C7.46328 13.1703 8.03667 12.2624 8.58892 11.811C10.1638 10.2493 11.8339 8.92257 13.3265 7.28023C13.7291 6.30195 12.5395 7.12642 12.1471 7.37903C9.99115 8.87396 7.88794 10.4602 5.61487 11.774C4.45378 12.4171 3.10052 11.8675 1.93996 11.5086C0.899373 11.0751 -0.625473 10.6384 0.271758 9.97739L0.271863 9.97732Z" fill="#ECECEC"/>
</svg>
