<svg width="36" height="30" viewBox="0 0 36 30" fill="none" xmlns="http://www.w3.org/2000/svg">
<path d="M18.1667 29.0047C19.9156 29.0047 21.3333 27.587 21.3333 25.8381C21.3333 24.0892 19.9156 22.6714 18.1667 22.6714C16.4178 22.6714 15 24.0892 15 25.8381C15 27.587 16.4178 29.0047 18.1667 29.0047Z" fill="black"/>
<path d="M27.2849 17.7001C27.853 18.6474 29.0815 18.9547 30.0287 18.3865C30.976 17.8184 31.2833 16.5899 30.7151 15.6426L27.2849 17.7001ZM24.6736 13.0633L25.5062 11.2449V11.2449L24.6736 13.0633ZM18.0808 11.6719L18.0661 13.6718L18.0808 11.6719ZM11.444 12.966L10.6438 11.133L10.6438 11.133L11.444 12.966ZM5.31417 15.4334C4.71986 16.3644 4.99285 17.601 5.92391 18.1953C6.85497 18.7896 8.09152 18.5166 8.68583 17.5856L5.31417 15.4334ZM30.7151 15.6426C29.583 13.7551 27.7235 12.2601 25.5062 11.2449L23.841 14.8818C25.5108 15.6464 26.6626 16.6626 27.2849 17.7001L30.7151 15.6426ZM25.5062 11.2449C23.2807 10.2259 20.7039 9.69112 18.0956 9.67192L18.0661 13.6718C20.1675 13.6873 22.1792 14.1209 23.841 14.8818L25.5062 11.2449ZM18.0956 9.67192C15.487 9.65272 12.8964 10.1496 10.6438 11.133L12.2442 14.7989C13.9363 14.0602 15.965 13.6564 18.0661 13.6718L18.0956 9.67192ZM10.6438 11.133C8.39937 12.1129 6.50098 13.5741 5.31417 15.4334L8.68583 17.5856C9.34919 16.5463 10.5438 15.5412 12.2442 14.7989L10.6438 11.133Z" fill="black"/>
<path d="M32.3026 13.7292C32.8868 14.6666 34.1203 14.953 35.0578 14.3688C35.9952 13.7846 36.2816 12.5511 35.6974 11.6136L32.3026 13.7292ZM18.1176 5.67206L18.1034 7.67201L18.1176 5.67206ZM8.46396 7.48381L7.68918 5.63998L8.46396 7.48381ZM0.333225 11.3393C-0.277259 12.2599 -0.0259128 13.501 0.894622 14.1115C1.81516 14.722 3.05629 14.4706 3.66677 13.5501L0.333225 11.3393ZM35.6974 11.6136C34.1563 9.14066 31.6056 7.15263 28.5135 5.78996L26.9004 9.45028C29.4625 10.5794 31.2917 12.107 32.3026 13.7292L35.6974 11.6136ZM28.5135 5.78996C25.4108 4.42261 21.8001 3.6981 18.1317 3.67211L18.1034 7.67201C21.2855 7.69455 24.3491 8.3259 26.9004 9.45028L28.5135 5.78996ZM18.1317 3.67211C14.4631 3.64612 10.8319 4.31941 7.68918 5.63998L9.23874 9.32764C11.8338 8.23718 14.9216 7.64947 18.1034 7.67201L18.1317 3.67211ZM7.68918 5.63998C4.55721 6.95604 1.95017 8.90117 0.333225 11.3393L3.66677 13.5501C4.74099 11.9303 6.6329 10.4226 9.23874 9.32764L7.68918 5.63998Z" fill="black"/>
<path d="M22.5275 22.0248C23.275 22.8381 24.5402 22.8913 25.3535 22.1439C26.1667 21.3964 26.22 20.1311 25.4725 19.3179L22.5275 22.0248ZM18.02 17.6724L17.985 19.6721L18.02 17.6724ZM10.5601 19.0735C9.79351 19.8687 9.81671 21.1348 10.6119 21.9014C11.4072 22.668 12.6733 22.6448 13.4399 21.8496L10.5601 19.0735ZM25.4725 19.3179C23.4263 17.0918 20.8552 15.7217 18.055 15.6727L17.985 19.6721C19.4568 19.6979 21.0478 20.415 22.5275 22.0248L25.4725 19.3179ZM18.055 15.6727C15.2509 15.6237 12.6485 16.9071 10.5601 19.0735L13.4399 21.8496C14.9296 20.3043 16.5172 19.6465 17.985 19.6721L18.055 15.6727Z" fill="black"/>
<path d="M31.5 2L5.82846 27.6711" stroke="black" stroke-width="4" stroke-linecap="round"/>
</svg>
