<svg width="58" height="58" viewBox="0 0 58 58" fill="none" xmlns="http://www.w3.org/2000/svg">
<path fill-rule="evenodd" clip-rule="evenodd" d="M46.5115 17.814C46.6773 17.7587 46.8982 17.8692 47.1192 18.173C47.1192 18.173 47.1192 18.173 57.1173 27.8949C57.6973 28.4749 57.6973 29.3587 57.1173 29.8006C57.1173 29.8006 57.1173 29.8006 47.1192 39.6883C46.8982 39.9645 46.6773 40.0473 46.5115 39.9645C46.3458 39.8816 46.2354 39.6054 46.2354 39.2464V18.4492C46.2354 18.0902 46.3458 17.8692 46.5115 17.814Z" fill="#232323"/>
<path fill-rule="evenodd" clip-rule="evenodd" d="M29.415 1.60181H30.1331L30.7959 1.878C30.7959 1.878 30.7959 1.878 41.0978 12.0694C41.5398 12.6494 41.374 13.0637 40.6559 13.0637C40.6559 13.0637 40.6559 13.0637 36.375 13.0637C35.6569 13.0637 35.0493 13.6713 35.0493 14.3894C35.0493 14.3894 35.0493 14.3894 35.0493 21.957C35.0493 22.6751 34.4693 23.2551 33.5855 23.2551C33.5855 23.2551 33.5855 23.2551 26.1007 23.2551C25.355 23.2551 24.775 22.6751 24.775 21.957C24.775 21.957 24.775 21.957 24.775 14.3894C24.775 13.6713 24.195 13.0637 23.4493 13.0637H18.8921C18.1464 13.0637 18.0083 12.6494 18.4502 12.0694C18.4502 12.0694 18.4502 12.0694 28.7521 1.878L29.415 1.60181Z" fill="#232323"/>
<path fill-rule="evenodd" clip-rule="evenodd" d="M13.313 17.5933C13.4787 17.7038 13.5892 17.9523 13.5892 18.3114V39.5228C13.5892 39.9095 13.4787 40.1304 13.313 40.1857C13.1197 40.2685 12.8711 40.1857 12.5673 39.9647C12.5673 39.9647 12.5673 39.9647 2.43109 29.8009C1.85109 29.359 1.85109 28.4752 2.43109 27.8952C2.43109 27.8952 2.43109 27.8952 12.5673 17.8695C12.8711 17.5933 13.1197 17.5104 13.313 17.5933Z" fill="#232323"/>
<path fill-rule="evenodd" clip-rule="evenodd" d="M26.1007 34.3027C26.1007 34.3027 26.1007 34.3027 33.5855 34.3027C34.4693 34.3027 35.0769 34.8827 35.0769 35.6284C35.0769 35.6284 35.0769 35.6284 35.0769 43.6104C35.0769 44.4942 35.6569 45.0742 36.375 45.0742H40.3521C41.0978 45.0742 41.374 45.4884 40.794 45.9304C40.794 45.9304 40.794 45.9304 30.7959 55.9561C30.4921 56.2599 30.1331 56.398 29.774 56.398C29.415 56.398 29.0283 56.2599 28.7521 55.9561C28.7521 55.9561 28.7521 55.9561 18.754 45.9304C18.1464 45.4884 18.4502 45.0742 19.1683 45.0742C19.1683 45.0742 19.1683 45.0742 23.4493 45.0742C24.195 45.0742 24.775 44.4942 24.775 43.6104C24.775 43.6104 24.775 43.6104 24.775 35.6284C24.775 34.8827 25.355 34.3027 26.1007 34.3027Z" fill="#232323"/>
</svg>
