<svg width="22" height="25" viewBox="0 0 22 25" fill="none" xmlns="http://www.w3.org/2000/svg">
<circle cx="10.5" cy="5.5" r="5.5" fill="#232323"/>
<mask id="path-2-inside-1_89_1108" fill="white">
<path d="M20.5895 24C21.3685 24 22.0093 23.3659 21.9097 22.5933C21.6005 20.1948 20.5067 17.9503 18.7782 16.2218C16.7153 14.1589 13.9174 13 11 13C8.08262 13 5.28473 14.1589 3.22183 16.2218C1.49333 17.9503 0.399493 20.1948 0.0902782 22.5933C-0.00933015 23.3659 0.631514 24 1.41053 24V24C2.18954 24 2.80867 23.3639 2.94235 22.5964C3.22945 20.9483 4.01771 19.4155 5.21661 18.2166C6.75046 16.6828 8.83081 15.8211 11 15.8211C13.1692 15.8211 15.2495 16.6828 16.7834 18.2166C17.9823 19.4155 18.7706 20.9483 19.0576 22.5964C19.1913 23.3639 19.8105 24 20.5895 24V24Z"/>
</mask>
<path d="M20.5895 24C21.3685 24 22.0093 23.3659 21.9097 22.5933C21.6005 20.1948 20.5067 17.9503 18.7782 16.2218C16.7153 14.1589 13.9174 13 11 13C8.08262 13 5.28473 14.1589 3.22183 16.2218C1.49333 17.9503 0.399493 20.1948 0.0902782 22.5933C-0.00933015 23.3659 0.631514 24 1.41053 24V24C2.18954 24 2.80867 23.3639 2.94235 22.5964C3.22945 20.9483 4.01771 19.4155 5.21661 18.2166C6.75046 16.6828 8.83081 15.8211 11 15.8211C13.1692 15.8211 15.2495 16.6828 16.7834 18.2166C17.9823 19.4155 18.7706 20.9483 19.0576 22.5964C19.1913 23.3639 19.8105 24 20.5895 24V24Z" stroke="#232323" stroke-width="8" stroke-linejoin="round" mask="url(#path-2-inside-1_89_1108)"/>
</svg>
