<svg width="57" height="59" viewBox="0 0 57 59" fill="none" xmlns="http://www.w3.org/2000/svg">
<path d="M23.7458 16.0729C6.12824 22.5 35.6282 53 43.6017 35.9288" stroke="#232323" stroke-width="6" stroke-linecap="round"/>
<path d="M43.8868 36.1051C47.6035 37.7862 49.6656 39.4153 53.2444 45.4627" stroke="#232323" stroke-width="6" stroke-linecap="round"/>
<path d="M13.6282 4.84654C18 1.50006 26.5 13 24.0883 15.3066" stroke="#232323" stroke-width="6" stroke-linecap="round"/>
<path d="M13.981 7.98191C15.4684 7.25204 16.0825 5.45455 15.3527 3.96713C14.6228 2.4797 12.8253 1.86558 11.3379 2.59545L13.981 7.98191ZM56.1958 48.0524C57.1344 46.6871 56.7885 44.8194 55.4232 43.8807C54.0579 42.9421 52.1901 43.288 51.2515 44.6533L56.1958 48.0524ZM11.3379 2.59545C7.43085 4.51262 4.73679 7.30416 3.25264 10.7277C1.78885 14.1044 1.60816 17.8461 2.2521 21.5498C3.52843 28.8907 8.13233 36.6672 14.0171 42.9436C19.904 49.2223 27.4507 54.4031 35.0273 56.1364C38.8529 57.0116 42.7819 57.0264 46.4952 55.743C50.2355 54.4503 53.5412 51.9137 56.1958 48.0524L51.2515 44.6533C49.2471 47.5688 46.9422 49.2403 44.5352 50.0722C42.1012 50.9134 39.3459 50.9694 36.3654 50.2875C30.3297 48.9067 23.7763 44.5802 18.3941 38.8397C13.0097 33.097 9.1754 26.3425 8.16342 20.522C7.66321 17.645 7.87581 15.1483 8.75763 13.1142C9.61909 11.127 11.223 9.33528 13.981 7.98191L11.3379 2.59545Z" fill="#232323"/>
</svg>
