<svg width="60" height="60" viewBox="0 0 60 60" fill="none" xmlns="http://www.w3.org/2000/svg">
<rect width="60" height="60" rx="19" fill="#A70000"/>
<path d="M25.4025 24.849C25.7771 24.3167 26.3873 24 27.0382 24H27.8464C29.0091 24 29.9268 24.9881 29.8409 26.1477L28.1372 49.1477C28.0598 50.1921 27.1899 51 26.1427 51H10.853C9.23266 51 8.28488 49.1741 9.21736 47.849L25.4025 24.849Z" fill="white"/>
<path d="M30.2023 26.1844C30.0937 25.012 31.0163 24 32.1937 24H32.9618C33.6127 24 34.2229 24.3167 34.5975 24.849L50.7826 47.849C51.7151 49.1741 50.7673 51 49.147 51H34.3234C33.2902 51 32.4271 50.2131 32.3319 49.1844L30.2023 26.1844Z" fill="white"/>
<rect x="46" y="20" width="1" height="18" rx="0.5" fill="white"/>
<path d="M46.1522 10.677C46.5587 10.3031 47.1913 10.3295 47.5651 10.736L51.6269 15.1521C52.0008 15.5586 51.9743 16.1912 51.5679 16.5651L47.1517 20.6269C46.7452 21.0008 46.1126 20.9743 45.7388 20.5678L41.677 16.1517C41.3031 15.7452 41.3296 15.1126 41.7361 14.7387L46.1522 10.677Z" fill="white"/>
<line x1="10.8373" y1="54.8849" x2="50.8849" y2="8.1627" stroke="#232323" stroke-width="3" stroke-linecap="round"/>
</svg>
