<svg width="76" height="40" viewBox="0 0 76 40" fill="none" xmlns="http://www.w3.org/2000/svg">
<g clip-path="url(#clip0_335_1773)">
<path d="M54.2766 7.60347L53 1.53635C57.6296 0.568831 62.4181 0.65138 67.0115 1.77571C65.1355 3.20983 63.1074 4.4253 60.9723 5.40155C58.837 6.37927 56.5913 7.11971 54.2766 7.60347Z" fill="#232323"/>
<path d="M20.9991 8.22491L22.6869 14.2042L18.876 15.0014L12.3669 16.3614L11.0903 10.2961L20.9991 8.22491Z" fill="#232323"/>
<path d="M71.4724 31.8426C71.4724 31.8426 71.4724 31.8444 71.4707 31.8426C70.9351 32.206 70.2873 32.4159 69.5912 32.4159C67.7306 32.4159 66.2227 30.9129 66.2227 29.0587C66.2227 27.2062 67.7308 25.7032 69.5912 25.7032C71.4499 25.7032 72.958 27.2062 72.958 29.0587C72.958 30.2174 72.369 31.2401 71.4724 31.8426Z" fill="#232323"/>
<path d="M55.7696 29.3239C58.4869 29.3239 60.6876 31.519 60.6876 34.2271C60.6876 36.9335 58.4869 39.1286 55.7696 39.1286C53.0541 39.1286 50.8516 36.9335 50.8516 34.2271C50.8516 31.519 53.0541 29.3239 55.7696 29.3239Z" fill="#232323"/>
<path d="M37.1597 29.3239C39.8752 29.3239 42.0778 31.519 42.0778 34.2271C42.0778 36.9335 39.8752 39.1286 37.1597 39.1286C34.4424 39.1286 32.2417 36.9335 32.2417 34.2271C32.2416 31.519 34.4424 29.3239 37.1597 29.3239Z" fill="#232323"/>
<path d="M18.5497 39.1286C15.8324 39.1286 13.6299 36.9335 13.6299 34.2271C13.6299 31.519 15.8324 29.3239 18.5497 29.3239C21.2652 29.3239 23.4677 31.519 23.4677 34.2271C23.4679 36.9335 21.2654 39.1286 18.5497 39.1286Z" fill="#232323"/>
<path d="M5.36919 33.783C3.79204 33.208 2.66748 31.6998 2.66748 29.93C2.66748 27.6643 4.51063 25.8273 6.78395 25.8273C9.05727 25.8273 10.9004 27.6643 10.9004 29.93C10.9004 32.1957 9.05727 34.0326 6.78395 34.0326C6.28817 34.0326 5.81317 33.9447 5.37439 33.7847C5.37275 33.7847 5.37097 33.7847 5.36919 33.783Z" fill="#232323"/>
<path d="M67.2188 21.3062H12.3667V16.3615L18.8758 15.0015H22.9111H45.4528H57.3724L67.2188 21.3062Z" fill="#232323"/>
<path d="M75.4307 22.8478L71.5639 20.2373C71.3496 20.0925 71.0965 20.0151 70.8373 20.0151H67.5992L58.0721 13.915C57.8633 13.7812 57.6203 13.7101 57.3718 13.7101H46.4902L45.8102 10.6914L54.5426 8.86642C59.3319 7.86562 63.916 5.76755 67.7991 2.79974C68.1944 2.49765 68.381 1.99614 68.2784 1.51001C68.1761 1.02404 67.8034 0.639394 67.3195 0.520895C62.5671 -0.642053 57.5235 -0.727858 52.7342 0.272949L43.88 2.12337L43.8667 2.0639C43.7099 1.36799 43.0172 0.930834 42.3188 1.08691C41.6205 1.24313 41.1816 1.93386 41.3383 2.62947L41.3437 2.65343L21.9177 6.71332L21.8256 6.38726C21.6318 5.70083 20.9168 5.30036 20.2277 5.49386C19.539 5.68692 19.1374 6.39999 19.3313 7.08642L19.3758 7.24472L10.8238 9.03226C10.4874 9.10253 10.1929 9.30314 10.005 9.58969C9.81705 9.87655 9.751 10.2258 9.82166 10.5611L11.0705 16.4961V20.0151H9.95347C7.50811 20.0151 5.12836 20.502 2.88087 21.4619L0.785079 22.357C0.127204 22.6379 -0.177241 23.397 0.104642 24.0525C0.386524 24.708 1.14831 25.012 1.80588 24.7306L3.90167 23.8356C5.82498 23.0143 7.86124 22.5975 9.95362 22.5975H70.4398L73.9775 24.9858C74.2002 25.1361 74.453 25.2083 74.7029 25.2083C75.1183 25.2083 75.5265 25.0097 75.7767 24.641C76.178 24.0506 76.0233 23.2479 75.4307 22.8478ZM43.8346 13.7101H31.3663L43.2743 11.2215L43.8346 13.7101ZM63.7346 2.45978C61.1182 4.07039 58.2497 5.28778 55.2734 6.04611L54.5405 2.56334C57.5719 2.06626 60.6895 2.03239 63.7346 2.45978ZM51.9987 3.06559L52.7432 6.60399L45.243 8.17141L44.4484 4.64365L51.9987 3.06559ZM41.9121 5.17372L42.7066 8.70162L23.6057 12.6936L22.6214 9.2055L41.9121 5.17372ZM20.0799 9.7366L21.0642 13.2247L13.3687 14.8331L12.6242 11.2948L20.0799 9.7366ZM13.662 17.4102L19.0093 16.2927H56.9917L62.8052 20.0152H13.662V17.4102Z" fill="#232323"/>
<path d="M69.5901 24.4117C69.5892 24.4117 69.5883 24.4117 69.5876 24.4117L6.78128 24.536C3.79843 24.5374 1.37207 26.9564 1.37207 29.9295C1.37207 32.2212 2.81429 34.1823 4.8412 34.9621L14.5462 39.6201C14.5707 39.6318 14.5955 39.6429 14.6207 39.6529C15.8762 40.1614 17.1976 40.4192 18.5484 40.4192H60.7379C63.085 40.4192 65.3103 39.527 67.0037 37.9074L72.312 32.8297C73.4867 31.9851 74.2536 30.6102 74.2536 29.0595C74.2534 26.4966 72.1613 24.4117 69.5901 24.4117ZM71.6623 29.0592C71.6623 30.1979 70.7328 31.1243 69.5902 31.1243C68.4477 31.1243 67.5182 30.1979 67.5182 29.0592C67.5182 27.9205 68.4477 26.9941 69.5902 26.9941C70.7328 26.9941 71.6623 27.9205 71.6623 29.0592ZM6.78381 27.1184C8.33898 27.1184 9.60427 28.3793 9.60427 29.9294C9.60427 31.4795 8.33913 32.7403 6.78381 32.7403C5.22848 32.7403 3.96334 31.4795 3.96334 29.9294C3.96334 28.3793 5.22863 27.1184 6.78381 27.1184ZM18.5565 37.8368H18.5482C18.543 37.8368 18.5378 37.8365 18.5325 37.8365C16.5421 37.8279 14.9252 36.2123 14.9252 34.2265C14.9252 32.2356 16.5504 30.6156 18.5482 30.6156C20.546 30.6156 22.1713 32.2356 22.1713 34.2265C22.1713 36.2147 20.5505 37.8321 18.5565 37.8368ZM33.5358 34.2264C33.5358 32.2354 35.1611 30.6155 37.1589 30.6155C39.1567 30.6155 40.7819 32.2354 40.7819 34.2264C40.7819 36.2145 39.1613 37.8322 37.1673 37.8367H37.1506C35.1565 37.8321 33.5358 36.2147 33.5358 34.2264ZM52.146 34.2264C52.146 32.2354 53.7713 30.6155 55.7691 30.6155C57.7669 30.6155 59.3921 32.2354 59.3921 34.2264C59.3921 36.2145 57.7715 37.8322 55.7775 37.8367H55.7608C53.767 37.8321 52.146 36.2147 52.146 34.2264ZM65.2093 36.044C64.0029 37.198 62.4183 37.8342 60.7466 37.8364C61.5228 36.8533 61.983 35.6138 61.983 34.2262C61.983 30.8114 59.1952 28.0329 55.7688 28.0329C52.3424 28.0329 49.5546 30.8114 49.5546 34.2262C49.5546 35.6138 50.0147 36.8535 50.7911 37.8365H42.136C42.9123 36.8535 43.3725 35.6138 43.3725 34.2262C43.3725 30.8114 40.5847 28.0329 37.1583 28.0329C33.7319 28.0329 30.9441 30.8114 30.9441 34.2262C30.9441 35.6138 31.4042 36.8535 32.1806 37.8365H23.5258C24.3021 36.8535 24.7623 35.6138 24.7623 34.2262C24.7623 30.8114 21.9745 28.0329 18.5481 28.0329C15.1217 28.0329 12.3339 30.8114 12.3339 34.2262C12.3339 34.7732 12.406 35.2967 12.5404 35.791L9.73652 34.4453C11.2153 33.4815 12.1951 31.8178 12.1951 29.9292C12.1951 28.896 11.9016 27.9303 11.3941 27.1092L65.4096 27.0022C65.1009 27.6227 64.9266 28.3208 64.9266 29.059C64.9266 31.0503 66.19 32.7525 67.9595 33.4129L65.2093 36.044Z" fill="#232323"/>
</g>
<defs>
<clipPath id="clip0_335_1773">
<rect width="76" height="40" fill="white"/>
</clipPath>
</defs>
</svg>
