<svg width="49" height="43" viewBox="0 0 49 43" fill="none" xmlns="http://www.w3.org/2000/svg">
<path d="M8.80589 3.06928H1.53016C0.685069 3.06928 0 2.3822 0 1.53464C0 0.687077 0.685069 0 1.53016 0H8.80589C9.65098 0 10.336 0.687077 10.336 1.53464C10.336 2.3822 9.65098 3.06928 8.80589 3.06928ZM41.7292 35.3218H16.8467C16.0016 35.3218 15.3166 34.6347 15.3166 33.7871C15.3166 32.9396 16.0016 32.2525 16.8467 32.2525H41.7342C42.5793 32.2525 43.2644 32.9396 43.2644 33.7871C43.2644 34.6347 42.5743 35.3218 41.7292 35.3218ZM47.4748 9.21285H11.1011C10.256 9.21285 9.57097 8.52577 9.57097 7.67821C9.57097 6.83065 10.256 6.14357 11.1011 6.14357H47.4698C48.3149 6.14357 49 6.83065 49 7.67821C49.005 8.52577 48.3199 9.21285 47.4748 9.21285ZM45.0796 18.4307H13.4964C12.6513 18.4307 11.9662 17.7436 11.9662 16.8961C11.9662 16.0485 12.6513 15.3614 13.4964 15.3614H45.0796C45.9247 15.3614 46.6097 16.0485 46.6097 16.8961C46.6097 17.7386 45.9247 18.4307 45.0796 18.4307ZM42.8794 27.6436H15.8866C15.0415 27.6436 14.3565 26.9565 14.3565 26.1089C14.3565 25.2614 15.0415 24.5743 15.8866 24.5743H42.8794C43.7244 24.5743 44.4095 25.2614 44.4095 26.1089C44.4095 26.9565 43.7244 27.6436 42.8794 27.6436ZM28.9029 27.453C28.0578 27.453 27.3728 26.7659 27.3728 25.9184V9.40343C27.3728 8.55587 28.0578 7.86879 28.9029 7.86879C29.748 7.86879 30.4331 8.55587 30.4331 9.40343V25.9133C30.4381 26.7659 29.753 27.453 28.9029 27.453ZM39.444 8.30009L37.4838 24.6947C37.3838 25.5372 36.6187 26.139 35.7786 26.0387C34.9385 25.9384 34.3385 25.1711 34.4385 24.3336L36.4037 7.939C36.5037 7.09645 37.2688 6.49463 38.1089 6.59494C38.949 6.69524 39.544 7.46256 39.444 8.30009ZM48.92 8.08946L44.5045 25.9434C44.3045 26.7659 43.4744 27.2725 42.6493 27.0668C41.8292 26.8662 41.3242 26.0337 41.5292 25.2062L45.9447 7.35223C46.1447 6.52974 46.9748 6.02321 47.7999 6.22883C48.6199 6.43445 49.12 7.26697 48.92 8.08946ZM22.0772 26.2744C21.2372 26.3848 20.4721 25.788 20.3621 24.9454L18.3919 9.51878C18.2819 8.67623 18.8769 7.90891 19.717 7.79858C20.5571 7.68824 21.3222 8.28505 21.4322 9.12759L23.4024 24.5542C23.5074 25.3968 22.9173 26.1641 22.0772 26.2744ZM17.1317 34.9607C16.3067 35.1663 15.4766 34.6648 15.2715 33.8423L7.40075 2.2167C7.19573 1.39421 7.69578 0.561698 8.52086 0.356076C9.34595 0.150455 10.176 0.651971 10.3811 1.47446L18.2469 33.1001C18.4519 33.9226 17.9518 34.7601 17.1317 34.9607ZM19.527 43C17.8368 43 16.4667 41.6258 16.4667 39.9307C16.4667 38.2356 17.8368 36.8564 19.527 36.8564C21.2172 36.8564 22.5873 38.2306 22.5873 39.9307C22.5873 41.6258 21.2172 43 19.527 43ZM38.2839 43C36.5937 43 35.2236 41.6258 35.2236 39.9307C35.2236 38.2356 36.5937 36.8564 38.2839 36.8564C39.9741 36.8564 41.3492 38.2306 41.3492 39.9307C41.3492 41.6258 39.9741 43 38.2839 43Z" fill="#232323"/>
</svg>
