<svg width="42" height="9" viewBox="0 0 42 9" fill="none" xmlns="http://www.w3.org/2000/svg">
<path d="M14.04 0.929999L11.115 9H8.865L7.05 3.99L5.175 9H2.925L0.015 0.929999H2.22L4.125 6.39L6.105 0.929999H8.085L10.005 6.39L11.97 0.929999H14.04ZM27.8974 0.929999L24.9724 9H22.7224L20.9074 3.99L19.0324 9H16.7824L13.8724 0.929999H16.0774L17.9824 6.39L19.9624 0.929999H21.9424L23.8624 6.39L25.8274 0.929999H27.8974ZM41.7548 0.929999L38.8298 9H36.5798L34.7648 3.99L32.8898 9H30.6398L27.7298 0.929999H29.9348L31.8398 6.39L33.8198 0.929999H35.7998L37.7198 6.39L39.6848 0.929999H41.7548Z" fill="black"/>
</svg>
