<svg width="33" height="26" viewBox="0 0 33 26" fill="none" xmlns="http://www.w3.org/2000/svg">
<path d="M28.9483 6.67359C28.9685 6.9533 28.9685 7.23308 28.9685 7.51279C28.9685 16.0445 22.4022 25.8749 10.4008 25.8749C6.70334 25.8749 3.26863 24.8159 0.379395 22.9778C0.904726 23.0377 1.40978 23.0577 1.95533 23.0577C5.00613 23.0577 7.81458 22.0387 10.0573 20.3004C7.18825 20.2404 4.78392 18.3822 3.95553 15.8247C4.35965 15.8846 4.76371 15.9246 5.18804 15.9246C5.77395 15.9246 6.35992 15.8446 6.9054 15.7048C3.91517 15.1054 1.67242 12.5079 1.67242 9.37098V9.29108C2.54117 9.77062 3.55147 10.0703 4.62222 10.1102C2.86444 8.95134 1.71284 6.97329 1.71284 4.73545C1.71284 3.53664 2.03605 2.4377 2.60181 1.47863C5.81431 5.39482 10.6432 7.95229 16.0579 8.23207C15.9569 7.75253 15.8962 7.25307 15.8962 6.75354C15.8962 3.19696 18.8057 0.299805 22.4222 0.299805C24.3012 0.299805 25.9984 1.07905 27.1905 2.33782C28.6653 2.05811 30.0796 1.51861 31.3324 0.779342C30.8474 2.27792 29.817 3.5367 28.4633 4.33586C29.7766 4.19607 31.0495 3.83634 32.2213 3.33687C31.3325 4.61558 30.2212 5.75443 28.9483 6.67359V6.67359Z" fill="#232323"/>
</svg>
