<svg width="20" height="21" viewBox="0 0 20 21" fill="none" xmlns="http://www.w3.org/2000/svg">
<g clip-path="url(#clip0_634_412)">
<path d="M9.93689 6.75543C7.9261 6.75543 6.3302 8.38546 6.3302 10.3621C6.3302 12.3388 7.89272 14.0371 9.93689 14.0371C11.9811 14.0371 13.5436 12.4071 13.5436 10.4304C13.5436 8.45372 11.9469 6.75543 9.93689 6.75543ZM19.5434 13.8816L17.1465 10.3963L19.5415 6.94468C19.7816 6.59861 19.5833 6.12018 19.1688 6.04509L15.035 5.29797L14.2878 1.16412C14.2129 0.749592 13.7345 0.551243 13.3882 0.791538L9.93689 3.22042L6.45156 0.825291C6.10549 0.585148 5.62707 0.783308 5.55198 1.19787L4.83974 5.33324L0.704371 6.08036C0.289962 6.15242 0.0916514 6.63407 0.331794 6.94506L2.72692 10.4304L0.331946 13.882C0.0918031 14.228 0.290038 14.7065 0.704523 14.7816L4.83837 15.5287L5.5855 19.6625C5.6604 20.0771 6.13883 20.2754 6.48509 20.0351L9.93689 17.64L13.3885 20.035C13.7346 20.2752 14.2133 20.0769 14.2881 19.6625L15.0352 15.5286L19.169 14.7815C19.5851 14.7084 19.7823 14.2267 19.5434 13.8816ZM9.93689 15.2507C7.25596 15.2507 5.11659 13.0772 5.11659 10.4304C5.11659 7.74945 7.29009 5.61009 9.93689 5.61009C12.5837 5.61009 14.7572 7.78321 14.7572 10.4304C14.7572 13.1117 12.6182 15.2507 9.93689 15.2507Z" fill="#DBDBDB"/>
</g>
<defs>
<clipPath id="clip0_634_412">
<rect width="19.4177" height="19.4177" fill="white" transform="translate(0.228027 0.721527)"/>
</clipPath>
</defs>
</svg>
