<svg width="54" height="45" viewBox="0 0 54 45" fill="none" xmlns="http://www.w3.org/2000/svg">
<path d="M0.815588 20.932C6.33992 17.8701 12.5066 15.3147 18.2684 12.7462C28.181 8.53919 38.133 4.4051 48.1854 0.556307C50.1413 -0.0994893 53.6554 -0.740823 54 2.17559C53.8114 6.30374 53.0352 10.4077 52.5027 14.5117C51.1514 23.5367 49.5895 32.5308 48.0665 41.5262C47.5417 44.5224 43.8113 46.0735 41.4245 44.1561C35.6882 40.2574 29.9079 36.3967 24.2449 32.4076C22.3898 30.511 24.11 27.7873 25.7668 26.4329C30.4913 21.748 35.5018 17.7677 39.9794 12.8407C41.1872 9.90586 37.6185 12.3793 36.4414 13.1371C29.9734 17.6219 23.6638 22.3805 16.8446 26.322C13.3614 28.2513 9.30157 26.6025 5.81989 25.5259C2.69812 24.2254 -1.87642 22.9152 0.815273 20.9322L0.815588 20.932Z" fill="#232323"/>
</svg>
