<svg width="50" height="50" viewBox="0 0 50 50" fill="none" xmlns="http://www.w3.org/2000/svg">
<circle cx="25" cy="25" r="25" fill="black"/>
<path d="M38.9209 23.5172C36.3237 23.5235 33.7903 22.7094 31.6784 21.1901V31.7866C31.6777 33.7492 31.0808 35.6648 29.9677 37.2773C28.8545 38.8897 27.2781 40.1222 25.4492 40.8099C23.6203 41.4975 21.6261 41.6076 19.7332 41.1254C17.8404 40.6432 16.1391 39.5917 14.8569 38.1115C13.5747 36.6313 12.7727 34.7929 12.5581 32.8422C12.3435 30.8915 12.7265 28.9215 13.656 27.1955C14.5855 25.4695 16.0171 24.0698 17.7594 23.1837C19.5018 22.2975 21.4717 21.9671 23.4059 22.2366V27.5663C22.5208 27.2864 21.5704 27.2949 20.6903 27.5903C19.8103 27.8858 19.0457 28.4532 18.5056 29.2115C17.9655 29.9698 17.6777 30.8802 17.6832 31.8128C17.6886 32.7453 17.9871 33.6522 18.536 34.4041C19.0849 35.156 19.8562 35.7143 20.7396 35.9993C21.6231 36.2843 22.5735 36.2815 23.4553 35.9912C24.337 35.701 25.105 35.1381 25.6495 34.383C26.1939 33.6279 26.4871 32.7192 26.4871 31.7866V11.0714H31.6784C31.6748 11.512 31.7115 11.952 31.7881 12.3859V12.3859C31.9685 13.3544 32.3436 14.2758 32.8904 15.0936C33.4373 15.9114 34.1443 16.6085 34.9684 17.1422C36.1408 17.9214 37.5154 18.3367 38.9209 18.3364V23.5172Z" fill="#FE2C55"/>
<path d="M36.7781 20.6601C34.1809 20.6664 31.6475 19.8523 29.5356 18.3329V28.9295C29.5349 30.8921 28.938 32.8077 27.8249 34.4201C26.7117 36.0326 25.1353 37.2651 23.3063 37.9528C21.4774 38.6404 19.4832 38.7505 17.5904 38.2683C15.6975 37.7861 13.9963 36.7346 12.7141 35.2544C11.4319 33.7742 10.6299 31.9358 10.4153 29.9851C10.2007 28.0344 10.5837 26.0643 11.5132 24.3384C12.4427 22.6124 13.8743 21.2127 15.6166 20.3265C17.3589 19.4404 19.3289 19.11 21.2631 19.3794V24.7091C20.378 24.4293 19.4276 24.4377 18.5475 24.7332C17.6675 25.0287 16.9028 25.5961 16.3628 26.3544C15.8227 27.1127 15.5349 28.0231 15.5403 28.9556C15.5458 29.8882 15.8443 30.7951 16.3932 31.547C16.9421 32.2988 17.7134 32.8572 18.5968 33.1422C19.4803 33.4272 20.4307 33.4244 21.3125 33.1341C22.1942 32.8438 22.9622 32.281 23.5067 31.5259C24.0511 30.7707 24.3443 29.862 24.3443 28.9295V8.21429H29.5356C29.532 8.65491 29.5687 9.09493 29.6453 9.52878V9.52878C29.8257 10.4973 30.2008 11.4186 30.7476 12.2365C31.2944 13.0543 32.0015 13.7514 32.8256 14.2851C33.998 15.0643 35.3726 15.4796 36.7781 15.4793V20.6601Z" fill="#25F4EE"/>
<path d="M38.2146 22.0887C35.6174 22.095 33.084 21.2809 30.9721 19.7615V30.3581C30.9714 32.3207 30.3745 34.2363 29.2614 35.8487C28.1482 37.4612 26.5718 38.6937 24.7429 39.3813C22.914 40.069 20.9198 40.1791 19.0269 39.6969C17.1341 39.2147 15.4328 38.1632 14.1506 36.683C12.8684 35.2028 12.0664 33.3644 11.8518 31.4137C11.6372 29.463 12.0202 27.4929 12.9497 25.7669C13.8792 24.0409 15.3108 22.6413 17.0531 21.7551C18.7955 20.869 20.7654 20.5385 22.6996 20.808V26.1377C21.8145 25.8579 20.8641 25.8663 19.984 26.1618C19.104 26.4573 18.3394 27.0247 17.7993 27.783C17.2592 28.5413 16.9714 29.4517 16.9769 30.3842C16.9823 31.3168 17.2808 32.2237 17.8297 32.9756C18.3786 33.7274 19.1499 34.2857 20.0333 34.5708C20.9168 34.8558 21.8672 34.853 22.749 34.5627C23.6307 34.2724 24.3987 33.7095 24.9432 32.9544C25.4877 32.1993 25.7808 31.2906 25.7808 30.3581V9.64288H30.9721C30.9685 10.0835 31.0052 10.5235 31.0818 10.9574V10.9574C31.2622 11.9259 31.6373 12.8472 32.1841 13.665C32.731 14.4829 33.438 15.18 34.2621 15.7137C35.4345 16.4929 36.8091 16.9081 38.2146 16.9078V22.0887Z" fill="white"/>
</svg>
