<svg width="70" height="70" viewBox="0 0 70 70" fill="none" xmlns="http://www.w3.org/2000/svg">
<path d="M14.0388 15C13.0449 15 12.1786 15.6764 11.9375 16.6406V16.6406L1.75195 56.0156V56.0156C1.37358 57.3915 2.40889 58.75 3.83588 58.75H66.9336C68.3606 58.75 69.396 57.3915 69.0176 56.0156V56.0156L58.832 16.6406V16.6406C58.591 15.6764 57.7246 15 56.7308 15H14.0388ZM15.1823 21.6207C15.5258 20.2983 16.7195 19.375 18.0859 19.375H30.4076C32.0889 19.375 33.4419 20.7565 33.4069 22.4375L33.3767 23.8872C33.3533 25.0126 34.2591 25.9375 35.3848 25.9375V25.9375C36.5104 25.9375 37.4163 25.0126 37.3928 23.8872L37.3626 22.4375C37.3276 20.7565 38.6807 19.375 40.362 19.375H52.6836C54.05 19.375 55.2437 20.2983 55.5873 21.6207L63.1205 50.6207C63.614 52.5208 62.1799 54.375 60.2168 54.375H41.118C39.4885 54.375 38.157 53.0743 38.1188 51.4453L38.0433 48.2219C38.0094 46.778 36.8292 45.625 35.3848 45.625V45.625C33.9404 45.625 32.7601 46.778 32.7262 48.2219L32.6507 51.4453C32.6125 53.0743 31.281 54.375 29.6515 54.375H10.5527C8.58961 54.375 7.1555 52.5208 7.64906 50.6207L15.1823 21.6207ZM35.3848 30.3125C34.1679 30.3125 33.173 31.2828 33.1426 32.4993L32.9853 38.7898C32.9516 40.1385 34.0357 41.25 35.3848 41.25V41.25C36.7338 41.25 37.8179 40.1385 37.7842 38.7898L37.6269 32.4993C37.5965 31.2828 36.6016 30.3125 35.3848 30.3125V30.3125Z" fill="#232323"/>
</svg>
