<svg width="50" height="50" viewBox="0 0 50 50" fill="none" xmlns="http://www.w3.org/2000/svg">
<circle cx="25" cy="25" r="25" fill="#1DA1F2"/>
<path d="M36.3488 18.9293C36.367 19.1863 36.367 19.4433 36.367 19.7002C36.367 27.5381 30.4751 36.5691 19.7064 36.5691C16.3887 36.5691 13.3068 35.5962 10.7144 33.9076C11.1857 33.9626 11.6389 33.981 12.1284 33.981C14.8659 33.981 17.3858 33.0449 19.3982 31.4479C16.8238 31.3928 14.6665 29.6857 13.9232 27.3362C14.2858 27.3912 14.6483 27.428 15.0291 27.428C15.5548 27.428 16.0806 27.3545 16.57 27.2261C13.887 26.6754 11.8746 24.2892 11.8746 21.4073V21.3339C12.6541 21.7745 13.5606 22.0498 14.5214 22.0865C12.9442 21.0218 11.9108 19.2046 11.9108 17.1488C11.9108 16.0475 12.2009 15.0379 12.7085 14.1568C15.591 17.7545 19.9239 20.104 24.7824 20.361C24.6918 19.9205 24.6374 19.4616 24.6374 19.0027C24.6374 15.7354 27.248 13.0739 30.4931 13.0739C32.1791 13.0739 33.7019 13.7897 34.7716 14.9461C36.0949 14.6892 37.364 14.1935 38.488 13.5144C38.0529 14.8911 37.1283 16.0475 35.9137 16.7817C37.0921 16.6533 38.2342 16.3228 39.2857 15.8639C38.4881 17.0386 37.491 18.0849 36.3488 18.9293V18.9293Z" fill="white"/>
</svg>
