<svg width="31" height="45" viewBox="0 0 31 45" fill="none" xmlns="http://www.w3.org/2000/svg">
<path d="M29.6507 25.8339C29.6496 25.8336 14.7107 22.4622 14.7107 22.4622C10.2579 21.4573 7.46465 17.0427 8.47201 12.6018C9.47996 8.16087 13.9067 5.3758 18.3594 6.38042C22.8125 7.3854 25.6054 11.8 24.598 16.2406C24.0932 18.4639 22.7314 20.2706 20.9384 21.3961C20.9381 21.3961 20.9337 21.4006 20.9321 21.4006C20.8793 21.4384 20.8452 21.4997 20.8452 21.5689C20.8452 21.6658 20.9123 21.7472 21.0028 21.7688C21.0031 21.7691 27.6486 23.2678 27.6497 23.2678C27.8079 23.3036 27.972 23.2428 28.0692 23.1147C28.0697 23.1136 28.0695 23.1145 28.0695 23.1145C29.9003 20.6985 31 17.684 31 14.4235C31 6.74492 24.9846 0.469807 17.397 0.0241207C17.3294 0.0196973 16.9182 0.00426106 16.7793 0.00204933C13.4199 -0.0505899 10.0137 0.910022 7.05174 2.97872C-0.428351 8.20197 -2.24573 18.483 2.99123 25.9425L16.2824 44.8728C16.3392 44.95 16.4306 45 16.5331 45C16.6366 45 16.7282 44.9491 16.7847 44.8715C16.7847 44.8715 29.8364 26.3091 29.8376 26.3075C29.8708 26.2584 29.8906 26.1987 29.8906 26.1347C29.8906 25.9879 29.7883 25.865 29.6507 25.8336" fill="#232323"/>
</svg>
