<svg width="97" height="35" viewBox="0 0 97 35" fill="none" xmlns="http://www.w3.org/2000/svg">
<g clip-path="url(#clip0_409_1204)">
<path d="M37.5836 8.73939C40.4044 8.73939 41.7782 9.84242 41.7782 11.3432C41.7782 12.8439 40.3939 13.947 37.5836 13.947H34.7942L31.3231 21.3076H38.045C41.0651 21.3076 42.3497 22.3682 42.3497 23.8583C42.3497 25.3485 41.0651 26.4144 38.045 26.4144H28.8903L24.6957 35.228H37.054C46.7383 35.228 51.5568 30.9856 51.5568 25.4333C51.6009 23.743 51.2039 22.0708 50.4059 20.585C49.6079 19.0992 48.4369 17.8523 47.0109 16.9697C49.5749 15.2515 51.2475 12.7273 51.2475 9.73636C51.2475 3.71212 46.0986 0 37.9296 0H25.5661L17.7012 16.6515L9.8573 0H0L12.6677 27.1621L8.91351 35.228H18.6135L31.1344 8.73939H37.5836Z" fill="#232323"/>
<path d="M54.7867 15.0182H87.6985L83.8605 6.80908C82.738 4.73136 81.0791 3.00067 79.0605 1.80153C77.042 0.602383 74.7396 -0.0202554 72.3987 -9.84525e-06H52.5111C54.8195 2.4883 56.1039 5.77269 56.1027 9.18484C56.0878 11.2028 55.6387 13.1934 54.7867 15.0182Z" fill="#232323"/>
<path d="M55.0541 20.2098C55.9324 22.0256 56.3846 24.0218 56.3754 26.0432C56.4128 27.7648 56.0866 29.4747 55.4184 31.0587C54.7502 32.6426 53.7554 34.064 52.5006 35.228H97.1259L90.1261 20.2098H55.0541Z" fill="#232323"/>
</g>
<defs>
<clipPath id="clip0_409_1204">
<rect width="97" height="35" fill="white"/>
</clipPath>
</defs>
</svg>
