<svg width="60" height="54" viewBox="0 0 60 54" fill="none" xmlns="http://www.w3.org/2000/svg">
<path d="M28.5849 52.0921C30.1476 52.757 31.9302 52.0933 32.5663 50.6096C33.2024 49.126 32.4512 47.3841 30.8884 46.7192L28.5849 52.0921ZM27.568 16.0916C28.7564 17.2849 30.6907 17.357 31.8885 16.2527C33.0863 15.1484 33.0939 13.2858 31.9055 12.0925L27.568 16.0916ZM30.8884 46.7192C15.8516 40.3211 8.74196 24.9973 8.95939 15.0864C9.0719 9.95811 10.9815 7.84177 12.8325 7.4847C13.9156 7.27577 15.6443 7.44215 18.1882 8.7439C20.7257 10.0424 23.8582 12.3664 27.568 16.0916L31.9055 12.0925C27.9117 8.0821 24.2436 5.27273 20.9057 3.56469C17.5743 1.85993 14.3531 1.14669 11.4342 1.70977C5.28115 2.89672 2.97846 8.93092 2.85063 14.7576C2.58738 26.7567 10.8848 44.5608 28.5849 52.0921L30.8884 46.7192Z" fill="black"/>
<path d="M31.4151 52.0921C29.8524 52.757 28.0698 52.0933 27.4337 50.6096C26.7976 49.126 27.5488 47.3841 29.1116 46.7192L31.4151 52.0921ZM32.432 16.0916C31.2436 17.2849 29.3093 17.357 28.1115 16.2527C26.9137 15.1484 26.9061 13.2858 28.0945 12.0925L32.432 16.0916ZM29.1116 46.7192C44.1484 40.3211 51.258 24.9973 51.0406 15.0864C50.9281 9.95811 49.0185 7.84177 47.1675 7.4847C46.0844 7.27577 44.3557 7.44215 41.8118 8.7439C39.2743 10.0424 36.1418 12.3664 32.432 16.0916L28.0945 12.0925C32.0883 8.0821 35.7564 5.27273 39.0943 3.56469C42.4257 1.85993 45.6469 1.14669 48.5658 1.70977C54.7188 2.89672 57.0215 8.93092 57.1494 14.7576C57.4126 26.7567 49.1152 44.5608 31.4151 52.0921L29.1116 46.7192Z" fill="black"/>
</svg>
