<svg width="30" height="40" viewBox="0 0 30 40" fill="none" xmlns="http://www.w3.org/2000/svg">
<path d="M1.25 24.9297C1.25 19.211 9.24219 6.98674 13.0391 1.50784C14 0.123853 16 0.123853 16.9609 1.50784C20.7578 6.98674 28.75 19.211 28.75 24.9297C28.75 32.5938 22.5938 38.75 15 38.75C7.40625 38.75 1.25 32.5938 1.25 24.9297ZM8.75 24.9297C8.75 24.3125 8.1875 23.6797 7.5 23.6797C6.80937 23.6797 6.25 24.3125 6.25 24.9297C6.25 29.836 10.1641 33.75 15 33.75C15.6875 33.75 16.25 33.1875 16.25 32.5C16.25 31.8125 15.6875 31.25 15 31.25C11.5469 31.25 8.75 28.4531 8.75 24.9297Z" fill="#232323"/>
</svg>
