<svg width="50" height="50" viewBox="0 0 50 50" fill="none" xmlns="http://www.w3.org/2000/svg">
<circle cx="25" cy="25" r="25" fill="#FF0000"/>
<path d="M38.9527 18.0066C38.6177 16.7528 37.6309 15.7654 36.378 15.4303C34.1069 14.8214 25.0003 14.8214 25.0003 14.8214C25.0003 14.8214 15.8937 14.8214 13.6226 15.4303C12.3697 15.7655 11.3829 16.7528 11.048 18.0066C10.4395 20.2791 10.4395 25.0206 10.4395 25.0206C10.4395 25.0206 10.4395 29.762 11.048 32.0345C11.3829 33.2883 12.3697 34.2345 13.6226 34.5696C15.8937 35.1786 25.0003 35.1786 25.0003 35.1786C25.0003 35.1786 34.1069 35.1786 36.378 34.5696C37.6309 34.2345 38.6177 33.2883 38.9527 32.0345C39.5612 29.762 39.5612 25.0206 39.5612 25.0206C39.5612 25.0206 39.5612 20.2791 38.9527 18.0066V18.0066ZM22.0219 29.3254V20.7157L29.6333 25.0207L22.0219 29.3254V29.3254Z" fill="white"/>
</svg>
