<svg width="30" height="30" viewBox="0 0 30 30" fill="none" xmlns="http://www.w3.org/2000/svg">
<circle cx="15" cy="15" r="15" fill="#FF0000"/>
<path d="M23.3716 10.8042C23.1706 10.0519 22.5786 9.45947 21.8268 9.25841C20.4642 8.89307 15.0002 8.89307 15.0002 8.89307C15.0002 8.89307 9.53625 8.89307 8.17359 9.25841C7.42182 9.4595 6.82974 10.0519 6.62879 10.8042C6.26367 12.1677 6.26367 15.0126 6.26367 15.0126C6.26367 15.0126 6.26367 17.8574 6.62879 19.2209C6.82974 19.9732 7.42182 20.5409 8.17359 20.742C9.53625 21.1074 15.0002 21.1074 15.0002 21.1074C15.0002 21.1074 20.4641 21.1074 21.8268 20.742C22.5786 20.5409 23.1706 19.9732 23.3716 19.2209C23.7367 17.8574 23.7367 15.0126 23.7367 15.0126C23.7367 15.0126 23.7367 12.1677 23.3716 10.8042V10.8042ZM13.2132 17.5955V12.4296L17.78 15.0126L13.2132 17.5955V17.5955Z" fill="white"/>
</svg>
