<svg width="48" height="63" viewBox="0 0 48 63" fill="none" xmlns="http://www.w3.org/2000/svg">
<g filter="url(#filter0_d_745_1172)">
<path d="M21.3832 8.63226L20.0976 18.2585C19.9483 19.3762 19.689 20.4764 19.3234 21.5431L18.5951 23.6681C18.4808 24.0017 18.421 24.3516 18.418 24.7042V24.7042C18.4096 25.7083 17.9418 26.6532 17.1485 27.2687L7.99065 34.3742C6.873 35.2414 5.24777 34.4369 5.25969 33.0223V33.0223C5.26837 31.9907 5.04344 31.1339 4.745 31.1314C4.44655 31.1289 4.20723 31.9818 4.19855 33.0134L4.11764 42.6226C4.11517 42.9156 4.35072 43.1552 4.64374 43.1576V43.1576C4.93677 43.1601 5.17631 42.9245 5.17878 42.6315L5.18027 42.4547C5.18356 42.064 5.50295 41.7499 5.89365 41.7532L16.7978 41.845C18.3943 41.8584 19.6775 43.1635 19.6641 44.76V44.76C19.6569 45.6179 19.269 46.4282 18.6053 46.9719L13.7873 50.9187C12.9899 51.5719 12.5238 52.5456 12.5151 53.5764L12.5086 54.348C12.505 54.7751 12.6712 55.1861 12.9707 55.4906V55.4906C13.2701 55.7952 13.6782 55.9683 14.1053 55.9718L19.2156 56.0149C19.411 56.0165 19.5706 55.8595 19.5723 55.6641V55.6641C19.5739 55.4688 19.7336 55.3118 19.929 55.3134L20.2827 55.3164C20.6734 55.3197 20.9928 55.0056 20.9961 54.6149L21.0248 51.203C21.0254 51.1338 21.0819 51.0783 21.1511 51.0788V51.0788C21.2142 51.0794 21.2671 51.1268 21.2744 51.1896L21.7032 54.8712C21.8278 55.9418 22.7301 56.7519 23.8079 56.761V56.761C24.8856 56.7701 25.8014 55.9752 25.9441 54.907L26.4348 51.2331C26.4432 51.1704 26.4968 51.1239 26.56 51.1244V51.1244C26.6292 51.125 26.6848 51.1815 26.6842 51.2507L26.6555 54.6626C26.6522 55.0533 26.9663 55.3727 27.357 55.3759L27.7107 55.3789C27.906 55.3806 28.063 55.5403 28.0614 55.7356V55.7356C28.0598 55.931 28.2168 56.0907 28.4121 56.0923L33.5224 56.1353C33.9495 56.1389 34.3605 55.9727 34.665 55.6733V55.6733C34.9695 55.3739 35.1426 54.9657 35.1462 54.5386L35.1527 53.7669C35.1614 52.7361 34.7118 51.7547 33.9254 51.0881L29.1746 47.0609C28.5202 46.5061 28.146 45.6894 28.1532 44.8315V44.8315C28.1667 43.235 29.4717 41.9517 31.0682 41.9652L41.9723 42.057C42.363 42.0603 42.6771 42.3797 42.6738 42.7704L42.6723 42.9472C42.6699 43.2402 42.9054 43.4798 43.1984 43.4822V43.4822C43.4915 43.4847 43.731 43.2492 43.7335 42.9561L43.8144 33.3469C43.8231 32.3152 43.5981 31.4585 43.2997 31.456C43.0012 31.4535 42.7619 32.3064 42.7532 33.338V33.338C42.7413 34.7525 41.1028 35.5296 39.9999 34.6437L30.963 27.385C30.1802 26.7562 29.7284 25.8036 29.7368 24.7995V24.7995C29.7398 24.4469 29.6859 24.0961 29.5772 23.7606L28.8848 21.6236C28.5373 20.5509 28.2965 19.4465 28.1661 18.3265L27.0426 8.67991C25.2277 0.174921 24.7634 0.171013 24.2844 0.166979C23.8054 0.162946 23.3412 0.159037 21.3832 8.63226Z" fill="#232323"/>
</g>
<defs>
<filter id="filter0_d_745_1172" x="0.117676" y="0.166992" width="47.697" height="64.5942" filterUnits="userSpaceOnUse" color-interpolation-filters="sRGB">
<feFlood flood-opacity="0" result="BackgroundImageFix"/>
<feColorMatrix in="SourceAlpha" type="matrix" values="0 0 0 0 0 0 0 0 0 0 0 0 0 0 0 0 0 0 127 0" result="hardAlpha"/>
<feOffset dy="4"/>
<feGaussianBlur stdDeviation="2"/>
<feComposite in2="hardAlpha" operator="out"/>
<feColorMatrix type="matrix" values="0 0 0 0 0 0 0 0 0 0 0 0 0 0 0 0 0 0 0.25 0"/>
<feBlend mode="normal" in2="BackgroundImageFix" result="effect1_dropShadow_745_1172"/>
<feBlend mode="normal" in="SourceGraphic" in2="effect1_dropShadow_745_1172" result="shape"/>
</filter>
</defs>
</svg>
